/* XPM */
static char *folder_videos[] = {
/* columns rows colors chars-per-pixel */
"24 24 27 1 ",
"  c #757D81",
". c #788184",
"X c #7B8488",
"o c #828B8F",
"O c #879094",
"+ c #8F979A",
"@ c #909799",
"# c #90969A",
"$ c #91969A",
"% c #91989A",
"& c #92999D",
"* c #969B9F",
"= c #99A1A3",
"- c #99A0A4",
"; c #9BA2A5",
": c #9DA4A7",
"> c #9EA4A8",
", c #A0A7AA",
"< c #A1A8AB",
"1 c #A3AAAD",
"2 c #A3AAAE",
"3 c #A6ACAF",
"4 c #AAB1B3",
"5 c #B8BDC0",
"6 c #E8EAEA",
"7 c white",
"8 c None",
/* pixels */
"888888888888888888888888",
"888888888888888888888888",
"888888888888888888888888",
"88=;;;;;;;;;888888888888",
"88Ooooooooo+&88888888888",
"88oooooooooX*44444444188",
"88.        #3<<<1,,,1188",
"88>444444443<<<<,,11,,88",
"881<<<<<<<<<<<<<<<<<<<88",
"88<<<<<<<<<<<<<<<<<<<<88",
"88<<<<<<<<<<<<<<<<<<<<88",
"88<<<<<<<<<<<<<<<<<<<<88",
"88<<<<<<<<<<<<<<<<<<<<88",
"88<<<<<<<<<<777777<<<<88",
"88<<<<<<<<<<77777756<<88",
"88<<<<<<<<<<77777777<<88",
"88<<<<<<<<<<77777756<<88",
"88<<<<<<<<<<777777<<<<88",
"88<<<<<<<<<<<<<<<<<<<,88",
"88:<<<<<<<<<<<<<<<<<<:88",
"88#%%%%%%%%%%%%%%%%%%#88",
"888888888888888888888888",
"888888888888888888888888",
"888888888888888888888888"
};
