/* XPM */
static char *folder_saved_search[] = {
/* columns rows colors chars-per-pixel */
"24 24 24 1 ",
"  c #A98F6F",
". c #AD9272",
"X c #B19675",
"o c #BB9E7B",
"O c #B39D83",
"+ c #B39E84",
"@ c #BEA281",
"# c #B9A285",
"$ c #BDA78B",
"% c #BFA98D",
"& c #C2A888",
"* c #C1AA8E",
"= c #C3AC91",
"- c #C6AD90",
"; c #C6AE90",
": c #C6AE91",
"> c #C7B092",
", c #C7B094",
"< c #C8B194",
"1 c #C9B195",
"2 c #C8B196",
"3 c #C9B297",
"4 c #CCB69C",
"5 c None",
/* pixels */
"555555555555555555555555",
"555555555555555555555555",
"555555555555555555555555",
"55,111111111555555555555",
"55@oooooooo&%55555555555",
"55ooooooooo.$44444444155",
"55.     . .#1:::::::>>55",
"55=444444443::::::::::55",
"55::::::::::::::::::::55",
"55::::::::::::::::::>*55",
"55::::::::::::::::::>-55",
"55::::::::::::::::::>-55",
"55::::::::::::::>--:>*55",
"55::::::::::::::--::>:55",
"55::::::::::::::->*>>-55",
"55::::::::::::::>>>->-55",
"55:::::::::::::::::::*55",
"55::::::::::::::::::::55",
"55::::::::::::::::::>>55",
"55*:::::::::::::::::>*55",
"55+O++OOOOOOOOOOOOOOOO55",
"555555555555555555555555",
"555555555555555555555555",
"555555555555555555555555"
};
