/* XPM */
static char *folder_publicshare[] = {
/* columns rows colors chars-per-pixel */
"24 24 34 1 ",
"  c #757D81",
". c #788184",
"X c #7B8488",
"o c #828B8F",
"O c #879094",
"+ c #8F979A",
"@ c #909799",
"# c #90969A",
"$ c #91969A",
"% c #91989A",
"& c #92999D",
"* c #969B9F",
"= c #99A1A3",
"- c #99A0A4",
"; c #9BA2A5",
": c #9DA4A7",
"> c #9EA4A8",
", c #A0A7AA",
"< c #A1A8AB",
"1 c #A3AAAD",
"2 c #A3AAAE",
"3 c #A6ACAF",
"4 c #AAB1B3",
"5 c #C2C7C9",
"6 c #D2D5D6",
"7 c #D2D5D7",
"8 c #D2D6D7",
"9 c #F3F4F4",
"0 c #FAFBFB",
"q c #FBFBFB",
"w c gray99",
"e c #FEFEFE",
"r c white",
"t c None",
/* pixels */
"tttttttttttttttttttttttt",
"tttttttttttttttttttttttt",
"tttttttttttttttttttttttt",
"tt=;;;;;;;;;tttttttttttt",
"ttOoooooooo+&ttttttttttt",
"ttoooooooooX*44444444<tt",
"tt.        #3<<<<<<<<2tt",
"tt>444444443<<<<<<<<<<tt",
"tt2<<<<<<<<<<<<<<<<<<<tt",
"tt<<<<<<<<<<<<<<<<<<<<tt",
"tt<<<<<<<<<<<<<<<<<<<<tt",
"tt<<<<<<<<<<<<<<<<<<<<tt",
"tt<<<<<<<<<<<<<8q8,<<<tt",
"tt<<<<<<<<<<<<<qrq<<<<tt",
"tt<<<<<<<<<<<<<8q8<<<<tt",
"tt<<<<<<<<<<<<<,<<<<<<tt",
"tt<<<<<<<<<<<<59r95<<<tt",
"tt<<<<<<<<<<<<rrrrw<<<tt",
"tt<<<<<<<<<<<<<<><<<<,tt",
"tt:<<<<<<<<<<<<<<<<<<:tt",
"tt#%%%%%%%%%%%%%%%%%%#tt",
"tttttttttttttttttttttttt",
"tttttttttttttttttttttttt",
"tttttttttttttttttttttttt"
};
