/* XPM */
static char *workspace_switcher_top_left[] = {
/* columns rows colors chars-per-pixel */
"24 24 16 1 ",
"  c #3B8FB6",
". c #3B8FB7",
"X c #3C92BA",
"o c #45A5D3",
"O c #44A6D2",
"+ c #4AB3E4",
"@ c #4BB3E4",
"# c #5BB9E6",
"$ c #6CC1E8",
"% c #6EC2E9",
"& c #6EC3EA",
"* c #DDE4E7",
"= c #E7E7E7",
"- c #EAEAEA",
"; c gray92",
": c None",
/* pixels */
"::::::::::::::::::::::::",
"::::::::::::::::::::::::",
"::::::::::::::::::::::::",
":;;;;;;;;;;;::::::::::::",
":;;;;;;;;;;;%%%%%%%%%%::",
":;;;;;;;;;;;+++++++++#::",
":;;;;;;;;;;;++++++++++::",
":;;;;;;;;;;;++++++++++::",
":;;;;;;;;;;;++++++++++::",
":;;;;;;;;;;;++++++++++::",
":;;;;;;;;;;;++++++++++::",
":=;;;;;;;;;*++++++++++::",
"::         X++++++++++::",
"::++++++++++++++++++++::",
"::++++++++++++++++++++::",
"::++++++++++++++++++++::",
"::++++++++++++++++++++::",
"::++++++++++++++++++++::",
"::++++++++++++++++++++::",
"::o++++++++++++++++++O::",
"::::::::::::::::::::::::",
"::::::::::::::::::::::::",
"::::::::::::::::::::::::",
"::::::::::::::::::::::::"
};
