/* XPM */
static char *workspace_switcher_top_left_14[] = {
/* columns rows colors chars-per-pixel */
"24 24 5 1 ",
"  c gray80",
". c #D0D0D0",
"X c #D5D5D5",
"o c white",
"O c None",
/* pixels */
"OOOOOOOOOOOOOOOOOOOOOOOO",
"OOOOOOOOOOOOOOOOOOOOOOOO",
"OOOooooooooooooooooooOOO",
"OOO.XXXXXXXXXXXXXXXX OOO",
"OOO XXXXXXXXXXXXXXXX OOO",
"OOO XXXXXXXXXXXXXXXX OOO",
"OOOOXXXXXXXXXXXXXXXXOOOO",
"OOOOXXXXXXXXXXXXXXXXOOOO",
"OOOOXXXXXXXXXXXXXXXXOOOO",
"OOOOXXXXXXXXXXXXXXXXOOOO",
"OOOOXXXXXXXXXXXXXXXXOOOO",
"OOOOXXXXXXXXXXXXXXXXOOOO",
"OOOOXXXXXXXXXXXXXXXXOOOO",
"OOOOXXXXXXXXXXXXXXXXOOOO",
"OOOOXXXXXXXXXXXXXXXXOOOO",
"OOOOXXXXXXXXXXXXXXXXOOOO",
"OOOOXXXXXXXXXXXXXXXXOOOO",
"OOOOXXXXXXXXXXXXXXXXOOOO",
"OOOOXXXXXXXXXXXXXXXXOOOO",
"OOOOXXXXXXXXXXXXXXXXOOOO",
"OOOO.XXXXXXXXXXXXXXXOOOO",
"OOOOOXXXXXXXXXXXXX.OOOOO",
"OOOOOOOOOOOOOOOOOOOOOOOO",
"OOOOOOOOOOOOOOOOOOOOOOOO"
};
