/* XPM */
static char *workspace_switcher_top_left_17[] = {
/* columns rows colors chars-per-pixel */
"24 24 13 1 ",
"  c #3B8FB6",
". c #3C92BA",
"X c #45A5D3",
"o c #4AB3E4",
"O c #4BB3E4",
"+ c #5BBAE7",
"@ c #6AC0E9",
"# c #6EC2E9",
"$ c #6EC3EA",
"% c #DDE4E7",
"& c #E7E7E7",
"* c gray92",
"= c None",
/* pixels */
"========================",
"========================",
"========================",
"============***********=",
"==@$$$@$$$$@***********=",
"==+OOOooOOOO***********=",
"==OOOoooOOOO***********=",
"==OOOOooooOO***********=",
"==oooooooooo***********=",
"==oooooooooo***********=",
"==oooooooooo***********=",
"==oooooooooo%*********&=",
"==OOoooooooo.         ==",
"==OOooooooooooooooooOO==",
"==OOooooooooooooooooOO==",
"==OOoooooooooooooooooO==",
"==OOOooooooooooooooooo==",
"==OOOOooOOoooooooooooo==",
"==OOooooOOOOooooooooOO==",
"==XOooooOOOOooooooooOX==",
"========================",
"========================",
"========================",
"========================"
};
