/* XPM */
static char *workspace_switcher_top_left_1[] = {
/* columns rows colors chars-per-pixel */
"24 24 27 1 ",
"  c #757D81",
". c #788184",
"X c #7B8488",
"o c #828B8F",
"O c #879094",
"+ c #8F979A",
"@ c #90969A",
"# c #91989A",
"$ c #92999D",
"% c #969B9F",
"& c #99A1A3",
"* c #9BA2A5",
"= c #9DA4A7",
"- c #9EA4A8",
"; c #A0A7AA",
": c #A1A8AB",
"> c #A3AAAD",
", c #A6ACAF",
"< c #A8AFB2",
"1 c #AAB1B3",
"2 c #BCC1C3",
"3 c #BDC2C4",
"4 c #DDE0E1",
"5 c #F3F4F4",
"6 c #F4F5F5",
"7 c white",
"8 c None",
/* pixels */
"888888888888888888888888",
"888888888888888888888888",
"888888888888888888888888",
"88&*********888888888888",
"88Ooooooooo+$88888888888",
"88oooooooooX%11111111>88",
"88.        @,:::>;;;>>88",
"88-11111111,::::;;>>;;88",
"88>:::::::::::::::::::88",
"88::::::::::::::::::::88",
"88:::::::::::::77:::::88",
"88:::::::::::::77:::::88",
"88:::::::::::::77:::::88",
"88:::::::::::,5776,:::88",
"88::::::::::::2773::::88",
"88:::::::::::::44:::::88",
"88:::::::::::::<<:::::88",
"88:::::::::::777777:::88",
"88:::::::::::::::::::;88",
"88=::::::::::::::::::=88",
"88@##################@88",
"888888888888888888888888",
"888888888888888888888888",
"888888888888888888888888"
};
