/* XPM */
static char *workspace_switcher_top_left_2[] = {
/* columns rows colors chars-per-pixel */
"24 24 24 1 ",
"  c #757D81",
". c #788184",
"X c #7B8488",
"o c #828B8F",
"O c #879094",
"+ c #8F979A",
"@ c #90969A",
"# c #91989A",
"$ c #92999D",
"% c #969B9F",
"& c #99A1A3",
"* c #9BA2A5",
"= c #9DA4A7",
"- c #9EA4A8",
"; c #A0A7AA",
": c #A1A8AB",
"> c #A3AAAD",
", c #A6ACAF",
"< c #AAB1B3",
"1 c #D2D5D6",
"2 c #D2D6D7",
"3 c #FBFBFB",
"4 c white",
"5 c None",
/* pixels */
"555555555555555555555555",
"555555555555555555555555",
"555555555555555555555555",
"55&*********555555555555",
"55Ooooooooo+$55555555555",
"55oooooooooX%<<<<<<<<>55",
"55.        @,:::>;;;>>55",
"55-<<<<<<<<,::::;;>>;;55",
"55>:::::::::::::::::::55",
"55::::::::::::::::::::55",
"55::::::::::::::::::::55",
"55:::::::::::::44444::55",
"55:::::::::::::44444::55",
"55:::::::::::::4:::4::55",
"55:::::::::::::4:::4::55",
"55:::::::::::234:234::55",
"55:::::::::::344;344;:55",
"55::::::::::;232;232;;55",
"55::::::::::>>;;;::::;55",
"55=:::::::::;;;>;::::-55",
"55@##################@55",
"555555555555555555555555",
"555555555555555555555555",
"555555555555555555555555"
};
