/* XPM */
static char *workspace_switcher_top_left_13[] = {
/* columns rows colors chars-per-pixel */
"24 24 21 1 ",
"  c #757D81",
". c #788184",
"X c #7B8488",
"o c #828B8F",
"O c #879094",
"+ c #8F979A",
"@ c #90969A",
"# c #91989A",
"$ c #92999D",
"% c #969B9F",
"& c #99A1A3",
"* c #9BA2A5",
"= c #9DA4A7",
"- c #9EA4A8",
"; c #A0A7AA",
": c #A1A8AB",
"> c #A3AAAD",
", c #A3AAAE",
"< c #A6ACAF",
"1 c #AAB1B3",
"2 c None",
/* pixels */
"222222222222222222222222",
"222222222222222222222222",
"222222222222222222222222",
"22&*********222222222222",
"22Ooooooooo+$22222222222",
"22oooooooooX%11111111>22",
"22.        @<:::::::>>22",
"22-11111111<:::::::::;22",
"22>:::::::::::::::::::22",
"22::::::::::::::::::::22",
"22::::::::::::::::::::22",
"22::::::::::::::::::::22",
"22::::::::::::::::::::22",
"22::::::::::::::::::::22",
"22::::::::::::::::::::22",
"22::::::::::::::::::::22",
"22::::::::::::::::::::22",
"22::::::::::::::::::::22",
"22:::::::::::::::::::;22",
"22=::::::::::::::::::=22",
"22@##################@22",
"222222222222222222222222",
"222222222222222222222222",
"222222222222222222222222"
};
