/* XPM */
static char *workspace_switcher_top_left_6[] = {
/* columns rows colors chars-per-pixel */
"24 24 20 1 ",
"  c #A98F6F",
". c #AD9272",
"X c #BB9E7B",
"o c #B39D83",
"O c #B39E84",
"+ c #BEA281",
"@ c #B9A285",
"# c #BDA78B",
"$ c #BFA98D",
"% c #C2A888",
"& c #C1AA8E",
"* c #C3AC91",
"= c #C6AD90",
"- c #C6AE91",
"; c #C7B092",
": c #C7B094",
"> c #C9B195",
", c #C9B297",
"< c #CCB69C",
"1 c None",
/* pixels */
"111111111111111111111111",
"111111111111111111111111",
"111111111111111111111111",
"11:>>>>>>>>>111111111111",
"11+XXXXXXXX%$11111111111",
"11XXXXXXXXX.#<<<<<<<<>11",
"11.     ...@>---==;=>>11",
"11*<<<<<<<<>----;==;;&11",
"11--------------------11",
"11------------------>&11",
"11------------------;=11",
"11------------------;&11",
"11-------------->==-;&11",
"11--------------&---;-11",
"11---------------;%>;-11",
"11--------------;;;=>&11",
"11-------------------&11",
"11--------------------11",
"11------------------;;11",
"11&-----------------;&11",
"11OoOOoooooooooooooooo11",
"111111111111111111111111",
"111111111111111111111111",
"111111111111111111111111"
};
