/* XPM */
static char *workspace_switcher_top_left_15[] = {
/* columns rows colors chars-per-pixel */
"24 24 11 1 ",
"  c #44A6D2",
". c #4AB3E4",
"X c #4BB3E4",
"o c #5BBAE7",
"O c #6AC0E9",
"+ c #6CC1E8",
"@ c #6EC3EA",
"# c #E4E4E4",
"$ c #E7E7E7",
"% c gray92",
"& c None",
/* pixels */
"&&&&&&&&&&&&&&&&&&&&&&&&",
"&&&&&&&&&&&&&&&&&&&&&&&&",
"&&&&&&&&&&&&&&&&&&&&&&&&",
"&&&&&&&&&&&&&&&&&&&&&&&&",
"&&O@@@OO+@+@@@@OO@@@@@&&",
"&&oXXX..XXX.XXXX....Xo&&",
"&&XXX...X.....XX..XXXX&&",
"&&XXXX........XX.XXXXX&&",
"&&....................&&",
"&&....................&&",
"&&....................&&",
"&&....XX..............&&",
"&%%%%%%%%%%#........XX&&",
"&%%%%%%%%%%%........XX&&",
"&%%%%%%%%%%%.......XXX&&",
"&%%%%%%%%%%%.......XXX&&",
"&%%%%%%%%%%%XX........&&",
"&%%%%%%%%%%%XX........&&",
"&%%%%%%%%%%%XXX.....XX&&",
"&%%%%%%%%%%%XXX.....X &&",
"&$%%%%%%%%%#&&&&&&&&&&&&",
"&&&&&&&&&&&&&&&&&&&&&&&&",
"&&&&&&&&&&&&&&&&&&&&&&&&",
"&&&&&&&&&&&&&&&&&&&&&&&&"
};
