/* XPM */
static char * calculator24x24_xpm[] = {
/* columns rows colors chars-per-pixel */
"24 24 7 1",
" 	c None",
".	c #625b40",
"X	c #B2A87E",
"o	c #578257",
"O	c #26524d",
"+	c #6d681e",
"@	c #7a2626",
/* pixels */
"                        ",
"   ..................   ",
"  .XXXXXXXXXXXXXXXXXX.  ",
" .XXXXXXXXXXXXXXXXXXXX. ",
" .XXXXXoXXXXXXXXOOXXXX. ",
" .XXXoooooXXXXXXOOXXXX. ",
" .XXXoooooXXXXXXOOXXXX. ",
" .XXoooooooXXOOOOOOOOX. ",
" .XXXoooooXXXOOOOOOOOX. ",
" .XXXoooooXXXXXXOOXXXX. ",
" .XXXXXoXXXXXXXXOOXXXX. ",
" .XXXXXXXXXXXXXXOOXXXX. ",
" .XXXXXXXXXXXXXXXXXXXX. ",
" .XXXXXXXXXXXXXXXXXXXX. ",
" .XXXXXXXXXXXXXXXXX+XX. ",
" .XXXXXXXXXXXXXXXX+XXX. ",
" .XXXXXXXXXXXXXXX+XXXX. ",
" .XX@@@@@@@@XXXX+XXXXX. ",
" .XX@@@@@@@@XXX+XXXXXX. ",
" .XXXXXXXXXXXX+XXXXXXX. ",
" .XXXXXXXXXXXXXXXXXXXX. ",
"  .XXXXXXXXXXXXXXXXXX.  ",
"   ..................   ",
"                        "};
