/* XPM */
static char * clipboard24x24_xpm[] = {
/* columns rows colors chars-per-pixel */
"24 24 6 1",
" 	c None",
".	c #5e483a",
"X	c #B2A87E",
"o	c #7a2626",
"O	c #26524d",
"+	c #578257",
/* pixels */
"  ....................  ",
" .XXXXXXXXXXXXXXXXXXXX. ",
".XXXXXXXXXXooXXXXXXXXXX.",
".XXXXXXXXXoXXoXXXXXXXXX.",
".XXXXXXooooooooooXXXXXX.",
".XXXXooXXXOOOOXXXooXXXX.",
".XXXXooooo....oooooXXXX.",
".XXXXOXXXXXXXXXXXXOXXXX.",
".XXXXOXo+XoX+XOXXXOXXXX.",
".XXXXOX+XXXXXXXXXXOXXXX.",
".XXXXOXXXOOOOOOXXXOXXXX.",
".XXXXOXXXXXXXXXXXXOXXXX.",
".XXXXOXXXooooooXXXOXXXX.",
".XXXXOXXXXXXXXXXXXOXXXX.",
".XXXXOXXXOOOOOOXXXOXXXX.",
".XXXXOXXXXXXXXXXXXOXXXX.",
".XXXXOXXXooooooXXXOXXXX.",
".XXXXOXXXXXXXXXXXXOXXXX.",
".XXXXOXXXOOOOOOXXXOXXXX.",
".XXXXOXXXXXXXXXXXXOXXXX.",
".XXXXoXXXXXXXXXXXXoXXXX.",
".XXXXooooooooooooooXXXX.",
" .XXXXXXXXXXXXXXXXXXXX. ",
"  ....................  "};
