/* XPM */
static char * crunchbang24x24_xpm[] = {
/* columns rows colors chars-per-pixel */
"24 24 6 1",
" 	c None",
".	c #5e483a",
"X	c #B2A87E",
"o	c #578257",
"O	c #26524d",
"+	c #7a2626",
/* pixels */
"  ....................  ",
" .XXXXXXXXXXXXXXXXXXXX. ",
".XXXXXXXXXXXXXXXXXXXXXX.",
".XXXXoOOXXXOO+XXXXXoO+X.",
".XXXXoOOXXXOO+XXXXXoO+X.",
".XXXXoOOXXXOO+XXXXXoO+X.",
".XXXXoOOXXXOO+XXXXXoO+X.",
".XXXXoOOXXXOO+XXXXXoO+X.",
".oooooOOOOOOO+++++XoO+X.",
".oooooOOOOOOO+++++XoO+X.",
".oooooOOOOOOO+++++XoO+X.",
".XXXXoOOXXXOO+XXXXXoO+X.",
".XXXXoOOXXXOO+XXXXXoO+X.",
".XXXXoOOXXXOO+XXXXXoO+X.",
".oooooOOOOOOO+++++XoO+X.",
".oooooOOOOOOO+++++XoO+X.",
".oooooOOOOOOO+++++XoO+X.",
".XXXXoOOXXXOO+XXXXXXXXX.",
".XXXXoOOXXXOO+XXXXXXXXX.",
".XXXXoOOXXXOO+XXXXXoO+X.",
".XXXXoOOXXXOO+XXXXXoO+X.",
".XXXXoOOXXXOO+XXXXXoO+X.",
" .XXXXXXXXXXXXXXXXXXXX. ",
"  ....................  "};
