/* XPM */
static char * film24x24_xpm[] = {
/* columns rows colors chars-per-pixel */
"24 24 6 1",
" 	c None",
".	c #5e483a",
"X	c #B2A87E",
"o	c #100d02",
"O	c #26524d",
"+	c #7a2626",
/* pixels */
"  ....................  ",
" .XXXXXXXXXXXXXXXXXXXX. ",
".XXXXXXXXXXXXXXXXXXXXXX.",
".XXooXOOOOOOOOOOOOXooXX.",
".XXooXOOOOOOOOOOOOXooXX.",
".XXXXXOOOOOOOOOOOOXXXXX.",
".XXOOXOOOOOOOOOOOOX++XX.",
".XXOOXOOOOOOOOOOOOX++XX.",
".XXXXXOOOOOOOOOOOOXXXXX.",
".XX++XOOOOOOOOOOOOXOOXX.",
".XX++XOOOOOOOOOOOOXOOXX.",
".XXXXXXXXXXXXXXXXXXXXXX.",
".XXOOXXXXXXXXXXXXXX++XX.",
".XXOOX++++++++++++X++XX.",
".XXXXX++++++++++++XXXXX.",
".XX++X++++++++++++XOOXX.",
".XX++X++++++++++++XOOXX.",
".XXXXX++++++++++++XXXXX.",
".XXooX++++++++++++XooXX.",
".XXooX++++++++++++XooXX.",
".XXooX++++++++++++XooXX.",
".XXXXXXXXXXXXXXXXXXXXXX.",
" .XXXXXXXXXXXXXXXXXXXX. ",
"  ....................  "};
