/* XPM */
static char * headphone24x24_xpm[] = {
/* columns rows colors chars-per-pixel */
"24 24 5 1",
" 	c None",
".	c #5e483a",
"X	c #B2A87E",
"o	c #26524d",
"O	c #26524e",
/* pixels */
"  ....................  ",
" .XXXXXXXXXXXXXXXXXXXX. ",
".XXXXXXXXXXXXXXXXXXXXXX.",
".XXXXXXXoooooooooXXXXXX.",
".XXXXXXoooooooooooXXXXX.",
".XXXXXoooooooooooooXXXX.",
".XXXXoooXXXXXXXXXoooXXX.",
".XXXoooXXXXXXXXXXXoooXX.",
".XXXooXXXXXXXXXXXXXooXX.",
".XXoooXXXXXXXXXXXXXoooX.",
".XXoooXXXXXXXXXXXXXoooX.",
".XXooXXXXXXXXXXXXXXXooX.",
".XXooXoooXXXXXXXoooXooX.",
".XXooooooXXXXXXXooooooX.",
".XXoOooooXXXXXXXooooooX.",
".XXooooooXXXXXXXooooooX.",
".XXooOoooXXXXXXXooooooX.",
".XXXXooooXXXXXXXooooooX.",
".XXXXooooXXXXXXXooooXXX.",
".XXXXXoooXXXXXXXoooXXXX.",
".XXXXXXXXXXXXXXXXXXXXXX.",
".XXXXXXXXXXXXXXXXXXXXXX.",
"  XXXXXXXXXXXXXXXXXXXX. ",
"  ....................  "};
