/* XPM */
static char * internet24x24_xpm[] = {
/* columns rows colors chars-per-pixel */
"24 24 5 1",
" 	c None",
".	c #5e483a",
"X	c #B2A87E",
"o	c #26524d",
"O	c #7a2626",
/* pixels */
"  ....................  ",
" .XXXXXXXXXXXXXXXXXXXX. ",
".XXXXXXXXXXXXXXXXXXXXXX.",
".XXXXXXXoooXoooXXXXXXXX.",
".XXXXXXXXXXXXXXXXXXXXXX.",
".XXXoooXoooXOOOXoooXXXX.",
".XXXXXXXoXXXXXOXXXXXXXX.",
".XXoooXXoooXOOOXXoooXXX.",
".XXoooXXXXXXXXXXXoooXXX.",
".XXXXXXXoooXoooXXXXXXXX.",
".XOOOOOXXXXXXXXXoooooXX.",
".XOOOOOXoooooooXoooooXX.",
".XXXXXXXoooooooXXXXXXXX.",
".XoooXXXXXXXXXXXXOOOXXX.",
".XoooXooooXXooooXOOOXXX.",
".XoooXooooXXooooXOOOXXX.",
".XXXXXXXXXXXXXXXXXXXXXX.",
".XXXoooXXOOOOXXXoooXXXX.",
".XXXoooXXXXXXXXXoooXXXX.",
".XXXXXXXoooXOOOXXXXXXXX.",
".XXXXXXXoooXOOOXXXXXXXX.",
".XXXXXXXXXXXXXXXXXXXXXX.",
" .XXXXXXXXXXXXXXXXXXXX. ",
"  ....................  "};
