/* XPM */
static char * keyboard24x24_xpm[] = {
/* columns rows colors chars-per-pixel */
"24 24 4 1",
" 	c None",
".	c #5e483a",
"X	c #B2A87E",
"o	c #26524d",
/* pixels */
"  ....................  ",
" .XXXXXXXXXXXXXXXXXXXX. ",
".XXXXXXXXXXXXXXXXXXXXXX.",
".XXXXXXXXXXXXXXXXXXXXXX.",
".XXXXXXXXXXXXXXXXXXXXXX.",
".XXXXXXXXXXXXXXXXXXXXXX.",
".XXXXXXXXXXXXXXXXXXXXXX.",
".XooooooooooooooooooooX.",
".XoXXoXoXXoXXoXXoXoXXoX.",
".XoXXoXoXXoXXoXXoXoXXoX.",
".XooooooooooooooooooooX.",
".XoXXXXoXXoXXoXXoXXXXoX.",
".XoXXXXoXXoXXoXXoXXXXoX.",
".XooooooooooooooooooooX.",
".XoXXoXXoXXXXXXoXXoXXoX.",
".XoXXoXXoXXXXXXoXXoXXoX.",
".XooooooooooooooooooooX.",
".XXXXXXXXXXXXXXXXXXXXXX.",
".XXXXXXXXXXXXXXXXXXXXXX.",
".XXXXXXXXXXXXXXXXXXXXXX.",
".XXXXXXXXXXXXXXXXXXXXXX.",
".XXXXXXXXXXXXXXXXXXXXXX.",
" .XXXXXXXXXXXXXXXXXXXX. ",
"  ....................  "};
