#define libreoffice-base24x24_width 24
#define libreoffice-base24x24_height 24
static unsigned char libreoffice-base24x24_bits[] = {
   0xfc, 0xff, 0x3f, 0xfe, 0xff, 0x7f, 0xff, 0xff, 0xff, 0xff, 0xff, 0xff,
   0xff, 0xff, 0xff, 0xff, 0x80, 0xff, 0x7f, 0x3e, 0xff, 0x3f, 0x41, 0xfe,
   0x1f, 0x41, 0xfc, 0x1f, 0x41, 0xfc, 0x1f, 0x22, 0xfc, 0x1f, 0x3e, 0xfc,
   0x1f, 0x22, 0xfc, 0x1f, 0x41, 0xfc, 0x1f, 0x41, 0xfc, 0x3f, 0x41, 0xfe,
   0x7f, 0x3e, 0xff, 0xff, 0x80, 0xff, 0xff, 0xff, 0xff, 0xff, 0xff, 0xff,
   0xff, 0xff, 0xff, 0xff, 0xff, 0xff, 0xfe, 0xff, 0x7f, 0xfc, 0xff, 0x3f};
