#define libreoffice-impress24x24_width 24
#define libreoffice-impress24x24_height 24
static unsigned char libreoffice-impress24x24_bits[] = {
   0xfc, 0xff, 0x3f, 0x02, 0x00, 0x40, 0x01, 0x00, 0x80, 0x01, 0x00, 0x80,
   0xfd, 0x07, 0x80, 0x05, 0xe4, 0xbf, 0x05, 0x24, 0xa0, 0xfd, 0x27, 0xa0,
   0xfd, 0xe7, 0xbf, 0xfd, 0xe7, 0xbf, 0xfd, 0xe7, 0xbf, 0x01, 0xe0, 0xbf,
   0x01, 0x00, 0x80, 0x81, 0xff, 0x83, 0x81, 0x00, 0x82, 0x81, 0x00, 0x82,
   0x81, 0xff, 0x83, 0x81, 0xff, 0x83, 0x81, 0xff, 0x83, 0x01, 0x00, 0x80,
   0x61, 0x66, 0x86, 0x61, 0x66, 0x86, 0x02, 0x00, 0x40, 0xfc, 0xff, 0x3f};
