#define libreoffice-draw24x24_width 24
#define libreoffice-draw24x24_height 24
static unsigned char libreoffice-draw24x24_bits[] = {
   0xfc, 0xff, 0x3f, 0x02, 0x38, 0x40, 0x01, 0x7c, 0x80, 0x01, 0x7c, 0x80,
   0x81, 0x3b, 0x80, 0xc1, 0x07, 0x80, 0xc1, 0x07, 0x80, 0xc1, 0x07, 0x80,
   0x81, 0x03, 0x80, 0xe1, 0x00, 0x80, 0xf1, 0x01, 0x80, 0xf1, 0x01, 0x80,
   0xf1, 0x01, 0x80, 0xe1, 0x00, 0x80, 0x81, 0x03, 0x80, 0xc1, 0x07, 0x80,
   0xe1, 0x8f, 0x83, 0xe1, 0xcf, 0x87, 0xe1, 0xef, 0x8f, 0xc1, 0xe7, 0x8f,
   0x81, 0xe3, 0x8f, 0x01, 0xc0, 0x87, 0x02, 0x80, 0x43, 0xfc, 0xff, 0x3f};
