/* XPM */
static char * libreoffice_draw24x24_xpm[] = {
/* columns rows colors chars-per-pixel */
"24 24 6 1",
" 	c None",
".	c #5e483a",
"X	c #B2A87E",
"o	c #578257",
"O	c #26524d",
"+	c #7a2626",
/* pixels */
"  ....................  ",
" .XXXXXXXXX...XXXXXXXX. ",
".XXXXXXXXX.....XXXXXXXX.",
".XXXXXXXXX.....XXXXXXXX.",
".XXXXXXoooX...XXXXXXXXX.",
".XXXXXoooooXXXXXXXXXXXX.",
".XXXXXoooooXXXXXXXXXXXX.",
".XXXXXoooooXXXXXXXXXXXX.",
".XXXXXXoooXXXXXXXXXXXXX.",
".XXXXOOOXXXXXXXXXXXXXXX.",
".XXXOOOOOXXXXXXXXXXXXXX.",
".XXXOOOOOXXXXXXXXXXXXXX.",
".XXXOOOOOXXXXXXXXXXXXXX.",
".XXXXOOOXXXXXXXXXXXXXXX.",
".XXXXXX+++XXXXXXXXXXXXX.",
".XXXXX+++++XXXXXXXXXXXX.",
".XXXX+++++++XXX...XXXXX.",
".XXXX+++++++XX.....XXXX.",
".XXXX+++++++X.......XXX.",
".XXXXX+++++XX.......XXX.",
".XXXXXX+++XXX.......XXX.",
".XXXXXXXXXXXXX.....XXXX.",
" .XXXXXXXXXXXXX...XXXX. ",
"  ....................  "};
