#define mail24x24_width 24
#define mail24x24_height 24
static unsigned char mail24x24_bits[] = {
   0x00, 0x00, 0x00, 0x00, 0x00, 0x00, 0x00, 0x00, 0x00, 0x00, 0x00, 0x00,
   0xf8, 0xff, 0x1f, 0x18, 0x00, 0x18, 0x28, 0x00, 0x14, 0x48, 0x00, 0x12,
   0x88, 0x00, 0x11, 0x38, 0x81, 0x1c, 0x08, 0x42, 0x10, 0x08, 0x24, 0x10,
   0x08, 0x18, 0x10, 0x08, 0x42, 0x10, 0x08, 0x00, 0x10, 0x88, 0x00, 0x11,
   0x08, 0x00, 0x10, 0x28, 0x00, 0x14, 0x08, 0x00, 0x10, 0xf8, 0xff, 0x1f,
   0x00, 0x00, 0x00, 0x00, 0x00, 0x00, 0x00, 0x00, 0x00, 0x00, 0x00, 0x00};
