/* XPM */
static char * mail24x24_xpm[] = {
/* columns rows colors chars-per-pixel */
"24 24 7 1",
" 	c None",
".	c #5e483a",
"X	c #B2A87E",
"o	c #26524d",
"O	c #7a2626",
"+	c #6d681e",
"@	c #546025",
/* pixels */
"  ....................  ",
" .XXXXXXXXXXXXXXXXXXXX. ",
".XXXXXXXXXXXXXXXXXXXXXX.",
".XXXXXXXXXXXXXXXXXXXXXX.",
".XXoOOOOOOOOOOOOOOOOOXX.",
".XXoOXXXXXXXXXXXXXXo+XX.",
".XXoXOXXXXXXXXXXXXoX+XX.",
".XXoXXOXXXXXXXXXXoXX+XX.",
".XXoXXXOXXXXXXXXoXXX+XX.",
".XXo++XXOXXXXXXoXXoo+XX.",
".XXoXXXXXOXXXXoXXXXX+XX.",
".XXoXXXXXXOXXoXXXXXX+XX.",
".XXoXXXXXXXOoXXXXXXX+XX.",
".XXoXXXXXoXXXX+XXXXX+XX.",
".XXoXXXXXXXXXXXXXXXX+XX.",
".XXoXXXoXXXXXXXX+XXX+XX.",
".XXoXXXXXXXXXXXXXXXX+XX.",
".XXoXoXXXXXXXXXXXX+X+XX.",
".XXoXXXXXXXXXXXXXXXX+XX.",
".XX@@@@@@@@@@@@@@@@@+XX.",
".XXXXXXXXXXXXXXXXXXXXXX.",
".XXXXXXXXXXXXXXXXXXXXXX.",
" .XXXXXXXXXXXXXXXXXXXX. ",
"  ....................  "};
