/* XPM */
static char * main24x24_xpm[] = {
/* columns rows colors chars-per-pixel */
"24 24 6 1",
" 	c None",
".	c #5e483a",
"X	c #B2A87E",
"o	c #7a2626",
"O	c #26524d",
"+	c #6d681e",
/* pixels */
"  ....................  ",
" .XXXXXXXXXXXXXXXXXXXX. ",
".XXXXXXXXXXXXXXXXXXXXXX.",
".XXXXXXXXXXXXXXXXXXXXXX.",
".XXoXoXXoXXXXXXXXoXXXXX.",
".XoooooXXXXXXXXXXoXXXXX.",
".XXoXoXXoXoXXXooXoXoXoX.",
".XoooooXoXoooXoXXoXoXoX.",
".XXoXoXXoXoXoXooXoXoooX.",
".XXXXXXXXXXXXXXXXXXXXXX.",
".XXXXXXXXXXXXXXXXXXXXXX.",
".XXXXXXXXXXXXXXXXXXXXXX.",
".OOOOOOOOOOOOOOOOOOOOOO.",
".XXXXXXXXXXXXXXXXXXXXXX.",
".OOOOOOOOOOOOOOOOOOOOOO.",
".XXXXXXXXXXXXXXXXXXXXXX.",
".XXXXXXXXXXXXXXXXXXXXXX.",
".++++++++++++++++++++++.",
".XXXXXXXXXXXXXXXXXXXXXX.",
".OX+XoXOX+XoXOX+XoXOX+X.",
".XXXXXXXXXXXXXXXXXXXXXX.",
".XoXOX+XoXOX+XoXOX+XoXO.",
" .XXXXXXXXXXXXXXXXXXXX. ",
"  ....................  "};
