/* XPM */
static char * menus24x24_xpm[] = {
/* columns rows colors chars-per-pixel */
"24 24 6 1",
" 	c None",
".	c #5e483a",
"X	c #B2A87E",
"o	c #26524d",
"O	c #7a2626",
"+	c #578257",
/* pixels */
"  ....................  ",
" .XXXXXXXXXXXXXXXXXXXX. ",
".XXXXXXXXXXXXXXXXXXXXXX.",
".XXoooooooooooooooXXXXX.",
".XXoooooooooooooooXXXXX.",
".XXooXXXXXXXXXXXooooXXX.",
".XXooXOOOOOOOOOXooooXXX.",
".XXooXOXXXXXXXOXooooXXX.",
".XXooXOXXXXXXXOXooooXXX.",
".XXooXOXOOOOOXOXooooXXX.",
".XXooXOXXXXXXXOXooooXXX.",
".XXooXOXXXXXXXOXooooXXX.",
".XXooXOX+++++XOXooooXXX.",
".XXooXOXXXXXXXOXooooXXX.",
".XXooXOXXXXXXXOXooooXXX.",
".XXooXOOOOOOOOOXooooXXX.",
".XXooXXXXXXXXXXXooooXXX.",
".XXoooooooooooooooooXXX.",
".XXXXoooooooooooooooXXX.",
".XXXXoooooooooooooooXXX.",
".XXXXXXXXXXXXXXXXXXXXXX.",
".XXXXXXXXXXXXXXXXXXXXXX.",
" .XXXXXXXXXXXXXXXXXXXX. ",
"  ....................  "};
