/* XPM */
static char * news24x24_xpm[] = {
/* columns rows colors chars-per-pixel */
"24 24 7 1",
" 	c None",
".	c #5e483a",
"X	c #B2A87E",
"o	c #26524d",
"O	c #578257",
"+	c #7a2626",
"@	c #546025",
/* pixels */
"                        ",
"                        ",
"  ..................    ",
" ....................   ",
"...XXXXXXXXXXXXXXXX...  ",
"..XXXXXXXXXXXXXXXXXX....",
"..XXooooooXOOOOOOXXXXX..",
"..XXooooooXOOOOOOXXXXX..",
"..XXooooooXOOOOOOXXXXX..",
"..XXooooooXXXXXXXXXXXX..",
"..XXooooooX++++++XXXXX..",
"..XXooooooX++++++XXXXX..",
"..XXooooooX++++++XXXXX..",
"..XXXXXXXXXXXXXXXXXXX...",
"..XXXXXXXXXXXXXXXXXXX.. ",
"..X@@@@@@@@@@@@@@@XXX.. ",
"..X@@@@@@@@@@@@@@@XXX.. ",
"..XXXXXXXXXXXXXXXXXXX.. ",
"..XXXXXXXXXXXXXXXXXXX.  ",
"...XXXXXXXXXXXXXXXXX..  ",
" ....................   ",
"  ..................    ",
"                        ",
"                        "};
