/* XPM */
static char * term24x24_xpm[] = {
/* columns rows colors chars-per-pixel */
"24 24 5 1",
" 	c None",
".	c #5e4536",
"X	c #5e483a",
"o	c #B2A87E",
"O	c #7e792f",
/* pixels */
"                        ",
"   ..................   ",
"  XooooooooooooooooooX  ",
" .ooooooooooooooooooooX ",
" .ooooooOoooooooooooooX ",
" .oooooOOoooooooooooooX ",
" .ooooOOooooooooooooooX ",
" .oooOOoooooooooooooooX ",
" .ooOOooooooooooooooooX ",
" .oooOOoooooooooooooooX ",
" .ooooOOooooooooooooooX ",
" .oooooOOoooooooooooooX ",
" .ooooooOoooooooooooooX ",
" .ooooooooooooooooooooX ",
" .ooooooooooooooooooooX ",
" .ooooooooooooooooooooX ",
" .ooOOOOOOooooooooooooX ",
" .ooOOOOOOooooooooooooX ",
" .ooooooooooooooooooooX ",
" .ooooooooooooooooooooX ",
" .ooooooooooooooooooooX ",
"  XooooooooooooooooooX  ",
"   XXXXXXXXXXXXXXXXXX   ",
"                        "};
