/* XPM */
static char * torrent24x24_xpm[] = {
/* columns rows colors chars-per-pixel */
"24 24 6 1",
" 	c None",
".	c #5e483a",
"X	c #B2A87E",
"o	c #7a2626",
"O	c #578257",
"+	c #26524d",
/* pixels */
"  ....................  ",
" .XXXXXXXXXXXXXXXXXXXX. ",
".XXXXXXXXXXXXXXXXXXXXXX.",
".XXXXXXXXXXooXXXXXXXXXX.",
".XXXXXXXXXooooXXXXXXXXX.",
".XXXXXXXXooooooXXXXXXXX.",
".XXXXXXXooooooooXXXXXXX.",
".XXXXXXooooooooooXXXXXX.",
".XXXXXooooooooooooXXXXX.",
".XXXXXXXXOOOOOOXXXXXXXX.",
".XXXXXXXXOOOOOOXXXXXXXX.",
".XXXXXXXXOOOOOOXXXXXXXX.",
".XXXXXXXXOOOOOOXXXXXXXX.",
".XXXXXXXXOOOOOOXXXXXXXX.",
".XXXXXXXXOOOOOOXXXXXXXX.",
".XXXXX++++++++++++XXXXX.",
".XXXXXX++++++++++XXXXXX.",
".XXXXXXX++++++++XXXXXXX.",
".XXXXXXXX++++++XXXXXXXX.",
".XXXXXXXXX++++XXXXXXXXX.",
".XXXXXXXXXX++XXXXXXXXXX.",
".XXXXXXXXXXXXXXXXXXXXXX.",
" .XXXXXXXXXXXXXXXXXXXX. ",
"  ....................  "};
