/* XPM */
static char * vol24x24_xpm[] = {
/* columns rows colors chars-per-pixel */
"24 24 5 1",
" 	c None",
".	c #5e4536",
"X	c #B2A87E",
"o	c #26524d",
"O	c #26524e",
/* pixels */
"  ....................  ",
" .XXXXXXXXXXXXXXXXXXXX. ",
".XXXXXXXXXXXXXXXXXXXXXX.",
".XXXXXXXXXXoXXXXXXXOOXX.",
".XXXXXXXXXooXXXXXXXOOXX.",
".XXXXXXXXoooXXXXooXOOXX.",
".XXXXXXXooooXXXXooXOOXX.",
".XXXXXXoooooXooXooXOOXX.",
".XXXXXooooooXooXooXOOXX.",
".XXoooooooooXooXooXOOXX.",
".XXoooooooooXooXooXOOXX.",
".XXoooooooooXooXooXOOXX.",
".XXoooooooooXooXooXOOXX.",
".XXoooooooooXooXooXOOXX.",
".XXoooooooooXooXooXOOXX.",
".XXXXXXoooooXooXooXOOXX.",
".XXXXXXXooooXXXXooXOOXX.",
".XXXXXXXXoooXXXXooXOOXX.",
".XXXXXXXXXooXXXXXXXOOXX.",
".XXXXXXXXXXoXXXXXXXOOXX.",
".XXXXXXXXXXXXXXXXXXOOXX.",
".XXXXXXXXXXXXXXXXXXXXXX.",
" .XXXXXXXXXXXXXXXXXXXX. ",
"  ....................  "};
