/* XPM */
static char *dialog_information[] = {
/* columns rows colors chars-per-pixel */
"24 24 50 1 ",
"  c #1A75BF",
". c #1976BE",
"X c #1876BF",
"o c #1A74C0",
"O c #1B7AC7",
"+ c #1B7BC7",
"@ c #1B82D3",
"# c #1C83D3",
"$ c #1C83D5",
"% c #1D83D6",
"& c #1C86D9",
"* c #1D88DC",
"= c #1E8BE2",
"- c #1E8CE3",
"; c #1E8DE4",
": c #1D8EE5",
"> c #1F8FE8",
", c #1F90E9",
"< c #1F93EE",
"1 c #2091EC",
"2 c #2092ED",
"3 c #2093EF",
"4 c #2996EE",
"5 c #2997EE",
"6 c #359AEB",
"7 c #359AEC",
"8 c #2094F1",
"9 c #2095F2",
"0 c #2296F2",
"q c #2496F0",
"w c #2596F0",
"e c #2597F2",
"r c #2698F2",
"t c #2798F2",
"y c #309CF3",
"u c #339EF3",
"i c #349FF3",
"p c #3CA1F1",
"a c #3CA2F3",
"s c #3DA3F4",
"d c #3EA3F4",
"f c #49A7F3",
"g c #49A8F3",
"h c #49A8F5",
"j c #49A9F5",
"k c #4AA9F4",
"l c #4AA9F5",
"z c #4DABF5",
"x c white",
"c c None",
/* pixels */
"cccccccccccccccccccccccc",
"cccccccccccccccccccccccc",
"ccccccccchjzzjjccccccccc",
"cccccccjdue99eudjccccccc",
"cccccjde999999999sjccccc",
"ccccju999999999999ifcccc",
"cccci999999xx999999acccc",
"cccp9999999xx9999999pccc",
"ccct9999999999999999rccc",
"cc69999999999999999997cc",
"cc599999999xx999999994cc",
"cc399999999xx99999999ecc",
"cc299999999xx999999993cc",
"cc:99999999xx99999999;cc",
"cc%99999999xx99999999@cc",
"ccc29999999xx99999993ccc",
"ccc*9999999xx9999999*ccc",
"cccc1999999xx999999,cccc",
"cccc 1999999999999;Xcccc",
"ccccc.-2999999993=occccc",
"ccccccc%;,<92<1=%ccccccc",
"ccccccccc+#&&#Occccccccc",
"cccccccccccccccccccccccc",
"cccccccccccccccccccccccc"
};
