/* XPM */
static char *dialog_warning_0[] = {
/* columns rows colors chars-per-pixel */
"24 24 27 1 ",
"  c #922820",
". c #A12C22",
"X c #A22D22",
"o c #B23027",
"O c #B43227",
"+ c #B93328",
"@ c #BC3329",
"# c #BF342A",
"$ c #BF382C",
"% c #BF3D32",
"& c #C0342A",
"* c #C2352A",
"= c #C2372D",
"- c #C3372D",
"; c #C3392E",
": c #C43B31",
"> c #C33F34",
", c #C53F35",
"< c #C64137",
"1 c #C5453B",
"2 c #C7453C",
"3 c #C8473E",
"4 c #C7483F",
"5 c #CA493D",
"6 c #C8493E",
"7 c white",
"8 c None",
/* pixels */
"888888888888888888888888",
"888888888646646888888888",
"88888866<:;**;:<46888888",
"888883,**********,488888",
"88881;************;18888",
"8882-******77******-2888",
"881;*******77*******:188",
"88>********77********>88",
"88*********77*********88",
"8%*********77*********%8",
"8$*********77*********;8",
"8;*********77*********;8",
"8**********77**********8",
"8@*********77*********@8",
"8O*********77*********o8",
"88********************88",
"88#******************@88",
"88X********77********X88",
"888+*******77*******+888",
"8888#**************#8888",
"88888+************+88888",
"888888X#********@X888888",
"88888888 o@**+o 88888888",
"888888888888888888888888"
};
