/* XPM */
static char *dialog_warning_2[] = {
/* columns rows colors chars-per-pixel */
"24 24 32 1 ",
"  c #1E8FE8",
". c #1F90E9",
"X c #2391E9",
"o c #2095F2",
"O c #2397F2",
"+ c #2497F2",
"@ c #2999F3",
"# c #2E9CF3",
"$ c #319EF3",
"% c #339EF2",
"& c #369FF4",
"* c #35A0F4",
"= c #38A1F3",
"- c #42A5F4",
"; c #5BB1F5",
": c #77BEF7",
"> c #9CD0F9",
", c #AFD9FA",
"< c #B5DCFB",
"1 c #B9DEFB",
"2 c #BADEFB",
"3 c #BFE1FB",
"4 c #CDE7FC",
"5 c #DEEFFD",
"6 c #E0F0FD",
"7 c #E8F4FE",
"8 c #EFF8FE",
"9 c #F3F9FE",
"0 c #F4FAFE",
"q c #FCFEFF",
"w c white",
"e c None",
/* pixels */
"eeeeeeeeeee&*eeeeeeeeeee",
"eeeeeeeeee%OO%eeeeeeeeee",
"eeeeeeeee%OoOO%eeeeeeeee",
"eeeeeeee%OOOoOO%eeeeeeee",
"eeeeeee%OOOOoOoO%eeeeeee",
"eeeeee%Oo&<99<-oO%eeeeee",
"eeeee%Oo&8wwww8=oO%eeeee",
"eeee%OOO<w1==3w<OOO%eeee",
"eee%Oooo9w&Oo=w9oooO$eee",
"ee%OooooOOooo&w7ooooO%ee",
"e%Oooooooooo+<w>ooooOO%e",
"%Ooooooooooo<w4@ooooooO#",
"XOOoooooooo:w5#OooooooOX",
"e ooooooooo5w;oooooooo e",
"ee ooooooooqwOoooooOo ee",
"eee ooooooooOooooooO.eee",
"eeee OOoooooooooooO eeee",
"eeeee ooooowwooooo.eeeee",
"eeeeee oooowwoooo eeeeee",
"eeeeeee oooooooo eeeeeee",
"eeeeeeee OOoooO.eeeeeeee",
"eeeeeeeee oooO eeeeeeeee",
"eeeeeeeeee Oo eeeeeeeeee",
"eeeeeeeeeee  eeeeeeeeeee"
};
