/* XPM */
static char *application_x_addon[] = {
/* columns rows colors chars-per-pixel */
"24 24 23 1 ",
"  c #1B5F96",
". c #1A5F97",
"X c #1B6097",
"o c #1B6199",
"O c #1C639D",
"+ c #1C649D",
"@ c #1C66A1",
"# c #1C67A1",
"$ c #1F68A3",
"% c #2072B4",
"& c #2176BB",
"* c #2279BF",
"= c #2F7EBE",
"- c #257BC0",
"; c #287DC1",
": c #2F81C1",
"> c #3081C1",
", c #3482C2",
"< c #3585C5",
"1 c #3686C5",
"2 c #3787C5",
"3 c #3886C5",
"4 c None",
/* pixels */
"444444444444444444444444",
"444444444444444444444444",
"444444444114444444444444",
"44444444:-->444444444444",
"44444444-**-444444444444",
"44444444****444444444444",
"44413333****333314444444",
"44:-************->444444",
"44-**************-444444",
"44****************444444",
"44****************444444",
"44oo+%************444444",
"44444X************333444",
"444444**************-=44",
"444444**************&$44",
"44444,************ooX444",
"44331--***********444444",
"44******%O+%******444444",
"44******.44.******444444",
"44&*****4444*****&444444",
"44#&****4444****&#444444",
"444Xoooo4444oooo 4444444",
"444444444444444444444444",
"444444444444444444444444"
};
