/* XPM */
static char *accessories_clock[] = {
/* columns rows colors chars-per-pixel */
"24 24 83 1 ",
"  c #2A2A2A",
". c gray17",
"X c #2C2C2C",
"o c #2D2D2D",
"O c gray18",
"+ c #2F2F2F",
"@ c gray19",
"# c #313131",
"$ c #323232",
"% c gray20",
"& c #343434",
"* c #353535",
"= c gray22",
"- c #393939",
"; c #444444",
": c gray28",
"> c #4C4C4C",
", c gray31",
"< c #495052",
"1 c gray33",
"2 c #585E61",
"3 c #5C666A",
"4 c #6B7072",
"5 c #6C767A",
"6 c #70797D",
"7 c gray50",
"8 c #747C80",
"9 c #797E80",
"0 c #798184",
"q c #7E8386",
"w c #808080",
"e c #838383",
"r c #848484",
"t c gray53",
"y c gray59",
"u c #989898",
"i c #9A9A9A",
"p c #9B9B9B",
"a c gray61",
"s c #9D9D9D",
"d c gray62",
"f c #9F9F9F",
"g c #AD8C89",
"h c #BB9F9B",
"j c #A9A9A9",
"k c gray67",
"l c #AFB2B3",
"z c #B2B4B5",
"x c #B5B7B8",
"c c #B8B9BA",
"v c #BBBBBB",
"b c #BBBCBC",
"n c #BCBCBC",
"m c #CB9F9B",
"M c #D0A4A0",
"N c #E6BAB6",
"B c #EDC1BD",
"V c gray76",
"C c #C3C3C3",
"Z c gray77",
"A c #C4C5C6",
"S c #C9CACB",
"D c #CACACA",
"F c #CBCBCB",
"G c gray80",
"H c #CDCDCD",
"J c #CFD1D2",
"K c #D0D1D2",
"L c #D3D4D4",
"P c #D4D6D7",
"I c #D9DADA",
"U c #DADBDC",
"Y c #DCDDDD",
"T c #DEDFDF",
"R c #E0E1E1",
"E c #E2E2E2",
"W c gray89",
"Q c gray90",
"! c #E6E6E6",
"~ c gray91",
"^ c #E9E9E9",
"/ c gray92",
"( c None",
/* pixels */
"((((((((((((((((((((((((",
"((((((((((((((((((((((((",
"(((((((((&&&&&&(((((((((",
"(((((((&&&&&&&&&&(((((((",
"(((((&&&1fGWWGp1%&&(((((",
"((((&&-f////////f-&&((((",
"((((&-v/////////Wq-&((((",
"(((&&f//W//////Y0nr&%(((",
"(((&1//Q7P////Y8vCC,%(((",
"((%&p///Y4J//P6xZZCr%%((",
"((%&F////L2AJ5zCZZZk&%((",
"((&%W/////S<3lCAZZZn&&((",
"((&&W//////hgCACZZZv%%((",
"((%&F//////BMAZZZZZj&%((",
"((+&y//////BMZZZZZA7&+((",
"(((&,//////BMZZZCCC:&(((",
"(((%%p/////BMAZZZZe%@(((",
"((((%%v////BMAZCCf%%((((",
"((((+%%pQ//NMZZCe+&+((((",
"(((((.%+,yGNmjw;+%X(((((",
"(((((((%%+....+%%(((((((",
"(((((((((+%%%%+(((((((((",
"((((((((((((((((((((((((",
"(((((((((((((((((((((((("
};
