/* XPM */
static char *accessories_camera[] = {
/* columns rows colors chars-per-pixel */
"24 24 101 2 ",
"   c #3F3F3F",
".  c #5F2F3F",
"X  c #5D303F",
"o  c #72253F",
"O  c #72263F",
"+  c #5E3040",
"@  c #7F2A47",
"#  c #7F2B47",
"$  c #633343",
"%  c #643344",
"&  c gray25",
"*  c #434343",
"=  c #444444",
"-  c gray27",
";  c #464646",
":  c #515151",
">  c gray32",
",  c #535353",
"<  c #555555",
"1  c #585858",
"2  c gray35",
"3  c #6D6D6D",
"4  c gray43",
"5  c gray44",
"6  c #717171",
"7  c #7E7E7E",
"8  c gray50",
"9  c #841C3F",
"0  c #92143F",
"q  c #851C40",
"w  c #8D1E43",
"e  c #8E1E44",
"r  c #A01443",
"t  c #A81547",
"y  c #AC184A",
"u  c #AD184A",
"i  c #B1164A",
"p  c #B9174D",
"a  c #BA174E",
"s  c #B2194C",
"d  c #B3194C",
"f  c #B4194D",
"g  c #BA1950",
"h  c #BB1A50",
"j  c #9A214A",
"k  c #9B214A",
"l  c #C13061",
"z  c #C6416E",
"x  c #C84571",
"c  c #C94873",
"v  c #CD577F",
"b  c #CD587F",
"n  c #CD5980",
"m  c #CE5B82",
"M  c #D06186",
"N  c #D36B8E",
"B  c #D36C8F",
"V  c #D67495",
"C  c #D97D9C",
"Z  c #D97F9D",
"A  c #808080",
"S  c gray58",
"D  c #979797",
"F  c #989898",
"G  c gray62",
"H  c gray63",
"J  c #A2A2A2",
"K  c gray64",
"L  c #A4A4A4",
"P  c gray65",
"I  c #A7A7A7",
"U  c gray69",
"Y  c #B4B4B4",
"T  c gray71",
"R  c #B6B6B6",
"E  c #B7B7B7",
"W  c gray72",
"Q  c #B9B9B9",
"!  c #BBBBBB",
"~  c gray74",
"^  c gray",
"/  c #DA819F",
"(  c #DF95AE",
")  c #E3A2B8",
"_  c #C0C0C0",
"`  c #C1C1C1",
"'  c gray76",
"]  c #C3C3C3",
"[  c gray77",
"{  c #C5C5C5",
"}  c #C6C6C6",
"|  c #C8C8C8",
" . c gray79",
".. c #CACACA",
"X. c #CBCBCB",
"o. c gray80",
"O. c #CDCDCD",
"+. c #CECECE",
"@. c gray81",
"#. c #D0D0D0",
"$. c None",
/* pixels */
"$.$.$.$.$.$.$.$.$.$.$.$.$.$.$.$.$.$.$.$.$.$.$.$.",
"$.$.$.$.$.$.$.$.$.o.#.#.#.#.o.$.$.$.$.$.$.$.$.$.",
"$.$.$.$.$.$.#.#.o. .[ [ [ [  .o.+.+.$.$.$.$.$.$.",
"$.$.$.$.$.#. .[ [ [ [ [ [ [ [ [ { o.#.$.$.$.$.$.",
"$.$.$.$.o. .[ [ [ [ ] ] [ [ [ [ { ' { +.$.$.$.$.",
"$.$.$.o.[ [ [ [ Q 8 2 ; ; 2 8 Q { ' { { +.$.$.$.",
"$.$.o.[ [ [ [ F ;             ; D ' ' { { o.$.$.",
"$.$. .[ [ [ F &   . q 0 0 9 +   = F { ' ' o.$.$.",
"$.$.[ [ [ E -   o r f h h i r @ & = W { ' { $.$.",
"$.[ [ [ [ 8   + t g l l x l f r X & 8 ' { { { $.",
"$.] [ [ [ ,   w p c n x x n x g w & < { ' ' ' $.",
"$.[ [ [ [ -   i p N V m m V B p y & = { { { { $.",
"$.] [ [ [ =   f p N V C C V N p s & = ' ' { ' $.",
"$.^ [ [ [ :   j a c C ) ) / c p j & : ' { ' ^ $.",
"$.T [ [ [ 5   % a h M ( ( M h p $ & 6 { { ' W $.",
"$.$.[ [ [ P =   @ a h h h f h q & - I ' { { $.$.",
"$.$.] ] ] ] 8     $ j f f j $   X 7 ` [ [ ` $.$.",
"$.$.P [ [ [ T 8 ;             = 7 E [ [ [ J $.$.",
"$.$.$.Q [ [ [ Q S 3 < & & : 3 F E [ [ [ _ $.$.$.",
"$.$.$.$.] [ [ ] ] U P G G P U ] [ [ [ _ $.$.$.$.",
"$.$.$.$.$.Q [ [ [ [ [ [ [ [ [ [ { { ^ $.$.$.$.$.",
"$.$.$.$.$.$.K ] [ ] [ [ [ [ [ ] _ K $.$.$.$.$.$.",
"$.$.$.$.$.$.$.$.S T ^ ] ] ^ T S $.$.$.$.$.$.$.$.",
"$.$.$.$.$.$.$.$.$.$.$.$.$.$.$.$.$.$.$.$.$.$.$.$."
};
