/* XPM */
static char *accessories_dictionary[] = {
/* columns rows colors chars-per-pixel */
"24 24 22 1 ",
"  c #C2352A",
". c #C8493F",
"X c #CD8781",
"o c #C6C6C6",
"O c #D5D5D5",
"+ c #D8D8D8",
"@ c gainsboro",
"# c #E1E1E1",
"$ c #E4E4E4",
"% c gray90",
"& c gray91",
"* c #E9E9E9",
"= c gray93",
"- c #EEEEEE",
"; c #EFEFEF",
": c gray94",
"> c gray95",
", c #F3F3F3",
"< c #F4F4F4",
"1 c gray96",
"2 c #F6F6F6",
"3 c None",
/* pixels */
"333333333...333111113333",
"333$&&&&&   11>>=>=>$333",
"333@+++++   ========@333",
"333++++++   ========+333",
"333++++++   ========+333",
"333++++++   ========+333",
"333++++++   ========+333",
"333++++++   ========+333",
"333++++++   ========+333",
"333++++++   ========+333",
"333++++++   ========+333",
"333++++++X+X========+333",
"333+++++++++========+333",
"333+++++++++========+333",
"333+++++++++========+333",
"333+++++++++========+333",
"333+++++++++========+333",
"333+++++++++========+333",
"333+++++++++========+333",
"333+++++++++========+333",
"333+++++++++========+333",
"333+++++++++========+333",
"333O++++++++========O333",
"333333333333333oO#&#3333"
};
