/* XPM */
static char *atom[] = {
/* columns rows colors chars-per-pixel */
"24 24 142 2 ",
"   c #579665",
".  c #5EA36E",
"X  c #60A46F",
"o  c #60A470",
"O  c #60A570",
"+  c #6BB77B",
"@  c #6BB87B",
"#  c #6EBD80",
"$  c #6EBE80",
"%  c #70C081",
"&  c #70C182",
"*  c #71C383",
"=  c #72C484",
"-  c #73C485",
";  c #74C685",
":  c #75C685",
">  c #74C486",
",  c #74C786",
"<  c #75C786",
"1  c #75C787",
"2  c #76C887",
"3  c #77C588",
"4  c #77C689",
"5  c #7CC48B",
"6  c #7CC58B",
"7  c #77C888",
"8  c #77C889",
"9  c #78C98A",
"0  c #79C98A",
"q  c #79C98B",
"w  c #7AC98B",
"e  c #7CCA8D",
"r  c #7DCB8E",
"t  c #7ECB8F",
"y  c #7FCC90",
"u  c #82CC92",
"i  c #82CD92",
"p  c #83CD93",
"a  c #84CE94",
"s  c #85CE95",
"d  c #8ACD98",
"f  c #8ACF99",
"g  c #8BCF9A",
"h  c #8AD099",
"j  c #8BD09A",
"k  c #8DD19B",
"l  c #8ED19B",
"z  c #8DD09C",
"x  c #8DD19D",
"c  c #8ED19C",
"v  c #8FD29D",
"b  c #8ED29E",
"n  c #8FD29E",
"m  c #90D19E",
"M  c #90D29F",
"N  c #91D39F",
"B  c #91D3A0",
"V  c #92D3A0",
"C  c #93D3A1",
"Z  c #94D4A2",
"A  c #95D4A2",
"S  c #96D5A3",
"D  c #96D5A4",
"F  c #99D6A6",
"G  c #9AD6A7",
"H  c #9CD7A9",
"J  c #A0D9AC",
"K  c #A2D9AE",
"L  c #A2DAAE",
"P  c #A4DAB0",
"I  c #A5DBB0",
"U  c #A5DBB1",
"Y  c #A7DCB3",
"T  c #A8DCB3",
"R  c #A9DCB3",
"E  c #A8DCB4",
"W  c #ABDDB6",
"Q  c #ABDDB7",
"!  c #ACDDB6",
"~  c #ACDEB7",
"^  c #AFDFB9",
"/  c #B2E0BC",
"(  c #B3E0BD",
")  c #B5E1BE",
"_  c #B5E1BF",
"`  c #B6E2BF",
"'  c #B6E2C0",
"]  c #BCE4C5",
"[  c #BDE5C6",
"{  c #C6E8CD",
"}  c #C6E8CE",
"|  c #C7E8CE",
" . c #C7E9CE",
".. c #C8E9D0",
"X. c #C9E9D0",
"o. c #CAE9D0",
"O. c #CAEAD1",
"+. c #CBEAD1",
"@. c #CEEBD4",
"#. c #D0ECD6",
"$. c #D0ECD7",
"%. c #D1EDD8",
"&. c #D2EDD8",
"*. c #D3EDD9",
"=. c #D4EEDA",
"-. c #D5EEDA",
";. c #D6EFDB",
":. c #D7EFDC",
">. c #D9EFDE",
",. c #D9F0DE",
"<. c #DDF1E1",
"1. c #DDF1E2",
"2. c #DEF2E2",
"3. c #DEF2E3",
"4. c #DFF2E3",
"5. c #E0F2E4",
"6. c #E0F3E4",
"7. c #E2F3E5",
"8. c #E3F4E6",
"9. c #E3F4E7",
"0. c #E4F4E7",
"q. c #E6F5EA",
"w. c #E8F6EB",
"e. c #E9F6EC",
"r. c #EAF7ED",
"t. c #EBF7EE",
"y. c #ECF7EE",
"u. c #ECF8EF",
"i. c #EEF8F0",
"p. c #EFF8F1",
"a. c #EFF9F1",
"s. c #F0F9F2",
"d. c #F1F9F3",
"f. c #F4FAF5",
"g. c #F4FBF6",
"h. c #F5FBF6",
"j. c #F6FBF7",
"k. c #F8FCF9",
"l. c #F9FDFA",
"z. c #FAFDFB",
"x. c #FCFEFC",
"c. c None",
/* pixels */
"c.c.c.c.c.c.c.c.c.c.c.c.c.c.c.c.c.c.c.c.c.c.c.c.",
"c.c.c.c.c.c.c.c.c.c c c B c c c.c.c.c.c.c.c.c.c.",
"c.c.c.c.c.c.c c s r 8 8 4 0 r s c c c.c.c.c.c.c.",
"c.c.c.c.c.c u 2 2 , , , , , , , 8 u c c.c.c.c.c.",
"c.c.c.c.k q , , 0 2 , , , , 2 8 , , 0 h c.c.c.c.",
"c.c.c.d 8 , 2 E l.d.H , , P i.l.Y , , 8 h c.c.c.",
"c.c.d 0 , , , 6.Z B e./ ] e.B G ,.2 , , q d c.c.",
"c.c.u , , , , 3.Z 2 r [ 9.r 2 Z 3., , , 2 u c.c.",
"c.c.2 , , , 2 O.E 2 H d.u , , Y O.2 , , , 2 c.c.",
"c.5 , , , , u O.u.,.x.i.e.q.;. .( u , , , , 6 c.",
"c.4 , , s &.g.@.l.>.&.h d I O./ @.g.;.s , , 4 c.",
"c., 2 8 6.' 4 , $.l.r 5.3.r h.a , 4 ' 6., , 8 c.",
"c., , , e._ 0 , @.l.r 3.3., ]  ., 8 ' e., , , c.",
"c.& , , u ;.f.G j.O. .2 2 , y h.G h.&.u , , $ c.",
"c.@ , , , , p Q &.r i.G , , , ;.R u , , , , @ c.",
"c.c., , , , , O.! , G i.u 2 8 E O., , , , , c.c.",
"c.c., , , , , 5.A , r  .q.r , Z 3., , , , , c.c.",
"c.c.O , , , , <.G N y._ [ e.m G 3., , , , O c.c.",
"c.c.c.$ , , , R k.e.L , , K d.k.I , , 2 # c.c.c.",
"c.c.c.c.& , , , e , , , , , , 0 , , , & c.c.c.c.",
"c.c.c.c.c.# , , , , , , , , , , , 2 # c.c.c.c.c.",
"c.c.c.c.c.c.X , , , , , , , , , = . c.c.c.c.c.c.",
"c.c.c.c.c.c.c.c.  + & , , $ +   c.c.c.c.c.c.c.c.",
"c.c.c.c.c.c.c.c.c.c.c.c.c.c.c.c.c.c.c.c.c.c.c.c."
};
