/* XPM */
static char *color_picker[] = {
/* columns rows colors chars-per-pixel */
"24 24 100 2 ",
"   c #0D3453",
".  c #0C3759",
"X  c #0E395B",
"o  c #0C395C",
"O  c #0D3C61",
"+  c #15456A",
"@  c #0F4875",
"#  c #104978",
"$  c #104A79",
"%  c #174F7C",
"&  c #1A537F",
"*  c #12568C",
"=  c #135890",
"-  c #135991",
";  c #165990",
":  c #2F5E83",
">  c #14609B",
",  c #3E6789",
"<  c #21639A",
"1  c #306691",
"2  c #346993",
"3  c #1669AA",
"4  c #1B6CAC",
"5  c #1A77C2",
"6  c #5F839F",
"7  c #5F83A0",
"8  c #4381B1",
"9  c #658BAA",
"0  c #6891B0",
"q  c #6898BF",
"w  c #1D89DE",
"e  c #1E8DE6",
"r  c #2095F2",
"t  c #4993CE",
"y  c #659AC5",
"u  c #76ACD6",
"i  c #5CA6E2",
"p  c #4DAAF5",
"a  c #79B6E8",
"s  c #78BAEF",
"d  c #62B4F5",
"f  c #62B5F6",
"g  c #65B5F6",
"h  c #68B5F2",
"j  c #79BFF7",
"k  c #7CC0F6",
"l  c #9D9D9D",
"z  c #A0A0A0",
"x  c gray72",
"c  c #B9B9B9",
"v  c #BCBCBC",
"b  c gray74",
"n  c #83B5DD",
"m  c #84B5DC",
"M  c #8ABCE4",
"N  c #88C5F6",
"B  c #8FC9F6",
"V  c #91CBF7",
"C  c #96CCF6",
"Z  c #9ACBF3",
"A  c #98CDF6",
"S  c #90CAF9",
"D  c #A1CEF3",
"F  c #AED4F3",
"G  c #A9D4F6",
"H  c #A5D5FA",
"J  c #A6D5FA",
"K  c #B4D7F3",
"L  c #B9DAF3",
"P  c #C5C5C5",
"I  c #C8C8C8",
"U  c gray84",
"Y  c #D8D8D8",
"T  c gray85",
"R  c #C0D1E0",
"E  c #C0D2E2",
"W  c #C3D5E4",
"Q  c #D0E0ED",
"!  c #D5E3EF",
"~  c #DBE8F2",
"^  c #DDE9F2",
"/  c gray88",
"(  c #E1E1E1",
")  c #E6E6E6",
"_  c #E5E8EA",
"`  c #E9E9E9",
"'  c #EAEAEA",
"]  c gray92",
"[  c #ECECEC",
"{  c gray93",
"}  c #ECEEEF",
"|  c #EEEEEE",
" . c #EFEFEF",
".. c #EDEFF1",
"X. c #EEEFF1",
"o. c gray94",
"O. c #F1F1F1",
"+. c gray95",
"@. c #F3F3F3",
"#. c None",
/* pixels */
"#.#.#.#.#.#.#.#.#.#.#.#.#.#.#.#.#.#.#.#.#.#.#.#.",
"#.#.#.#.#.#.#.#.#.#.#.#.#.#.#.#.#.#.#.#.#.#.#.#.",
"#.#.O.O.@.@.@.@.@.@.@.@.@.O.O.| #.#.#.#.#.#.#.#.",
"#.#.| l z ] ] ] ] ] ] ] ] ] | o.O.| #.#.#.#.#.#.",
"#.#.' U U | ' ] L 9 : + % 1 y R | | O.#.#.#.#.#.",
"#.#.| O.O.' _ 7   . $ $ - * - ; y _ | O.#.#.#.#.",
"#.#.| ' ' ) , . + # - - 3 3 5 5 w t _ O.| #.#.#.",
"#.#.' ' ' 9 . o # # - - 3 4 5 5 r e u ' | #.#.#.",
"#.#.] ] R X # # - - 3 3 5 5 r r p p i W ' ) #.#.",
"#.#.] ] 0 O # # - - 3 3 5 5 r r p p f n ] ' #.#.",
"#.#.] ] 2 $ - - 3 3 5 5 r r p p f f j a ] | #.#.",
"#.#.] ] * $ - - 3 3 5 5 r r p p f f j s ] | #.#.",
"#.#.[ [ < - 3 3 5 5 r r p p f f j j S B ' ' #.#.",
"#.#.[ [ 8 - 3 3 5 5 r r p p f f j k S C | ' #.#.",
"#.#./ [ m 3 5 5 r r p p f f j j S S J F ' / #.#.",
"#.#.P [ Q 4 5 5 r r p p f f j j S S J ! ' P #.#.",
"#.#.#.[ [ M r r p p f f k k S S H H L | ' #.#.#.",
"#.#.#.b [ | h r p p f f j j S S H G ..' c #.#.#.",
"#.#.#.#.Y [ ..Z g f k k S S H H L ..' Y #.#.#.#.",
"#.#.#.#.#.Y [  .^ Z N k S C K ^ O.| Y #.#.#.#.#.",
"#.#.#.#.#.#.c ' | | O.O.O.O.| | ' c #.#.#.#.#.#.",
"#.#.#.#.#.#.#.#.c / ' ' | ' / c #.#.#.#.#.#.#.#.",
"#.#.#.#.#.#.#.#.#.#.#.#.#.#.#.#.#.#.#.#.#.#.#.#.",
"#.#.#.#.#.#.#.#.#.#.#.#.#.#.#.#.#.#.#.#.#.#.#.#."
};
