/* XPM */
static char *darktable[] = {
/* columns rows colors chars-per-pixel */
"24 24 94 2 ",
"   c #2A2A2A",
".  c #2C2C2C",
"X  c gray19",
"o  c #313131",
"O  c gray20",
"+  c #343434",
"@  c #353535",
"#  c gray21",
"$  c #3A3A3A",
"%  c gray26",
"&  c #494949",
"*  c #FF701B",
"=  c #FF5722",
"-  c #FC5127",
";  c #FF5822",
":  c #F34235",
">  c #F74D35",
",  c #F54E3B",
"<  c #F44A3E",
"1  c #D7395C",
"2  c #D63F65",
"3  c #F67167",
"4  c #F77C73",
"5  c #4BAE4F",
"6  c #53B257",
"7  c #4C986F",
"8  c #52A467",
"9  c #7AC37D",
"0  c #81B339",
"q  c #8DB73D",
"w  c #FE9312",
"e  c #FBC007",
"r  c #FDC006",
"t  c #FEC006",
"y  c #FEC313",
"u  c #FEC314",
"i  c #FF8059",
"p  c #FED045",
"a  c #FAD049",
"s  c #FED153",
"d  c #7537B1",
"f  c #3E50B4",
"g  c #416B97",
"h  c #414FB4",
"j  c #5844B3",
"k  c #6F7DC6",
"l  c #9B26AE",
"z  c #9B26AF",
"x  c #9D26AD",
"c  c #A030B3",
"v  c #B65CC0",
"b  c #B45CC3",
"n  c #B86AC8",
"m  c #848484",
"M  c gray52",
"N  c #868686",
"B  c gray54",
"V  c #8B8B8B",
"C  c gray55",
"Z  c #F99A93",
"A  c #FFA78C",
"S  c #80C684",
"D  c #A3D5A5",
"F  c #FFCCBC",
"G  c #FFE9B6",
"H  c #9AA4D8",
"J  c #DEBFE7",
"K  c #CECECE",
"L  c gray81",
"P  c #D0D0D0",
"I  c gray82",
"U  c #D2D2D2",
"Y  c LightGray",
"T  c #D7D7D7",
"R  c gray85",
"E  c #DADADA",
"W  c #FBC4C0",
"Q  c #F4C2CB",
"!  c #CAE7CB",
"~  c #D7E9C6",
"^  c #C5CBE9",
"/  c #FFF0EC",
"(  c #FEF0EF",
")  c #FFF6EC",
"_  c #F9F9ED",
"`  c #FAEFF5",
"'  c #EDF0F6",
"]  c #F3F3F3",
"[  c gray96",
"{  c #F6F6F6",
"}  c #F0F8F0",
"|  c #F5F0F9",
" . c white",
".. c None",
/* pixels */
"................................................",
"................................................",
"...... . . . . .................................",
"..+ + + + + + + + + + + + + + + + + + O + + + ..",
"..+ + + + + + + + + + + + + + + + + + O + + + ..",
"..+ + + + + + + + + + + + + + + + + + Y K + + ..",
"..+ + + + + + + $ C Y { { Y V $ + + O Y K + + ..",
"..+ + + + + + & R W 3 < , i F R & O O + + + + ..",
"..+ + + + + $ R Z : : : - = = A T $ O + + + + ..",
"..+ + + + + V Q : : : > = ; * w G V + + + + + ..",
"..+ + + + + Y v 1 : 4 / ) s t t p Y + + + + + ..",
"..+ + + + + { c x 2 (  . ._ t t y { + + + + + ..",
"..+ + + + + { c z z `  . .} q e u ] + + + + + ..",
"..+ + + + + Y b z z n | ' S 5 0 a K + + + + + ..",
"..+ + + + + N J d j h f 7 5 5 5 ~ N + + + + + ..",
"..+ + + + + + T H f f g 5 5 5 D R + + + + + + ..",
"..+ + + + + + % R ^ k 8 6 9 ! T % O + + + + + ..",
"..+ + + + + + O . m Y ] { K m O O O + + + + + ..",
"..+ + + + + + + + O .     . O O + + + + + + + ..",
"..+ + + + + + + + + + + O + O O + + + + + + + ..",
"..O + + + + + + + + + + + + + + + + + + + + O ..",
"................................................",
"................................................",
"................................................"
};
