/* XPM */
static char *disk_burner[] = {
/* columns rows colors chars-per-pixel */
"24 24 129 2 ",
"   c #DF4D1D",
".  c #EF5120",
"X  c #F15220",
"o  c #F95521",
"O  c #FC5522",
"+  c #FC5622",
"@  c #FC5723",
"#  c #FE5622",
"$  c #FE5722",
"%  c #FF5722",
"&  c #FF5824",
"*  c #FE5925",
"=  c #FF5925",
"-  c #FE5A26",
";  c #FE5B29",
":  c #FD5C28",
">  c #FD5D29",
",  c #FF5C28",
"<  c #FC5D2A",
"1  c #FF5E2B",
"2  c #FD5F2C",
"3  c #FF6332",
"4  c #FF6432",
"5  c #F96435",
"6  c #FA6435",
"7  c #FD6434",
"8  c #FC6637",
"9  c #FF6839",
"0  c #EE6E45",
"q  c #FF6E40",
"w  c #FF6F41",
"e  c #FF855F",
"r  c #EB8767",
"t  c #F38664",
"y  c #F68A67",
"u  c #FF8F6C",
"i  c #F28F70",
"p  c #FF9A7A",
"a  c #D8AA9B",
"s  c #FFA487",
"d  c #FFAA8F",
"f  c #FFAF96",
"g  c #EBBEAF",
"h  c #FFB8A1",
"j  c #FFBAA5",
"k  c #DBC3BA",
"l  c #D9C4BE",
"z  c #FFC8B6",
"x  c #C3C4C4",
"c  c #C2C5C5",
"v  c #CACCCD",
"b  c #CED0D1",
"n  c #D6D8D9",
"m  c #D6D9DA",
"M  c #D7D9DA",
"N  c #D8DADA",
"B  c #DADBDB",
"V  c #D9DBDC",
"C  c #D9DCDC",
"Z  c #DADCDD",
"A  c #DADDDD",
"S  c #DBDDDD",
"D  c #DBDDDE",
"F  c #DCDEDF",
"G  c #E4CCC4",
"H  c #E4D0CA",
"J  c #FFD3C5",
"K  c #FFD4C6",
"L  c #FFD6C9",
"P  c #FFDDD3",
"I  c #FFDED4",
"U  c #FFDFD5",
"Y  c #DDDFE0",
"T  c #DDDFE1",
"R  c #DDE0E0",
"E  c #DDE0E1",
"W  c #DEE0E1",
"Q  c #DFE0E1",
"!  c #DEE1E2",
"~  c #DFE1E2",
"^  c #DFE2E3",
"/  c #DFE3E3",
"(  c #E0E1E3",
")  c #E0E2E2",
"_  c #E0E2E3",
"`  c #E1E3E3",
"'  c #E0E2E4",
"]  c #E0E3E4",
"[  c #E1E3E4",
"{  c #E2E4E5",
"}  c #E3E4E5",
"|  c #E3E4E6",
" . c #E2E5E6",
".. c #E3E5E6",
"X. c #E4E5E6",
"o. c #E4E6E7",
"O. c #E5E6E7",
"+. c #E5E7E7",
"@. c #E5E6E8",
"#. c #E4E7E8",
"$. c #E5E8E8",
"%. c #E6E8E8",
"&. c #E6E8E9",
"*. c #E7E8E9",
"=. c #E7E9E9",
"-. c #E7E9EA",
";. c #E8E9EA",
":. c #E8EAEA",
">. c #E8EAEB",
",. c #E9EAEB",
"<. c #E9EBEB",
"1. c #EAEBEB",
"2. c #EAEBEC",
"3. c #E9EDED",
"4. c #EAECEC",
"5. c #EBECEC",
"6. c #EAECED",
"7. c #EBECED",
"8. c #EBEDED",
"9. c #EBEDEE",
"0. c #ECEDED",
"q. c #ECEEEE",
"w. c #FFEAE3",
"e. c #FFF7F5",
"r. c #FFF8F6",
"t. c #FFFAF9",
"y. c #FFFEFD",
"u. c white",
"i. c None",
/* pixels */
"i.i.i.i.i.i.i.i.i.i.i.i.i.i.i.i.i.i.i.i.i.i.i.i.",
"i.i.i.i.i.i.i.i.i.i.i.i.i.i.i.i.i.i.i.i.i.i.i.i.",
"i.i.i.i.i.i.i.i.i.o.} } } } } i.i.i.i.i.i.i.i.i.",
"i.i.i.i.i.i.i.1.o.[ _ _ ^ ^ } } } i.i.i.i.i.i.i.",
"i.i.i.i.i.1.2.&.o._ _ _ ^ [ ^ _ _ } } i.i.i.i.i.",
"i.i.i.i.3.q.2.1.&.[ _ _ [ ^ _ _ _ _ } } i.i.i.i.",
"i.i.i.i.q.q.3.5.1.} _ _ _ _ _ _ _ _ ^ } i.i.i.i.",
"i.i.i.2.3.q.q.5.3.&.[ _ _ _ _ _ _ _ _ _ ^ i.i.i.",
"i.i.i.*.5.3.q.q.3.1.Y M M B ^ ^ _ _ _ _ _ i.i.i.",
"i.i.[ 1.@.%.1.3.5.*.o.^ ^ F n ^ _ _ _ _ _ B i.i.",
"i.i.F _ o.o.&.&.o.q.q.i.i._ ^ B _ _ _ _ _ B i.i.",
"i.i._ _ _ _ _ [ _ @.i.i.i.i.[ Y _ _ _ _ _ ^ i.i.",
"i.i.^ _ _ _ _ _ [ ^ i.i.i.i.y 7 & 6 i H _ ^ i.i.",
"i.i.B _ _ _ _ _ ^ [ ^ i.i.; % % % % & 2 g C i.i.",
"i.i.b _ _ _ _ _ _ [ [ G : % % % % p % % : l i.i.",
"i.i.i._ _ _ _ _ _ ^ _ t % % 9 % % P e % & 0 i.i.",
"i.i.i.V _ _ _ _ _ _ _ 6 % % z s u t.L % % % i.i.",
"i.i.i.i._ _ _ _ _ _ _ - % - r.u.w.d u.: % % i.i.",
"i.i.i.i.x _ _ _ _ _ [ 6 % 3 u.j - 3 u.4 % % i.i.",
"i.i.i.i.i.x _ _ _ ^ [ r % % I h : f I % % X i.i.",
"i.i.i.i.i.i.i.C [ ^ [ l : & w K e.J w % % i.i.i.",
"i.i.i.i.i.i.i.i.i.v M C a : % % % % % % i.i.i.i.",
"i.i.i.i.i.i.i.i.i.i.i.i.i.i.  o % o . i.i.i.i.i.",
"i.i.i.i.i.i.i.i.i.i.i.i.i.i.i.i.i.i.i.i.i.i.i.i."
};
