/* XPM */
static char *disk_usage_analyzer[] = {
/* columns rows colors chars-per-pixel */
"24 24 77 1 ",
"  c #4F585C",
". c #53575C",
"X c #525A5E",
"o c #525B5F",
"O c #535B5F",
"+ c #525C5F",
"@ c #575D5D",
"# c #645B5B",
"$ c #535B60",
"% c #525C60",
"& c #5B6468",
"* c #5C6569",
"= c #5D666A",
"- c #636C71",
"; c #666E73",
": c #666F73",
"> c #677074",
", c #697174",
"< c #687175",
"1 c #6B767B",
"2 c #6D7478",
"3 c #71727C",
"4 c #727B7F",
"5 c #737C7F",
"6 c #9A7335",
"7 c #E65E2F",
"8 c #F35534",
"9 c #F35A31",
"0 c #E81D62",
"q c #CA2861",
"w c #CF2C65",
"e c #CD2F66",
"r c #D2356B",
"t c #E22162",
"y c #E22263",
"u c #934160",
"i c #A14F70",
"p c #DD8B11",
"a c #DC8C17",
"s c #F89400",
"d c #FC9600",
"f c #FD9700",
"g c #FE9700",
"h c #F99606",
"j c #FE9800",
"k c #E3941F",
"l c #B79152",
"z c #3576A7",
"x c #737C80",
"c c #7A7D82",
"v c #497FA8",
"b c #7A60AB",
"n c #1B7BC7",
"m c #8459AA",
"M c #7B8488",
"N c #7C8488",
"B c #7F888C",
"V c #2E8DD9",
"C c #308DD5",
"Z c #308DD6",
"A c #1E8DE6",
"S c #1F8EE6",
"D c #1F93EF",
"F c #2393EC",
"G c #2095F2",
"H c #818A8E",
"J c #828A8E",
"K c #828B8F",
"L c #838C90",
"P c #858D91",
"I c #868E91",
"U c #889094",
"Y c #899296",
"T c #8C9599",
"R c #8E9599",
"E c #8E969A",
"W c None",
/* pixels */
"WWWWWWWWWWWWWWWWWWWWWWWW",
"WWWTTTEEEEETEEEETTEEEWWW",
"WWWUKKKKPKKKKKPKKKKKUWWW",
"WWWKKKKKKKKKKKKKKKKKPWWW",
"WWWKKKKKKKKKKKKKKKKKKWWW",
"WWWKKKKKK4&XX*4KKKKKKWWW",
"WWWKKKKK: X   X:KKKKKWWW",
"WWWKKKK4  %<>X  5KKKKWWW",
"WWWKKKK& $PUUP% *LLKKWWW",
"WWWKKKKX <LKLP< @KLKKWWW",
"WWWKKKK  >KKKL> OKKKKWWW",
"WWWKKKK  XNKKM@6ahhklWWW",
"WWWKKKK   X--#pffffffjWW",
"WWWKKKKX    .q7ffffffffW",
"WWWKKKKX  XXu009fffffffW",
"WWWKKKKTTTTTr0009fffffjs",
"WWWKKKKKKKKKy00008jjffff",
"WWWKKKKKKKKKy0000mGGGGGD",
"WWWKKKKKKKKKw000mGGGGGGA",
"WWWKKKKKKKKKi00mGGGGGGGn",
"WWWKKKKKKKKKcwbGGGGGGGAW",
"WWWKKKKKKKKKK3VGGGGGGAWW",
"WWW2KKKKLKLLKN1vZFFZzWWW",
"WWWWWWWWWWWWWWWWWWWWWWWW"
};
