/* XPM */
static char *disk_partition_manager[] = {
/* columns rows colors chars-per-pixel */
"24 24 96 2 ",
"   c #4F585C",
".  c #525A5E",
"X  c #525B5F",
"o  c #535B5F",
"O  c #54595C",
"+  c #525C5F",
"@  c #535B60",
"#  c #525C60",
"$  c #505E63",
"%  c #596266",
"&  c #5B6468",
"*  c #5C6569",
"=  c #5D666A",
"-  c #636C71",
";  c #666E73",
":  c #666F73",
">  c #677074",
",  c #697174",
"<  c #687175",
"1  c #6D7777",
"2  c #6D7478",
"3  c #777975",
"4  c #727B7F",
"5  c #737C7F",
"6  c #9D6764",
"7  c #AB7573",
"8  c #DD7067",
"9  c #DF756C",
"0  c #E2746C",
"q  c #F8756A",
"w  c #F8766B",
"e  c #FF766A",
"r  c #E47B71",
"t  c #71A03C",
"y  c #6C8E4E",
"u  c #769161",
"i  c #B99B5A",
"p  c #83B745",
"a  c #84B845",
"s  c #88BF48",
"d  c #89BE4B",
"f  c #83B251",
"g  c #82B052",
"h  c #83B052",
"j  c #FF867B",
"k  c #8AC249",
"l  c #97C95D",
"z  c #97C95E",
"x  c #737C80",
"c  c #7B7F82",
"v  c #2D828F",
"b  c #0FA9BC",
"n  c #15A9BC",
"m  c #7B8488",
"M  c #7C8488",
"N  c #7F888C",
"B  c #71959D",
"V  c #4AA0AC",
"C  c #00B7CE",
"Z  c #1CB1C4",
"A  c #00B9D1",
"S  c #00BAD2",
"D  c #00BBD3",
"F  c #06B9D0",
"G  c #1DC3D8",
"H  c #27C5DA",
"J  c #818A8E",
"K  c #828A8E",
"L  c #828B8F",
"P  c #838C90",
"I  c #858D91",
"U  c #868E91",
"Y  c #889094",
"T  c #899296",
"R  c #8C9599",
"E  c #8E9599",
"W  c #8E969A",
"Q  c #FF8B81",
"!  c #AAE8F0",
"~  c #ACE9F1",
"^  c #AFEAF1",
"/  c #FFD2CE",
"(  c #FFD4D0",
")  c #D8EAC2",
"_  c #D8EBC2",
"`  c #EEFAFC",
"'  c #F6FAF1",
"]  c #FBF8F4",
"[  c #F8FBF4",
"{  c #FFF8F7",
"}  c #F9FCF5",
"|  c #F6F8F8",
" . c #F1FBFD",
".. c #F2FCFD",
"X. c white",
"o. c None",
/* pixels */
"o.o.o.o.o.o.o.o.o.o.o.o.o.o.o.o.o.o.o.o.o.o.o.o.",
"o.o.o.R R R W W W W W R W W W W W R W W W o.o.o.",
"o.o.o.Y L L L L I L L L L L I L L L L L Y o.o.o.",
"o.o.o.L L L L L L L L L L L L L L L L L L o.o.o.",
"o.o.o.L L L L L L L L L L L L L L L L L L o.o.o.",
"o.o.o.L L L L L L 4 & . . * 4 L L L L L L o.o.o.",
"o.o.o.L L L L L :   .       . : L L L L L o.o.o.",
"o.o.o.L L L L 4     # < > .     5 L L L L o.o.o.",
"o.o.o.L L L L &   @ I Y Y I #   * P L L L o.o.o.",
"o.o.o.L L L L .   < P L P I <   + L L L L o.o.o.",
"o.o.o.L L L L     > L L L P >   . L L I L o.o.o.",
"o.o.o.L L L L     . M L L m $ v n F F Z V o.o.o.",
"o.o.o.L L L L       . - - % b S S D D D D D o.o.",
"o.o.o.L L L L .         . 8 B G ~ ....~ H D S o.",
"o.o.o.L L L L .     . . 6 e j | X.X.X.X.` G D o.",
"o.o.o.L L L L R R R R R r e / X.X.X.X.X.X.! D C ",
"o.o.o.L L L L L L L L L w e { X.X.X.X.X.X...S A ",
"o.o.o.L L L L L L L L L w e { X.X.X.X.X.X.| k k ",
"o.o.o.L L L L L L L L L 9 e / X.X.X.X.X.X.) k p ",
"o.o.o.L L L L L L L L L 7 e Q ] X.X.X.X.' l k t ",
"o.o.o.L L L L L L L L L c 0 i z ) } } ) l k p o.",
"o.o.o.L L L L L L L L L L 3 f k k k k k k p o.o.",
"o.o.o.2 L L L L P L P P L M 1 u f d d f y o.o.o.",
"o.o.o.o.o.o.o.o.o.o.o.o.o.o.o.o.o.o.o.o.o.o.o.o."
};
