/* XPM */
static char *eclipse[] = {
/* columns rows colors chars-per-pixel */
"24 24 64 1 ",
"  c #331B5C",
". c #331D5C",
"X c #381F60",
"o c #382066",
"O c #3C2069",
"+ c #3D226D",
"@ c #3E236E",
"# c #3F256F",
"$ c #56315B",
"% c #57325A",
"& c #452863",
"* c #422669",
"= c #442668",
"- c #40256F",
"; c #472869",
": c #5B3661",
"> c #422770",
", c #442A72",
"< c #452C73",
"1 c #493076",
"2 c #4A3177",
"3 c #4F387C",
"4 c #563B77",
"5 c #593D74",
"6 c #50377A",
"7 c #51387A",
"8 c #50387B",
"9 c #543B78",
"0 c #613D67",
"q c #754543",
"w c #7C4844",
"e c #64436C",
"r c #68456A",
"t c #BC7103",
"y c #A6611E",
"u c #9B5B22",
"i c #874F37",
"p c #A96420",
"a c #BF742B",
"s c #BE742C",
"d c #B87132",
"f c #995F48",
"g c #865454",
"h c #DE8400",
"j c #E08501",
"k c #EA8C02",
"l c #ED8D00",
"z c #F69506",
"x c #FC9501",
"c c #FD9600",
"v c #FD9700",
"b c #FE9600",
"n c #FE9700",
"m c #F99404",
"M c #C5915F",
"N c #988BAC",
"B c #C4ACAB",
"V c #B8AFCA",
"C c #CABECB",
"Z c #C6BFD4",
"A c #D3CCDB",
"S c #D2CCDE",
"D c #D8D3E2",
"F c None",
/* pixels */
"FFFFFFFFFFFFFFFFFFFFFFFF",
"FFFFFFFFFFFFFFFFFFFFFFFF",
"FFFFFFFFzdgr9957FFFFFFFF",
"FFFFFFnae2,#-+-,23FFFFFF",
"FFFFnxf2-++++++++#23FFFF",
"FFFnnf<++++++++++++,3FFF",
"FFFna<++++++++++@@@@<FFF",
"FFnm0+++++++++++@#X@@2FF",
"FFns#++++++++++++++++#FF",
"FnnBDDDDDDDDDDDDDDDDDDVF",
"Fnn:++++++++++++++++++>F",
"FnnADDDDDDDDDDDDDDDDDDSF",
"Fnn=++++++++++++++++@X+F",
"FnnCDDDDDDDDDDDDDDDDDSAF",
"Fnnw++++++++++++++++@@oF",
"FFnMDDDDDDDDDDDDDDDDDDNF",
"FFnk$++++++++++++++++OFF",
"FFFnp++++++++++++++++FFF",
"FFFnli++++++++++++++ FFF",
"FFFFnji++++++++++++.FFFF",
"FFFFFFhy$++++++++OFFFFFF",
"FFFFFFFFtuq%=*&XFFFFFFFF",
"FFFFFFFFFFFFFFFFFFFFFFFF",
"FFFFFFFFFFFFFFFFFFFFFFFF"
};
