/* XPM */
static char *emacs[] = {
/* columns rows colors chars-per-pixel */
"24 24 114 2 ",
"   c #4B4984",
".  c #525091",
"X  c #545091",
"o  c #545192",
"O  c #545093",
"+  c #5C59A2",
"@  c #5E5BA4",
"#  c #605DA9",
"$  c #605EA8",
"%  c #605EA9",
"&  c #615FAA",
"*  c #615FAB",
"=  c #6360AD",
"-  c #6361AF",
";  c #6461AF",
":  c #6462AF",
">  c #6461B0",
",  c #6562B0",
"<  c #6562B1",
"1  c #6663B2",
"2  c #6764B2",
"3  c #6966B1",
"4  c #6A66B1",
"5  c #6865B2",
"6  c #6865B3",
"7  c #6966B3",
"8  c #6A67B3",
"9  c #6A68B4",
"0  c #6B68B4",
"q  c #6C69B5",
"w  c #6D6BB5",
"e  c #6F6CB6",
"r  c #706DB1",
"t  c #706DB2",
"y  c #706EB7",
"u  c #716EB7",
"i  c #7270B8",
"p  c #7371B8",
"a  c #7572B9",
"s  c #7774BA",
"d  c #7875BA",
"f  c #7A77BB",
"g  c #7D7BBB",
"h  c #7E7BBE",
"j  c #7F7DBC",
"k  c #7E7CBD",
"l  c #807CBE",
"z  c #807EBF",
"x  c #817EBF",
"c  c #807FBF",
"v  c #817FBF",
"b  c #807FC0",
"n  c #8180BF",
"m  c #8280BF",
"M  c #8180C0",
"N  c #8280C0",
"B  c #8380C0",
"V  c #8481C1",
"C  c #8482C1",
"Z  c #8583C1",
"A  c #8683C2",
"S  c #8684C2",
"D  c #8785C2",
"F  c #8C89C5",
"G  c #8E8CC6",
"H  c #8F8DC6",
"J  c #918FC7",
"K  c #9391C8",
"L  c #9391C9",
"P  c #9593C9",
"I  c #9C9ACD",
"U  c #A09ECF",
"Y  c #A4A2D1",
"T  c #A6A4D2",
"R  c #A7A5D2",
"E  c #A7A6D3",
"W  c #A8A6D3",
"Q  c #AAA9D4",
"!  c #ACABD5",
"~  c #ADABD5",
"^  c #B1B0D8",
"/  c #B2B1D8",
"(  c #B3B1D8",
")  c #B9B8DC",
"_  c #BAB8DC",
"`  c #BFBEDF",
"'  c #C0BEDF",
"]  c #C0BFDF",
"[  c #C9C8E4",
"{  c #D2D1E8",
"}  c #DAD9EC",
"|  c #DDDCEE",
" . c #DDDDEE",
".. c #DEDEEE",
"X. c #DFDEEF",
"o. c #E0DFEF",
"O. c #E3E3F1",
"+. c #E8E8F3",
"@. c #E9E9F4",
"#. c #EAE9F4",
"$. c #ECEBF5",
"%. c #F0F0F7",
"&. c #F1F1F8",
"*. c #F3F3F9",
"=. c #F4F4F9",
"-. c #F5F5FA",
";. c #F7F6FB",
":. c #F9F9FC",
">. c #FBFBFD",
",. c #FDFDFE",
"<. c #FEFEFE",
"1. c #FEFEFF",
"2. c white",
"3. c None",
/* pixels */
"3.3.3.3.3.3.3.3.3.3.3.3.3.3.3.3.3.3.3.3.3.3.3.3.",
"3.3.3.3.3.3.3.3.3.n M M A M n 3.3.3.3.3.3.3.3.3.",
"3.3.3.3.3.3.M l d e 8 2 6 6 u d M l 3.3.3.3.3.3.",
"3.3.3.3.3.M a 6 < < < < < < < < 2 s l 3.3.3.3.3.",
"3.3.3.3.l 9 < < < < < < < < < < < < 9 l 3.3.3.3.",
"3.3.3.k 6 < < < < < < < 2 G T ~ W s < 6 k 3.3.3.",
"3.3.g 9 < < < < < D L b w < a I $.>.d < w j 3.3.",
"3.3.p < < < < < M <.<.<.<.:.#.O.<.<.U < < i 3.3.",
"3.3.< < < < < < 7 @.<.o.T ~ ( [ ..{ u < < 6 3.3.",
"3.t < < < < < < < b -.} 6 < < < < < < < < < t 3.",
"3.6 < < < < < < < < l #...s < < < < < < < < 6 3.",
"3.6 < < < < < u L Q ~ W ..*.J < < < < < < < 6 3.",
"3.: < < < 2 ` >.<.<.<.<.<.<.<.^ 2 < < < < < : 3.",
"3.= < < < I <.<.<.*.^ G h u < < < < < < < < $ 3.",
"3.@ < < < D <.<.<.d < < < < < < < < < < < < @ 3.",
"3.3.< < < < T <.<._ 9 < < < < < < < < < < < 3.3.",
"3.3.: < < < < A | <.-.' J w < < < < < < < < 3.3.",
"3.3.o < < < < < < J [ $.<.>.O._ b < < < < O 3.3.",
"3.3.3.$ < < < < d b M A L ' >.<.<.G < < $ 3.3.3.",
"3.3.3.3.= < < < 7 D L U ~ ~ T U l < < * 3.3.3.3.",
"3.3.3.3.3.$ < < < < < < < < < < < < $ 3.3.3.3.3.",
"3.3.3.3.3.3.o > < < < < < < < < < . 3.3.3.3.3.3.",
"3.3.3.3.3.3.3.3.  + $ < < $ +   3.3.3.3.3.3.3.3.",
"3.3.3.3.3.3.3.3.3.3.3.3.3.3.3.3.3.3.3.3.3.3.3.3."
};
