/* XPM */
static char *fedy[] = {
/* columns rows colors chars-per-pixel */
"24 24 36 1 ",
"  c #027EB8",
". c #298DBC",
"X c #0289C7",
"o c #028CCC",
"O c #1F8DC0",
"+ c #3395C3",
"@ c #38A2D3",
"# c gray75",
"$ c #ADD9ED",
"% c #B0D3E3",
"& c #C6C6C6",
"* c gray78",
"= c gray80",
"- c #D2D2D2",
"; c #E4E4E4",
": c gray90",
"> c gray91",
", c #E9E9E9",
"< c #EAEAEA",
"1 c gray92",
"2 c gray93",
"3 c #EEEEEE",
"4 c #EEF5F9",
"5 c #EFF6F9",
"6 c #EDF6FA",
"7 c #F6F6F6",
"8 c #F1F8FB",
"9 c #F2F8FA",
"0 c #F2F8FB",
"q c #F8F8F8",
"w c #F9F9F9",
"e c #FBFBFB",
"r c gray99",
"t c #FEFEFE",
"y c white",
"u c None",
/* pixels */
"uuuuuuuuuuuuuuuuuuuuuuuu",
"uuuuuuuuuuuuuuuuuuuuuuuu",
"uu<<<2<2<<22<<<211111<uu",
"uu<2<2<<2<<<22<<111111uu",
"uu<2<<2<2<<<<<<2111111uu",
"uu<2<2<<<<22<2<<111111uu",
"uu<<<<22<2<<2<2<111111uu",
"uu2<2<<<<<2<<<2<111111uu",
"uu1111112<<2<2qttq7<11uu",
"uu111+      O6tttt6111uu",
"uu111Xoooooo$tttttt711uu",
"uu111ooooooo0ttttttt11uu",
"uu111ooooooo0ttttttq11uu",
"uu111ooooooo%tttttt<11uu",
"uu111@oooooo.6tttt5-11uu",
"uu1111111<<<;&<tq<*:11uu",
"uu11111111111:=##=:111uu",
"uu11111111111111111111uu",
"uu11111111111111111111uu",
"uu11111111111111111111uu",
"uu<1111111111111111111uu",
"uu*<1111111111111111<*uu",
"uuuuuuuuuuuuuuuuuuuuuuuu",
"uuuuuuuuuuuuuuuuuuuuuuuu"
};
