/* XPM */
static char *gitg[] = {
/* columns rows colors chars-per-pixel */
"24 24 48 1 ",
"  c #E73F32",
". c #E93F33",
"X c #EA4033",
"o c #E94236",
"O c #F34235",
"+ c #F34336",
"@ c #F34538",
"# c #F34639",
"$ c #F3463A",
"% c #F35145",
"& c #F35247",
"* c #F35347",
"= c #F55449",
"- c #F45549",
"; c #F66C61",
": c #F66C62",
"> c #F66F65",
", c #F67066",
"< c #F67168",
"1 c #F67268",
"2 c #F6776D",
"3 c #F6786F",
"4 c #F6796F",
"5 c #F77E75",
"6 c #F77F76",
"7 c #F89790",
"8 c #FAABA5",
"9 c #FCD2CF",
"0 c #FDDEDC",
"q c #FDE7E5",
"w c #FEE8E6",
"e c #FEE9E7",
"r c #FEEAE8",
"t c #FEEAE9",
"y c #FEECEB",
"u c #FEEEED",
"i c #FEEFEE",
"p c #FEF0EF",
"a c #FEF1F0",
"s c #FEF2F1",
"d c #FEF2F2",
"f c #FEF3F2",
"g c #FEF3F3",
"h c #FEF4F3",
"j c #FEF5F4",
"k c #FFF6F6",
"l c white",
"z c None",
/* pixels */
"zzzzzzzzzzz==zzzzzzzzzzz",
"zzzzzzzzzz*@@-zzzzzzzzzz",
"zzzzzzzzz&@OO@*zzzzzzzzz",
"zzzzzzzz9:OOOO@*zzzzzzzz",
"zzzzzzz&3y:OO.O+*zzzzzzz",
"zzzzzz&@+3sit5++@*zzzzzz",
"zzzzz&@OOOpllwOOO@*zzzzz",
"zzzz&@OOOOtllyOOOO@&zzzz",
"zzz-+OOOOO3fff1+OOO+-zzz",
"zz&++OOOOOO87,p,OOOO@&zz",
"z&++OOOOOOO87O,fit3OO@*z",
"&@OOOOOOOOO87OOpllwOOO@&",
"oOOOOOOOOOO87OOwlltOOOOo",
"zXOOOOOOOOO87OO3tw2OOOXz",
"zz.OOOOOOOO87OOOOOOOOXzz",
"zzz.OOOOOO5kp,OOOOOOXzzz",
"zzzz.OOOO+sll0OOOOOXzzzz",
"zzzzz.OOOOsll0OOOOXzzzzz",
"zzzzzz.OOO6yq,OOOXzzzzzz",
"zzzzzzz.OOOOOOOOXzzzzzzz",
"zzzzzzzz.OOOOOOXzzzzzzzz",
"zzzzzzzzz.OOOOXzzzzzzzzz",
"zzzzzzzzzz.OOXzzzzzzzzzz",
"zzzzzzzzzzz  zzzzzzzzzzz"
};
