/* XPM */
static char *glade[] = {
/* columns rows colors chars-per-pixel */
"24 24 48 1 ",
"  c #7AAB41",
". c #7CAF42",
"X c #7EB045",
"o c #80B343",
"O c #81B444",
"+ c #84B946",
"@ c #86BD47",
"# c #82B34A",
"$ c #88BF48",
"% c #8DB85B",
"& c #8DB263",
"* c #89C048",
"= c #89C149",
"- c #8AC249",
"; c #8AC24A",
": c #8CC34C",
"> c #8EC44F",
", c #8FC450",
"< c #93C757",
"1 c #92C15B",
"2 c #96C85C",
"3 c #9CCB65",
"4 c #9ECC68",
"5 c #9FCC6A",
"6 c #A0CD6A",
"7 c #A1CE6D",
"8 c #A4CE71",
"9 c #A4CE73",
"0 c #9CB680",
"q c #A8B894",
"w c #BCBCBC",
"e c #ACD280",
"r c #B8D793",
"t c #BBD899",
"y c #B7C0AD",
"u c #C3DCA8",
"i c #CACAC9",
"p c #D5D5D5",
"a c #DDDDDD",
"s c gray87",
"d c #D5E3C5",
"f c #E0E7D9",
"g c #E8EAE6",
"h c #E8EAE7",
"j c gray92",
"k c gray93",
"l c #EEEEEE",
"z c None",
/* pixels */
"zzzzzzzzzzzzzzzzzzzzzzzz",
"zzzzzzzzzzzzzzzzzzzzzzzz",
"zzzzkkkkkkkkkkkkkkkkzzzz",
"zzzzjjjjjjjjjjjjjjkjzzzz",
"zz6zjjjjjjjjjjjjjjjjzzzz",
"zz<5fjjjjjjjjjjjjjjjzzzz",
"zz-,8djjjjjjjjjjjjjjzzzz",
"zz--:3ujjjjjjjjjjjjjzzzz",
"zz----2rgjjjjjjjjjjjzzzz",
"zz-----<efjjjjjjjjjjzzzz",
"zz------,8djjjjjjjjjzzzz",
"zz-----:-:3ujjjjjjjjzzzz",
"zz----&%---2tgjjjjjjzzzz",
"zz----i&O---<efjjjjjzzzz",
"zz----gpq#$--,8djjjjzzzz",
"zz----jgaw1---:3ujjjzzzz",
"zz----7764:-----2rjkzzzz",
"zz*--------------<9fzzzz",
"zzO-----*--------*:8zzzz",
"zzz .X X..XXXX..X.XX%zzz",
"zzzzwwwwwwwwwwwwwwwwzzzz",
"zzzzajjjjjjjjjjjjkkszzzz",
"zzzzzzzzzzzzzzzzzzzzzzzz",
"zzzzzzzzzzzzzzzzzzzzzzzz"
};
