/* XPM */
static char *gnome_mahjongg[] = {
/* columns rows colors chars-per-pixel */
"24 24 44 1 ",
"  c #BA0000",
". c #BB0202",
"X c #BB0606",
"o c #BD0E0E",
"O c #C22929",
"+ c #C53333",
"@ c #C63939",
"# c #C63B3B",
"$ c #C73D3D",
"% c #C94747",
"& c #C94848",
"* c #CB5252",
"= c #D16D6D",
"- c #D16E6E",
"; c #D47E7E",
": c #D68484",
"> c #D68787",
", c #D78C8C",
"< c #D99494",
"1 c #D99797",
"2 c #DCA3A3",
"3 c #DCA4A4",
"4 c #CBCBCB",
"5 c #D8D8D8",
"6 c #DADADA",
"7 c gray87",
"8 c #DFDFDF",
"9 c #E3C2C2",
"0 c #E2C3C3",
"q c #E3C7C7",
"w c #E5CECE",
"e c #E5CFCF",
"r c #E6D3D3",
"t c #E7D6D6",
"y c #E7D7D7",
"u c #E8D9D9",
"i c gray88",
"p c #E9E2E2",
"a c #E9E5E5",
"s c #EAE6E6",
"d c gray92",
"f c #ECECEC",
"g c #EFEFEF",
"h c None",
/* pixels */
"hhhhhhhhhhhhhhhhhhhhhhhh",
"hhhhhhhhhhhhhhhhhhhhhhhh",
"hhhhhhhii88888ii88i8ihhh",
"hhhhhhh66565655655656hhh",
"hhhhhhh66666565555556hhh",
"hhhfgggffgfffggfd5555hhh",
"hhhffdddfdddddffd5555hhh",
"hhhdffddt1sdddddd5556hhh",
"hhhdddddq 1dddddd5555hhh",
"hhhdddddu 0dddddd5556hhh",
"hhhdddd,& +o:dddd5555hhh",
"hhhdddd,3 u$;dddd5555hhh",
"hhhdddd0%X-@pdddd5556hhh",
"hhhdddddwOttddddd5555hhh",
"hhhdddddd$pdddddd5555hhh",
"hhhdddddd*ddddddd5556hhh",
"hhhdddddd-ddddddd5555hhh",
"hhhdddddd>ddddddd5555hhh",
"hhhdddddd3ddddddd6564hhh",
"hhhddddddwdddddddhhhhhhh",
"hhhddddddddddddddhhhhhhh",
"hhh8dddddddddddd8hhhhhhh",
"hhhhhhhhhhhhhhhhhhhhhhhh",
"hhhhhhhhhhhhhhhhhhhhhhhh"
};
