/* XPM */
static char *gnome_pomodoro[] = {
/* columns rows colors chars-per-pixel */
"24 24 52 1 ",
"  c #939393",
". c #9A9A9A",
"X c #9B9B9B",
"o c gray61",
"O c gray62",
"+ c gray63",
"@ c gray64",
"# c gray66",
"$ c #A9A9A9",
"% c gray67",
"& c #ACACAC",
"* c gray68",
"= c #AEAEAE",
"- c #B1B1B1",
"; c #B2B2B2",
": c gray70",
"> c #B4B4B4",
", c #B6B6B6",
"< c #CACACA",
"1 c gray81",
"2 c #D0D0D0",
"3 c LightGray",
"4 c gray83",
"5 c #D5D5D5",
"6 c gray84",
"7 c #D7D7D7",
"8 c #D8D8D8",
"9 c gray85",
"0 c gray86",
"q c gainsboro",
"w c #DDDDDD",
"e c gray87",
"r c gray88",
"t c #E2E2E2",
"y c gray89",
"u c gray90",
"i c #E6E6E6",
"p c #E7E7E7",
"a c gray91",
"s c #E9E9E9",
"d c #EAEAEA",
"f c gray92",
"g c #ECECEC",
"h c gray93",
"j c #EEEEEE",
"k c #EFEFEF",
"l c gray94",
"z c gray95",
"x c #F3F3F3",
"c c #F4F4F4",
"v c gray96",
"b c None",
/* pixels */
"bbbbbbbbbbbbbbbbbbbbbbbb",
"bbbbbbbbbggddgdbbbbbbbbb",
"bbbbbbbddgdggdgdgbbbbbbb",
"bbbbbdgggdgddgdgdgdbbbbb",
"bbbbddgddgddgdgdgdgdbbbb",
"bbbddgdg8&,d<&&wdgdgdbbb",
"bbbggdgd#4@1-<wdgdgdgbbb",
"bbdddgdgdtOt&@Otdgdgddbb",
"bbdgdgdgi@2gtd&1gdgdgdbb",
"btgdgdgd#X-2-#Xwdgdgdgtb",
"bidgdgdg888td8tdgdgdgdib",
"bdgdgdgdgggggdgddgdgdgdb",
"bv vv vv vv vvvvvvvvvvvb",
"blvvvvvvvvvvvvvvvvvvvvgb",
"bdvvvvvvvvvvvvvvvvvvvvdb",
"b4vvvvvvvvv44vvvvvvvvv4b",
"bbvvvvvvvvgOXgvvvvvvvvbb",
"bb8vvvvvvv-  -vvvvvvv8bb",
"bbbgvvvvvvvvvvvvvvvvgbbb",
"bbbblvvvvvvvvvvvvvvlbbbb",
"bbbbbgvvvvvvvvvvvvlbbbbb",
"bbbbbb8vvvvvvvvvv4bbbbbb",
"bbbbbbbb<dlvvgd<bbbbbbbb",
"bbbbbbbbbbbbbbbbbbbbbbbb"
};
