/* XPM */
static char *gnome_documents[] = {
/* columns rows colors chars-per-pixel */
"24 24 12 1 ",
"  c #BCBCBC",
". c #CBCBCB",
"X c #D8D8D8",
"o c gainsboro",
"O c gray87",
"+ c #E6E6E6",
"@ c gray91",
"# c gray92",
"$ c gray93",
"% c #EEEEEE",
"& c #F3F3F3",
"* c None",
/* pixels */
"************************",
"************************",
"*******+#++##+#+#++#+***",
"*******oXXXXXXXXXXXXo***",
"*******XXXXXXXXXXXXXX***",
"***&&&&&&&&&&&&&$XXXX***",
"***$############$XXXX***",
"***##############XXXX***",
"***##############XXXX***",
"***###     ######XXXX***",
"***##############XXXX***",
"***###        ###XXXX***",
"***##############XXXX***",
"***###        ###XXXX***",
"***##############XXXX***",
"***###        ##$XXXX***",
"***##############XXXX***",
"***##############XXXX***",
"***##############XXX.***",
"***##############*******",
"***$#############*******",
"***o############o*******",
"************************",
"************************"
};
