/* XPM */
static char *ibus_pinyin[] = {
/* columns rows colors chars-per-pixel */
"24 24 92 1 ",
"  c #1B7DCB",
". c #1A7DCC",
"X c #2093F1",
"o c #2094F1",
"O c #2095F2",
"+ c #2195F2",
"@ c #2296F2",
"# c #2A9AF3",
"$ c #309CF3",
"% c #319DF3",
"& c #349EF2",
"* c #359EF3",
"= c #369FF3",
"- c #359EF4",
"; c #38A0F3",
": c #3AA1F4",
"> c #3BA2F4",
", c #3EA3F4",
"< c #3FA4F4",
"1 c #42A5F4",
"2 c #46A7F4",
"3 c #47A8F4",
"4 c #48A8F4",
"5 c #4AA9F4",
"6 c #4BA9F4",
"7 c #4CAAF5",
"8 c #4FABF5",
"9 c #53ADF5",
"0 c #55AEF5",
"q c #56AFF5",
"w c #57AFF5",
"e c #5BB1F5",
"r c #5CB2F6",
"t c #5FB3F6",
"y c #61B4F6",
"u c #65B6F6",
"i c #6AB8F6",
"p c #73BCF7",
"a c #79BFF7",
"s c #7EC2F8",
"d c #7FC2F8",
"f c #81C3F8",
"g c #84C4F8",
"h c #87C6F8",
"j c #8CC8F8",
"k c #8EC9F8",
"l c #93CBF9",
"z c #96CDF9",
"x c #97CEF9",
"c c #98CEF9",
"v c #9ED1F9",
"b c #9FD1F9",
"n c #A1D2F9",
"m c #A1D3FA",
"M c #A6D5FA",
"N c #ADD8FA",
"B c #AFD9FA",
"V c #B4DBFB",
"C c #B6DCFB",
"Z c #B7DDFB",
"A c #BCDFFB",
"S c #BFE1FB",
"D c #C0E1FB",
"F c #C4E3FC",
"G c #CEE8FC",
"H c #D2E9FC",
"J c #D2EAFC",
"K c #D4EBFC",
"L c #DDEFFD",
"P c #DEEFFD",
"I c #E0F0FD",
"U c #E1F1FD",
"Y c #E2F1FD",
"T c #E3F2FD",
"R c #E6F3FE",
"E c #EAF5FE",
"W c #EBF5FE",
"Q c #ECF6FE",
"! c #EDF6FE",
"~ c #EEF7FE",
"^ c #F0F8FE",
"/ c #F3F9FE",
"( c #F4FAFE",
") c #F5FAFE",
"_ c #F6FBFE",
"` c #F8FCFF",
"' c #FBFDFF",
"] c #FCFEFF",
"[ c #FDFEFF",
"{ c #FEFFFF",
"} c white",
"| c None",
/* pixels */
"||||||||||||||||||||||||",
"|&=&============;&=====|",
"|#++OOOO+OOOOO+OOOOOO+#|",
"|+O+OOOOOOOOOOOOOOOOOO+|",
"|+OOOOOOOOO+OOOO++OOOO+|",
"|OOOOO+hjOOqfOO>A>OOOOO|",
"|OOOOOOnMO+4[qOvJ+OOOOO|",
"|+OOO3iSFi1,ct4_p1#OOO+|",
"|OOOOsJQ~JZ^[_^_[/kOOOO|",
"|OOOOOOnMO++`8OuT+OOOO+|",
"|+OOOO+nM<%+_9OuU+OOOOO|",
"|OOOOO+NQ/4+`4OuUOOOOOO|",
"|OOOOgP[G;PU[RUQ`UUOOO+|",
"|+OOOVzZM+es[uejQte+OOO|",
"|OOOOOOnM+OaIO+uU+OOOOO|",
"|OOOOOOnMOOFnOOuUOOOOO+|",
"|+OOO+OmM+r`4+OuTOOOOOO|",
"|OOOOqlKv4^z++OuTOOOOO+|",
"|OOOO2ZS41z+OOO9NOOOOOO|",
"|+OOOOOOOO+OOOOO++OOOO+|",
"|OOOOOOOOOOOOOOOOOOOOOO|",
"|XOOOOOOOOOOOOOOOOOOOO+|",
"|.X+O+OO+OO+OO+OOO+OO+ |",
"||||||||||||||||||||||||"
};
