/* XPM */
static char *ibus[] = {
/* columns rows colors chars-per-pixel */
"24 24 13 1 ",
"  c #1B7DCB",
". c #1A7DCC",
"X c #2093F1",
"o c #2094F1",
"O c #2095F2",
"+ c #2195F2",
"@ c #2A9AF3",
"# c #349EF2",
"$ c #359EF3",
"% c #369FF3",
"& c #359EF4",
"* c white",
"= c None",
/* pixels */
"========================",
"=#%#%%%%%%%%%%%%%#%%%%%=",
"=@++OOOO+OOOOO+OOOOO++@=",
"=+O+OOOOOOOOOOOOOOOOOO+=",
"=+OOOOOOOOOOOOOOOOOOOO+=",
"=OOOOOOOOOOOOOOOOOOOOOO=",
"=OOOOOOOOOO**OOOOOOOOOO=",
"=+OOOOOOOOO**OOOOOOOOO+=",
"=OOOOOOOOOOOOOOOOOOOOOO=",
"=OOOOOOOOOOOOOOOOOOOOO+=",
"=+OOOOOOOO***OOOOOOOOOO=",
"=OOOOOOOOOO**OOOOOOOOOO=",
"=OOOOOOOOOO**OOOOOOOOO+=",
"=+OOOOOOOOO**OOOOOOOOOO=",
"=OOOOOOOOOO**OOOOOOOOOO=",
"=OOOOOOOOOO**OOOOOOOOO+=",
"=+OOOOOOOOO**OOOOOOOOOO=",
"=OOOOOOOOO****OOOOOOOO+=",
"=OOOOOOOOOOOOOOOOOOOOOO=",
"=+OOOOOOOOOOOOOOOOOOOO+=",
"=OOOOOOOOOOOOOOOOOOOOOO=",
"=XOOOOOOOOOOOOOOOOOOOO+=",
"=.X+O+OO+OO+OO+OOO+O+X =",
"========================"
};
