/* XPM */
static char *lollypop[] = {
/* columns rows colors chars-per-pixel */
"24 24 135 2 ",
"   c #B33561",
".  c #B73664",
"X  c #B83564",
"o  c #BA3765",
"O  c #CA3B6E",
"+  c #D33E72",
"@  c #D53F73",
"#  c #D83F75",
"$  c #BC446E",
"%  c #C14C75",
"&  c #CD4A78",
"*  c #DA4076",
"=  c #DA4077",
"-  c #DC4077",
";  c #DC4177",
":  c #DD4177",
">  c #DC4178",
",  c #DD4178",
"<  c #DD4179",
"1  c #DD4279",
"2  c #DD437A",
"3  c #DE447A",
"4  c #DE457B",
"5  c #DE467C",
"6  c #E04F82",
"7  c #E05283",
"8  c #E05486",
"9  c #E15586",
"0  c #E15687",
"q  c #E25E8D",
"w  c #CA6F90",
"e  c #DB7C9D",
"r  c #E3608E",
"t  c #E36390",
"y  c #E36491",
"u  c #E46692",
"i  c #E46793",
"p  c #E46A95",
"a  c #E46B96",
"s  c #E56B96",
"d  c #E56E98",
"f  c #E56F99",
"g  c #E57099",
"h  c #E6739B",
"j  c #E77AA0",
"k  c #E77AA1",
"l  c #E87DA2",
"z  c #E87DA3",
"x  c #CA8DA2",
"c  c #D38DA6",
"v  c #D892AB",
"b  c #EA84A8",
"n  c #EA87AA",
"m  c #EA89AB",
"M  c #EA8AAC",
"N  c #EC98B6",
"B  c #ED99B6",
"V  c #EC9BB8",
"C  c #DEA6BB",
"Z  c #D9A9BA",
"A  c #DAAABB",
"S  c #C9B2BA",
"D  c #E7A3BB",
"F  c #EEA0BC",
"G  c #EFA4BE",
"H  c #DBBFC9",
"J  c #EFA6C0",
"K  c #EFAAC2",
"L  c #EFABC3",
"P  c #F0AAC3",
"I  c #E5B6C6",
"U  c #F2B6CC",
"Y  c #F4BCD0",
"T  c #F4BDD0",
"R  c #D7D7D7",
"E  c #DADADA",
"W  c #F2C0D2",
"Q  c #F3C3D3",
"!  c #F4C1D3",
"~  c #F4C3D4",
"^  c #F5C3D5",
"/  c #F1C7D5",
"(  c #F3CAD8",
")  c #F5CAD9",
"_  c #F5CCDA",
"`  c #F6CCDB",
"'  c #F3CFDC",
"]  c #F6CDDC",
"[  c #F5D2DE",
"{  c #F7D3E0",
"}  c #F8D6E2",
"|  c #F0DDE3",
" . c #F1DEE5",
".. c #F9DDE7",
"X. c #F9DEE8",
"o. c gray91",
"O. c #E9E9E9",
"+. c #F2E2E7",
"@. c #F2E2E8",
"#. c #F6E3EA",
"$. c #F8E1E9",
"%. c #F9E1E9",
"&. c #FAE2EA",
"*. c #FAE3EB",
"=. c #FAE4EC",
"-. c #FAE5EC",
";. c #FAE6ED",
":. c #F4EFF1",
">. c #FBE9F0",
",. c #FBEAF0",
"<. c #FBEBF1",
"1. c #FBECF1",
"2. c #FBEFF3",
"3. c #FCEDF2",
"4. c #FCEFF3",
"5. c #F4F4F4",
"6. c gray96",
"7. c #FCF0F4",
"8. c #FDF5F8",
"9. c #FDF7F9",
"0. c #FEF7F9",
"q. c gray98",
"w. c #FCF8F9",
"e. c #FCF9FA",
"r. c #FEF8FA",
"t. c #FEF9FB",
"y. c #FDFAFB",
"u. c #FCFBFB",
"i. c #FDFBFC",
"p. c #FEFAFC",
"a. c #FEFBFC",
"s. c #FDFDFD",
"d. c #FEFEFE",
"f. c white",
"g. c None",
/* pixels */
"g.g.g.g.g.g.g.g.g.g.g.g.g.g.g.g.g.g.g.g.g.g.g.g.",
"g.g.g.g.g.g.g.g.Y K , , , , b Y g.g.g.g.g.g.g.g.",
"g.g.g.g.g.g.Q r.f.f , , , i r.f.9.~ g.g.g.g.g.g.",
"g.g.g.g.g.*.f.f.3., , , 3 X.f.f.f.f.*.g.g.g.g.g.",
"g.g.g.g.^ f.f.f.! , , , m f.f.f.f.f.3._ g.g.g.g.",
"g.g.g.- M f.f.f.P , , , ..f.f.3.F q , , , g.g.g.",
"g.g.g., 5 ,.f.f.J N =.p.f.f.{ 7 , , , , , g.g.g.",
"g.g.- , , z f.f.9.f.f.f.f.f.f.-.9 , , , , - g.g.",
"g.g., , , > U f.f.f.f.f.f.f.f.f.-.7 y g d 9 g.g.",
"g.[ j - , > V f.f.f.f t } f.f.f.f.f.f.f.f.f.( g.",
"g.3.9.a , , #.f.f.f., , , N r.f.f.q.f.f.f.f.,.g.",
"g.r.f.9.M , r.f.f.f., , , , a f.f.p._ f.f.f.p.g.",
"g.p.f.f.f.] r.f.f.f., , , , a f.f.9., m 9.f.p.g.",
"g.1.f.f.f.f.6.f.f.f., , 5 N r.f.f. ., , a 9.,.g.",
"g./ f.f.f.f.o.f.f.f.f r } f.f.f.f.v , , , j ' g.",
"g.g.9 a f y & +.f.f.f.f.f.f.f.f.6.C , , , , w g.",
"g.g.* , , , , % o.q.q.f.f.f.f.:.E f.z > , * g.g.",
"g.g.X , , , , # $ W 6.q.r.| c x q.f.,.3 , . g.g.",
"g.g.g.+ , , r G 1.o.R S   o O P f.f.f.m + g.g.g.",
"g.g.g.g._ 7.f.f.f.f.f.m , , , / f.f.f.T g.g.g.g.",
"g.g.g.g.g.*.f.f.f.f..., , , , 3.f.f.*.g.g.g.g.g.",
"g.g.g.g.g.g.I 9.f.r.i , , , g f.r.I g.g.g.g.g.g.",
"g.g.g.g.g.g.g.g.Z e * - , * D Z g.g.g.g.g.g.g.g.",
"g.g.g.g.g.g.g.g.g.g.g.g.g.g.g.g.g.g.g.g.g.g.g.g."
};
