/* XPM */
static char *maps[] = {
/* columns rows colors chars-per-pixel */
"24 24 85 1 ",
"  c #39794B",
". c #387E4E",
"X c #3C7D4E",
"o c #587148",
"O c #597148",
"+ c #686B45",
"@ c #6D6A45",
"# c #C0342A",
"$ c #E03D31",
"% c #CB4D39",
"& c #CC4D3A",
"* c #E74536",
"= c #E64637",
"- c #EE4134",
"; c #EF4135",
": c #EF4335",
"> c #F04134",
", c #F04335",
"< c #F24234",
"1 c #F24235",
"2 c #F34235",
"3 c #F34335",
"4 c #F34136",
"5 c #F34236",
"6 c #F24538",
"7 c #F2493D",
"8 c #ED4E41",
"9 c #F04D41",
"0 c #EF5144",
"q c #F4584D",
"w c #F4594E",
"e c #E3685C",
"r c #1C965A",
"t c #1C995C",
"y c #1D9E5F",
"u c #1EA362",
"i c #5CAB50",
"p c #5DAE51",
"a c #60B353",
"s c #60B454",
"d c #60B756",
"f c #63B956",
"g c #F7E93F",
"h c #FEEA3A",
"j c #FBE93D",
"k c #FAE93E",
"l c #FAE93F",
"z c #ED8176",
"x c #F7E844",
"c c #E9DB69",
"v c #FCF078",
"b c #FCF07A",
"n c #5DAD84",
"m c #5FADBE",
"M c #62AEBC",
"N c #2095F2",
"B c #62B4F6",
"V c #64B5F6",
"C c #DE938D",
"Z c #DC958D",
"A c #FCCBC8",
"S c #FCCCC8",
"D c #FCCDC9",
"F c #FCCDCA",
"G c #ECD3C9",
"H c #E9E5DC",
"J c #EAE6DD",
"K c #EBE8DF",
"L c #ECE8DF",
"P c #EAE1E0",
"I c #EAE9E7",
"U c #EFECE6",
"Y c #FEF5F5",
"T c #FEF6F5",
"R c #FEF7F6",
"E c #FDFEFB",
"W c #FFFFFA",
"Q c #F9FCFE",
"! c gray99",
"~ c #FEFDFD",
"^ c #FDFEFD",
"/ c #FCFDFE",
"( c #FEFEFE",
") c white",
"_ c None",
/* pixels */
"________________55532___",
"_______________3553322__",
"__KLLLJILKKKPG73555522<_",
"__HHHHHHHHHHKz33qDRDq22<",
"__HHHHHHHHHHH0<3D~~~A22<",
"__HHHHHHHHHHH633R~~~Y222",
"__HHHHHHHHHHH833D~~~A222",
"__HHHHHHHHHHHe33qDYAq22$",
"__HHHHHHHHHHHC332222222_",
"__HHHHHHHHHHUP832522222_",
"__HHHHHHHHHU~~C$55$322#_",
"__HHHHHHHHU~~~n&55532&__",
"__HHHHHHHU~~Wbd.=333*.__",
"__HHHHHHU~~~bhjdO<3-Ou__",
"__HHHHHU~~~BMxhjp+3@tu__",
"__HHHHU~~~BNNMkhki ruu__",
"__HHHU~~~VNNNNmxhjauuu__",
"__HHU~~~VNNNNNNmkhjfuu__",
"__HU~~~VNNNNNNNNMxhjfu__",
"__U~~/VNNNNNNNNNNmkhjf__",
"__~~~VNNNNNNNNNNNNMkhk__",
"__I/VNNNNNNNNNNNNNNmxc__",
"________________________",
"________________________"
};
