/* XPM */
static char *midori[] = {
/* columns rows colors chars-per-pixel */
"24 24 110 2 ",
"   c #B27F3C",
".  c #EE4736",
"X  c #E15237",
"o  c #CE6439",
"O  c #F45549",
"+  c #F4554A",
"@  c #F1594A",
"#  c #E1694C",
"$  c #F16D5E",
"%  c #E77960",
"&  c #659136",
"*  c #669036",
"=  c #679337",
"-  c #72A03D",
";  c #77A73F",
":  c #78A63F",
">  c #78A73F",
",  c #78A740",
"<  c #78A940",
"1  c #79AA41",
"2  c #7BAD41",
"3  c #7CAE42",
"4  c #7DAE42",
"5  c #7CAF42",
"6  c #7DAE43",
"7  c #7DAF43",
"8  c #7EB044",
"9  c #7FB146",
"0  c #99943F",
"q  c #A58A3D",
"w  c #909C40",
"e  c #89A341",
"r  c #82A941",
"t  c #82AF45",
"y  c #81B247",
"u  c #81B249",
"i  c #82B34A",
"p  c #83B34C",
"a  c #86AD59",
"s  c #88B653",
"d  c #88B654",
"f  c #89B755",
"g  c #91BB61",
"h  c #92BD61",
"j  c #92BE60",
"k  c #BCAE69",
"l  c #AEBE6B",
"z  c #B5B66A",
"x  c #AFBE73",
"c  c #C48850",
"v  c #D98A63",
"b  c #D78B6A",
"n  c #C3A567",
"m  c #98C565",
"M  c #99C466",
"N  c #9AC26B",
"B  c #9EC969",
"V  c #9FCC6C",
"C  c #9BC171",
"Z  c #A9C56D",
"A  c #A5C96D",
"S  c #A1CE6D",
"D  c #A1CD6F",
"F  c #A1CE6E",
"G  c #A2CE6E",
"H  c #A2CF6F",
"J  c #A3CF70",
"K  c #A4CF71",
"L  c #A4CF72",
"P  c #A7CE73",
"I  c #A5C67E",
"U  c #A4D072",
"Y  c #A5D073",
"T  c #A5D173",
"R  c #A5D074",
"E  c #A7D176",
"W  c #A8D377",
"Q  c #A9D27A",
"!  c #ABD27B",
"~  c #ABD37C",
"^  c #ACD47F",
"/  c #E0A98D",
"(  c #ADD480",
")  c #AED482",
"_  c #AFD583",
"`  c #B0D483",
"'  c #B0D783",
"]  c #B0D684",
"[  c #B1D685",
"{  c #B1D785",
"}  c #B2D685",
"|  c #B1D786",
" . c #B2D788",
".. c #B5D78C",
"X. c #B3D888",
"o. c #B4D88B",
"O. c #B3CE94",
"+. c #BEDC9C",
"@. c #C4DAAA",
"#. c #CDDDBB",
"$. c #C7E0AB",
"%. c #D9E8C7",
"&. c #E0E9D6",
"*. c #E0E8D8",
"=. c #E7EEDE",
"-. c #EDEFEA",
";. c #F0F1ED",
":. c #F1F3ED",
">. c #F3F3F3",
",. c None",
/* pixels */
",.,.,.,.,.,.,.,.,.,.,.,.,.,.,.,.,.,.,.,.,.,.,.,.",
",.,.,.,.,.,.,.,.,.| X...X.X. .,.,.,.,.,.,.,.,.,.",
",.,.,.,.,.,.| X.^ R Y S S K W ^ X.^ ,.,.,.,.,.,.",
",.,.,.,.,.| ! S S S S S S S S S P ^ X.,.,.,.,.,.",
",.,.,.,.| R S S S S S S S S S S G G P Z ,.,.,.,.",
",.,.,.( K S S S S S S S S S S S A Z c t m ,.,.,.",
",.,.( Y S S S S S S S S S S S S Z # t y i m ,.,.",
",.,.! S S S S S S S S S S S S n @ w > > ; s ,.,.",
",.,.J S S S S S S S S S S A v O q t > > y y ,.,.",
",.W S S S S S S S S S S l % O o 8 5 > y > > f ,.",
",.R S S S S S S S S S k $ O X r 5 5 5 5 y 8 i ,.",
",.Y S S S S S S S S +./ O . w 7 5 5 5 5 y > y ,.",
",.S S S S S S S S ( :.>.b q 5 5 5 5 5 5 5 > 8 ,.",
",.B S S S S S S R =.>.-.I 7 5 5 5 5 5 5 5 8 8 ,.",
",.m S S S S S S %.>.*.g 5 5 5 5 5 5 5 5 5 5 ; ,.",
",.,.S S S S S $.>.#.p 5 5 5 5 5 5 5 5 5 5 5 ,.,.",
",.,.D S S V ..;.o.5 5 5 5 5 5 5 5 5 5 5 5 5 ,.,.",
",.,.a S S ! &.C 8 8 5 5 5 5 5 5 5 5 5 5 5 = ,.,.",
",.,.,.m J @.d 5 > y > 8 5 5 5 5 5 5 5 5 8 ,.,.,.",
",.,.,.,.N 9 5 5 y > 9 > 5 5 5 5 5 5 5 ; ,.,.,.,.",
",.,.,.,.,.> 7 5 8 > 8 8 5 5 5 5 8 8 > ,.,.,.,.,.",
",.,.,.,.,.,.* 5 8 8 > 8 5 5 5 7 > = ,.,.,.,.,.,.",
",.,.,.,.,.,.,.,.,.- ; 8 5 ; - ,.,.,.,.,.,.,.,.,.",
",.,.,.,.,.,.,.,.,.,.,.,.,.,.,.,.,.,.,.,.,.,.,.,."
};
