/* XPM */
static char *nvidia_settings[] = {
/* columns rows colors chars-per-pixel */
"24 24 87 1 ",
"  c #353535",
". c #3F3F3F",
"X c #5C7E1E",
"o c #4E5F2F",
"O c #464E37",
"+ c #42463B",
"@ c #43473B",
"# c #40423D",
"$ c #40413E",
"% c #40403F",
"& c #40423E",
"* c #42443D",
"= c #43483A",
"- c #454C39",
"; c #475135",
": c #475036",
"> c #475136",
", c #495533",
"< c #485335",
"1 c #485434",
"2 c #495534",
"3 c #4B5932",
"4 c #4C5C30",
"5 c #4F632C",
"6 c #4E602E",
"7 c #4E612E",
"8 c #546F26",
"9 c #556F26",
"0 c #546E27",
"q c #52692A",
"w c #567324",
"e c #557026",
"r c #587722",
"t c #597921",
"y c #597A21",
"u c #5B7C20",
"i c gray25",
"p c #515151",
"a c #626262",
"s c #656565",
"d c gray40",
"f c #5F8B12",
"g c #5E841B",
"h c #5D821C",
"j c #5D821D",
"k c #5E831C",
"l c #699D0E",
"z c #699C0F",
"x c #6A9E0E",
"c c #618B17",
"v c #618C17",
"b c #628D17",
"n c #638F16",
"m c #618A18",
"M c #659313",
"N c #679712",
"B c #649015",
"V c #679910",
"C c #679811",
"Z c #689911",
"A c #6CA30B",
"S c #6DA50A",
"D c #6EA70A",
"F c #6BA10C",
"G c #6AA00D",
"H c #6BA00D",
"J c #6BA10D",
"K c #6CA20C",
"L c #6CA30C",
"P c #6EA809",
"I c #70AC06",
"U c #70AD06",
"Y c #70AC07",
"T c #71AE06",
"R c #73B303",
"E c #75B601",
"W c #74B402",
"Q c #74B502",
"! c #74B403",
"~ c #76B800",
"^ c #76B900",
"/ c #77B901",
"( c #79A032",
") c #81BB19",
"_ c #8FC434",
"` c #91C733",
"' c None",
/* pixels */
"''''''''''''''''''''''''",
"''''''''''''''''''''''''",
"''addaddddd``````````(''",
"''pi.......E^^^^^^^^^)''",
"''i........^^^^^^^^^^^''",
"''.........^^^^^^^^^^^''",
"''.........^^^^^^^^^^^''",
"''.........^^^^^^^^^^^''",
"''....##eCz3,rU^^^^^^^''",
"''...#6At@,zTt=b^^^^^^''",
"''...jU10Hm:=BC*g^^^^^''",
"''.#*Pb<^O.E<bH@g^^^^^''",
"''...qE:CX.^QzOcRez^^^''",
"''....BH-Vbme6PH2.:T^^''",
"''....#mL4,MPH0#:jE^^^''",
"''.....#6MS2:ouzE^^^^^''",
"''.........^^^^^^^^^^^''",
"''.........^^^^^^^^^^^''",
"''.........^^^^^^^^^^^''",
"''.........^^^^^^^^^^^''",
"''.........^^^^^^^^^^R''",
"'' ........^^^^^^^^^Ef''",
"''''''''''''''''''''''''",
"''''''''''''''''''''''''"
};
