/* XPM */
static char *preferences_desktop_keyboard[] = {
/* columns rows colors chars-per-pixel */
"24 24 48 1 ",
"  c #4F585C",
". c #50595D",
"X c #53666E",
"o c #5D686C",
"O c #5C6D76",
"+ c #536C78",
"@ c #536C79",
"# c #57727F",
"$ c #58727E",
"% c #58737F",
"& c #636E73",
"* c #636E74",
"= c #677176",
"- c #61737B",
"; c #5A7581",
": c #597482",
"> c #5F7B89",
", c #5F7B8A",
"< c #5F7D89",
"1 c #5F7C8A",
"2 c #5F7D8A",
"3 c #617681",
"4 c #607885",
"5 c #607D8A",
"6 c #617E8B",
"7 c #717C80",
"8 c #717D80",
"9 c #727C81",
"0 c #63808D",
"q c #66828F",
"w c #859BA6",
"e c #8EA2AC",
"r c #B1BFC6",
"t c #B2C0C7",
"y c #BDC8CE",
"u c #C0CBD1",
"i c #D4DCDF",
"p c #DCE2E5",
"a c #DEE4E7",
"s c #ECF0F1",
"d c #EDF0F2",
"f c #F2F5F6",
"g c #F9F9FA",
"h c gray98",
"j c #FAFAFB",
"k c #FCFCFD",
"l c white",
"z c None",
/* pixels */
"zzzzzzzzzzzzzzzzzzzzzzzz",
"zzzzzzzzzzzzzzzzzzzzzzzz",
"zzzzzzzzzzzzzzzzzzzzzzzz",
"zzzzzzzzzzzzzzzzzzzzzzzz",
"zzzzzzzzzzzzzzzzzzzzzzzz",
"zzzzzzzzzzzzzzzzzzzzzzzz",
"zzz777799999999979777zzz",
"zzz=*&**&&&&&&&&&**&=zzz",
"zzz&&kh&jj&jj&jj&hk&&zzz",
"zzz&&hh&jj&jj&hj&hh&&zzz",
"zzz&&..&..&..&..&..&&zzz",
"zzz&&hh&jj&jh&hu4qq4-zzz",
"zzz&&hh&hh=kh*e5551111zz",
"zzz&&..&..&..-150ff5111z",
"zzz&&&&&hkkkd60pakkap01z",
"zzz&&&&&kkkky1wkkttkkw1z",
"zzz&&&&&.   X11id15di51;",
"zzzo&&&&&&&&O1wkkrtkkw1z",
"zzzzzzzzzzzzz,0pakkap0,z",
"zzzzzzzzzzzzz@115ff011@z",
"zzzzzzzzzzzzzz#111111$zz",
"zzzzzzzzzzzzzzzz;,,;zzzz",
"zzzzzzzzzzzzzzzzzzzzzzzz",
"zzzzzzzzzzzzzzzzzzzzzzzz"
};
