/* XPM */
static char *preferences_system_sharing[] = {
/* columns rows colors chars-per-pixel */
"24 24 52 1 ",
"  c #C61953",
". c #C71954",
"X c #C81954",
"o c #D11A58",
"O c #D11B58",
"+ c #D31B5A",
"@ c #D51B5A",
"# c #E01B5F",
"$ c #E01C5E",
"% c #E01C5F",
"& c #E11C5F",
"* c #E31C60",
"= c #E31D60",
"- c #E51C61",
"; c #E61C61",
": c #E61D61",
"> c #E61D62",
", c #E71D62",
"< c #E81D62",
"1 c #E81D63",
"2 c #E91E62",
"3 c #E82165",
"4 c #E92266",
"5 c #E92769",
"6 c #EA306F",
"7 c #EB3673",
"8 c #EC407A",
"9 c #EF5E8F",
"0 c #EF5F90",
"q c #F06997",
"w c #F06A98",
"e c #F06C99",
"r c #F06F9B",
"t c #F179A2",
"y c #F27BA3",
"u c #F27EA5",
"i c #F27EA6",
"p c #F59BB9",
"a c #F6A5C0",
"s c #F7ACC5",
"d c #F7ADC6",
"f c #F7AEC7",
"g c #F8B8CE",
"h c #FCE5ED",
"j c #FCE6EE",
"k c #FDE7EE",
"l c #FDECF2",
"z c #FEF4F8",
"x c #FFFBFC",
"c c #FFFCFD",
"v c white",
"b c None",
/* pixels */
"bbbbbbbbbbbbbbbbbbbbbbbb",
"bbbbbbbbbbbbbbbbbbbbbbbb",
"bbbbbbbbb222111bbbbbbbbb",
"bbbbbbb22222&1112bbbbbbb",
"bbbbb122222&2222&22bbbbb",
"bbbb11&1222122221122bbbb",
"bbbb11&122114qe42111bbbb",
"bbb>1121;211svvd&111>bbb",
"bbb222112211zvvz;2;12bbb",
"bb#22&112;7acvvg2;2;2&bb",
"bb&2229jhplp7it5;2222*bb",
"bb;222jvcx7122;22;2222bb",
"bb>122jvvv7;;22;222211bb",
"bb$1229jjplp7it522221#bb",
"bb@11&&1116acvvg1&&11@bb",
"bbb111211122zvvz11211bbb",
"bbb$11112;2;scvs1111$bbb",
"bbbb112&22;24qe11111bbbb",
"bbbbX&212222122211&Xbbbb",
"bbbbbX11222212;111Xbbbbb",
"bbbbbbb&11121122&bbbbbbb",
"bbbbbbbbb@#&&#@bbbbbbbbb",
"bbbbbbbbbbbbbbbbbbbbbbbb",
"bbbbbbbbbbbbbbbbbbbbbbbb"
};
