/* XPM */
static char *preferences_system_brightness_lock[] = {
/* columns rows colors chars-per-pixel */
"24 24 29 1 ",
"  c #597481",
". c #597482",
"X c #5F7C8A",
"o c #627C89",
"O c #637C8A",
"+ c #637F8D",
"@ c #63808D",
"# c #678290",
"$ c #678390",
"% c #708A96",
"& c #7B939E",
"* c #7B949F",
"= c #7C949E",
"- c #7D959F",
"; c #7D95A0",
": c #7E95A0",
"> c #7F96A1",
", c #A3B3BC",
"< c #A3B4BC",
"1 c #A4B5BC",
"2 c #DCE2E5",
"3 c #DCE3E6",
"4 c #DDE3E6",
"5 c #E1E6E9",
"6 c #E2E7E9",
"7 c #F7F9F9",
"8 c #F8F9FA",
"9 c white",
"0 c None",
/* pixels */
"000000000000000000000000",
"00000000000=>00000000000",
"0000000000=$$&0000000000",
"000000000=$XX$&000000000",
"0000>>>>>$XXXX$;>>>>0000",
"0000XXXXXXXXXXXXXXXX0000",
"0000XXXX+<28XXXXXXXX0000",
"0000XXX%6999XXXXXXXX0000",
"0000XX@69999XXXXXXXX0000",
"000=XX199999XXXXXXXX;000",
"00=$XX299999XXXXXXXX$&00",
"0=$XXX799999XXXXXXXXX$&0",
"0OXXXX799999XXXXXXXXXXO0",
"00 XXX299999XXXXXXXXX 00",
"000 XX,99999XXXXXXXX 000",
"0000XX+69999XXXXXXXX0000",
"0000XXX%6999XXXXXXXX0000",
"0000XXXX+<27XXXXXXXX0000",
"0000XXXXXXXXXXXXXXXX0000",
"0000XXXXXXXXXXXXXXXX0000",
"000000000 XXXX 000000000",
"0000000000 XX 0000000000",
"00000000000  00000000000",
"000000000000000000000000"
};
