/* XPM */
static char *preferences_system_notifications[] = {
/* columns rows colors chars-per-pixel */
"24 24 35 1 ",
"  c #2E3C43",
". c #2F3D44",
"X c #2F3E44",
"o c #303E46",
"O c #31414A",
"+ c #34444C",
"@ c #36464E",
"# c #354650",
"$ c #384951",
"% c #394A53",
"& c #3E4E57",
"* c #334959",
"= c #4D5C63",
"- c #4C5C64",
"; c #4C5E68",
": c #3C6A8E",
"> c #3D6C90",
", c #427398",
"< c #408DCB",
"1 c #4691CD",
"2 c #4692CD",
"3 c #4692CE",
"4 c #4794D0",
"5 c #4895D3",
"6 c #4D9BD9",
"7 c #4D9EDF",
"8 c #4AA2E9",
"9 c #4BA5EC",
"0 c #4CA4EC",
"q c #4CA6EF",
"w c #4CA9F3",
"e c #4DAAF5",
"r c #4EAAF5",
"t c white",
"y c None",
/* pixels */
"yyyyyyyyyyyyyyyyyyyyyyyy",
"yyyyyyyyyyyyyyyyyyyyyyyy",
"yyyyyyyyyyyyyyyyyyyyyyyy",
"yyyyyyeeeeyyyyyyyyyyyyyy",
"yyyyeeeeeeeeyyyyyyyyyyyy",
"yyy7eeetteee6;-------yyy",
"yyyeeeetteeee,%%%%%%&yyy",
"yyqeeeetteeee4%%%%%%%yyy",
"yyweeeetteeee0%%%%%%%yyy",
"yyweeeetteeeeq%%%%%%%yyy",
"yy8eeeeeeeeee2%%%%%%%yyy",
"yy<eeeetteeee:%%%%%%%yyy",
"yyy5eeetteee5#%%%%%%%yyy",
"yyy*5eeeeee4*%%%%%%%%yyy",
"yyy%O:2992:O%%%%%%%%%yyy",
"yyy%%+o  o+%%%%%%%%%%yyy",
"yyy%%%%%%%%%%%%%%%%%%yyy",
"yyy%%%%%%%%%%%%%%%%%%yyy",
"yyy+%%%%%%%%%%%%%%%%+yyy",
"yyyyyyyyyyyyyo%%oyyyyyyy",
"yyyyyyyyyyyyyyooyyyyyyyy",
"yyyyyyyyyyyyyyyyyyyyyyyy",
"yyyyyyyyyyyyyyyyyyyyyyyy",
"yyyyyyyyyyyyyyyyyyyyyyyy"
};
