/* XPM */
static char *preferences_system_privacy[] = {
/* columns rows colors chars-per-pixel */
"24 24 119 2 ",
"   c #4D646F",
".  c #4F6873",
"X  c #516A77",
"o  c #526B76",
"O  c #526C76",
"+  c #546C77",
"@  c #556D78",
"#  c #546D7A",
"$  c #546E7A",
"%  c #556E7B",
"&  c #556F7B",
"*  c #556F7C",
"=  c #55707D",
"-  c #57717D",
";  c #57727F",
":  c #5B7580",
">  c #5C7481",
",  c #5B7885",
"<  c #5C7885",
"1  c #5C7985",
"2  c #5C7886",
"3  c #5F7B88",
"4  c #5F7B89",
"5  c #5F7C89",
"6  c #5F7C8A",
"7  c #677A83",
"8  c #607C89",
"9  c #607C8A",
"0  c #607D8A",
"q  c #617D8A",
"w  c #627D8A",
"e  c #637D8A",
"r  c #607E8A",
"t  c #617E8B",
"y  c #627E8C",
"u  c #687F8A",
"i  c #65818E",
"p  c #66828F",
"a  c #69808B",
"s  c #69808C",
"d  c #69818C",
"f  c #6A818C",
"g  c #6A828D",
"h  c #68838F",
"j  c #6E828C",
"k  c #74868E",
"l  c #75868E",
"z  c #668290",
"x  c #678390",
"c  c #688390",
"v  c #698491",
"b  c #6A8592",
"n  c #6D8795",
"m  c #6D8893",
"M  c #6D8895",
"N  c #6E8894",
"B  c #6F8995",
"V  c #6E8896",
"C  c #6E8996",
"Z  c #728994",
"A  c #728995",
"S  c #7A8D96",
"D  c #768D98",
"F  c #778D98",
"G  c #758E98",
"H  c #768E99",
"J  c #778E99",
"K  c #7F9099",
"L  c #79919D",
"P  c #7B919C",
"I  c #7A919D",
"U  c #79929D",
"Y  c #79909E",
"T  c #7A929E",
"R  c #7C929D",
"E  c #7C939E",
"W  c #7D949E",
"Q  c #7E949E",
"!  c #7F959F",
"~  c #7F95A0",
"^  c #7F95A1",
"/  c #7F96A1",
"(  c #8096A1",
")  c #8197A2",
"_  c #8198A2",
"`  c #8298A3",
"'  c #8399A3",
"]  c #8399A4",
"[  c #8499A4",
"{  c #849AA4",
"}  c #849AA5",
"|  c #859AA5",
" . c #859BA5",
".. c #899EA8",
"X. c #8A9FA9",
"o. c #8A9FAA",
"O. c #8FA2AD",
"+. c #8FA3AD",
"@. c #B6C0C6",
"#. c #B7C1C6",
"$. c #B9C3C8",
"%. c #C1CDD1",
"&. c #C2CDD1",
"*. c #CAD4D9",
"=. c #CED7DB",
"-. c #CFD8DC",
";. c #D6DDE1",
":. c #D7DEE2",
">. c #D7DFE2",
",. c #D8DEE2",
"<. c #D8DFE2",
"1. c #D9DFE2",
"2. c #D9DFE3",
"3. c #DBE0E4",
"4. c #DAE1E5",
"5. c #DFE5E8",
"6. c #E0E6E8",
"7. c #E0E6E9",
"8. c None",
/* pixels */
"8.8.8.8.8.8.8.8.8.8.8.8.8.8.8.8.8.8.8.8.8.8.8.8.",
"8.8.8.8.8.8.8.8.8.8.8.8.8.8.8.8.8.8.8.8.8.8.8.8.",
"8.8.8.8.8.8.8.8.8.m n V V n V 8.8.8.8.8.8.8.8.8.",
"8.8.8.8.8.8.8.V b p r r r r p b V 8.8.8.8.8.8.8.",
"8.8.8.8.8.V b y x I ] ..X. .I z y b V 8.8.8.8.8.",
"8.8.8.8.V p r I X. ./ ! ( ( } X.I r x V 8.8.8.8.",
"8.8.8.8.p r _ } / / ! O.O./ / / ] _ r z 8.8.8.8.",
"8.8.8.h 6 I _ ( / / _ =.=.} / / / ] I 6 c 8.8.8.",
"8.8.8.y x ] / / / +.*.5.5.*.+./ / / } p r 8.8.8.",
"8.8.r 4 H / / / +.4.5.5.5.5.4.+./ / / H r r 8.8.",
"8.8.r 8 I ( / / %.5.5.5.5.5.6.%./ / ( R 8 8 8.8.",
"8.8.r 6 / / / / 4.5.5.5.5.5.5.,./ / / ( 8 r 8.8.",
"8.8.r 8 ! / / / ,.5.5.5.5.5.5.,./ / / R 6 6 8.8.",
"8.8.2 8 S ( / / $.5.5.5.5.5.5.#./ / / G 6 , 8.8.",
"8.8.; 4 g _ / / ( ;.6.5.5.5.;.S / / / a 6 ; 8.8.",
"8.8.8.6 ; / / ( S l #.,.,.#.l R / / / > 6 8.8.8.",
"8.8.8.2 2 h ( ( / I j 7 7 j R / / / h > 2 8.8.8.",
"8.8.8.8.6 % Z ! / / ( / / / / / / Z * 4 8.8.8.8.",
"8.8.8.8.o 4 o h ! / / / / / / / u O 6 o 8.8.8.8.",
"8.8.8.8.8.o 8 @ + u H ! ! G u + % 6 o 8.8.8.8.8.",
"8.8.8.8.8.8.8.2 2 % .     . % 2 2 8.8.8.8.8.8.8.",
"8.8.8.8.8.8.8.8.8.* , 4 6 : ; 8.8.8.8.8.8.8.8.8.",
"8.8.8.8.8.8.8.8.8.8.8.8.8.8.8.8.8.8.8.8.8.8.8.8.",
"8.8.8.8.8.8.8.8.8.8.8.8.8.8.8.8.8.8.8.8.8.8.8.8."
};
