/* XPM */
static char *preferences_desktop_wallpaper[] = {
/* columns rows colors chars-per-pixel */
"24 24 21 1 ",
"  c #596E77",
". c #5F7C8A",
"X c #637F8D",
"o c #69818D",
"O c #708088",
"+ c #6F8895",
"@ c #6F8995",
"# c #778890",
"$ c #7F96A1",
"% c #8CA0AA",
"& c #AAB7BD",
"* c #B6C0C5",
"= c #BFCACB",
"- c #BFCBD0",
"; c #C3CED0",
": c #C5CFD1",
"> c #C4CED3",
", c #C6D1D2",
"< c #C5D0D5",
"1 c #C9D4D5",
"2 c None",
/* pixels */
"222222222222222222222222",
"222222222222222222222222",
"222222222222222222222222",
"222222222222222222222222",
"222222222>@@@@@@@@@@@@22",
"222222221<...........X22",
"22222221<-$$$$$$$$$$..22",
"222222,<--$$$$$$$$$$..22",
"22222><---$$$$$$$$$$..22",
"2222><----$$$$$$$$$$..22",
"222=,-----$$$$$$$$$$..22",
"22*<-----&$$$$$$$$$$..22",
"22  OOOOO#%%%%%%%%%%@@22",
"22@@%%%%%%%%%%%%%%%%@@22",
"22@@%%%%%%%%%%%%%%%%@@22",
"22@@%%%%%%%%%%%%%%%%@@22",
"22@@%%%%%%%%%%%%%%%%@@22",
"22@@%%%%%%%%%%%%%%%%@@22",
"22@@@@@@@@@@@@@@@@@@@@22",
"22o@@@@@@@@@@@@@@@@@@o22",
"222222222222222222222222",
"222222222222222222222222",
"222222222222222222222222",
"222222222222222222222222"
};
