/* XPM */
static char *remote_desktop[] = {
/* columns rows colors chars-per-pixel */
"24 24 54 1 ",
"  c #22536A",
". c #5F7C8A",
"X c #5E7D8D",
"o c #637F8D",
"O c #3A8DB3",
"+ c #3A8EB4",
"@ c #3B8FB7",
"# c #5C8193",
"$ c #69818D",
"% c #6F8895",
"& c #6F8995",
"* c #6E8996",
"= c #4C8EAC",
"- c #5A9DBB",
"; c #5B9DBB",
": c #5E9FBD",
"> c #638FA4",
", c #7F96A1",
"< c #7898A7",
"1 c #77A0B4",
"2 c #479EC6",
"3 c #499EC6",
"4 c #409CC8",
"5 c #409DC8",
"6 c #409EC9",
"7 c #419EC9",
"8 c #439EC9",
"9 c #419ECA",
"0 c #449FC9",
"q c #499FC8",
"w c #43A0CB",
"e c #44A0CA",
"r c #45A0CA",
"t c #45A0CB",
"y c #41A0CC",
"u c #42A1CC",
"i c #43A1CC",
"p c #42A1CD",
"a c #46A3CE",
"s c #49A4CF",
"d c #52A9D1",
"f c #55AAD2",
"g c #55ABD2",
"h c #58ACD3",
"j c #83A0AF",
"k c #8CA0AA",
"l c #B3D9EB",
"z c #BADDED",
"x c #D0E7F2",
"c c #D4EAF4",
"v c #D5EAF4",
"b c #D9ECF5",
"n c white",
"m c None",
/* pixels */
"mmmmmmmmmmmmmmmmmmmmmmmm",
"mmmmmmmmmmmmmmmmmmmmmmmm",
"mmmmmmmmmmmmmmmmmmmmmmmm",
"mmmmmmmmmmmmmmmmmmmmmmmm",
"mm**&&%%%%%%*%%%%%%%&*mm",
"mmo..o......o.......oomm",
"mm..,,,,,,,,,,,,,,,,..mm",
"mm..,,,,,,,,,,,,,,,,..mm",
"mm..,,,,,,,,,,,,,,,,..mm",
"mm..,,,,,,,,,,,,,,,,..mm",
"mm..,,,,,,,,,,,,j,,,..mm",
"mm..,,kk,,,,,,<-quq-X.mm",
"mm*&kkkkkkkkk1euuupp0>mm",
"mm&&kkkkkkkkjeuuuupzsamm",
"mm&&kkkkkkkk3puuunnnbg9m",
"mm&&kkkkkkkk3puuunnnvg9m",
"mm&&kkkkkkkkeualuuplapum",
"mm&&kkkkkkkk2gvnnnpppp9m",
"mm&&&&&&&&&&=dxnnnuuuu@m",
"mm$&&&&&&&&&X0aluuuuu9mm",
"mmmmmmmmmmmmm 9uuuuu9mmm",
"mmmmmmmmmmmmmmmO999@mmmm",
"mmmmmmmmmmmmmmmmmmmmmmmm",
"mmmmmmmmmmmmmmmmmmmmmmmm"
};
