/* XPM */
static char *rhythmbox[] = {
/* columns rows colors chars-per-pixel */
"24 24 69 1 ",
"  c #3F3F3F",
". c #42413E",
"X c #43423E",
"o c #514B3A",
"O c #534C39",
"+ c #524C3A",
"@ c #534D3A",
"# c #6B5C31",
"$ c #6B5D32",
"% c #6C5D31",
"& c #6D5E31",
"* c #716030",
"= c #726130",
"- c #736230",
"; c gray25",
": c #444444",
"> c #464646",
", c gray28",
"< c #484848",
"1 c #494949",
"2 c #505050",
"3 c #5F5F5F",
"4 c #706B5C",
"5 c #716C5C",
"6 c #606060",
"7 c gray38",
"8 c #626262",
"9 c gray39",
"0 c #656565",
"q c #977A25",
"w c #947826",
"e c #957926",
"r c #967A26",
"t c #997B24",
"y c #997C25",
"u c #9B7F2B",
"i c #9C802B",
"p c #E1AC0E",
"a c #E1AD0F",
"s c #E2AD0E",
"d c #E3AE0E",
"f c #F9BC07",
"g c #F9BD08",
"h c #FEC006",
"j c #929292",
"k c #939393",
"l c gray58",
"z c gray59",
"x c #989898",
"c c gray60",
"v c #B2B2B2",
"b c gray70",
"n c #B9B9B9",
"m c gray73",
"M c gainsboro",
"N c #DDDDDD",
"B c gray87",
"V c gray88",
"C c #E2E2E2",
"Z c gray90",
"A c #E6E6E6",
"S c gray92",
"D c #ECECEC",
"F c gray93",
"G c #EEEEEE",
"H c gray94",
"J c #F3F3F3",
"K c gray96",
"L c None",
/* pixels */
"LLLLLLLLLLLLLLLLLLLLLLLL",
"LLLLLLLLLLLLLLLLLLLLLLLL",
"LLLJJJJJJJJJJJJJJJJJJLLL",
"LLLFSSSSSSSSSSSSSSSSFLLL",
"LLLSSSSSMj3>>6jMSSSSSLLL",
"LLLSSSSv<X-ee-.<bSSSSLLL",
"LLLSSSv;&dhhhhs&;bSSSLLL",
"LLLSSM<&fhhhhhgg&<MSSLLL",
"LLLSSk.shfi55ifha.lSSLLL",
"LLLSS6-hhy2002yhh-6DSLLL",
"LLLSS,thh@:33:@ghe<SSLLL",
"LLLSS<ehh@   .@hhe<SSLLL",
"LLLSS6-hhy    thh-6SSLLL",
"LLLSSz.shgy@@yfha.cSSLLL",
"LLLSSV<$ghhhhhhf$<CSSLLL",
"LLLSSDn;#shhhhs$;nFSSLLL",
"LLLSSSFn<.-ee-;<mHSSSLLL",
"LLLSSSFFZx6<<9cAFSSSSLLL",
"LLLSSSSSFHJKKJHSFSSSSLLL",
"LLLSSSSSSSSSSSSSSSSSSLLL",
"LLLFSSSSSSSSSSSSSSSSSLLL",
"LLLMSSSSSSSSSSSSSSSFMLLL",
"LLLLLLLLLLLLLLLLLLLLLLLL",
"LLLLLLLLLLLLLLLLLLLLLLLL"
};
