/* XPM */
static char *setroubleshoot_icon[] = {
/* columns rows colors chars-per-pixel */
"24 24 26 1 ",
"  c gray22",
". c #393939",
"X c #3A3A3A",
"o c gray23",
"O c #3C3C3C",
"+ c gray24",
"@ c #3E3E3E",
"# c #3F3F3F",
"$ c #41403F",
"% c #574A37",
"& c #564A38",
"* c #72562E",
"= c #655133",
"- c #675132",
"; c #6D5430",
": c #9E6B1F",
"> c #B47518",
", c #B57618",
"< c #845F29",
"1 c #8A6126",
"2 c #996822",
"3 c #E48B08",
"4 c #E68C08",
"5 c #F29204",
"6 c #FE9700",
"7 c None",
/* pixels */
"777777777777777777777777",
"777777777777777777777777",
"7777777777####7777777777",
"777777777######777777777",
"777777777######777777777",
"7777##7##########7##7777",
"7777################7777",
"777######66666#######777",
"77#########6##########77",
"777o##6#666666,$####o777",
"7777##6#6####%4,;<##7777",
"7777##666#####&366##7777",
"7777##6#6########6##7777",
"7777##6#6=#######6##7777",
"777#####25-###:666###777",
"77#######:66663%*<####77",
"777#################X777",
"7777##XX#########X##7777",
"7777 X7XX######XX7XX7777",
"777777777######777777777",
"777777777######777777777",
"7777777777X XX7777777777",
"777777777777777777777777",
"777777777777777777777777"
};
