/* XPM */
static char *sound_recorder[] = {
/* columns rows colors chars-per-pixel */
"24 24 40 1 ",
"  c #E16056",
". c #E26056",
"X c #E36156",
"o c #E36157",
"O c #E86358",
"+ c #E86359",
"@ c #EE645A",
"# c #ED665B",
"$ c #F1675B",
"% c #F3675B",
"& c #F2665C",
"* c #F2675C",
"= c #F3685D",
"- c #F4695C",
"; c #F4685D",
": c #F5685D",
"> c #F4695D",
", c #F5695D",
"< c #F6685D",
"1 c #F4685E",
"2 c #F6776D",
"3 c #F6776E",
"4 c #F67D74",
"5 c #F67E75",
"6 c #F8938B",
"7 c #F8948C",
"8 c #F8948D",
"9 c #FAAEA8",
"0 c #FAAEA9",
"q c #FAAFA9",
"w c #FCCAC6",
"e c #FCCBC7",
"r c #FCCBC8",
"t c #FCCDC9",
"y c #FEEEED",
"u c #FEEFEE",
"i c #FEF2F1",
"p c #FEF3F2",
"a c white",
"s c None",
/* pixels */
"ssssssssssssssssssssssss",
"ssssssssssssssssssssssss",
"sssssssss::::::sssssssss",
"sssssss::::::::::sssssss",
"sssss::::::::::::::sssss",
"ssss=:::::::::::::::ssss",
"ssss::::::7uu7::::::ssss",
"sss:::::::uaau:::::::sss",
"sss:::::::aaaa:::::::sss",
"ss::::::::aaaa::::::::ss",
"ss::::::::aaaa::::::::ss",
"ss::::::a:aaaa:a::::::ss",
"ss=:::::i2uaau2i::::::ss",
"ss*:::::t06uu60w:::::%ss",
"ss#:::::4u0220u4:::::@ss",
"sss::::::4waaw4::::::sss",
"sss=:::::::aa:::::;;;sss",
"ssss:::::::aa:::::;;ssss",
"ssssX::::::::::::::Xssss",
"sssssX::::::::::::Xsssss",
"sssssss*::::::::*sssssss",
"sssssssss+$==$+sssssssss",
"ssssssssssssssssssssssss",
"ssssssssssssssssssssssss"
};
