/* XPM */
static char *sparkleshare[] = {
/* columns rows colors chars-per-pixel */
"24 24 75 1 ",
"  c #DC6C00",
". c #E26F00",
"X c #E87200",
"o c #F47800",
"O c #F47E0B",
"+ c #D5811E",
"@ c #DB851E",
"# c #DC861E",
"$ c #DE871F",
"% c #DF871F",
"& c #E9861C",
"* c #E58B1F",
"= c #F5861A",
"- c #D58220",
"; c #CC8530",
": c #D9933F",
"> c #E78C20",
", c #EA8C27",
"< c #ED8B2D",
"1 c #EC9021",
"2 c #EF9121",
"3 c #F19221",
"4 c #F69522",
"5 c #F79522",
"6 c #F79622",
"7 c #F79623",
"8 c #F79726",
"9 c #F79827",
"0 c #F2932A",
"q c #F5912E",
"w c #F8922F",
"e c #F79928",
"r c #F79B2D",
"t c #F8992E",
"y c #F69333",
"u c #F89E32",
"i c #F8A038",
"p c #F8A23B",
"a c #F8A33D",
"s c #CF8E40",
"d c #DF9640",
"f c #D4974E",
"g c #DAA565",
"h c #E2AE6F",
"j c #F9B565",
"k c #EEBA7C",
"l c #E4B680",
"z c #ECC495",
"x c #EDC799",
"c c #E8C69D",
"v c #FBCD95",
"b c #EECAA0",
"n c #EFCCA1",
"m c #EDCCA5",
"M c #F4D0A5",
"N c #FCD7AB",
"B c #EFD3B2",
"V c #FCDAB1",
"C c #FBDBB5",
"Z c #F5DABA",
"A c #F1DABE",
"S c #F0DAC1",
"D c #F6E1C7",
"F c #F3E0C9",
"G c #FCE6CC",
"H c #FCE9D3",
"J c #FDEAD4",
"K c #F5E8D8",
"L c #FDF3E7",
"P c #FBF4EC",
"I c #FDFAF6",
"U c #FEFAF6",
"Y c #FFFDFB",
"T c white",
"R c None",
/* pixels */
"RRRRRRRRRRRRRRRRRRRRRRRR",
"RRRRRRRRRRRRRRRRRRRRRRRR",
"RRRRRRRRRRRRRRRRRRRRRRRR",
"RRqyyyyyyyywRRRRRRRRRRRR",
"RROoooooooo=<RRRRRRRRRRR",
"RRoooooooooX,iiiiiiiitRR",
"RR.        &r666666667RR",
"RR0iiiiiiiir6666666667RR",
"RRe6666666666666666666RR",
"RR66666666666666666666RR",
"RR6666666666666au66665RR",
"RR666666666666eLG66666RR",
"RR666666666666jFPu0666RR",
"RR6666666667JTYhcTTV66RR",
"RR6666666666AS;*+:Kx66RR",
"RR6666666666-mC65Kk%65RR",
"RR66666666666bzNvBk666RR",
"RR66666666666DIbZIM666RR",
"RR66666666666df@+gd666RR",
"RR366666666662>66>2663RR",
"RR%%%%%%%%%%%%%%%%%*-*RR",
"RRRRRRRRRRRRRRRRRRRRRRRR",
"RRRRRRRRRRRRRRRRRRRRRRRR",
"RRRRRRRRRRRRRRRRRRRRRRRR"
};
