/* XPM */
static char *sublime_text[] = {
/* columns rows colors chars-per-pixel */
"24 24 57 1 ",
"  c #555555",
". c #575655",
"X c #585755",
"o c #5A5754",
"O c #5E5953",
"+ c #5A5854",
"@ c #5C5954",
"# c #5D5954",
"$ c #625C53",
"% c #665E52",
"& c #6A5F51",
"* c #685F52",
"= c #7A684F",
"- c #706250",
"; c #726450",
": c #717171",
"> c #8E724B",
", c #90734A",
"< c #90734B",
"1 c #96764A",
"2 c #987749",
"3 c #9C7948",
"4 c #A17B47",
"5 c #A07B48",
"6 c #CC913F",
"7 c #CF933F",
"8 c #D3953E",
"9 c #D8973D",
"0 c #D8973E",
"q c #D9983D",
"w c #DE9A3C",
"e c #E39D3B",
"r c #E49E3B",
"t c #E29C3C",
"y c #EBA13A",
"u c #EEA239",
"i c #ECA23A",
"p c #F8A737",
"a c #FCA936",
"s c #FDAA36",
"d c #FFAB36",
"f c #FEAB37",
"g c #F0A338",
"h c #F3A538",
"j c #F2A539",
"k c #F4A638",
"l c #B48543",
"z c #B68643",
"x c #B68644",
"c c #BE8A42",
"v c #C48D41",
"b c #B7B7B7",
"n c gray72",
"m c gray73",
"M c gray79",
"N c #CECECE",
"B c None",
/* pixels */
"BBBBBBBBBBBBBBBBBBBBBBBB",
"BBBBBBBBBBBBBBBBBBBBBBBB",
"BBNNNNNNNNNNNNNNNNNNNNBB",
"BBNNNNNNNNNNNNNNNNNNNNBB",
"BBNN:              :NNBB",
"BBNN                NNBB",
"BBNN                NNBB",
"BBNN     *vkyl#     NNBB",
"BBNN     qfqtdw+    NNBB",
"BBNN    ;dx  4v     NNBB",
"BBNN    $pr=  ++    NNBB",
"BBNN     3ddt4+     NNBB",
"BBNN      ;ljdqX    NNBB",
"BBNN     O  +xf>    NNBB",
"BBNN    ,f,  1f2    NNBB",
"BBNN    *ifw8fiO    NNBB",
"BBNN     %cgj6-     NNBB",
"BBNN                NNBB",
"BBNN                NNBB",
"BBNN:              :NNBB",
"BBMNNNNNNNNNNNNNNNNNNMBB",
"BBnmmmmmmmmmmmmmmmmmmmBB",
"BBBBBBBBBBBBBBBBBBBBBBBB",
"BBBBBBBBBBBBBBBBBBBBBBBB"
};
