/* XPM */
static char *system_software_update[] = {
/* columns rows colors chars-per-pixel */
"24 24 95 2 ",
"   c #D47C23",
".  c #D37B24",
"X  c #D57C24",
"o  c #D47D24",
"O  c #F58411",
"+  c #F58513",
"@  c #F58717",
"#  c #F68717",
"$  c #F58718",
"%  c #F58818",
"&  c #F58819",
"*  c #F68818",
"=  c #F5891A",
"-  c #F5891B",
";  c #F68A1B",
":  c #F68A1C",
">  c #E18224",
",  c #E08324",
"<  c #E78626",
"1  c #E98A26",
"2  c #EF8C27",
"3  c #EE8B29",
"4  c #EE8C28",
"5  c #EF8C28",
"6  c #EE8C29",
"7  c #F68C21",
"8  c #F68D22",
"9  c #F58F26",
"0  c #F68F26",
"q  c #F08C28",
"w  c #F48F28",
"e  c #F68F28",
"r  c #F59028",
"t  c #F69028",
"y  c #F6912A",
"u  c #F6932E",
"i  c #F6932F",
"p  c #F69430",
"a  c #F69530",
"s  c #F69431",
"d  c #F69531",
"f  c #F79531",
"g  c #F79838",
"h  c #F79939",
"j  c #F7993C",
"k  c #F59A3C",
"l  c #F59B3E",
"z  c #F69B3E",
"x  c #F79C3C",
"c  c #F79C3F",
"v  c #F79D40",
"b  c #F7A24C",
"n  c #F8A24A",
"m  c #F8A34C",
"M  c #F8A34E",
"N  c #F8A450",
"B  c #F8A550",
"V  c #F8A958",
"C  c #F8AB5C",
"Z  c #F8AB5E",
"A  c #F9AD60",
"S  c #F9AD61",
"D  c #F9AE62",
"F  c #F9B167",
"G  c #F9B168",
"H  c #F9B26B",
"J  c #F9B36C",
"K  c #F9BB7B",
"L  c #FABA7A",
"P  c #FABC7D",
"I  c #FABC7E",
"U  c #FAC186",
"Y  c #FAC288",
"T  c #FAC38A",
"R  c #FAC38B",
"E  c #FBCC9C",
"W  c #FBD1A5",
"Q  c #FBD1A6",
"!  c #FBD5AD",
"~  c #FCD5AE",
"^  c #FCD8B4",
"/  c #FCD9B5",
"(  c #FCD9B6",
")  c #FCDCBB",
"_  c #FCDDBC",
"`  c #FDE8D2",
"'  c #FDEAD6",
"]  c #FDEBD8",
"[  c #FDEDDC",
"{  c #FEF8F1",
"}  c #FEF9F2",
"|  c #FFFAF5",
" . c #FFFAF6",
".. c white",
"X. c None",
/* pixels */
"X.X.X.X.X.X.X.X.X.X.X.X.X.X.X.X.X.X.X.X.X.X.X.X.",
"X.X.X.X.X.X.X.X.X.X.X.X.X.X.X.X.X.X.X.X.X.X.X.X.",
"X.X.X.X.X.X.X.X.X.z z v v v x X.X.X.X.X.X.X.X.X.",
"X.X.X.X.X.X.X.z d 8 & O + + 0 d z X.X.X.X.X.X.X.",
"X.X.X.X.X.x d $ O O O O + + + O $ f z X.X.X.X.X.",
"X.X.X.X.x 0 O O O & C I K V $ O O O 0 j X.X.X.X.",
"X.X.X.X.0 O O + I } ........` + O O O 0 X.X.X.X.",
"X.X.X.i O O O ~ ..( b $ 8 M M O O O O O u X.X.X.",
"X.X.X.& O O I ..I O O O O O O O O O O O $ X.X.X.",
"X.X.t O O $ } ( O O O O O O O O O E h O O w X.X.",
"X.X.: O O V ..M O O O O O O O O H ..] & O ; X.X.",
"X.X.+ O O I ..& O O O O O O O h | ....Q O & X.X.",
"X.X.0 0 ! ....| n 0 0 0 0 0 0 0 d ..U 0 0 t X.X.",
"X.X.2 t d [ ..L t t t t t t t t D ..F 0 t q X.X.",
"X.X.1 t t M Q t t t t t t t t t ) } d t t < X.X.",
"X.X.X.t t t t t t t t t t t t T ..R t t t X.X.X.",
"X.X.X.4 t t t t t D D g i C _ ..( t t t 4 X.X.X.",
"X.X.X.X.t t t t t ' ........} R t t t t X.X.X.X.",
"X.X.X.X.. t t t t f F T T J d t t t t X X.X.X.X.",
"X.X.X.X.X.X t t t t w t t t t t t t X X.X.X.X.X.",
"X.X.X.X.X.X.X.4 t t t t t t t t 4 X.X.X.X.X.X.X.",
"X.X.X.X.X.X.X.X.X., q w w 4 , X.X.X.X.X.X.X.X.X.",
"X.X.X.X.X.X.X.X.X.X.X.X.X.X.X.X.X.X.X.X.X.X.X.X.",
"X.X.X.X.X.X.X.X.X.X.X.X.X.X.X.X.X.X.X.X.X.X.X.X."
};
