/* XPM */
static char *user_info[] = {
/* columns rows colors chars-per-pixel */
"24 24 115 2 ",
"   c #006E66",
".  c #007169",
"X  c #007A6D",
"o  c #00796E",
"O  c #007B6F",
"+  c #007C71",
"@  c #008276",
"#  c #008578",
"$  c #008679",
"%  c #00827F",
"&  c #00887B",
"*  c #028A7D",
"=  c #018A7E",
"-  c #008D7F",
";  c #017DA6",
":  c #008D80",
">  c #008E80",
",  c #008E81",
"<  c #118C81",
"1  c #009082",
"2  c #009083",
"3  c #009183",
"4  c #009385",
"5  c #009486",
"6  c #019486",
"7  c #009587",
"8  c #0B9285",
"9  c #029688",
"0  c #039688",
"q  c #00968A",
"w  c #059789",
"e  c #06978A",
"r  c #07988A",
"t  c #06988B",
"y  c #08988B",
"u  c #09998B",
"i  c #0A998C",
"p  c #0B9A8C",
"a  c #109C8F",
"s  c #129C8F",
"d  c #019794",
"f  c #179F91",
"g  c #179F92",
"h  c #199F93",
"j  c #268C83",
"k  c #17A091",
"l  c #1AA093",
"z  c #19A094",
"x  c #1FA296",
"c  c #2BA69B",
"v  c #2CA79B",
"b  c #2BA69C",
"n  c #2BA79C",
"m  c #2EA89D",
"M  c #2FA89D",
"N  c #2FA99D",
"B  c #2FA89E",
"V  c #2FA99E",
"C  c #30A99D",
"Z  c #31A99E",
"A  c #33AB9F",
"S  c #0B97B2",
"D  c #019DB5",
"F  c #489D96",
"G  c #60AFA8",
"H  c #64BEB5",
"J  c #0284C0",
"K  c #028AC8",
"L  c #029BD6",
"P  c #029ED9",
"I  c #0298DC",
"U  c #02A4DC",
"Y  c #02A4DE",
"T  c #35AAC7",
"R  c #029FE7",
"E  c #02A3E0",
"W  c #02A0E7",
"Q  c #0FA5E1",
"!  c #03A4EE",
"~  c #02A7EF",
"^  c #1EAEEA",
"/  c #02A6F0",
"(  c #02A7F1",
")  c #02A8F3",
"_  c #0CAAF2",
"`  c #2EB0EC",
"'  c #33B5F1",
"]  c #7BC8C1",
"[  c #76C0E0",
"{  c #84BDB8",
"}  c #8BC1BC",
"|  c #8EC5C2",
" . c #8ACDC7",
".. c #93C5C1",
"X. c #9ECBC7",
"o. c #8FD0C9",
"O. c #A5DAD5",
"+. c #A7DAD6",
"@. c #B8DBD8",
"#. c #BDDEDB",
"$. c #BFE4E1",
"%. c #C6E4E1",
"&. c #C9E5E2",
"*. c #D3E8E6",
"=. c #E1F2F1",
"-. c #E3F3F2",
";. c #E4F3F2",
":. c #E4F6FE",
">. c #F1F9F8",
",. c #F2F8F8",
"<. c #F2FAF9",
"1. c #FAFCFC",
"2. c #F8FDFF",
"3. c white",
"4. c None",
/* pixels */
"4.4.4.4.4.4.4.4.4.4.4.4.4.4.4.4.4.4.4.4.4.4.4.4.",
"4.4.4.4.4.4.4.4.4.N C C A A C 4.4.4.4.4.4.4.4.4.",
"4.4.4.4.4.4.N N x p i 0 0 t f z N N 4.4.4.4.4.4.",
"4.4.4.4.4.C h 0 0 7 0 0 0 5 0 0 0 l N 4.4.4.4.4.",
"4.4.4.4.v i 7 7 5 0 5 0 5 0 5 0 7 7 i v 4.4.4.4.",
"4.4.4.b w 7 7 7 0 5 0 0 0 5 0 5 7 7 7 t n 4.4.4.",
"4.4.c u 7 7 7 7 5 h O.>.>.O.g 5 7 7 7 7 i n 4.4.",
"4.4.z 7 7 7 7 7 f =.3.3.3.3.=.a 7 7 7 7 7 z 4.4.",
"4.4.0 5 0 5 0 5 o.3.3.3.3.3.3. .7 7 7 7 7 0 4.4.",
"4.g 0 0 5 0 5 0 %.3.3.3.3.3.3.%.7 7 7 7 7 7 k 4.",
"4.i 0 5 0 5 0 5 #.3.3.3.3.3.3.@.7 7 7 7 7 7 p 4.",
"4.t 5 0 5 0 5 0 G 3.3.3.3.3.2.T U ~ ! Y D q t 4.",
"4.7 7 7 0 5 0 5 = X.3.3.3.:.^ ( ) ) ) ) ) Y d 4.",
"4.1 7 7 5 0 5 0 7 @ F ..| Q ) ) ) 3.3.) ) ) E 4.",
"4.: 7 7 0 5 0 0 7 7 8 < S ) ) ) ) 3.3.) ) ) ) 4.",
"4.4.7 7 5 0 5 w ] =.3.3.' ) ) ) ) ) ) ) ) ) ) ! ",
"4.4.5 7 7 7 w %.3.3.3.3._ ( ) ) ) 3.3.) ) ) ) ( ",
"4.4.O 0 7 7 H 3.3.3.3.3._ ( ) ) ) 3.3.) ) ) ( ( ",
"4.4.4.: 7 7 = { 2.3.3.3.` ) ) ) ) 3.3.) ) ) ) R ",
"4.4.4.4.1 7 7 $ j } *.,.[ ) ) ) ) 3.3.) ) ) ) K ",
"4.4.4.4.4.: 7 7 1 $ + O . L ) ) ) 3.3.) ) ) W 4.",
"4.4.4.4.4.4.O 7 7 7 7 7 7 % P ) ) ) ) ) ) W 4.4.",
"4.4.4.4.4.4.4.4.4.& : 7 5 -   ; I ( ( R J 4.4.4.",
"4.4.4.4.4.4.4.4.4.4.4.4.4.4.4.4.4.4.4.4.4.4.4.4."
};
