/* XPM */
static char *vocal[] = {
/* columns rows colors chars-per-pixel */
"24 24 123 2 ",
"   c #882481",
".  c #8C2586",
"X  c #912589",
"o  c #912689",
"O  c #90268A",
"+  c #91268A",
"@  c #94278D",
"#  c #95278E",
"$  c #96278E",
"%  c #932B8D",
"&  c #96288F",
"*  c #942B8E",
"=  c #972790",
"-  c #982791",
";  c #962890",
":  c #982891",
">  c #9A2993",
",  c #A22A9A",
"<  c #A32A9B",
"1  c #A32B9B",
"2  c #A02E98",
"3  c #A72C9E",
"4  c #A62D9E",
"5  c #A72D9E",
"6  c #A72C9F",
"7  c #A52F9F",
"8  c #A82F9F",
"9  c #A5309E",
"0  c #A7349E",
"q  c #A82CA0",
"w  c #A82DA0",
"e  c #A92EA1",
"r  c #A92FA1",
"t  c #A92EA2",
"y  c #A733A0",
"u  c #AB33A3",
"i  c #AC35A4",
"p  c #AC38A4",
"a  c #AC39A4",
"s  c #AD39A6",
"d  c #AE3AA6",
"f  c #AF3FA8",
"g  c #B035A8",
"h  c #B237A9",
"j  c #B13DA9",
"k  c #B03EA9",
"l  c #B03FA9",
"z  c #B23EAA",
"x  c #B33FAA",
"c  c #B23EAB",
"v  c #B33EAB",
"b  c #B43EAC",
"n  c #AF40A8",
"m  c #B140A8",
"M  c #B140A9",
"N  c #B041A9",
"B  c #B040AA",
"V  c #B141AA",
"C  c #BE46B7",
"Z  c #BF46B7",
"A  c #C047B8",
"S  c #C048B8",
"D  c #C34CBB",
"F  c #C34BBC",
"G  c #C54ABC",
"H  c #C54ABD",
"J  c #C64ABD",
"K  c #C34DBC",
"L  c #C54DBC",
"P  c #C54EBD",
"I  c #CA4FC1",
"U  c #CA50C1",
"Y  c #CB56C3",
"T  c #CD50C5",
"R  c #CE50C6",
"E  c #CE51C6",
"W  c #CF53C7",
"Q  c #CB55C4",
"!  c #CF5AC7",
"~  c #D052C7",
"^  c #D151C8",
"/  c #D251C9",
"(  c #D252C9",
")  c #D253C9",
"_  c #D355CA",
"`  c #D356CA",
"'  c #D357CA",
"]  c #D358CA",
"[  c #D458CB",
"{  c #D459CB",
"}  c #D45ACC",
"|  c #D55FCC",
" . c #D460CC",
".. c #D660CD",
"X. c #DF84D9",
"o. c #DF85D9",
"O. c #E086D9",
"+. c #E088DA",
"@. c #E290DC",
"#. c #E291DD",
"$. c #E392DD",
"%. c #E394DE",
"&. c #E496DE",
"*. c #E498DF",
"=. c #E599DF",
"-. c #ECB6E8",
";. c #ECB7E9",
":. c #F5D8F3",
">. c #F5D9F3",
",. c #F8E5F7",
"<. c #F9E8F8",
"1. c #FAEBF9",
"2. c #FAECF9",
"3. c #FAEDF9",
"4. c #FBF0FA",
"5. c #FBF1FB",
"6. c #FDF6FC",
"7. c #FDF7FC",
"8. c #FDF8FD",
"9. c #FDF9FD",
"0. c #FEFBFE",
"q. c white",
"w. c None",
/* pixels */
"w.w.w.w.w.w.w.w.w.w.w.w.w.w.w.w.w.w.w.w.w.w.w.w.",
"w.w.w.w.w.w.w.w.w.w.w.w.w.w.w.w.w.w.w.w.w.w.w.w.",
"w.w.w.w.w.w.w.w.w.f n V V n n w.w.w.w.w.w.w.w.w.",
"w.w.w.w.w.w.w.M d i t q q q i d M w.w.w.w.w.w.w.",
"w.w.w.w.w.M d q h K !  ...! K g q f c w.w.w.w.w.",
"w.w.w.w.M i q P | ] ` ( _ _ } | P q i M w.w.w.w.",
"w.w.w.w.i q Y { ( ( o.3.1.X.( ( ] Q q i w.w.w.w.",
"w.w.w.a q K [ ( ( ( 1.q.q.1.( ( ( ` P q a w.w.w.",
"w.w.w.q h [ ( ( ( ( q.q.q.q.( ( ( ( _ h q w.w.w.",
"w.w.0 q A ( ( ( ( ( q.q.q.q.( ( ( ( ( A q y w.w.",
"w.w.9 q I ( ( ( ( ( q.q.q.q.( ( ( ( ( U q y w.w.",
"w.w.5 q ( ( ( 1.1.( q.q.q.q.( ,.1.( ( W q q w.w.",
"w.w.8 q ^ ^ / 8.q...5.q.q.4...q.6.( ( T 5 5 w.w.",
"w.w.< q J _ / :.q.*.@.8.8.@.*.q.:.( ( J w < w.w.",
"w.w.> q V _ ( +.q.6.@.{ { @.8.q.O.( ( c w = w.w.",
"w.w.w.q > ( ( ( ;.q.q.8.q.q.q.-.( ( ( 2 q w.w.w.",
"w.w.w.< < c ( ( ( &.,.q.q.,.@.( ( ( c < < w.w.w.",
"w.w.w.w.w & Z ( ( ( ( q.q.( ( ( ( C = w w.w.w.w.",
"w.w.w.w.+ 5 + c ( ( ( ( ( ( ( ( c + 5 + w.w.w.w.",
"w.w.w.w.w.o 5 & & c J I T J f % & w + w.w.w.w.w.",
"w.w.w.w.w.w.w.< < $ .     . & < < w.w.w.w.w.w.w.",
"w.w.w.w.w.w.w.w.w.- < 5 5 < $ w.w.w.w.w.w.w.w.w.",
"w.w.w.w.w.w.w.w.w.w.w.w.w.w.w.w.w.w.w.w.w.w.w.w.",
"w.w.w.w.w.w.w.w.w.w.w.w.w.w.w.w.w.w.w.w.w.w.w.w."
};
