/* XPM */
static char *xchat_83[] = {
/* columns rows colors chars-per-pixel */
"24 24 23 1 ",
"  c gray57",
". c gray59",
"X c gray60",
"o c gray62",
"O c #A4A4A4",
"+ c #AAAAAA",
"@ c #ACACAC",
"# c #B7B7B7",
"$ c #B9B9B9",
"% c gray74",
"& c gray76",
"* c #C5C5C5",
"= c #CBCBCB",
"- c gray81",
"; c #D0D0D0",
": c #D8D8D8",
"> c gainsboro",
", c #E2E2E2",
"< c #E6E6E6",
"1 c gray92",
"2 c gray93",
"3 c #F3F3F3",
"4 c None",
/* pixels */
"444444444444444444444444",
"444444444444444444444444",
"4444444<1<<11<1<1<<1<444",
"4444444>::::::::::::>444",
"4444444::::::::::::::444",
"44433333333333332::::444",
"44421111111111112::::444",
"44411111111111111::::444",
"44411111111111111::::444",
"44411111111111111::::444",
"44411111*11211111#:::444",
"4441111-.<1>=,111.:::444",
"4441111+:%1--O111 :::444",
"444111, @.1#$o111#:::444",
"444111#:1$-+<X111::::444",
"444111=11<;&%;112::::444",
"44411111111111111::::444",
"44411111111111111::::444",
"44411111111111111:::=444",
"444111111111111114444444",
"444211111111111114444444",
"444>111111111111>4444444",
"444444444444444444444444",
"444444444444444444444444"
};
