/* XPM */
static char *xchat_119[] = {
/* columns rows colors chars-per-pixel */
"24 24 87 1 ",
"  c #006E66",
". c #007169",
"X c #007B6F",
"o c #007C71",
"O c #008276",
"+ c #008679",
"@ c #00827F",
"# c #00887B",
"$ c #018A7E",
"% c #008D7F",
"& c #017DA6",
"* c #008D80",
"= c #118C81",
"- c #009082",
"; c #009486",
": c #009587",
"> c #0B9285",
", c #039688",
"< c #00968A",
"1 c #059789",
"2 c #06988B",
"3 c #09998B",
"4 c #0A998C",
"5 c #0B9A8C",
"6 c #109C8F",
"7 c #019794",
"8 c #179F91",
"9 c #179F92",
"0 c #199F93",
"q c #268C83",
"w c #17A091",
"e c #1AA093",
"r c #19A094",
"t c #1FA296",
"y c #2BA69B",
"u c #2CA79B",
"i c #2BA69C",
"p c #2BA79C",
"a c #2FA99D",
"s c #30A99D",
"d c #33AB9F",
"f c #0B97B2",
"g c #019DB5",
"h c #489D96",
"j c #60AFA8",
"k c #64BEB5",
"l c #0284C0",
"z c #028AC8",
"x c #029BD6",
"c c #029ED9",
"v c #0298DC",
"b c #02A4DC",
"n c #02A4DE",
"m c #35AAC7",
"M c #029FE7",
"N c #02A3E0",
"B c #02A0E7",
"V c #0FA5E1",
"C c #03A4EE",
"Z c #02A7EF",
"A c #1EAEEA",
"S c #02A7F1",
"D c #02A8F3",
"F c #0CAAF2",
"G c #2EB0EC",
"H c #33B5F1",
"J c #7BC8C1",
"K c #76C0E0",
"L c #84BDB8",
"P c #8BC1BC",
"I c #8EC5C2",
"U c #8ACDC7",
"Y c #93C5C1",
"T c #9ECBC7",
"R c #8FD0C9",
"E c #A5DAD5",
"W c #B8DBD8",
"Q c #BDDEDB",
"! c #C6E4E1",
"~ c #D3E8E6",
"^ c #E1F2F1",
"/ c #E4F6FE",
"( c #F1F9F8",
") c #F2F8F8",
"_ c #F8FDFF",
"` c white",
"' c None",
/* pixels */
"''''''''''''''''''''''''",
"'''''''''asssds'''''''''",
"''''''aat441:2erss''''''",
"'''''s0,,:1:1:,,<ea'''''",
"''''u4::;,:,:,;,::4u''''",
"'''i1:::,;,:,;,;:::2p'''",
"''y3::::;0E((E0;::::4p''",
"''r:::::8^````^6:::::r''",
"'',;,;,;R``````U:::::,''",
"'9,,;,;,!``````!::::::w'",
"'4,;,;,;Q``````W::::::5'",
"'2;,;,;,j`````_mnCCng<2'",
"':::,;,;$T```/AFDDDDDn7'",
"'-::;,;,:OhYInSSD``DDDN'",
"'*::,;,,::>=fDDDD``DDDD'",
"''::;,;1J^``HDDDDDDDDDDC",
"''::::1!````FSDDD``DDDDS",
"''X,::k`````FSDDD``DDDSS",
"'''*::$L_```GDDDD``DDDDM",
"''''*::+qP~)KDDDD``DDDDz",
"'''''*,:-+oX.xDDD``DDDB'",
"''''''X::::::@cDDDDDDB''",
"'''''''''#*::% &vSSMl'''",
"''''''''''''''''''''''''"
};
