/* XPM */
static char *xchat_110[] = {
/* columns rows colors chars-per-pixel */
"24 24 9 1 ",
"  c #BD3328",
". c #BD3429",
"X c #C2352A",
"o c #C3372D",
"O c #C54238",
"+ c #C8483F",
"@ c #C8493F",
"# c white",
"$ c None",
/* pixels */
"$$$$$$$$$$$$$$$$$$$$$$$$",
"$$$$$$$$$$$$$$$$$$$$$$$$",
"$$$+++++++++@@+++++++$$$",
"$$OoXXXXXXXXXXXXXXXXoO$$",
"$$oXXXXXXXXXXXXXXXXXXo$$",
"$$XXXXXXXXX##XXXXXXXXX$$",
"$$XXXXXXXXX##XXXXXXXXX$$",
"$$XXXXXXXXX##XXXXXXXXX$$",
"$$XXXXXXXXX##XXXXXXXXX$$",
"$$XXXXXXXXX##XXXXXXXXX$$",
"$$XXXXXXXXX##XXXXXXXXX$$",
"$$XXXXXXXXX##XXXXXXXXX$$",
"$$XXXXXXXXX##XXXXXXXXX$$",
"$$XXXXXXXXX##XXXXXXXXX$$",
"$$XXXXXXXXX##XXXXXXXXX$$",
"$$XXXXXXXXXXXXXXXXXXXX$$",
"$$XXXXXXXXXXXXXXXXXXXX$$",
"$$XXXXXXXXX##XXXXXXXXX$$",
"$$XXXXXXXXX##XXXXXXXXX$$",
"$$XXXXXXXXXXXXXXXXXXXX$$",
"$$ XXXXXXXXXXXXXXXXXX $$",
"$$$ XXXXXXXXXXXXXXXX.$$$",
"$$$$$$$$$$$$$$$$$$$$$$$$",
"$$$$$$$$$$$$$$$$$$$$$$$$"
};
