/* XPM */
static char *xchat_16[] = {
/* columns rows colors chars-per-pixel */
"24 24 15 1 ",
"  c #A3779E",
". c #A3789E",
"X c #AD7FA8",
"o c #AD80A8",
"O c #BCBCBC",
"+ c gray",
"@ c gray75",
"# c gray76",
"$ c #C6C6C6",
"% c #C8C8C8",
"& c #CDCDCD",
"* c gray82",
"= c #DDDDDD",
"- c gray92",
"; c None",
/* pixels */
";;;;;;;;;;;;;;;;;;;;;;;;",
";;;;;;;;;;;;;;;;;;;;;;;;",
";;;XXXXXXXXXXXXXXXXXo;;;",
";;;XXXXXXXXXXXXXXXXXX;;;",
";;;XX--------------XX;;;",
";;;XX--------------XX;;;",
";;;XX--------------XX;;;",
";;;XX----=%++%=----XX;;;",
";;;XX---*+OOOOO*---XX;;;",
";;;XX--=++OOOO++=--oX;;;",
";;;XX--$O=*O+*=+%--XX;;;",
";;;XX--+O#++O+#O+--XX;;;",
";;;XX--+OOOOOOOO+--XX;;;",
";;;XX--$O$&OO&$O%--oX;;;",
";;;XX--=O+*==*+O=--XX;;;",
";;;XX---*OOO+OO*---XX;;;",
";;;XX----=%++%=----XX;;;",
";;;XX--------------XX;;;",
";;;XX--------------XX;;;",
";;;XX--------------XX;;;",
";;;XXXXXXXXXXXXXXXXXX;;;",
";;;.XXXXXXXXXXXXXXXX ;;;",
";;;;;;;;;;;;;;;;;;;;;;;;",
";;;;;;;;;;;;;;;;;;;;;;;;"
};
