/* XPM */
static char *xchat_8[] = {
/* columns rows colors chars-per-pixel */
"24 24 35 1 ",
"  c #22536A",
". c #5F7C8A",
"X c #5E7D8D",
"o c #637F8D",
"O c #3A8EB4",
"+ c #69818D",
"@ c #6F8895",
"# c #6F8995",
"$ c #6E8996",
"% c #4C8EAC",
"& c #5A9DBB",
"* c #5E9FBD",
"= c #638FA4",
"- c #7F96A1",
"; c #7898A7",
": c #77A0B4",
"> c #499EC6",
", c #419ECA",
"< c #449FC9",
"1 c #499FC8",
"2 c #44A0CA",
"3 c #45A0CB",
"4 c #42A1CC",
"5 c #42A1CD",
"6 c #4BA5CF",
"7 c #4CA6D0",
"8 c #83A0AF",
"9 c #8CA0AA",
"0 c #9CCEE5",
"q c #A1D0E6",
"w c #A7D3E8",
"e c #C8E4F0",
"r c #D3E9F3",
"t c white",
"y c None",
/* pixels */
"yyyyyyyyyyyyyyyyyyyyyyyy",
"yyyyyyyyyyyyyyyyyyyyyyyy",
"yyyyyyyyyyyyyyyyyyyyyyyy",
"yyyyyyyyyyyyyyyyyyyyyyyy",
"yy$$$#@@@@@@$$@@@@@@$$yy",
"yyo.oo......o..o....ooyy",
"yy..----------------o.yy",
"yy..----------------..yy",
"yy..----------------Xoyy",
"yy..----------------.Xyy",
"yy..----------------..yy",
"yy..----------;&141&XXyy",
"yy$$999999999:<444443=yy",
"yy##999999998<44444443yy",
"yy##99999999*440tttw44,y",
"yy##99999999>4tt060tt4,y",
"yy##9999999924tt6e7tt44y",
"yy##99999999<4tt060tt4<y",
"yy##########%4rtttttr4Oy",
"yy+########$o<4444444<yy",
"yyyyyyyyyyyyy <44444,yyy",
"yyyyyyyyyyyyyyyO,,<Oyyyy",
"yyyyyyyyyyyyyyyyyyyyyyyy",
"yyyyyyyyyyyyyyyyyyyyyyyy"
};
