/* XPM */
static char *xchat_20[] = {
/* columns rows colors chars-per-pixel */
"24 24 24 1 ",
"  c #353535",
". c #393939",
"X c #3F3F3F",
"o c #414141",
"O c #464646",
"+ c #4E4E4E",
"@ c gray32",
"# c #6F6F6F",
"$ c #818181",
"% c #888888",
"& c #898989",
"* c gray57",
"= c gray59",
"- c gray60",
"; c gray81",
": c LightGray",
"> c #D5D5D5",
", c gray86",
"< c gainsboro",
"1 c #F1F1F1",
"2 c #F6F6F6",
"3 c gray98",
"4 c white",
"5 c None",
/* pixels */
"555555555555555555555555",
"55@@@@@@@@@@@@@@@@@@@@55",
"5@OoXXXXXXXXXXXXXXXXoO@5",
"5OXXXXXXXXXXXXXXXXXXXXO5",
"5oXXXXXXXXXXXXXXXXXXXXo5",
"5XXXXXXXXXXXXXXXXXXXXXX5",
"5XXXXXXoo*>32>*OoXXXXXX5",
"5XXXXXX@<444444,@XXXXXX5",
"5XXXXXO,44444444,OXXXXX5",
"5XXXXX*443-@@-344&XXXXX5",
"5XXXXX>44-XXXX-44:XXXXX5",
"5XXXXX244@XXXX@442XXXXX5",
"5XXXXX14444;XX+441XXXXX5",
"5XXXXX:4444#XX=44:XXXXX5",
"5XXXXX&444;XX$344&XXXXX5",
"5XXXXXO:44#XX#44:OXXXXX5",
"5XXXXXX@>;XXXX;:+XXXXXX5",
"5XXXXXXXo@XXXX@oXXXXXXX5",
"5XXXXXXXXXXXXXXXXXXXXXX5",
"5XXXXXXXXXXXXXXXXXXXXXX5",
"5XXXXXXXXXXXXXXXXXXXXo.5",
"5 .XXXXXXXXXXXXoXXXoX. 5",
"55 .................. 55",
"555555555555555555555555"
};
