/* XPM */
static char *xchat_31[] = {
/* columns rows colors chars-per-pixel */
"24 24 26 1 ",
"  c #027EB8",
". c #298DBC",
"X c #0289C7",
"o c #028CCC",
"O c #1F8DC0",
"+ c #3395C3",
"@ c #38A2D3",
"# c gray75",
"$ c #ADD9ED",
"% c #B0D3E3",
"& c #C6C6C6",
"* c gray78",
"= c gray80",
"- c #D2D2D2",
"; c #E4E4E4",
": c gray90",
"> c #EAEAEA",
", c gray92",
"< c gray93",
"1 c #EFF6F9",
"2 c #EDF6FA",
"3 c #F6F6F6",
"4 c #F2F8FB",
"5 c #F8F8F8",
"6 c #FEFEFE",
"7 c None",
/* pixels */
"777777777777777777777777",
"777777777777777777777777",
"77>>><><>><<>>><,,,,,>77",
"77><><>><>>><<>>,,,,,,77",
"77><>><><>>>>>><,,,,,,77",
"77><><>>>><<><>>,,,,,,77",
"77>>>><<><>><><>,,,,,,77",
"77<><>>>>><>>><>,,,,,,77",
"77>>><>><>><><56653>,,77",
"77<<>+      O266662,,,77",
"77>><Xoooooo$6666663,,77",
"77<>>ooooooo46666666,,77",
"77><<ooooooo46666665><77",
"77>>>ooooooo%666666>>>77",
"77<>>@oooooo.266662-<>77",
"77<><>><>>>>;&>65>*;<>77",
"77><>>><><>>>;*&#*;><<77",
"77><><>>><><><<>><<>>>77",
"77>><><>>><><<>><<>>><77",
"77<>>><><>>>>>><>>><>>77",
"77>>>><>>><<<>>><>>><>77",
"77*><><><>>>>><<>><<>&77",
"777777777777777777777777",
"777777777777777777777777"
};
