/* XPM */
static char *xchat_58[] = {
/* columns rows colors chars-per-pixel */
"24 24 19 1 ",
"  c #D11A58",
". c #D91C5B",
"X c #DA1B5C",
"o c #DD1C5D",
"O c #E81D62",
"+ c #CE396C",
"@ c #CF3D6F",
"# c #DF3B73",
"$ c #DF3F75",
"% c #E12162",
"& c #EB3171",
"* c #EA3371",
"= c #DF4076",
"- c #E6D5DB",
"; c #E9D5DC",
": c #E9D8DE",
"> c #E9E9E9",
", c gray96",
"< c None",
/* pixels */
"<<<<<<<<<<<<<<<<<<<<<<<<",
"<<<&&&***********&**&<<<",
"<<<%oooooooooooooooo%<<<",
"<<<oo>>>>>>>:=o#;>>oo<<<",
"<<<oo>>>>>>>>:=.+->oo<<<",
"<<<oo>>>>>>>>>:=.+-oo<<<",
"<<<oo>>>>>>>>>>:=.@oo<<<",
"<<<oo>>>>>>>>>>>:=.oo<<<",
"<<<oo>>>>>>>>>>>>:=oo<<<",
"<<<oo>>>>>>>>>>>>>:oo<<<",
"<<<oo>>>>>>>>>>>>>>oo<<<",
"<<<oo>>>>>>>>>>>>>>oo<<<",
"<<<OO,,,,,,,,,,,,,,OO<<<",
"<<<OO,,,,,,,,,,,,,,OO<<<",
"<<<OO,,,,,,,,,,,,,,OO<<<",
"<<<OO,,,,,,,,,,,,,,OO<<<",
"<<<OO,,,,,,,,,,,,,,OO<<<",
"<<<OO,,,,,,,,,,,,,,OO<<<",
"<<<OO,,,,,,,,,,,,,,OO<<<",
"<<<OO,,,,,,,,,,,,,,OO<<<",
"<<<OO,,,,,,,,,,,,,,OO<<<",
"<<<OO              OO<<<",
"<<<XOOOOOOOOOOOOOOOOX<<<",
"<<<<<<<<<<<<<<<<<<<<<<<<"
};
