/* XPM */
static char *xchat_118[] = {
/* columns rows colors chars-per-pixel */
"24 24 26 1 ",
"  c #3F3F3F",
". c #414141",
"X c #444444",
"o c #464646",
"O c #4C4C4C",
"+ c #4E4E4E",
"@ c #942920",
"# c #9B2A22",
"$ c #AF3026",
"% c #B03026",
"& c #C2352A",
"* c #C2362B",
"= c #C53E33",
"- c #C7483D",
"; c #C7483E",
": c #C8493E",
"> c #C8493F",
", c #A0A0A0",
"< c #B4B4B4",
"1 c #B7B7B7",
"2 c gray77",
"3 c gray78",
"4 c gray82",
"5 c gray83",
"6 c gray92",
"7 c None",
/* pixels */
"777777777777777777777777",
"77;;--::>:--:>>>--::::77",
"77=*&&&&***&&***&&&&*=77",
"77**&&&&***&&***&&&&**77",
"77&&&66666666666666&**77",
"77**&66666666666666&**77",
"77**&666666,,666666&**77",
"77**&666661..<66666&&&77",
"77&&&66663o  X26666&&&77",
"77&&&6665+    O4666&&&77",
"77&&&66666    66666&&&77",
"77&&&66666    66666&&&77",
"77**&66666    66666&**77",
"77**&6665+    O4666&**77",
"77**&66663o  X26666&**77",
"77&&&666661..<66666&&&77",
"77&&&666666,,666666&&&77",
"77**&66666666666666&&&77",
"77**&66666666666666&**77",
"77**&%%%$$$$$$$$$$$&**77",
"77**&&&&***&&***&****&77",
"77%*&&&&***&&***&****$77",
"77@##################@77",
"777777777777777777777777"
};
