/* XPM */
static char *xchat_86[] = {
/* columns rows colors chars-per-pixel */
"24 24 37 1 ",
"  c #4F585C",
". c #50595D",
"X c #53666E",
"o c #5D686C",
"O c #5C6D76",
"+ c #536C79",
"@ c #57727F",
"# c #58727E",
"$ c #636E73",
"% c #636E74",
"& c #677176",
"* c #61737B",
"= c #5A7581",
"- c #5F7B8A",
"; c #5F7C8A",
": c #607885",
"> c #607D8A",
", c #617E8B",
"< c #717C80",
"1 c #727C81",
"2 c #63808D",
"3 c #66828F",
"4 c #859BA6",
"5 c #8EA2AC",
"6 c #B1BFC6",
"7 c #B2C0C7",
"8 c #BDC8CE",
"9 c #C0CBD1",
"0 c #D4DCDF",
"q c #DCE2E5",
"w c #DEE4E7",
"e c #EDF0F2",
"r c #F2F5F6",
"t c gray98",
"y c #FAFAFB",
"u c #FCFCFD",
"i c None",
/* pixels */
"iiiiiiiiiiiiiiiiiiiiiiii",
"iiiiiiiiiiiiiiiiiiiiiiii",
"iiiiiiiiiiiiiiiiiiiiiiii",
"iiiiiiiiiiiiiiiiiiiiiiii",
"iiiiiiiiiiiiiiiiiiiiiiii",
"iiiiiiiiiiiiiiiiiiiiiiii",
"iii<<<<<111111<<<<<<<iii",
"iii&%$%%$$$$$%%%$%%$&iii",
"iii$$ut$yy$yy$yy$tu$$iii",
"iii$$tt$yy$yy$yy$tt$$iii",
"iii$$..$..$..$..$..$$iii",
"iii$$tt$yy$yy$y9:33:*iii",
"iii$$yy$yy&uy$5>>>;;;;ii",
"iii$$..$..$..*>>2rr>;;;i",
"iii$$$$$yuuue>,qwuuwq2;i",
"iii$$$$$uuuu8>4uu77uu4;i",
"iii$$$$$..  X>;0e;>e0>;=",
"iiio$$$$$%$$O-4uu67uu4;i",
"iiiiiiiiiiiii-2qwuuwq2-i",
"iiiiiiiiiiiii+;;>rr2;;+i",
"iiiiiiiiiiiiii#>;;;;;#ii",
"iiiiiiiiiiiiiiii=--=iiii",
"iiiiiiiiiiiiiiiiiiiiiiii",
"iiiiiiiiiiiiiiiiiiiiiiii"
};
