/* XPM */
static char *xchat_62[] = {
/* columns rows colors chars-per-pixel */
"24 24 17 1 ",
"  c #596368",
". c #5C676C",
"X c #5E676C",
"o c #5E696E",
"O c #636D72",
"+ c #636E73",
"@ c #6D7479",
"# c #6F777B",
"$ c #717C80",
"% c #727C81",
"& c #737D81",
"* c #778084",
"= c #DBDCDC",
"- c #DEDFDF",
"; c #E9E9E9",
": c gray96",
"> c None",
/* pixels */
">>>>>>>>>>>>>>>>>>>>>>>>",
">>>$$$$$&$&$$&&$$$$$$>>>",
">>>OoooooooooOooooooO>>>",
">>>oo;;;;;;;-&o&=;;oo>>>",
">>>oo;;;;;;;;-&o@=;oo>>>",
">>>oo;;;;;;;;;;&o@=oo>>>",
">>>oo;;;;;;;;;;=&o#oo>>>",
">>>oo;;;;;;;;;;;-*ooo>>>",
">>>oo;;;;;;;;;;;;-*oo>>>",
">>>oo;;;;;;;;;;;;;-oo>>>",
">>>oo;;;;;;;;;;;;;;oo>>>",
">>>oo;;;;;;;;;;;;;;oo>>>",
">>>OO::::::::::::::++>>>",
">>>OO::::::::::::::++>>>",
">>>OO::::::::::::::++>>>",
">>>+O::::::::::::::++>>>",
">>>++::::::::::::::++>>>",
">>>++::::::::::::::++>>>",
">>>++::::::::::::::++>>>",
">>>++::::::::::::::++>>>",
">>>++::::::::::::::++>>>",
">>>++              ++>>>",
">>>o++++++++++++++OOo>>>",
">>>>>>>>>>>>>>>>>>>>>>>>"
};
