/* XPM */
static char *xchat_41[] = {
/* columns rows colors chars-per-pixel */
"24 24 28 1 ",
"  c #343434",
". c #646464",
"X c gray40",
"o c gray44",
"O c #747474",
"+ c #7B7B7B",
"@ c #C53E34",
"# c #C63E35",
"$ c #C83F35",
"% c #868686",
"& c #898989",
"* c #8E8E8E",
"= c gray58",
"- c #959595",
"; c #9A9A9A",
": c gray63",
"> c gray65",
", c #ACACAC",
"< c #AEAEAE",
"1 c #AFAFAF",
"2 c #BBBBBB",
"3 c gray77",
"4 c #C5C5C5",
"5 c gray79",
"6 c gray81",
"7 c gray84",
"8 c white",
"9 c None",
/* pixels */
"999999999999999999999999",
"999999999999999999999999",
"999888889999999999999999",
"977777777777777777777779",
"977777777777777777777779",
"9                      9",
"9                      9",
"9   $#      X<66<X     9",
"9   @@     &5*oo*3&    9",
"9         X5O+%%+o5X   9",
"9         <*&-&&-&*,   9",
"9         6o:>--,;o6   9",
"9         7o:><<<;o6   9",
"9         ,*&<33<&=,   9",
"9         X3o;22;o5X   9",
"9          &5*oo-5%    9",
"9           X<66,.     9",
"9                      9",
"9                      9",
"977777777777777777777779",
"957777777777777777777759",
"999999999999999999999999",
"999999999999999999999999",
"999999999999999999999999"
};
