/* XPM */
static char *xchat_81[] = {
/* columns rows colors chars-per-pixel */
"24 24 21 1 ",
"  c #35449B",
". c #35459B",
"X c #3847A3",
"o c #3849A5",
"O c #3B4DAE",
"+ c #3C4DAE",
"@ c #3D4FB2",
"# c #3D4FB3",
"$ c #3F4FB4",
"% c #3F50B3",
"& c #3D50B5",
"* c #3F51B4",
"= c #7481C9",
"- c #7582C9",
"; c #7783CA",
": c #E9EBF6",
"> c #EBECF7",
", c #F2F3FA",
"< c #F9FAFD",
"1 c white",
"2 c None",
/* pixels */
"222222222222222222222222",
"222222222222222222222222",
"222222222###*#*222222222",
"2222222#***#*&#**2222222",
"22222*#**#@*#*#&*##22222",
"2222***##*;:>;#*#**#2222",
"2222@*#**#:11>&**#*#2222",
"222@*#*##*:11>&##*#**222",
"222#*#*#*#;::=#*#*##*222",
"22#*#*#****@#**#*#*###22",
"22#*#*#1111111111*#**#22",
"22##*#*&#*1111*@#**###22",
"22#*###*#*1111@*#*##**22",
"22@#**&**@1111*#*#**@O22",
"22o**##*#*1,,1#*#*#**o22",
"222@##*#*#1*@1*#*#*#*222",
"222@#*#*#*1@*1#*##**#222",
"2222*#*#*#1*@1*##*$&2222",
"2222 *#*#*<#*<#**## 2222",
"22222 *#*#**#**#*# 22222",
"2222222@*#*##*#*@2222222",
"222222222oO##OX222222222",
"222222222222222222222222",
"222222222222222222222222"
};
