/* XPM */
static char *xchat_107[] = {
/* columns rows colors chars-per-pixel */
"24 24 63 1 ",
"  c #0D214B",
". c #0F214C",
"X c #0F204D",
"o c #0F2354",
"O c #102353",
"+ c #102453",
"@ c #102454",
"# c #142757",
"$ c #162958",
"% c #182A59",
"& c #182D5A",
"* c #1A2E5C",
"= c #1C2F5D",
"- c #1D305D",
"; c #1F325F",
": c #203360",
"> c #233661",
", c #243561",
"< c #253862",
"1 c #263863",
"2 c #273964",
"3 c #283964",
"4 c #33446D",
"5 c #34456D",
"6 c #394970",
"7 c #3F4F76",
"8 c #46557A",
"9 c #536284",
"0 c #546385",
"q c #576587",
"w c #5A6789",
"e c #5D6B8B",
"r c #616D8D",
"t c #667492",
"y c #6C7796",
"u c #7B87A1",
"i c #7C87A1",
"p c #8E97AE",
"a c #9099B1",
"s c #919BB1",
"d c #9AA2B7",
"f c #9EA6B9",
"g c #AEB4C4",
"h c #BABFCE",
"j c #BFC4D2",
"k c #C2C7D3",
"l c #C6CAD6",
"z c #C8CBD7",
"x c #D1D5DE",
"c c #D5D9E1",
"v c #D9DDE4",
"b c #DCDFE5",
"n c #E2E3E9",
"m c #E3E4EB",
"M c #EBEDF1",
"N c #EEEFF3",
"B c #F2F3F5",
"V c #F7F7F9",
"C c #F7F8F9",
"Z c #FBFBFB",
"A c #FCFCFD",
"S c white",
"D c None",
/* pixels */
"DDDDDDDDDDDDDDDDDDDDDDDD",
"DDDDDDDDD<33332DDDDDDDDD",
"DDDDDD<2-&$@@$$-22DDDDDD",
"DDDDD<-@@@@@@@@@@-2DDDDD",
"DDDD,$@@@@@@@o@@@@$2DDDD",
"DDD>$@@@@@@@@-szg6o@,DDD",
"DD,$o@@@@@o+7SSSSSp@$DDD",
"DD=@o@@@@@ooVSeu9mS8@*DD",
"DD@@@@@@@@@qSiCSSwSk@@DD",
"D=@@@@@@@@@sSrSSSfVb@@=D",
"D$o@@@@@@@5SSpMSS0Sh@@$D",
"DVs*@@@@@%VSSSirrBS4@@#D",
"DSSSj5@@@lSSSSSSSSt@@@@D",
"DSSSSSmygSSSSSSli:o+@@OD",
"DZSSSSSSSnBSSSe@@@@@@@+D",
"DDlSSSSSSSvSM3@@@@@@@@DD",
"DD@-dSSSSSZN@@@@@@@@@@DD",
"DDX@@@cSSSln@@@@@@@@@XDD",
"DDD+@@,NvxN6@@@@@@@@+DDD",
"DDDD@@@o0q&@@@@@@@@@DDDD",
"DDDDD@@@@@@@@@@@@@+DDDDD",
"DDDDDDX@++@@@@@@@ DDDDDD",
"DDDDDDDDD++@@@+DDDDDDDDD",
"DDDDDDDDDDDDDDDDDDDDDDDD"
};
