/* XPM */
static char *xchat_89[] = {
/* columns rows colors chars-per-pixel */
"24 24 28 1 ",
"  c #597481",
". c #5B7885",
"X c #5D7886",
"o c #5D7B89",
"O c #5E7B89",
"+ c #5F7C8A",
"@ c #607D8A",
"# c #607D8B",
"$ c #637F8D",
"% c #63818E",
"& c #64808E",
"* c #688390",
"= c #698390",
"- c #698391",
"; c #6A8692",
": c #6C8793",
"> c #6F8994",
", c #6F8996",
"< c #718B97",
"1 c #768F9B",
"2 c #77909C",
"3 c #CBD4D9",
"4 c #CDD6DA",
"5 c #F4F6F7",
"6 c #F6F7F8",
"7 c #F6F8F9",
"8 c white",
"9 c None",
/* pixels */
"999999999999999999999999",
"999999999999999999999999",
"9999999999>>>>9999999999",
"999999999&++++%999999999",
"999999999%++++%999999999",
"9999>>9>:+++++$>>9>>9999",
"9999$$-&++++++oo&-$$9999",
"999-++++++++++++##oo;999",
"99=&#o#o+<37742+++++#-99",
"999#o#o@<688885<+++++999",
"9999#@o#38888883++++9999",
"9999o###68888886++++9999",
"9999+#oo78888886++++9999",
"9999++##48888883++++9999",
"999;##o#1588885>++++;999",
"99%+X###o<37731++++++%99",
"999o##o#+++++++++++++999",
"9999o#X#++++++++++++9999",
"9999XX9 ++++++++ 9X.9999",
"999999999++++++999999999",
"999999999X++++X999999999",
"9999999999++++9999999999",
"999999999999999999999999",
"999999999999999999999999"
};
