/* XPM */
static char *xchat_35[] = {
/* columns rows colors chars-per-pixel */
"24 24 33 1 ",
"  c #E73F32",
". c #E93F33",
"X c #EA4033",
"o c #E94236",
"O c #F34235",
"+ c #F34336",
"@ c #F34538",
"# c #F35247",
"$ c #F35347",
"% c #F55449",
"& c #F45549",
"* c #F66C62",
"= c #F67066",
"- c #F67268",
"; c #F6776D",
": c #F6786F",
"> c #F77E75",
", c #F77F76",
"< c #F89790",
"1 c #FAABA5",
"2 c #FCD2CF",
"3 c #FDDEDC",
"4 c #FDE7E5",
"5 c #FEE8E6",
"6 c #FEEAE9",
"7 c #FEECEB",
"8 c #FEEFEE",
"9 c #FEF0EF",
"0 c #FEF2F1",
"q c #FEF3F2",
"w c #FFF6F6",
"e c white",
"r c None",
/* pixels */
"rrrrrrrrrrr%%rrrrrrrrrrr",
"rrrrrrrrrr#@@%rrrrrrrrrr",
"rrrrrrrrr#@OO@$rrrrrrrrr",
"rrrrrrrr2*OOOO@$rrrrrrrr",
"rrrrrrr#:7*OOXOO$rrrrrrr",
"rrrrrr#@O:086,++@$rrrrrr",
"rrrrr#@OOO9ee5OOO@$rrrrr",
"rrrr#@OOOO6ee7OOOO@$rrrr",
"rrr%+OOOOO>900-OOOOO%rrr",
"rr%++OOOOOO1<=0=OOOO@$rr",
"r#++OOOOOOO1<O*q86:OO@$r",
"#@OOOOOOOOO1<OO0ee5OOO@$",
"oOOOOOOOOO+1<OO5ee6OOOOo",
"rXOOOOOOO++1<O.>65;OOOXr",
"rr.OOOOOOO+1<OOOOOOOOXrr",
"rrr.OOOOOO,q8=OOOOOOXrrr",
"rrrr.OOOOO0ee3OOOOOXrrrr",
"rrrrr.OOOO0ee3OOOOXrrrrr",
"rrrrrr.OOO,74=OOOXrrrrrr",
"rrrrrrr.OOOOOOOOXrrrrrrr",
"rrrrrrrr.OOOOOOXrrrrrrrr",
"rrrrrrrrr.OOOOXrrrrrrrrr",
"rrrrrrrrrr.OOXrrrrrrrrrr",
"rrrrrrrrrrr  rrrrrrrrrrr"
};
