/* XPM */
static char *xchat_111[] = {
/* columns rows colors chars-per-pixel */
"24 24 25 1 ",
"  c #757D81",
". c #788084",
"X c #7B8488",
"o c #828B8F",
"O c #868F93",
"+ c #91999C",
"@ c #9A9E9F",
"# c #979DA0",
"$ c #99A0A4",
"% c #9BA2A5",
"& c #A1A8AB",
"* c #A4ABAE",
"= c #AEB2B3",
"- c #ACB2B4",
"; c #AFB3B5",
": c #B0B3B5",
"> c #B4B9BC",
", c #BCC0C2",
"< c #C1C5C7",
"1 c #C4C8CA",
"2 c #CCCFD0",
"3 c #CCD0D2",
"4 c #CDD1D2",
"5 c white",
"6 c None",
/* pixels */
"666666666666666666666666",
"666666666666666666666666",
"666$#$$$$$$$666666666666",
"666OoOOoOoo++66666666666",
"666ooooooooX$>>>>>>>;666",
"666.       #-&&&&&&&*666",
"662444444444444444444266",
"661<<<<<<<<<<<<<<<<<<166",
"66<<<<<<<<<<<<<<<<<<<<66",
"66<<<<<<<555555<<<<<<<66",
"66<<<<<<<@@@@@@<<<<<<<66",
"66<<<<<<<<<<<<<<<<<<<<66",
"66<<<<<<<<<<<<<<<<<<<<66",
"66<<<<<<<<<<<<<<<<<<<<66",
"66<<<<<<<<<<<<<<<<<<<<66",
"66<<<<<<<<<<<<<<<<<<<<66",
"66<<<<<<<<<<<<<<<<<<<<66",
"66<<<<<<<<<<<<<<<<<<<<66",
"66<<<<<<<<<<<<<<<<<<<<66",
"66<<<<<<<<<<<<<<<<<<<<66",
"66,<<<<<<<<<<<<<<<<<<,66",
"66;==================:66",
"666666666666666666666666",
"666666666666666666666666"
};
