/* XPM */
static char *xchat_80[] = {
/* columns rows colors chars-per-pixel */
"24 24 171 2 ",
"   c #FF5722",
".  c #FF5A25",
"X  c #FB5028",
"o  c #FE5A29",
"O  c #FF5D2D",
"+  c #FD7B20",
"@  c #FF6231",
"#  c #FF6636",
"$  c #FF6839",
"%  c #FF6B3E",
"&  c #BA2E7F",
"*  c #BC2F7C",
"=  c #E71F5E",
"-  c #DC2354",
";  c #EC2A53",
":  c #E9225C",
">  c #E41E60",
",  c #E81D62",
"<  c #EA2161",
"1  c #E82164",
"2  c #EA2C6C",
"3  c #EA3472",
"4  c #FE6D47",
"5  c #FF7346",
"6  c #FF794E",
"7  c #F96C57",
"8  c #F5675E",
"9  c #F96D59",
"0  c #FB7459",
"q  c #F25E69",
"w  c #EC417B",
"e  c #ED4E7D",
"r  c #F15D75",
"t  c #F67C73",
"y  c #F67D73",
"u  c #0B997F",
"i  c #109374",
"p  c #1A9E74",
"a  c #73BB4B",
"s  c #6FBE72",
"d  c #6EBE73",
"f  c #71BF71",
"g  c #7FC371",
"h  c #FE8A32",
"j  c #FEC006",
"k  c #FEC10A",
"l  c #FEC10C",
"z  c #FEC417",
"x  c #FEC61F",
"c  c #FECF18",
"v  c #CCDB38",
"b  c #CDDC3B",
"n  c #CDDC3D",
"m  c #CEDC3E",
"M  c #D3DD3A",
"N  c #FEC827",
"B  c #FECA2E",
"V  c #FECB35",
"C  c #FFCD35",
"Z  c #FECD38",
"A  c #FED035",
"S  c #FED13D",
"D  c #DEE139",
"F  c #FE974D",
"G  c #F7847B",
"H  c #F7867D",
"J  c #FBB67C",
"K  c #FBB87F",
"L  c #82C04A",
"P  c #8AC249",
"I  c #8CC34C",
"U  c #8CC451",
"Y  c #92C655",
"T  c #95C859",
"R  c #94C85C",
"E  c #96C85C",
"W  c #A3CB43",
"Q  c #ADD355",
"!  c #92C866",
"~  c #9DCC66",
"^  c #9ACC6E",
"/  c #8DC873",
"(  c #A0CD6B",
")  c #A1CE6D",
"_  c #B5D769",
"`  c #D0DE46",
"'  c #D1DF4C",
"]  c #FEDD4E",
"[  c #D3E052",
"{  c #D3E053",
"}  c #DCE457",
"|  c #D4E158",
" . c #D7E15D",
".. c #D8E35D",
"X. c #D8E35E",
"o. c #FEE354",
"O. c #D6E260",
"+. c #EAE966",
"@. c #F1EA61",
"#. c #FEEE61",
"$. c #FEF077",
"%. c #7A36AB",
"&. c #3A4EAD",
"*. c #3355AF",
"=. c #3B51B3",
"-. c #3A52B6",
";. c #3E50B4",
":. c #3955B6",
">. c #305DBA",
",. c #4153B5",
"<. c #4A5BB9",
"1. c #6B43B7",
"2. c #5262BC",
"3. c #5D6CC0",
"4. c #6271C2",
"5. c #6573C3",
"6. c #6077C5",
"7. c #667ACA",
"8. c #657DCB",
"9. c #9224A8",
"0. c #9B26AF",
"q. c #902BAF",
"w. c #9628AE",
"e. c #912CB0",
"r. c #9D29B0",
"t. c #8931B2",
"y. c #A234B4",
"u. c #A53CB7",
"i. c #AB49BC",
"p. c #AE4FBE",
"a. c #AF51BF",
"s. c #C95996",
"d. c #ED4A81",
"f. c #A259C1",
"g. c #069482",
"h. c #079782",
"j. c #009486",
"k. c #009587",
"l. c #049789",
"z. c #109C8F",
"x. c #1A8395",
"c. c #1AA093",
"v. c #29A69A",
"b. c #30A99E",
"n. c #33AA9F",
"m. c #3BAD99",
"M. c #58B780",
"N. c #5CB781",
"B. c #53B68E",
"V. c #499CA9",
"C. c #77B6B6",
"Z. c #7BB9BB",
"A. c #4D87CC",
"S. c #5984CA",
"D. c #4391D1",
"F. c #4690D0",
"G. c #5CA0D7",
"H. c #66A6DA",
"J. c #69A7DA",
"K. c #AF95AB",
"L. c #B097AC",
"P. c #AD9AB1",
"I. c #82C785",
"U. c #8ACA8D",
"Y. c #8CCB8E",
"T. c #C5DE85",
"R. c #C5DE88",
"E. c #FBC182",
"W. c #CAE18A",
"Q. c #FEF181",
"!. c None",
/* pixels */
"!.!.!.!.!.!.!.!.!.!.!.!.!.!.!.!.!.!.!.!.!.!.!.!.",
"!.!.!.!.!.!.!.!.!.!.!.!.!.!.!.!.!.!.!.!.!.!.!.!.",
"!.!.!.!.!.!.!.!.!.C C A .... .!.!.!.!.!.!.!.!.!.",
"!.!.!.!.!.!.!.V N z l z M m ` {  .!.!.!.!.!.!.!.",
"!.!.!.!.!.A N l j j j c D v v v b { } !.!.!.!.!.",
"!.!.!.!.4 h j j j N B o.@.| ' b v v Q ! !.!.!.!.",
"!.!.!.!.#   + z C C S #.#... . .` W P E !.!.!.!.",
"!.!.!.%     @ F C C o.#.#.+.O.O._ Y P I E !.!.!.",
"!.!.!.o   . 6 6 F ] $.Q.Q.$.+._ ) ( I P I !.!.!.",
"!.!.#     $ 6 6 0 J Q.Q.Q.Q.T./ ) ^ E P P E !.!.",
"!.!.O     5 6 9 t G J Q.Q.R.Y.I.g ^ ~ P P U !.!.",
"!.!.o   X 7 8 8 G G H E.W.Y.Y.U.s s g a L U !.!.",
"!.!.< : ; r 8 8 H H H P.Z.Y.Y.U.g d M.p h.g.!.!.",
"!.!.= , 1 3 e q t H K.J.J.Z.Y.I.N.m.v.j.l.g.!.!.",
"!.!.> , < 3 d.d.r K.J.J.J.J.C.B.n.n.c.l.k.h.!.!.",
"!.!.!., < < w d.s.7.G.H.H.G.S.V.b.b.l.j.j.!.!.!.",
"!.!.!.> , , 2 s.a.a.8.F.D.A.5.5.V.z.k.k.j.!.!.!.",
"!.!.!.!., , * y.p.a.f.F.D.6.5.4.<.x.j.j.!.!.!.!.",
"!.!.!.!.- & 0.0.r.u.i.7.A.3.2.,.;.;.x.i !.!.!.!.",
"!.!.!.!.!.%.0.0.0.0.0.1.>.;.;.;.;.;.*.!.!.!.!.!.",
"!.!.!.!.!.!.!.w.0.0.0.t.:.;.;.;.;.!.!.!.!.!.!.!.",
"!.!.!.!.!.!.!.!.!.9.q.e.-.=.&.!.!.!.!.!.!.!.!.!.",
"!.!.!.!.!.!.!.!.!.!.!.!.!.!.!.!.!.!.!.!.!.!.!.!.",
"!.!.!.!.!.!.!.!.!.!.!.!.!.!.!.!.!.!.!.!.!.!.!.!."
};
