/* XPM */
static char *xchat_44[] = {
/* columns rows colors chars-per-pixel */
"24 24 86 1 ",
"  c #5C764A",
". c #7C6945",
"X c #B74A39",
"o c #C54739",
"O c #C84638",
"+ c #CF483A",
"@ c #D0483A",
"# c #D2493B",
"$ c #D84B3D",
"% c #DC4C3E",
"& c #DD4E3E",
"* c #DE4E3E",
"= c #9A5E42",
"- c #B95841",
"; c #E07C71",
": c #E67C71",
"> c #108F54",
", c #0F9052",
"< c #0F9656",
"1 c #109756",
"2 c #109B59",
"3 c #119E5B",
"4 c #109F5B",
"5 c #109F5C",
"6 c #1C9959",
"7 c #308E54",
"8 c #2F9357",
"9 c #249E56",
"0 c #10A05B",
"q c #3DA856",
"w c #4B8351",
"e c #5FAD52",
"r c #75AC4B",
"t c #51AA7D",
"y c #E6BA3A",
"u c #E8BB3B",
"i c #EBB93C",
"p c #F1BF3E",
"a c #F0C23D",
"s c #F4C23F",
"d c #F3C53F",
"f c #F7C63F",
"g c #F9C93F",
"h c #FAC93F",
"j c #9FBA4A",
"k c #E8B670",
"l c #C5C347",
"z c #D6C244",
"x c #F0CA42",
"c c #F9C940",
"v c #FCCA41",
"b c #F9CC42",
"n c #FCCC40",
"m c #FFCE41",
"M c #F7D46E",
"N c #F6D775",
"B c #46B580",
"V c #56B486",
"C c #4587F3",
"Z c #4989F3",
"A c #669CF5",
"S c #6B9FF5",
"D c #6CA0F6",
"F c #EEA39B",
"G c #87CFAD",
"H c #B5CDA3",
"J c #F4DFA3",
"K c #B0DFC9",
"L c #F5CCC8",
"P c #F1D2C6",
"I c #E2DFDA",
"U c #CDE7DB",
"Y c #FFF0C4",
"T c #F4E2DF",
"R c #FFF5DA",
"E c #CADCFB",
"W c #CCDEFC",
"Q c #DDEFED",
"! c #D0E1FC",
"~ c #D3E2FC",
"^ c #ECE6EE",
"/ c #F3F2EC",
"( c #E4F1F0",
") c #EFF3FB",
"_ c #F3F4F0",
"` c None",
/* pixels */
"````````````````````````",
"`````````&&*&&&`````````",
"``````&&&&&%*%&&&&``````",
"`````&%%&&%&%&%&&&&`````",
"````&&%&*%*%*%*%&%&&````",
"```&&&&%%*%&%*%*%&%*&```",
"``8-&&%&*%&%%**%&&&&&```",
"``3w#%&%*:L^^Pkiipacvm``",
"``44=+%&FEACCAEJadfgmm``",
"`4447o+;WZCCCCZWMbmmmmm`",
"`3443.oTACCCCCCAYmmmmmm`",
"`34446X)CCCCCCCC/mmmmmm`",
"`30444 )CCCCCCCC_mmmmmm`",
"`344443ISCCCCCCSRmmmmmm`",
"`244345V~ZCCCCZ~Nmmmmmc`",
"``445335G~SCCS~Hmmmmmm``",
"``3350444BKQ(Utzmmmmmm``",
"``,3554444444<rmmmmmmy``",
"```24444444449xmmmmmc```",
"````444444444jmmmmmg````",
"`````2330444qmmmmmc`````",
"``````,03344lmmmmy``````",
"`````````13ebgd`````````",
"````````````````````````"
};
