/* XPM */
static char *xchat_3[] = {
/* columns rows colors chars-per-pixel */
"24 24 54 1 ",
"  c gray17",
". c #2C2C2C",
"X c #2F2F2F",
"o c gray19",
"O c gray20",
"+ c #343434",
"@ c #393939",
"# c #444444",
"$ c gray28",
"% c gray31",
"& c #495052",
"* c gray33",
"= c #585E61",
"- c #5C666A",
"; c #6B7072",
": c #6C767A",
"> c #70797D",
", c gray50",
"< c #747C80",
"1 c #798184",
"2 c #7E8386",
"3 c #808080",
"4 c #838383",
"5 c #848484",
"6 c gray59",
"7 c #9B9B9B",
"8 c #9F9F9F",
"9 c #AD8C89",
"0 c #BB9F9B",
"q c #A9A9A9",
"w c gray67",
"e c #AFB2B3",
"r c #B2B4B5",
"t c #B5B7B8",
"y c #BBBBBB",
"u c #BCBCBC",
"i c #CB9F9B",
"p c #D0A4A0",
"a c #E6BAB6",
"s c #EDC1BD",
"d c #C3C3C3",
"f c gray77",
"g c #C4C5C6",
"h c #C9CACB",
"j c #CBCBCB",
"k c gray80",
"l c #CFD1D2",
"z c #D3D4D4",
"x c #D4D6D7",
"c c #DCDDDD",
"v c gray89",
"b c gray90",
"n c gray92",
"m c None",
/* pixels */
"mmmmmmmmmmmmmmmmmmmmmmmm",
"mmmmmmmmmmmmmmmmmmmmmmmm",
"mmmmmmmmm++++++mmmmmmmmm",
"mmmmmmm++++++++++mmmmmmm",
"mmmmm+++*8kvvk7*O++mmmmm",
"mmmm++@8nnnnnnnn8@++mmmm",
"mmmm+@ynnnnnnnnnv4@+mmmm",
"mmm++8nnvnnnnnnc1u5+Ommm",
"mmm+*nnb,xnnnnc<ydd%Ommm",
"mmO+7nnnc;lnnx>tffd5OOmm",
"mmO+jnnnnz=gl:rdfffw+Omm",
"mm+Ovnnnnnh&-edgfffu++mm",
"mm++vnnnnnn09dgdfffyOOmm",
"mmO+jnnnnnnspgdgfffq+Omm",
"mmX+6nnnnnnspfffgdg,+Xmm",
"mmm+%nnnnnnspfffddd$+mmm",
"mmmOO7nnnnnspgffff4Oommm",
"mmmmOOynnnnspgfdd8OOmmmm",
"mmmmXOO7bnnapgdd4X+Xmmmm",
"mmmmm OX%6kaiq3#XO.mmmmm",
"mmmmmmmOOX    XOOmmmmmmm",
"mmmmmmmmmXOOOOXmmmmmmmmm",
"mmmmmmmmmmmmmmmmmmmmmmmm",
"mmmmmmmmmmmmmmmmmmmmmmmm"
};
