/* XPM */
static char *xchat_97[] = {
/* columns rows colors chars-per-pixel */
"24 24 35 1 ",
"  c #516A77",
". c #556F7C",
"X c #57717D",
"o c #5B7785",
"O c #5B7885",
"+ c #5D7987",
"@ c #5E7B89",
"# c #5E7C8A",
"$ c #5F7C8A",
"% c #617E8B",
"& c #627E8C",
"* c #63808D",
"= c #66828F",
"- c #6C8693",
"; c #6C8794",
": c #6E8895",
"> c #768E9B",
", c #889EA8",
"< c #91A5AF",
"1 c #A3B3BC",
"2 c #A3B4BC",
"3 c #B5C2C9",
"4 c #BAC6CD",
"5 c #BECAD0",
"6 c #C1CCD2",
"7 c #CCD5D9",
"8 c #D4DCE0",
"9 c #D7DEE2",
"0 c #DCE3E6",
"q c #E1E6E9",
"w c #ECF0F1",
"e c #F6F8F9",
"r c #FBFBFC",
"t c white",
"y c None",
/* pixels */
"yyyyyyyyyyyyyyyyyyyyyyyy",
"yyyyyyyyyyyyyyyyyyyyyyyy",
"yyyyyyyyy$$$$$$yyyyyyyyy",
"yyyyyyy$$$$$$$$$@yyyyyyy",
"yyyyy$$$$$$$$$$$$$%yyyyy",
"yyyy$$$$$$$$$$$$$$@$yyyy",
"yyyy$$$$$$*$$:$$$$$$yyyy",
"yyy@$$$$$%7$$r5*$$$$@yyy",
"yyy@$$$$$6t$$>99&$$$$yyy",
"yy+@$$$$3tt$$==q2@$$$oyy",
"yy+%$$ttttt$%0%<w%$$$@yy",
"yy@$$$ttttt$@t,-t-$$$@yy",
"yy@%$$ttttt$@t,;t-$$@@yy",
"yy+@$$ttttt$%0&<w$$$%Oyy",
"yyX$$$$$3tt$@==q1$$$@Xyy",
"yyy$$$$@%6t$@>99&$$$$yyy",
"yyy+@$$$@&7$$e4&$$$$+yyy",
"yyyy$$$$@&*$@-$$@&$$yyyy",
"yyyy $$$@@%@$$$$$$$ yyyy",
"yyyyy $$%@@@$$$$$$ yyyyy",
"yyyyyyy+$$$%$$$$+yyyyyyy",
"yyyyyyyyy.O@@oXyyyyyyyyy",
"yyyyyyyyyyyyyyyyyyyyyyyy",
"yyyyyyyyyyyyyyyyyyyyyyyy"
};
