/* XPM */
static char *xchat_10[] = {
/* columns rows colors chars-per-pixel */
"24 24 78 1 ",
"  c #579665",
". c #5EA36E",
"X c #60A46F",
"o c #60A570",
"O c #6BB77B",
"+ c #6BB87B",
"@ c #6EBD80",
"# c #6EBE80",
"$ c #70C182",
"% c #72C484",
"& c #74C786",
"* c #76C887",
"= c #77C689",
"- c #7CC48B",
"; c #7CC58B",
": c #77C889",
"> c #79C98A",
", c #79C98B",
"< c #7CCA8D",
"1 c #7DCB8E",
"2 c #7FCC90",
"3 c #82CC92",
"4 c #83CD93",
"5 c #84CE94",
"6 c #85CE95",
"7 c #8ACD98",
"8 c #8AD099",
"9 c #8DD19B",
"0 c #8ED19C",
"q c #90D19E",
"w c #91D39F",
"e c #91D3A0",
"r c #94D4A2",
"t c #95D4A2",
"y c #9AD6A7",
"u c #9CD7A9",
"i c #A2D9AE",
"p c #A2DAAE",
"a c #A4DAB0",
"s c #A5DBB0",
"d c #A7DCB3",
"f c #A9DCB3",
"g c #A8DCB4",
"h c #ABDDB7",
"j c #ACDDB6",
"k c #B2E0BC",
"l c #B3E0BD",
"z c #B5E1BF",
"x c #B6E2C0",
"c c #BCE4C5",
"v c #BDE5C6",
"b c #C7E9CE",
"n c #CAEAD1",
"m c #CEEBD4",
"M c #D0ECD7",
"N c #D2EDD8",
"B c #D6EFDB",
"V c #D9EFDE",
"C c #D9F0DE",
"Z c #DDF1E1",
"A c #DEF2E3",
"S c #E0F2E4",
"D c #E0F3E4",
"F c #E3F4E7",
"G c #E6F5EA",
"H c #E9F6EC",
"J c #ECF7EE",
"K c #ECF8EF",
"L c #EEF8F0",
"P c #F1F9F3",
"I c #F4FAF5",
"U c #F4FBF6",
"Y c #F5FBF6",
"T c #F6FBF7",
"R c #F8FCF9",
"E c #F9FDFA",
"W c #FCFEFC",
"Q c None",
/* pixels */
"QQQQQQQQQQQQQQQQQQQQQQQQ",
"QQQQQQQQQ000e00QQQQQQQQQ",
"QQQQQQ0961::=>1600QQQQQQ",
"QQQQQ03**&&&&&&&:30QQQQQ",
"QQQQ9>&&>*&&&&*:*&>8QQQQ",
"QQQ7:&:gEPu*&aLEs&&:8QQQ",
"QQ7>&&&DrwHlcHeyC*&&>7QQ",
"QQ3&&&&Ar*1cF1*rA&&&:3QQ",
"QQ*&&&:nd:uP4&&dn*&&&*QQ",
"Q;&&&&3nKCWLHGBbl3&&&&;Q",
"Q=&&6MImECN77snlmUB5&&=Q",
"Q&**Fx=&mE1DA1U4*:zA&&:Q",
"Q&&&Hz>&mE1AA&cb*:zK&&*Q",
"Q$&&3BIyUnb*:&2UyUN3&:+Q",
"Q+&&&&6hN1Ly&&*Bg3&&&&+Q",
"QQ&&&&&ng*yL3:>sn&&&&&QQ",
"QQ&&&&&Dr&1bG1&rA&&&&&QQ",
"QQo&&&&AywJzcHwyA&&&&.QQ",
"QQQ#&&&fRHp&&pPRi&&;#QQQ",
"QQQQ$&&&1&&&&&&>&&&$QQQQ",
"QQQQQ#&&&&&&&&&&**#QQQQQ",
"QQQQQQX&&&&&&&&&%.QQQQQQ",
"QQQQQQQQ O$&&#O QQQQQQQQ",
"QQQQQQQQQQQQQQQQQQQQQQQQ"
};
