/* XPM */
static char *xchat_53[] = {
/* columns rows colors chars-per-pixel */
"24 24 46 1 ",
"  c #F2B706",
". c #FBBE06",
"X c #F5BC11",
"o c #FEC006",
"O c #FEC10A",
"+ c #FEC10C",
"@ c #FEC311",
"# c #FEC313",
"$ c #FEC416",
"% c #FEC827",
"& c #F2C029",
"* c #FECA2C",
"= c #FECA2E",
"- c #F2C335",
"; c #FECC36",
": c #FECD38",
"> c #FED044",
", c #FED65D",
"< c #F2D373",
"1 c #FEDC75",
"2 c #FEDC76",
"3 c #FEDD78",
"4 c #FFE28B",
"5 c #FFE493",
"6 c #FFE494",
"7 c #FFEAAA",
"8 c #FFEAAC",
"9 c #F3E3B4",
"0 c #F3E3B5",
"q c #FFEBB2",
"w c #FFECB4",
"e c #FFEEBC",
"r c #FFEEBD",
"t c #F3E9CE",
"y c #FFF1C7",
"u c #FFF4D4",
"i c #FFF5D9",
"p c #FFF9E6",
"a c #F3F0E9",
"s c #FFF9E8",
"d c #F3F3F3",
"f c #FFFCF3",
"g c #FFFCF4",
"h c #FFFEF9",
"j c white",
"k c None",
/* pixels */
"kkkkkkkkkkkkkkkkkkkkkkkk",
"kkk=::::::::::::::::=kkk",
"kkkX                Xkkk",
"kkk                  kkk",
"kkk                  kkk",
"kkk                  kkk",
"kkk                  kkk",
"kkk                  kkk",
"kkk                  kkk",
"kkk                  kkk",
"kkkat9<&             kkk",
"kkkddddd0-           kkk",
"kkkjjjjjjj5Ooooooooookkk",
"kkk@=,7hjjjr$ooooooookkk",
"kkkoooo%7jjjrOoooooookkk",
"kkkgu5=o.1jjj5oooooookkk",
"kkkjjjj5Oo1jjj;ooooookkk",
"kkkjjjjjrOoqjjeooooookkk",
"kkk@>qjjj6o%gjj=oooookkk",
"kkkoo.3jjh=o8jj3oooookkk",
"kkkp4+owjj5o,jjroooookkk",
"kkkjj4o>jju.=jjioooookkk",
"kkkyjso@jjfo@jjfoooo.kkk",
"kkkkkkkkkkkkkkkkkkkkkkkk"
};
