/* XPM */
static char *xchat_106[] = {
/* columns rows colors chars-per-pixel */
"24 24 63 1 ",
"  c #DC6C00",
". c #E26F00",
"X c #E87200",
"o c #F47800",
"O c #F47E0B",
"+ c #D5811E",
"@ c #DB851E",
"# c #DF871F",
"$ c #E9861C",
"% c #E58B1F",
"& c #F5861A",
"* c #D58220",
"= c #CC8530",
"- c #D9933F",
"; c #E78C20",
": c #EA8C27",
"> c #ED8B2D",
", c #EF9121",
"< c #F19221",
"1 c #F79522",
"2 c #F79622",
"3 c #F79623",
"4 c #F2932A",
"5 c #F5912E",
"6 c #F8922F",
"7 c #F79928",
"8 c #F79B2D",
"9 c #F8992E",
"0 c #F69333",
"q c #F89E32",
"w c #F8A038",
"e c #F8A33D",
"r c #DF9640",
"t c #D4974E",
"y c #DAA565",
"u c #E2AE6F",
"i c #F9B565",
"p c #EEBA7C",
"a c #ECC495",
"s c #EDC799",
"d c #E8C69D",
"f c #FBCD95",
"g c #EECAA0",
"h c #EDCCA5",
"j c #F4D0A5",
"k c #FCD7AB",
"l c #EFD3B2",
"z c #FCDAB1",
"x c #FBDBB5",
"c c #F5DABA",
"v c #F1DABE",
"b c #F0DAC1",
"n c #F6E1C7",
"m c #F3E0C9",
"M c #FCE6CC",
"N c #FDEAD4",
"B c #F5E8D8",
"V c #FDF3E7",
"C c #FBF4EC",
"Z c #FDFAF6",
"A c #FFFDFB",
"S c white",
"D c None",
/* pixels */
"DDDDDDDDDDDDDDDDDDDDDDDD",
"DDDDDDDDDDDDDDDDDDDDDDDD",
"DDDDDDDDDDDDDDDDDDDDDDDD",
"DD5000000006DDDDDDDDDDDD",
"DDOoooooooo&>DDDDDDDDDDD",
"DDoooooooooX:wwwwwwww9DD",
"DD.        $8222222222DD",
"DD4wwwwwwww82222222223DD",
"DD72222222222222222222DD",
"DD22222222222222222222DD",
"DD2222222222222eq22222DD",
"DD2222222222227VM22222DD",
"DD222222222222imCq4222DD",
"DD2222222222NSAudSSz22DD",
"DD2222222222vb=%+-Bs22DD",
"DD2222222222*hx22Bp#22DD",
"DD22222222222gakflp222DD",
"DD22222222222nZgcZj222DD",
"DD22222222222rt@+yr222DD",
"DD<2222222222,;22;,22<DD",
"DD##*%%############%*%DD",
"DDDDDDDDDDDDDDDDDDDDDDDD",
"DDDDDDDDDDDDDDDDDDDDDDDD",
"DDDDDDDDDDDDDDDDDDDDDDDD"
};
