/* XPM */
static char *xchat_39[] = {
/* columns rows colors chars-per-pixel */
"24 24 33 1 ",
"  c #BA0000",
". c #BB0606",
"X c #BD0E0E",
"o c #C22929",
"O c #C53333",
"+ c #C63939",
"@ c #C73D3D",
"# c #C94747",
"$ c #C94848",
"% c #CB5252",
"& c #D16E6E",
"* c #D47E7E",
"= c #D68484",
"- c #D68787",
"; c #D78C8C",
": c #D99797",
"> c #DCA4A4",
", c #CBCBCB",
"< c #D8D8D8",
"1 c #DADADA",
"2 c #DFDFDF",
"3 c #E2C3C3",
"4 c #E3C7C7",
"5 c #E5CECE",
"6 c #E7D6D6",
"7 c #E8D9D9",
"8 c gray88",
"9 c #E9E2E2",
"0 c #EAE6E6",
"q c gray92",
"w c #ECECEC",
"e c #EFEFEF",
"r c None",
/* pixels */
"rrrrrrrrrrrrrrrrrrrrrrrr",
"rrrrrrrrrrrrrrrrrrrrrrrr",
"rrrrrrr88818818818818rrr",
"rrrrrrr111111111111<1rrr",
"rrrrrrr111111111<<<<1rrr",
"rrrwewwwwwwwwwwqq<<<1rrr",
"rrrwwwwqwwqqqqwwq<<<<rrr",
"rrrqwwwq6:0qqwwwq<<11rrr",
"rrrqqqqq4 :wqqqqq<<<<rrr",
"rrrqqqqq7 3wqqqqq<<<1rrr",
"rrrqqqq;$ OX=qqqq<<<1rrr",
"rrrqqqq;> 7@*qqqq<<<<rrr",
"rrrqqqq3#.&+9qqqq<<<1rrr",
"rrrqqqqq5o66qqqqq<<<1rrr",
"rrrqqqqqq@9qqqqqq<<<1rrr",
"rrrqqqqqq%qqqqqqq<<11rrr",
"rrrqqqqqw&wqqqqqq<<<<rrr",
"rrrqqqqqw=qqqqqqq<<1<rrr",
"rrrqqqqqq>qqqqqqq1<1,rrr",
"rrrqqqqqq5qqqqqqqrrrrrrr",
"rrrwqqqqqqqqqqwwqrrrrrrr",
"rrr1qqqqqqqqqqww1rrrrrrr",
"rrrrrrrrrrrrrrrrrrrrrrrr",
"rrrrrrrrrrrrrrrrrrrrrrrr"
};
