/* XPM */
static char *xchat_33[] = {
/* columns rows colors chars-per-pixel */
"24 24 120 2 ",
"   c #BD6D33",
".  c #BF6E34",
"X  c #C06F36",
"o  c #C17135",
"O  c #C47235",
"+  c #CC7639",
"@  c #CF7738",
"#  c #D67B39",
"$  c #D57C3C",
"%  c #D87D3B",
"&  c #DD7F3C",
"*  c #A57A5A",
"=  c #817B72",
"-  c #837E77",
";  c #C67C45",
":  c #E3833D",
">  c #E3843F",
",  c #E6843E",
"<  c #E9863F",
"1  c #BC8154",
"2  c #BE8459",
"3  c #94816E",
"4  c #99826F",
"5  c #908171",
"6  c #A48369",
"7  c #A6886F",
"8  c #B08C6F",
"9  c #A78971",
"0  c #B18D73",
"q  c #BD9B7E",
"w  c #CA824E",
"e  c #D9864B",
"r  c #DF8E52",
"t  c #D98D57",
"y  c #E08545",
"u  c #EB8740",
"i  c #EB8841",
"p  c #EC8840",
"a  c #EC8B44",
"s  c #ED8B45",
"d  c #ED8D47",
"f  c #EA8C4A",
"g  c #ED8E4A",
"h  c #ED914E",
"j  c #E48F50",
"k  c #E28F54",
"l  c #EC9151",
"z  c #ED9251",
"x  c #EE9353",
"c  c #ED9454",
"v  c #EE9554",
"b  c #EE9656",
"n  c #EF995B",
"m  c #EF9A5C",
"M  c #C28A60",
"N  c #C88D60",
"B  c #CE9366",
"V  c #C59068",
"C  c #DB9662",
"Z  c #D5996C",
"A  c #C39979",
"S  c #E29B67",
"D  c #EF9E64",
"F  c #EC9F66",
"G  c #F09E63",
"H  c #6C7F86",
"J  c #3B88B6",
"K  c #3C8AB8",
"L  c #3D8AB8",
"P  c #3E8EBE",
"I  c #74909E",
"U  c #4B87AC",
"Y  c #538BAA",
"T  c #578BA9",
"R  c #4188B4",
"E  c #448DB9",
"W  c #468EBB",
"Q  c #428FBD",
"!  c #4C90B8",
"~  c #5290B3",
"^  c #7D97A2",
"/  c #7D9EAD",
"(  c #659EBB",
")  c #619CBF",
"_  c #70A2BC",
"`  c #3F91C2",
"'  c #4196C8",
"]  c #4398CB",
"[  c #4499CD",
"{  c #499ACB",
"}  c #4D9CCB",
"|  c #529FCC",
" . c #459DD2",
".. c #46A1D7",
"X. c #47A3DA",
"o. c #48A6DD",
"O. c #48A7DF",
"+. c #4DA8DF",
"@. c #52A2D0",
"#. c #54A1D1",
"$. c #55A4D4",
"%. c #5AA5D1",
"&. c #67A6C9",
"*. c #65A7CD",
"=. c #62A7D0",
"-. c #4AAAE3",
";. c #57B0E5",
":. c #5DB1E2",
">. c #67B4E2",
",. c #68B7E7",
"<. c #8E928F",
"1. c #9A938A",
"2. c #959893",
"3. c #9B9C97",
"4. c #B39C87",
"5. c #A69D90",
"6. c #B2A191",
"7. c #8EA3AC",
"8. c #C4A183",
"9. c None",
/* pixels */
"9.9.9.9.9.9.9.9.9.9.9.9.9.9.9.9.9.9.9.9.9.9.9.9.",
"9.9.9.9.9.9.9.9.9.9.9.9.9.9.9.9.9.9.9.9.9.9.9.9.",
"9.9.9.9.9.9.9.9.9.,.>.L K Q | #.9.9.9.9.9.9.9.9.",
"9.9.9.9.9.9.@.| :.;.+.] P L #./ q 8.9.9.9.9.9.9.",
"9.9.9.n 9.} E [ I ^ O.-.-.' O.%.6 e n F 9.9.9.9.",
"9.9.x g 3.<.1.4.B { X.-.-.-.-.X.U 5 + b G 9.9.9.",
"9.9.d p b b b h 7 ' -.-.-.-.-. .Q J I $ h 9.9.9.",
"9.9.d < p p < < h 2.) +.-.-.-.-. .J J 3 p b 9.9.",
"9.9.g p p p p p i x 2 %.-.-.-.-.-.-.E 0 i s 9.9.",
"9.k u p p p p p < 1 ~ -.-.-.-.-.-.-.o.t < < v 9.",
"9.y p p p p p , # 4 J  .-.-.-.-.-.-.-.V p p x 9.",
"9.g p p p p p w = - J ' -.-.-.-.-.-.&.V p p < 9.",
"9.f i i p p p M R J J ' -.-.-.-.-.X.5.r u i p 9.",
"9., p < p p p g A ! E 7.6._ -.-.' J 8 i u p : 9.",
"9.% p p p p p p g F F k ; 7 -.' J J N p i p % 9.",
"9.9.< p p p p p p # X * ( -.J J T <.g p p < 9.9.",
"9.9.# < p p p p < 3.$.;.-.-.P Y Z C < p p # 9.9.",
"9.9.O , p p p p < b 8._ *.*.2.S d s < < < O 9.9.",
"9.9.9.O , < p p p p h m D G b s < p p < O 9.9.9.",
"9.9.9.9.O , p p p p < p i p u i < < < O 9.9.9.9.",
"9.9.9.9.9.o # < u < u p p p p p < # X 9.9.9.9.9.",
"9.9.9.9.9.9.o   @ & < < u , & @   o 9.9.9.9.9.9.",
"9.9.9.9.9.9.9.9.9.X         X 9.9.9.9.9.9.9.9.9.",
"9.9.9.9.9.9.9.9.9.9.9.9.9.9.9.9.9.9.9.9.9.9.9.9."
};
