/* XPM */
static char *xchat_18[] = {
/* columns rows colors chars-per-pixel */
"24 24 78 1 ",
"  c #0D3453",
". c #0C3759",
"X c #0E395B",
"o c #0C395C",
"O c #0D3C61",
"+ c #15456A",
"@ c #104978",
"# c #104A79",
"$ c #174F7C",
"% c #12568C",
"& c #135991",
"* c #165990",
"= c #2F5E83",
"- c #3E6789",
"; c #21639A",
": c #306691",
"> c #346993",
", c #1669AA",
"< c #1B6CAC",
"1 c #1A77C2",
"2 c #5F83A0",
"3 c #4381B1",
"4 c #658BAA",
"5 c #6891B0",
"6 c #1D89DE",
"7 c #1E8DE6",
"8 c #2095F2",
"9 c #4993CE",
"0 c #659AC5",
"q c #76ACD6",
"w c #5CA6E2",
"e c #4DAAF5",
"r c #79B6E8",
"t c #78BAEF",
"y c #62B5F6",
"u c #65B5F6",
"i c #68B5F2",
"p c #79BFF7",
"a c #7CC0F6",
"s c #9D9D9D",
"d c #A0A0A0",
"f c #B9B9B9",
"g c gray74",
"h c #83B5DD",
"j c #84B5DC",
"k c #8ABCE4",
"l c #88C5F6",
"z c #8FC9F6",
"x c #96CCF6",
"c c #9ACBF3",
"v c #90CAF9",
"b c #AED4F3",
"n c #A9D4F6",
"m c #A5D5FA",
"M c #A6D5FA",
"N c #B4D7F3",
"B c #B9DAF3",
"V c #C5C5C5",
"C c gray84",
"Z c #D8D8D8",
"A c #C0D1E0",
"S c #C3D5E4",
"D c #D0E0ED",
"F c #D5E3EF",
"G c #DDE9F2",
"H c gray88",
"J c #E6E6E6",
"K c #E5E8EA",
"L c #EAEAEA",
"P c gray92",
"I c #ECECEC",
"U c #EEEEEE",
"Y c #EFEFEF",
"T c #EDEFF1",
"R c gray94",
"E c #F1F1F1",
"W c #F3F3F3",
"Q c None",
/* pixels */
"QQQQQQQQQQQQQQQQQQQQQQQQ",
"QQQQQQQQQQQQQQQQQQQQQQQQ",
"QQEEEWEEWEWEEEEUQQQQQQQQ",
"QQUsdLUUULULLUUEEUQQQQQQ",
"QQLCCULLB4=+$:0AUUEQQQQQ",
"QQUEELK2 X##&%&&0KUEQQQQ",
"QQULLJ-.+@&&,,1169KEUQQQ",
"QQLLL4.o@@&&,<1187qLUQQQ",
"QQPPAX@@&&,,1188eewSLJQQ",
"QQPP5O@@&&,,1188eeyhLLQQ",
"QQPP>#&&,,1188eeyyprUUQQ",
"QQPP%#&&,,1188eeyyptLUQQ",
"QQUP;&,,1188eeyyppvzLLQQ",
"QQUP3&,,1188eeyypavxULQQ",
"QQHPj,1188eeyyppvvMbLHQQ",
"QQVPD<1188eeyyppvvMFLVQQ",
"QQQUPk88eeyyaavvMMBTLQQQ",
"QQQgPUi8eeyyppvvmnRLfQQQ",
"QQQQZPTcuyaavvMMBRKZQQQQ",
"QQQQQZUYGclavxNGRUZQQQQQ",
"QQQQQQfLUUEEEEUULfQQQQQQ",
"QQQQQQQQfHLLULHfQQQQQQQQ",
"QQQQQQQQQQQQQQQQQQQQQQQQ",
"QQQQQQQQQQQQQQQQQQQQQQQQ"
};
