/* XPM */
static char *xchat_103[] = {
/* columns rows colors chars-per-pixel */
"24 24 20 1 ",
"  c gray22",
". c #3A3A3A",
"X c gray23",
"o c #3F3F3F",
"O c #41403F",
"+ c #574A37",
"@ c #564A38",
"# c #72562E",
"$ c #655133",
"% c #675132",
"& c #6D5430",
"* c #9E6B1F",
"= c #B57618",
"- c #845F29",
"; c #996822",
": c #E48B08",
"> c #E68C08",
", c #F29204",
"< c #FE9700",
"1 c None",
/* pixels */
"111111111111111111111111",
"111111111111111111111111",
"1111111111oooo1111111111",
"111111111oooooo111111111",
"111111111oooooo111111111",
"1111oo1oooooooooo1oo1111",
"1111oooooooooooooooo1111",
"111oooooo<<<<<ooooooo111",
"11ooooooooo<oooooooooo11",
"111Xoo<o<<<<<<=Ooooo.111",
"1111oo<o<oooo+>=&-oo1111",
"1111oo<<<ooooo@:<<oo1111",
"1111oo<o<oooooooo<oo1111",
"1111oo<o<%ooooooo<oo1111",
"111ooooo;,%ooo*<<<ooo111",
"11oooooOO;<<<<:+#-oooo11",
"111ooooooooooooooooo.111",
"1111oo..ooooooooo.oo1111",
"1111..1..oooooo..1..1111",
"111111111oooooo111111111",
"111111111oooooo111111111",
"1111111111....1111111111",
"111111111111111111111111",
"111111111111111111111111"
};
