/* XPM */
static char *xchat_67[] = {
/* columns rows colors chars-per-pixel */
"24 24 74 1 ",
"  c #EE4736",
". c #E15237",
"X c #CE6439",
"o c #F45549",
"O c #F1594A",
"+ c #E1694C",
"@ c #F16D5E",
"# c #E77960",
"$ c #669036",
"% c #679337",
"& c #72A03D",
"* c #77A73F",
"= c #78A73F",
"- c #7CAF42",
"; c #7DAF43",
": c #7EB044",
"> c #7FB146",
", c #A58A3D",
"< c #909C40",
"1 c #82A941",
"2 c #82AF45",
"3 c #81B247",
"4 c #82B34A",
"5 c #83B34C",
"6 c #86AD59",
"7 c #88B653",
"8 c #88B654",
"9 c #89B755",
"0 c #91BB61",
"q c #BCAE69",
"w c #AEBE6B",
"e c #C48850",
"r c #D98A63",
"t c #D78B6A",
"y c #C3A567",
"u c #98C565",
"i c #9AC26B",
"p c #9EC969",
"a c #9FCC6C",
"s c #9BC171",
"d c #A9C56D",
"f c #A5C96D",
"g c #A1CE6D",
"h c #A1CD6F",
"j c #A2CE6E",
"k c #A3CF70",
"l c #A4CF71",
"z c #A7CE73",
"x c #A5C67E",
"c c #A5D073",
"v c #A5D074",
"b c #A8D377",
"n c #ABD27B",
"m c #ACD47F",
"M c #E0A98D",
"N c #ADD480",
"B c #B1D786",
"V c #B2D788",
"C c #B5D78C",
"Z c #B3D888",
"A c #B4D88B",
"S c #BEDC9C",
"D c #C4DAAA",
"F c #CDDDBB",
"G c #C7E0AB",
"H c #D9E8C7",
"J c #E0E9D6",
"K c #E0E8D8",
"L c #E7EEDE",
"P c #EDEFEA",
"I c #F0F1ED",
"U c #F1F3ED",
"Y c #F3F3F3",
"T c None",
/* pixels */
"TTTTTTTTTTTTTTTTTTTTTTTT",
"TTTTTTTTTBZCZZVTTTTTTTTT",
"TTTTTTBZmvcgglbmZmTTTTTT",
"TTTTTBngggggggggbmZTTTTT",
"TTTTBvggggggggggjjzdTTTT",
"TTTNlgggggggggggjde3aTTT",
"TTNcggggggggggggj+3>>uTT",
"TTnggggggggggggyO<***9TT",
"TTkggggggggggfro,3**33TT",
"Tnggggggggggw#oX:-*3=*9T",
"Tvgggggggggq@o.1----333T",
"TcggggggggSMo <;----3=3T",
"TggggggggNUYt,;-:---:*>T",
"TpggggggvLYPx;--:3--:::T",
"TuggggggHYK0----3=:==:*T",
"TTgggggGYF4-----=>=::=TT",
"TTgggaCUA;-----------:TT",
"TT6ggnKs::-----------$TT",
"TTTukD8-=3=:-------->TTT",
"TTTTi>--3=>=-------*TTTT",
"TTTTT=;;:=::---;:>=TTTTT",
"TTTTTT$-;>=:---;=$TTTTTT",
"TTTTTTTTT&*>-*&TTTTTTTTT",
"TTTTTTTTTTTTTTTTTTTTTTTT"
};
