/* XPM */
static char *xchat_1[] = {
/* columns rows colors chars-per-pixel */
"24 24 74 1 ",
"  c #3F3F3F",
". c #5F2F3F",
"X c #5D303F",
"o c #72253F",
"O c #5E3040",
"+ c #7F2A47",
"@ c #633343",
"# c #643344",
"$ c gray25",
"% c #444444",
"& c gray27",
"* c #464646",
"= c #515151",
"- c #535353",
"; c #555555",
": c gray35",
"> c #6D6D6D",
", c gray44",
"< c #717171",
"1 c #7E7E7E",
"2 c gray50",
"3 c #841C3F",
"4 c #92143F",
"5 c #851C40",
"6 c #8D1E43",
"7 c #A01443",
"8 c #A81547",
"9 c #AC184A",
"0 c #B1164A",
"q c #B9174D",
"w c #BA174E",
"e c #B2194C",
"r c #B4194D",
"t c #BA1950",
"y c #BB1A50",
"u c #9A214A",
"i c #C13061",
"p c #C84571",
"a c #C94873",
"s c #CD5980",
"d c #CE5B82",
"f c #D06186",
"g c #D36B8E",
"h c #D36C8F",
"j c #D67495",
"k c #D97D9C",
"l c gray58",
"z c #979797",
"x c #989898",
"c c gray62",
"v c #A2A2A2",
"b c gray64",
"n c gray65",
"m c #A7A7A7",
"M c gray69",
"N c gray71",
"B c #B7B7B7",
"V c gray72",
"C c #B9B9B9",
"Z c gray",
"A c #DA819F",
"S c #DF95AE",
"D c #E3A2B8",
"F c #C0C0C0",
"G c #C1C1C1",
"H c gray76",
"J c #C3C3C3",
"K c gray77",
"L c #C5C5C5",
"P c gray79",
"I c gray80",
"U c #CECECE",
"Y c #D0D0D0",
"T c None",
/* pixels */
"TTTTTTTTTTTTTTTTTTTTTTTT",
"TTTTTTTTTIYYYYITTTTTTTTT",
"TTTTTTYYIPKKKKPIIYTTTTTT",
"TTTTTYPKKKKKKKKKKIYTTTTT",
"TTTTIPKKKKJJKKKKKJKYTTTT",
"TTTIKKKKC2:**:2CKJKKITTT",
"TTIKKKKx*      *lKJKKITT",
"TTPKKKx$ .5443O *xKKKITT",
"TTKKKB* o7ryy075$*NKJKTT",
"TKKKK2 O8tiipiruX$2JKKKT",
"TKKKK- 6qasppspt6 ;KKKJT",
"TKKKK*$rqgjsdjhw9 *JKKKT",
"TKKKK% 9qhjAkjhwe$*JJKJT",
"TZKKK= uqakDDAawu$=JKJZT",
"TNKKK,$OqwfSSfww@$<KKJCT",
"TTKKLm*%5wyyyry3$*nJKKTT",
"TTKKJJ2  @urru@ .2JJKFTT",
"TTmKKKN2*      *2NKKKbTT",
"TTTCKKKBl>;$$=>xNKKKJTTT",
"TTTTKKKKJMnccnMJKKKFTTTT",
"TTTTTCKKKKKKKKKKKKZTTTTT",
"TTTTTTbJKJKKKKKJJbTTTTTT",
"TTTTTTTTlNZJJZNlTTTTTTTT",
"TTTTTTTTTTTTTTTTTTTTTTTT"
};
