/* XPM */
static char *xchat_116[] = {
/* columns rows colors chars-per-pixel */
"24 24 61 1 ",
"  c #00766D",
". c #007A6D",
"X c #007B6F",
"o c #007C71",
"O c #008377",
"+ c #008679",
"@ c #00887B",
"# c #008A7D",
"$ c #008D80",
"% c #118C81",
"& c #009082",
"* c #009386",
"= c #009587",
"- c #0B9285",
"; c #039688",
": c #059789",
"> c #06988B",
", c #09998B",
"< c #0A998C",
"1 c #0B9A8C",
"2 c #109C8F",
"3 c #179F91",
"4 c #179F92",
"5 c #199F93",
"6 c #268C83",
"7 c #1AA093",
"8 c #19A094",
"9 c #1FA296",
"0 c #2BA69B",
"q c #2CA79B",
"w c #2BA69C",
"e c #2FA99D",
"r c #30A99D",
"t c #33AB9F",
"y c #469C94",
"u c #489D96",
"i c #5BADA5",
"p c #60AFA8",
"a c #60BCB4",
"s c #79C7C0",
"d c #80BBB6",
"f c #84BDB8",
"g c #8BC1BC",
"h c #8ACDC7",
"j c #92C5C0",
"k c #9AC9C5",
"l c #9ECBC7",
"z c #8FD0C9",
"x c #A5DAD5",
"c c #B8DBD8",
"v c #BDDEDB",
"b c #BCE3DF",
"n c #C6E4E1",
"m c #CAE5E3",
"M c #D2E7E5",
"N c #E1F2F1",
"B c #E4F3F2",
"V c #F2F8F8",
"C c #FAFCFC",
"Z c white",
"A c None",
/* pixels */
"AAAAAAAAAAAAAAAAAAAAAAAA",
"AAAAAAAAAerrrtrAAAAAAAAA",
"AAAAAAee9<<:::78eeAAAAAA",
"AAAAAr5;;=:=;=;;;5eAAAAA",
"AAAAq<=====;======<qAAAA",
"AAAw:======;=======>wAAA",
"AA0,=====5xVVx4=====<wAA",
"AA8=====2BZZZZN2=====8AA",
"AA;=====zZZZZZZh=====:AA",
"A4======mZZZZZZn======7A",
"A<======vZZZZZZc======,A",
"A>======pZZZZZZi======>A",
"A=======#lZZZZk#=======A",
"A&=======OujjyO=======&A",
"A$====;;==-%%-========$A",
"AA=====:sBZZZZNs:=====AA",
"AA*===>nZZZZZZZZb:===*AA",
"AAX;==aZZZZZZZZZZa===XAA",
"AAA$==#fCZZZZZZCd#;;$AAA",
"AAAA&==+6gMVVMf6+==&AAAA",
"AAAAA&==&+oXXo+&=;$AAAAA",
"AAAAAAX=====*=;== AAAAAA",
"AAAAAAAAA#$=*&@AAAAAAAAA",
"AAAAAAAAAAAAAAAAAAAAAAAA"
};
