/* XPM */
static char *xchat_34[] = {
/* columns rows colors chars-per-pixel */
"24 24 60 1 ",
"  c #F34235",
". c #F34A3E",
"X c #F25044",
"o c #F07168",
"O c #4BAE4F",
"+ c #4CAE50",
"@ c #5CB560",
"# c #64B868",
"$ c #7BC07D",
"% c #FEC006",
"& c #FEC10A",
"* c #FCC520",
"= c #FBC82D",
"- c #F0877F",
"; c #F8CD4B",
": c #F6D367",
"> c #2095F2",
", c #4CA8F1",
"< c #54ABF0",
"1 c #6DB5EF",
"2 c #AFAFAF",
"3 c #BCBCBC",
"4 c #F09089",
"5 c #EEA7A1",
"6 c #EEACA7",
"7 c #82C385",
"8 c #9DCD9F",
"9 c #9FCEA0",
"0 c #A7D1A9",
"q c #F3DA91",
"w c #F2DC9B",
"e c #8CC3EE",
"r c #9FCBED",
"t c #9CCAEE",
"y c gray76",
"u c #D7D7D7",
"i c #DADADA",
"p c gainsboro",
"a c #ECC5C3",
"s c #EDCBC8",
"d c #ECD0CE",
"f c #ECD3D1",
"g c #ECDEDD",
"h c #D6E3D7",
"j c #EDE6D2",
"k c #EDE7D7",
"l c #ECE8DD",
"z c #CDDEEC",
"x c #DCE5EB",
"c c gray88",
"v c gray89",
"b c #E6E6E6",
"n c #EBE4E3",
"m c #E3E8E3",
"M c #E7E9EB",
"N c #EBEAE9",
"B c #E8EAEB",
"V c #EAEAEA",
"C c gray92",
"Z c None",
/* pixels */
"ZZZZZZZZZZZZZZZZZZZZZZZZ",
"ZZZZZZZZZCCCCCCZZZZZZZZZ",
"ZZZZZZZNCCCCCCCCCCZZZZZZ",
"ZZZZZNNNCCCCCChhCCCZZZZZ",
"ZZZZVCNj::kCC0++9CCCZZZZ",
"ZZZVCCN;%%;CC#O+@CCCNZZZ",
"ZZZVCCC*%%=CC7OO$CCCCNZZ",
"ZZVVCCCq&&wCCm98mCCCCCZZ",
"ZZCCCCCCllCCCCCCCCzzBBnZ",
"ZvCCCfnCCCCCCCCCC1>>tBNZ",
"ZbCVo XdCCCCCCCCV>>><CCZ",
"ZVCs   4CCCCCCCCC,>>1CNZ",
"ZVVg.  6CCCCCCCCCxetVCpZ",
"ZbVVa-5CCCCCCCCCCCCCBVZZ",
"ZiVCCCCCCCCCCCCCCCCVCiZZ",
"ZZCCCCCCCCCCCCCCCCCVuZZZ",
"ZZVVVCCCCCCCCCVcbcuZZZZZ",
"ZZyCCCCCCCCCC3ZZZZZZZZZZ",
"ZZZcCCCCCCCCVZZZZZZZZZZZ",
"ZZZZbCCCCCCCVZZZZZZZZZZZ",
"ZZZZZcVCCCCCVVZZZZZZZZZZ",
"ZZZZZZyVCVCCCcZZZZZZZZZZ",
"ZZZZZZZZ2ucVbZZZZZZZZZZZ",
"ZZZZZZZZZZZZZZZZZZZZZZZZ"
};
