/* XPM */
static char *xchat_126[] = {
/* columns rows colors chars-per-pixel */
"24 24 74 1 ",
"  c #882481",
". c #8C2586",
"X c #912689",
"o c #91268A",
"O c #96278E",
"+ c #932B8D",
"@ c #96288F",
"# c #972790",
"$ c #982791",
"% c #9A2993",
"& c #A32A9B",
"* c #A02E98",
"= c #A72D9E",
"- c #A82F9F",
"; c #A5309E",
": c #A7349E",
"> c #A82CA0",
", c #A82DA0",
"< c #A92EA2",
"1 c #A733A0",
"2 c #AC35A4",
"3 c #AC39A4",
"4 c #AE3AA6",
"5 c #AF3FA8",
"6 c #B035A8",
"7 c #B237A9",
"8 c #B23EAB",
"9 c #AF40A8",
"0 c #B140A9",
"q c #B141AA",
"w c #BE46B7",
"e c #BF46B7",
"r c #C047B8",
"t c #C64ABD",
"y c #C34DBC",
"u c #C54EBD",
"i c #CA4FC1",
"p c #CA50C1",
"a c #CB56C3",
"s c #CD50C5",
"d c #CF53C7",
"f c #CB55C4",
"g c #CF5AC7",
"h c #D151C8",
"j c #D251C9",
"k c #D252C9",
"l c #D355CA",
"z c #D356CA",
"x c #D358CA",
"c c #D458CB",
"v c #D459CB",
"b c #D45ACC",
"n c #D55FCC",
"m c #D460CC",
"M c #D660CD",
"N c #DF84D9",
"B c #DF85D9",
"V c #E086D9",
"C c #E088DA",
"Z c #E290DC",
"A c #E496DE",
"S c #E498DF",
"D c #ECB6E8",
"F c #ECB7E9",
"G c #F5D8F3",
"H c #F8E5F7",
"J c #FAEBF9",
"K c #FAEDF9",
"L c #FBF0FA",
"P c #FBF1FB",
"I c #FDF6FC",
"U c #FDF8FD",
"Y c white",
"T c None",
/* pixels */
"TTTTTTTTTTTTTTTTTTTTTTTT",
"TTTTTTTTTTTTTTTTTTTTTTTT",
"TTTTTTTTT00q050TTTTTTTTT",
"TTTTTTT032>>,>250TTTTTTT",
"TTTTT03>7ygmMgy6>98TTTTT",
"TTTT02>uMxlkllbnu>20TTTT",
"TTTT2>ackkNKJNkkxf>2TTTT",
"TTT3>yckkkJYYJkkklu>3TTT",
"TTT>7xkkkkYYYYkkkkl7>TTT",
"TT:>ekkkkkYYYYkkkkkw>1TT",
"TT;>ikkkkkYYYYkkkkkp>1TT",
"TT=>kkkJKkYYYYkHKkkk>>TT",
"TT>>kkkIYMLYYLMYIkks=-TT",
"TT&>tlkGYSZUIZSYGkkt>&TT",
"TT%>0lkCYIZxxZUYVkk8>@TT",
"TTT>%kkkFYYUYYYDkkk*>TTT",
"TTT&&qkkkAHYYHZkkk8&&TTT",
"TTTT>@rkkkkYYkkkkw@>TTTT",
"TTTTo=o8kkkkkkkk8o=oTTTT",
"TTTTTo=@@8tist5+@>oTTTTT",
"TTTTTTT&&O.  .@&&TTTTTTT",
"TTTTTTTTT$&==&OTTTTTTTTT",
"TTTTTTTTTTTTTTTTTTTTTTTT",
"TTTTTTTTTTTTTTTTTTTTTTTT"
};
