/* XPM */
static char *xchat_79[] = {
/* columns rows colors chars-per-pixel */
"24 24 38 1 ",
"  c #A62F2A",
". c #B0322C",
"X c #B5332D",
"o c #B5332E",
"O c #B43C36",
"+ c #C03630",
"@ c #C13A34",
"# c #C23C36",
"$ c #C23D37",
"% c #C33F3A",
"& c #C4423C",
"* c #C5453F",
"= c #BF5954",
"- c #C54741",
"; c #C54742",
": c #C84F4A",
"> c #C9524D",
", c #CA5651",
"< c #C05B56",
"1 c #CB5D57",
"2 c #CD5E59",
"3 c #CE645F",
"4 c #D06B67",
"5 c #DB8D89",
"6 c #DC908C",
"7 c #DD9390",
"8 c #E8B4B1",
"9 c #EABDBB",
"0 c #EBBFBE",
"q c #F1D2D1",
"w c #F4DBDA",
"e c #F9EAEA",
"r c #FAEEED",
"t c #FAEFEF",
"y c #FAF0EF",
"u c #FDF9F8",
"i c #FFFEFD",
"p c None",
/* pixels */
"pppppppppppppppppppppppp",
"pppppppppppppppppppppppp",
"ppppppp=<<<<<<<<<<<<<ppp",
"pppppppO............Oppp",
"ppppppp..............ppp",
"ppp1222222222222,....ppp",
"ppp%++++++++++++%....ppp",
"ppp++++++++++++++....ppp",
"ppp++++++++++++++....ppp",
"ppp+++++%9;++++++....ppp",
"ppp+++++>i3++++++....ppp",
"ppp+++++%i>o+++++....ppp",
"ppp+++++@u4++++++....ppp",
"ppp+++++5we;+++++....ppp",
"ppp++++$y8ruur>++....ppp",
"ppp+++;qw5:&78&++....ppp",
"ppp++&ye$++++++++....ppp",
"ppp++&0,+++++++++....ppp",
"ppp++++++++++++++... ppp",
"ppp++++++++++++++ppppppp",
"ppp++++++++++++++ppppppp",
"pppo++++++++++++oppppppp",
"pppppppppppppppppppppppp",
"pppppppppppppppppppppppp"
};
