/* XPM */
static char *xchat_87[] = {
/* columns rows colors chars-per-pixel */
"24 24 95 2 ",
"   c #A57773",
".  c #F5685D",
"X  c #D15077",
"o  c #F26761",
"O  c #F56C62",
"+  c #E36275",
"@  c #F77971",
"#  c #E28903",
"$  c #E58800",
"%  c #F49100",
"&  c #F29205",
"*  c #FE9700",
"=  c #FEAC33",
"-  c #FEC166",
";  c #83548B",
":  c #BD56AC",
">  c #AF51BF",
",  c #8A61BE",
"<  c #CD798D",
"1  c #F17F80",
"2  c #C95DA0",
"3  c #AD55C1",
"4  c #8E6CCD",
"5  c #B968C8",
"6  c #BD7AC9",
"7  c #C27BCE",
"8  c #C37DCF",
"9  c #C37ECF",
"0  c #6A848B",
"q  c #37B6F3",
"w  c #35B9F5",
"e  c #589BE6",
"r  c #4AA8EC",
"t  c #6EC6F5",
"y  c #67CBF8",
"u  c #6FCEF8",
"i  c #76D0F9",
"p  c #9E8FA1",
"a  c #B7A4BA",
"s  c #DB8680",
"d  c #F48C84",
"f  c #F88E86",
"g  c #F5928B",
"h  c #F9928A",
"j  c #F4A39C",
"k  c #F9A49E",
"l  c #C3A7A5",
"z  c #E5A4A0",
"x  c #F2B2AF",
"c  c #FAB3AE",
"v  c #FAB5B1",
"b  c #FBB9B5",
"n  c #FFD599",
"m  c #BB83C5",
"M  c #B890C0",
"N  c #9A9CE0",
"B  c #C680CE",
"V  c #C582D1",
"C  c #C788D2",
"Z  c #C88FD2",
"A  c #D098D9",
"S  c #D6A5DF",
"D  c #D7A8DF",
"F  c #D7AADE",
"G  c #D8AAE0",
"H  c #DAAFE1",
"J  c #9ADCFA",
"K  c #A4DFFA",
"L  c #F2C7C4",
"P  c #FCC8C5",
"I  c #F2CDCB",
"U  c #F3DFC2",
"Y  c #F4D4D2",
"T  c #FBD7D5",
"R  c #F8D8D5",
"E  c #FDD9D7",
"W  c #FADBD9",
"Q  c #FDDAD8",
"!  c #FDDCDA",
"~  c #F3E0C3",
"^  c #FBE4C3",
"/  c #FBE5C5",
"(  c #FFEACC",
")  c #FFECD1",
"_  c #E2CCE6",
"`  c #E2C2E9",
"'  c #E7CDEB",
"]  c #E5D0E7",
"[  c #E7D3EB",
"{  c #EAD3EE",
"}  c #EBD4EF",
"|  c #ECD6F0",
" . c #CCEEFD",
".. c #D1F0FD",
"X. c None",
/* pixels */
"X.X.X.X.X.X.X.X.X.X.X.X.X.X.X.X.X.X.X.X.X.X.X.X.",
"X.X.X.X.X.X.X.X.X.X.X.X.X.X.X.X.X.X.X.X.X.X.X.X.",
"X.X.) ) ) ) X.X.X.X.X.X.X.X.X.X.X.X.X.X.X.X.X.X.",
"X.X.( ( ( ( X.X.X.X.X.X.X.X.X.X.X.X.X.X.X.X.X.X.",
"X.X.( ( ( ( X.X.X.X.X.Q W X.X.X.X.X.X.X.X.X.X.X.",
"X.X.( ( ( ( X.X.X.X.R E Q ! Y X.X.X.X.X.X.X.X.X.",
"X.X.n n n n X.X.X.I E E E T X.X.X.X.X.X.X.X.X.X.",
"X.X.n n n n X.X.X.b P E E l X.X.X.X.X.X.X.X.X.X.",
"X.X.n n n n X.X.x c c b L X.X.X.X.X.X.X.X.X.X.X.",
"X.X.n n n n X.X.v c c c   X.X.X.X.X.] X.X.X.X.X.",
"X.X.- - - - X.j c c c z X.X.X.X.[ } | X.X.X.X.X.",
"X.X.- - - - X.f h k c X.X.X.X.' | } } { X.X.X.X.",
"X.X.- - - - g f f f s X.X.H H H { { | { X.X.X.X.",
"X.X.- - - - f f f d X.Z H G D S ` | _ p X.X.X.X.",
"X.X.= = = = @ f f < C V A D D D F a X.X.X.X.X.X.",
"X.X.= = = = . O 1 B 9 9 V S D M X.X.X.X.X.X.X.X.",
"X.X.= = = = . . 2 7 9 9 7 m X.X.X.X.X.X.X.X.X.X.",
"X.X.= = = = . + > 5 9 6 ; X.X.X.X.X.X.X.X.X.X.X.",
"X.X.* * * * o : > 3 N t u i K K K K ........X.X.",
"X.X.* / ^ * X 3 4 r y y y y J J J J  . . . .X.X.",
"X.X.% ~ U & , e w w y y y y J J J J  . . . .X.X.",
"X.X.X.$ # 0 q w w w y y y y J J J J  . . . .X.X.",
"X.X.X.X.X.X.X.X.X.X.X.X.X.X.X.X.X.X.X.X.X.X.X.X.",
"X.X.X.X.X.X.X.X.X.X.X.X.X.X.X.X.X.X.X.X.X.X.X.X."
};
