/* XPM */
static char *xchat_112[] = {
/* columns rows colors chars-per-pixel */
"24 24 41 1 ",
"  c #7B1E8C",
". c #7C1E8C",
"X c #89219B",
"o c #9425A6",
"O c #9725AB",
"+ c #9926AB",
"@ c #9B26AF",
"# c #9B2CAE",
"$ c #9C2AB0",
"% c #9E2EB1",
"& c #9E37B0",
"* c #A030B3",
"= c #A032B3",
"- c #A43CB6",
"; c #A35DAF",
": c #B973C5",
"> c #BB75C7",
", c #BE72CB",
"< c #B695BB",
"1 c #CA8CD5",
"2 c #CC90D6",
"3 c #CD92D7",
"4 c #CE95D8",
"5 c #CF96D8",
"6 c #C4A4CA",
"7 c #C7B8CA",
"8 c gray83",
"9 c gray87",
"0 c #E2C0E8",
"q c #E9CEED",
"w c #E9CFED",
"e c #E1D2E4",
"r c #F0DFF3",
"t c gray90",
"y c gray92",
"u c gray93",
"i c #F1E1F4",
"p c #F2E2F4",
"a c #F8F1FA",
"s c white",
"d c None",
/* pixels */
"dddddddddddddddddddddddd",
"dddddddddddddddddddddddd",
"dddduuuuuuuuuuuuuuuudddd",
"ddddyyyyyyyyyyyyyyuydddd",
"ddddyy888888888888yydddd",
"ddddyyyyyyyyyyyyyyyydddd",
"ddddyyyyyyyyyyyyyyyydddd",
"ddddyy888888888888yydddd",
"ddddyyyyyyyyyyyyyyyydddd",
"ddddyyyyyyyyyyyyyyyydddd",
"ddddyy888888888888yydddd",
"ddddyyyyyyyyyyyyyyyydddd",
"ddddyyyyyyyyye>-$->edddd",
"ddddyy8888886%@@@@@%dddd",
"ddddyyyyyyye%@@@@@@@@ddd",
"ddddyyyyyyy:@%4isi4%@@dd",
"ddddyy88888&%qs1%2sq%+dd",
"ddddyyyyyyy$,ss*0*ss,@dd",
"ddddyyyyyyy&%qs2*2sw%Odd",
"ddddyy88888;@%4iai2*@Xdd",
"ddddyyyyyyy7%@@@@@@@@ddd",
"dddd9yyyyyyt<%@@@@@#dddd",
"dddddddddddddd.o@o ddddd",
"dddddddddddddddddddddddd"
};
