/* XPM */
static char *xchat_50[] = {
/* columns rows colors chars-per-pixel */
"24 24 28 1 ",
"  c gray28",
". c #4B4B4B",
"X c #4C4C4C",
"o c #535353",
"O c gray34",
"+ c #5B5B5B",
"@ c #5F5F5F",
"# c gray38",
"$ c #646464",
"% c DimGray",
"& c gray43",
"* c gray45",
"= c gray46",
"- c gray47",
"; c #7C7C7C",
": c gray55",
"> c gray60",
", c gray61",
"< c gray67",
"1 c #B1B1B1",
"2 c gray72",
"3 c gray75",
"4 c #C8C8C8",
"5 c #CECECE",
"6 c gray83",
"7 c gray99",
"8 c white",
"9 c None",
/* pixels */
"999999999999999999999999",
"999999999999999999999999",
"99999999999;;99999999999",
"9999999999*##*9999999999",
"999999999*@33$*999999999",
"99999999*@5886#*99999999",
"9999999*#488885#*9999999",
"999999=#4848>284#=999999",
"99999=@,86@<Oo%1@@*99999",
"9999=@@O:,@o+@+o+@@=9999",
"999=@@+@OO@@@@@@@@@@=999",
"99*@@@@@@@@++@+@+@@@#=99",
"99#@@@@@@@@@@+@@@+@+#$99",
"99999.+++@+@@@+@@@@@@999",
"9999999@@@@+@@@@@o999999",
"99999;-@+@@@+@+@X9999999",
"99999&$@@@@+@@+@&999--99",
"999999999+@@+@@@$=999999",
"99999;999#@@@@@@+9999999",
"99999%99-$+@@+ 999999999",
"9999999999+@@@9999999999",
"99999999999+@O9999999999",
"999999999999999999999999",
"999999999999999999999999"
};
