/* XPM */
static char *xchat_108[] = {
/* columns rows colors chars-per-pixel */
"24 24 41 1 ",
"  c #555555",
". c #585755",
"X c #5E5953",
"o c #5A5854",
"O c #5D5954",
"+ c #625C53",
"@ c #665E52",
"# c #685F52",
"$ c #7A684F",
"% c #706250",
"& c #726450",
"* c #717171",
"= c #8E724B",
"- c #90734A",
"; c #96764A",
": c #987749",
"> c #9C7948",
", c #A17B47",
"< c #CC913F",
"1 c #D3953E",
"2 c #D9983D",
"3 c #DE9A3C",
"4 c #E49E3B",
"5 c #E29C3C",
"6 c #EBA13A",
"7 c #ECA23A",
"8 c #F8A737",
"9 c #FFAB36",
"0 c #FEAB37",
"q c #F0A338",
"w c #F2A539",
"e c #F4A638",
"r c #B48543",
"t c #B68644",
"y c #BE8A42",
"u c #C48D41",
"i c gray72",
"p c gray73",
"a c gray79",
"s c #CECECE",
"d c None",
/* pixels */
"dddddddddddddddddddddddd",
"dddddddddddddddddddddddd",
"ddssssssssssssssssssssdd",
"ddssssssssssssssssssssdd",
"ddss*              *ssdd",
"ddss                ssdd",
"ddss                ssdd",
"ddss     #ue6rO     ssdd",
"ddss     292593o    ssdd",
"ddss    &9t  ,u     ssdd",
"ddss    +84$  oo    ssdd",
"ddss     >995,o     ssdd",
"ddss      &rw92     ssdd",
"ddss     X  ot0=    ssdd",
"ddss    -0-  ;0:    ssdd",
"ddss    #703107O    ssdd",
"ddss     @yqw<%     ssdd",
"ddss                ssdd",
"ddss                ssdd",
"ddss*              *ssdd",
"ddassssssssssssssssssadd",
"ddppppppppppppppppppppdd",
"dddddddddddddddddddddddd",
"dddddddddddddddddddddddd"
};
