/* XPM */
static char *xchat_29[] = {
/* columns rows colors chars-per-pixel */
"24 24 55 1 ",
"  c #331B5C",
". c #331D5C",
"X c #381F60",
"o c #382066",
"O c #3C2069",
"+ c #3D226D",
"@ c #3E236E",
"# c #3F256F",
"$ c #56315B",
"% c #57325A",
"& c #452863",
"* c #422669",
"= c #442668",
"- c #40256F",
"; c #5B3661",
": c #422770",
"> c #442A72",
", c #452C73",
"< c #4A3177",
"1 c #4F387C",
"2 c #593D74",
"3 c #51387A",
"4 c #543B78",
"5 c #613D67",
"6 c #754543",
"7 c #7C4844",
"8 c #64436C",
"9 c #68456A",
"0 c #BC7103",
"q c #A6611E",
"w c #9B5B22",
"e c #874F37",
"r c #A96420",
"t c #BF742B",
"y c #BE742C",
"u c #B87132",
"i c #995F48",
"p c #865454",
"a c #DE8400",
"s c #E08501",
"d c #EA8C02",
"f c #ED8D00",
"g c #F69506",
"h c #FC9501",
"j c #FE9700",
"k c #F99404",
"l c #C5915F",
"z c #988BAC",
"x c #C4ACAB",
"c c #B8AFCA",
"v c #CABECB",
"b c #D3CCDB",
"n c #D2CCDE",
"m c #D8D3E2",
"M c None",
/* pixels */
"MMMMMMMMMMMMMMMMMMMMMMMM",
"MMMMMMMMMMMMMMMMMMMMMMMM",
"MMMMMMMMgup94423MMMMMMMM",
"MMMMMMjy8<>--+-><1MMMMMM",
"MMMMjji<-++++++++:<1MMMM",
"MMMjji,++++++++++O+>1MMM",
"MMMjy>++++++++++#+++,MMM",
"MMjk5++++++++++++-o#+<MM",
"MMjy#++++++++++++++++:MM",
"MjjxmmmmmmmmmmmmmmmmmmcM",
"Mjj;++++++++++++++++++:M",
"MjjbmmmmmmmmmmmmmmmmmmnM",
"Mjj=++++++++++++++++Oo+M",
"MjjvmmmmmmmmmmmmmmmmmnbM",
"Mjj7+++++++++++++++O-#oM",
"MMjlmmmmmmmmmmmmmmmmmmzM",
"MMjd$++++++++++++++++OMM",
"MMMjr++++++++++++++++MMM",
"MMMjfe++++++++++++++ MMM",
"MMMMjse++++++++++++.MMMM",
"MMMMMMaq$++++++++OMMMMMM",
"MMMMMMMM0w6$=*&XMMMMMMMM",
"MMMMMMMMMMMMMMMMMMMMMMMM",
"MMMMMMMMMMMMMMMMMMMMMMMM"
};
