/* XPM */
static char *xchat_98[] = {
/* columns rows colors chars-per-pixel */
"24 24 78 1 ",
"  c #4C4C4C",
". c #5B5C5C",
"X c #4D646F",
"o c #4F6873",
"O c #516A77",
"+ c #526B76",
"@ c #546D77",
"# c #546D7A",
"$ c #556F7C",
"% c #57717D",
"& c #58707D",
"* c #696A6A",
"= c gray43",
"- c #6E6F6F",
"; c #60747D",
": c #727374",
"> c #797A7B",
", c #7C7C7C",
"< c #5B7785",
"1 c #5C7886",
"2 c #5E7B89",
"3 c #5F7C89",
"4 c #5E7C8A",
"5 c #5F7C8A",
"6 c #687C85",
"7 c #687C87",
"8 c #607D89",
"9 c #637F8D",
"0 c #6E848D",
"q c #708894",
"w c #778F9B",
"e c #78909B",
"r c #868C8E",
"t c #8F999E",
"y c #8F9A9F",
"u c #AE8A87",
"i c #BD9E9A",
"p c #96A3A8",
"a c #99A6AB",
"s c #A5ABAE",
"d c #AEAEAE",
"f c #A7B2B7",
"g c #A9B3B7",
"h c #AFB3B5",
"j c #AEBABF",
"k c #B1B1B1",
"l c #B4B4B4",
"z c #B1B6B8",
"x c gray73",
"c c #BDBFBF",
"v c #CCA19D",
"b c #D0A4A0",
"n c #E8BDB9",
"m c #EDC1BD",
"M c #AEBAC1",
"N c #AEBBC1",
"B c #B0BDC2",
"V c #BEBFC0",
"C c #C3C3C3",
"Z c gray77",
"A c #C5C5C5",
"S c #C3C9CC",
"D c gray79",
"F c #CECECE",
"G c #C7CED1",
"H c gray82",
"J c #D1D4D6",
"K c gray83",
"L c #D2D6D8",
"P c #D3D8DA",
"I c gray85",
"U c gainsboro",
"Y c #DDDDDD",
"T c #E4E5E5",
"R c #E5E6E7",
"E c #E9E9E9",
"W c gray92",
"Q c None",
/* pixels */
"QQQQQQQQQQQQQQQQQQQQQQQQ",
"QQQQQQQQQQQQQQQQQQQQQQQQ",
"QQQQQQQQQ555555QQQQQQQQQ",
"QQQQQQQ5555555555QQQQQQQ",
"QQQQQ555wMLRRPMe555QQQQQ",
"QQQQ559BWWWWWWWWM055QQQQ",
"QQQQ59GWWWWWWWWWUr95QQQQ",
"QQQ25BWWRWWWWWWU>xa52QQQ",
"QQQ8wEWR,IWWWWI:lACq4QQQ",
"QQ11jWWWU=HWWH-lACAp4<QQ",
"QQ55JWWWWK.AF*kACAZz42QQ",
"QQ51RWWWWWD .dAAACAc92QQ",
"QQ55RWWWWWWiuAAZZZZc81QQ",
"QQ15KWWWWWWmvAZZZZZh81QQ",
"QQ<2fWWWWWWmbZZZZZZy0#QQ",
"QQQ20WWWWWWmbZZZZCC75QQQ",
"QQQ11gWWWWWmvZACACt11QQQ",
"QQQQ5&SWWWWmbZCAAs%8QQQQ",
"QQQQO5@gWWWmbACCt@5OQQQQ",
"QQQQQO8#6fJnvht;#8OQQQQQ",
"QQQQQQQ11#OXXo#11QQQQQQQ",
"QQQQQQQQQ$1151%QQQQQQQQQ",
"QQQQQQQQQQQQQQQQQQQQQQQQ",
"QQQQQQQQQQQQQQQQQQQQQQQQ"
};
