/* XPM */
static char *xchat_2[] = {
/* columns rows colors chars-per-pixel */
"24 24 23 1 ",
"  c gray54",
". c gray57",
"X c #989898",
"o c gray62",
"O c gray64",
"+ c gray65",
"@ c #AAAAAA",
"# c gray68",
"$ c gray72",
"% c gray74",
"& c #C0C0C0",
"* c #C5C5C5",
"= c #C8C8C8",
"- c #CDCDCD",
"; c #D0D0D0",
": c #D7D7D7",
"> c gray86",
", c gainsboro",
"< c #E4E4E4",
"1 c gray90",
"2 c gray92",
"3 c #ECECEC",
"4 c None",
/* pixels */
"444444444444444444444444",
"444444444444444444444444",
"44444444>>>>,>,,>>>>>>44",
"44444444>:>:>::>:>:>>:44",
"44444444:::::>::::>:::44",
"44444444>:>:::>::>:::>44",
"44444444:::>:::$:$::>:44",
"44444444>:::>:>$:$:>::44",
"443333332333333,%=>>::44",
"4432333222223333*#%:>:44",
"4422322222222232::O>:>44",
"4422222222222222###:::44",
"442222222;+22222>>::::44",
"4422222222*-2222&&$::>44",
"442222222*@#>222%&-:>:44",
"442222222=>: 122::>::@44",
"442222222>$#.;2244444444",
"442222221 ->O-2244444444",
"44222222:o21 -3244444444",
"442222221OXO+;3244444444",
"442222222222222244444444",
"44$222222222222$44444444",
"444444444444444444444444",
"444444444444444444444444"
};
