/* XPM */
static char *xchat_56[] = {
/* columns rows colors chars-per-pixel */
"24 24 31 1 ",
"  c #38833C",
". c #3C8A3D",
"X c #3E8F41",
"o c #3E8F42",
"O c #47A44A",
"+ c #47A44B",
"@ c #48A64B",
"# c #4AAD4E",
"$ c #4BAE4F",
"% c #4CAF50",
"& c #4EAF52",
"* c #53B157",
"= c #53B257",
"- c #59B15D",
"; c #5FB763",
": c #62B865",
"> c #68BB6C",
", c #6ABD6E",
"< c #6CBE6F",
"1 c #72AD75",
"2 c #6EBD70",
"3 c #6DBD72",
"4 c #6FBE72",
"5 c #7EC481",
"6 c #E4EDE4",
"7 c #E5EEE5",
"8 c #E5F0E5",
"9 c #E6F0E6",
"0 c #E7F1E7",
"q c #F9F9F9",
"w c None",
/* pixels */
"wwwwwwwwwwwwwwwwwwwwwwww",
"wwwwwwwwwwwwwwwwwwwwwwww",
"wwwwwwwwwwwwwwwwwwwwwwww",
"wwwwwwwwwwwwwwwwwwwwwwww",
"wwwwwwwwwwwwwwwwwwwwwwww",
"wwwwwwwwwwwwwwwwwwwwwwww",
"wwwwww2222wwwwwwwwwwwwww",
"wwww<;*%%=:2wwwwwwwwwwww",
"www>=#%#%%#=,wwwwwwwwwww",
"www=#%#%%%%#=wwwwwwwwwww",
"ww-##%5095%%%:2224424222",
"ww=#%#7qq7%##%%%%#%#%%%%",
"ww#%%#7qq7#%%#%##%#%#%#%",
"ww@##%1771%##%#%%#%#%#%#",
"wwX%%#OXXO#%% wwww#%#%ww",
"www+#%##%#%#+wwwww%#%#ww",
"wwww@%%%##%@wwwwww#%#%ww",
"wwwww.+##+wwwwwwwwwwwwww",
"wwwwwwwwwwwwwwwwwwwwwwww",
"wwwwwwwwwwwwwwwwwwwwwwww",
"wwwwwwwwwwwwwwwwwwwwwwww",
"wwwwwwwwwwwwwwwwwwwwwwww",
"wwwwwwwwwwwwwwwwwwwwwwww",
"wwwwwwwwwwwwwwwwwwwwwwww"
};
