/* XPM */
static char *xchat_21[] = {
/* columns rows colors chars-per-pixel */
"24 24 53 1 ",
"  c #3848A2",
". c #3949A5",
"X c #3A4BA9",
"o c #394DA9",
"O c #3B4CAC",
"+ c #3656AB",
"@ c #3657AB",
"# c #3D4FB1",
"$ c #3D4FB2",
"% c #3E50B4",
"& c #027DB6",
"* c #3365B0",
"= c #3066B2",
"- c #2F78B7",
"; c #4051B5",
": c #4355B6",
"> c #495AB8",
", c #5060BB",
"< c #5766BD",
"1 c #5D6DB8",
"2 c #5E6CC1",
"3 c #626FC1",
"4 c #6271C2",
"5 c #6472C1",
"6 c #6573C3",
"7 c #018ECC",
"8 c #0294D6",
"9 c #0298DB",
"0 c #0598DB",
"q c #0299DD",
"w c #2F84C6",
"e c #2E9AD7",
"r c #3098D4",
"t c #24A2DB",
"y c #029BE0",
"u c #029DE3",
"i c #02A2EA",
"p c #02A3EC",
"a c #02A7F1",
"s c #02A7F2",
"d c #02A8F3",
"f c #06A9F3",
"g c #0CABF3",
"h c #15AEF4",
"j c #1DB1F4",
"k c #2EAAE5",
"l c #2FAAE5",
"z c #2EB3EE",
"x c #27B4F4",
"c c #2DB7F5",
"v c #35B9F5",
"b c #42AAE2",
"n c None",
/* pixels */
"nnnnnnnnnnnnnnnnnnnnnnnn",
"nnnnnnnnnnnnnnnnnnnnnnnn",
"nnnnnnnnnnnnnnnnnnnnnnnn",
"nnnnnnnnnnnnnnnnnnnnnnnn",
"nnb155666666666666665nnn",
"nnhl@#%#%%%%%%%%%%%%;<nn",
"nndgc*X#%%%%%#%%$%%%%:nn",
"nnddfxwX%%%%%#.. .%%%%nn",
"nnddddjeo#$;$#nnnn%%%%nn",
"nndddddhl@##$:2nnn%%%%nn",
"nnddddsdgc=O%$;23n%%%%nn",
"nnddddpsdfxwO$$$,4%%%%nn",
"nndddd7idddjrX$$%>%%%%nn",
"nnddddn&usdshl@#%%%%%%nn",
"nnddddnnnqsssgc=O%%%%%nn",
"nnddddnnnnidddfxwX%%%%nn",
"nnddddvvvcgdddddjeo#$%nn",
"nnsddddddddddddddhl@##nn",
"nnysdsddddddddddddgz*Onn",
"nnn8999q999999999990t-nn",
"nnnnnnnnnnnnnnnnnnnnnnnn",
"nnnnnnnnnnnnnnnnnnnnnnnn",
"nnnnnnnnnnnnnnnnnnnnnnnn",
"nnnnnnnnnnnnnnnnnnnnnnnn"
};
