/* XPM */
static char *xchat_113[] = {
/* columns rows colors chars-per-pixel */
"24 24 53 1 ",
"  c #4F585C",
". c #4F5B5F",
"X c #525A5E",
"o c #525C5F",
"O c #535B60",
"+ c #525C60",
"@ c #51646D",
"# c #5B6468",
"$ c #5C6569",
"% c #636C71",
"& c #666F73",
"* c #677074",
"= c #687175",
"- c #6A7378",
"; c #6D7478",
": c #727B7F",
"> c #737C7F",
", c #697A82",
"< c #3C93BB",
"1 c #4F8198",
"2 c #758084",
"3 c #7B8488",
"4 c #7C8488",
"5 c #7E878B",
"6 c #4A86A1",
"7 c #5B8CA3",
"8 c #6A9DB3",
"9 c #4AA2CB",
"0 c #4FA2CA",
"q c #51A4CB",
"w c #50A6CE",
"e c #46AAD8",
"r c #56AAD2",
"t c #4CB0DE",
"y c #4CB1DF",
"u c #4AB2E2",
"i c #4DB1E0",
"p c #4AB3E4",
"a c #57B8E6",
"s c #6BC1E9",
"d c #6DC2E9",
"f c #828B8F",
"g c #838C90",
"h c #858D91",
"j c #889094",
"k c #8C9599",
"l c #8E969A",
"z c #90D0EE",
"x c #E6F5FB",
"c c #E9F6FC",
"v c #F8FCFE",
"b c white",
"n c None",
/* pixels */
"nnnnnnnnnnnnnnnnnnnnnnnn",
"nnnkkkkkllkkllllkkkklnnn",
"nnnjffffhfffffhhffffjnnn",
"nnnfffffhfffffffffffhnnn",
"nnnffffffffffffffffffnnn",
"nnnffffff:#XX$:ffffffnnn",
"nnnfffff& XX  X&fffffnnn",
"nnnffff:  +=&X  >ffffnnn",
"nnnfffg# XhjjhO $gfffnnn",
"nnnfffgX *gfgh* offffnnn",
"nnnffff  *gfgg* Xgfffnnn",
"nnnffff  X3f53+10iir8nnn",
"nnnffff   X%%@9pppppppnn",
"nnnffff     .9pppbbpppun",
"nnnfffgX  XX1ppppbbppppn",
"nnnfggglkkkkrppppbbpppuu",
"nnnfffffffffyppaxbbcappu",
"nnnfffffffffypppsvvdppuu",
"nnnfffffffffwppppzzppppe",
"nnnfffffffff7pppbbbbppp<",
"nnnfffffffff2wppppppppen",
"nnnffffffffff,wppppupenn",
"nnn;ffffffggf4-7qyiw6nnn",
"nnnnnnnnnnnnnnnnnnnnnnnn"
};
