/* XPM */
static char *xchat_114[] = {
/* columns rows colors chars-per-pixel */
"24 24 35 1 ",
"  c #3F97C2",
". c #3E98C2",
"X c #43A1CE",
"o c #44A1CE",
"O c #45A6D6",
"+ c #45A9D6",
"@ c #47ACDC",
"# c #49ADDD",
"$ c #49B2E2",
"% c #4CB2E3",
"& c #4AB3E4",
"* c #4BB4E4",
"= c #4EB5E5",
"- c #50B5E5",
"; c #57B8E6",
": c #5ABAE6",
"> c #5CBAE7",
", c #5DBBE7",
"< c #61BCE7",
"1 c #62BDE8",
"2 c #63BDE8",
"3 c #6AC2E9",
"4 c #6DC1E8",
"5 c #75C5EA",
"6 c #7BC8EB",
"7 c #8BCEEE",
"8 c #92D1EF",
"9 c #ABDCF3",
"0 c #B7E1F4",
"q c #D7EEF9",
"w c #EEF8FC",
"e c #F5FBFE",
"r c #FBFEFE",
"t c white",
"y c None",
/* pixels */
"yyyyyyyyyyyyyyyyyyyyyyyy",
"yyyyyyyyyyyyyyyyyyyyyyyy",
"yyyyyyyyy344444yyyyyyyyy",
"yyyyyyy3<:=*==;15yyyyyyy",
"yyyyy31=&&&&&&&&=13yyyyy",
"yyyy3:&&&&&&&&&&&&:1yyyy",
"yyyy:&&&&&&&&&&&&&$:yyyy",
"yyy<&&&&&&tttt&&&&*=<yyy",
"yyy=&&&&&&tttt&&&&&&=yyy",
"yy,&&&&&&&tttt&&&&&&&,yy",
"yy-=&&&&&&tttt&&&&&&&-yy",
"yy-&&&&&6ttttte0&&&&&=yy",
"yy%&&&&&&9ttttq=&&&&*$yy",
"yy#&&&&&&*qttw,&&&&&*#yy",
"yy+&&&&&&&1er5&&&&&&&Oyy",
"yyy&&&&&&&&78&&&&&&&&yyy",
"yyy#&&&&tttttttt&&&&@yyy",
"yyyy&&&&tttttttt&&*$yyyy",
"yyyy.&&&&&&&&&&&&&& yyyy",
"yyyyy &&&&&&&&&&&&.yyyyy",
"yyyyyyy#&&&&&&&&#yyyyyyy",
"yyyyyyyyyX@$$@oyyyyyyyyy",
"yyyyyyyyyyyyyyyyyyyyyyyy",
"yyyyyyyyyyyyyyyyyyyyyyyy"
};
