/* XPM */
static char *xchat_69[] = {
/* columns rows colors chars-per-pixel */
"24 24 81 1 ",
"  c #3F3F3F",
". c #420043",
"X c #450046",
"o c #480549",
"O c #480649",
"+ c #4B004C",
"@ c #4E054F",
"# c #4F0650",
"$ c #520053",
"% c #560757",
"& c #560857",
"* c #570958",
"= c #580B59",
"- c #5A0D5B",
"; c #551756",
": c #551855",
"> c #621963",
", c #621D63",
"< c #631E64",
"1 c #662167",
"2 c #672268",
"3 c #682A69",
"4 c #692B69",
"5 c #692C6A",
"6 c #6F3070",
"7 c #723372",
"8 c gray27",
"9 c gray33",
"0 c #764577",
"q c #7A497A",
"w c #6C6C6C",
"e c #804E81",
"r c #835183",
"t c #875587",
"y c #815B81",
"u c #825C82",
"i c #845D85",
"p c #8B5C8C",
"a c #8C5D8C",
"s c #8C5F8D",
"d c #957F95",
"f c gray55",
"g c #968096",
"h c #988499",
"j c #A18BA1",
"k c #A195A1",
"l c #A296A2",
"z c #A89CA8",
"x c #B49DB4",
"c c #B49EB4",
"v c #A2A2A2",
"b c #AAAAAA",
"n c #AEAEAE",
"m c #B7A2B7",
"M c #B7A9B7",
"N c #B7A3B8",
"B c #BBA9BB",
"V c #BBABBB",
"C c #BBAABC",
"Z c #B2B2B2",
"A c gray70",
"S c #BCB0BC",
"D c #BFB0BF",
"F c gray72",
"G c gray",
"H c #C0B2C0",
"J c #C3B6C3",
"K c #C4B7C4",
"L c #C4B8C4",
"P c #C3C3C3",
"I c #C6C6C6",
"U c #C8C8C8",
"Y c gray80",
"T c #CECECE",
"R c #D3CFD3",
"E c #D0D0D0",
"W c gray82",
"Q c LightGray",
"! c #D7D7D7",
"~ c #D8D8D8",
"^ c None",
/* pixels */
"^^^^^^^^^^^^^^^^^^^^^^^^",
"^^^^^^^^^~~~~~~^^^^^^^^^",
"^^^^^^^~~~~~~~~~~^^^^^^^",
"^^^^^~~~xt1**2tx~~~^^^^^",
"^^^^!~K7$$$$$$$$7L!!^^^^",
"^^^!~m-$$$$$$$$$$-N~!^^^",
"^^^~J-$$%aCRRBa%$$-L!^^^",
"^^!~6$$>H~~~~~~D>$$7~!^^",
"^^~x$$*H~~~~~~~~D%$$x!^^",
"^Q~e$$s~~~wP~~~~!p$$r~Q^",
"^!~,$$B~~~ 8fQ~~~B$$<~Q^",
"^!~&$$T!~~   9b~~T$$&~!^",
"^!!%$$Q!~~   9b~~R$$=~!^",
"^Q!>$$B!~~ 8fQ~~~M$$>~T^",
"^U!q$$i!~~wP~~~~!u$$q!I^",
"^^!j$$@D~~~~~~~~D#$$j!^^",
"^^!T3$$:D!!!!~!V:$$3T!^^",
"^^A~z&$$OuMEQMyO#$-z~A^^",
"^^^TQh-$$+X..X+$$-hQT^^^",
"^^^^QTk4$$$$$$$$4kTE^^^^",
"^^^^^TQFd0>&&,0gFTT^^^^^",
"^^^^^^A!TGAnnAGT~A^^^^^^",
"^^^^^^^^vIT!!QIv^^^^^^^^",
"^^^^^^^^^^^^^^^^^^^^^^^^"
};
