/* XPM */
static char *xchat_68[] = {
/* columns rows colors chars-per-pixel */
"24 24 17 1 ",
"  c #583C28",
". c #785439",
"X c gray42",
"o c #8C6545",
"O c #956B49",
"+ c #AE7C56",
"@ c #56962C",
"# c #60A036",
"$ c #72B248",
"% c #77AA55",
"& c #78AB56",
"* c #79B651",
"= c #B8845B",
"- c #80B35E",
"; c #8EC16D",
": c #9BCA6B",
"> c None",
/* pixels */
">>>>>>>>>>>>>>>>>>>>>>>>",
">>>>>>>>>>>>>>>>>>>>>>>>",
">>%;&-&;;&;&;;;-;;--;%>>",
">>*@#$#@@$@#@@@$$$$#@*>>",
">>@@#@$@@$@#$$$$@$@#$#>>",
">>$@#$$$$@@@#@$@@#$#@$>>",
">>O#$##@ :O$#OO:$$@$ $>>",
">>X @  =.OX: XXO:@=@.@>>",
">> .  ...==O  ....O= =>>",
">>O.O.. =.= OO =.. =..>>",
">> .= X. =O = . .XO  =>>",
">>..= ..= OO =.= ..O.O>>",
">>=  OX. . = O= .X =. >>",
">>O.O.. =.= OO =.. =..>>",
">> .= X. =O = . .XO  =>>",
">>. .XO  =O.O.. =.= OO>>",
">> X .  .  .= X. =O = >>",
">>O.O.. =.= OO.. =.= O>>",
">> .= X. =O =  X. =O =>>",
">>O.O.. =O =XO =.. =.X>>",
">>O O.= =O ..O = = ...>>",
">>o. .= X .  . X.=. .+>>",
">>>>>>>>>>>>>>>>>>>>>>>>",
">>>>>>>>>>>>>>>>>>>>>>>>"
};
