/* XPM */
static char *xchat_61[] = {
/* columns rows colors chars-per-pixel */
"24 24 20 1 ",
"  c #E64E1F",
". c #EF521F",
"X c #F35320",
"o c #FF5722",
"O c #F65826",
"+ c #DF643D",
"@ c #FF6737",
"# c #FF6738",
"$ c #DF6641",
"% c #F16A40",
"& c #F16D43",
"* c #F16E44",
"= c gray77",
"- c #CACACA",
"; c #E9DAD5",
": c #EADDD9",
"> c #E7E7E7",
", c #E9E9E9",
"< c gray96",
"1 c None",
/* pixels */
"111111111111111111111111",
"111@################@111",
"111OXXXXXXXXXXXXXXXXO111",
"111XX,,,,,,,:*X%;,,XX111",
"111XX,,,,,,,,:*.+;,XX111",
"111XX,,,,,,,,,:*.+;XX111",
"111XX,,,,,,,,,,:&.$XX111",
"111XX,,,,,,,,,,,:*.XX111",
"111XX,,,,,,,,,,,,:*XX111",
"111XX,,,,,,,,,,,,,:XX111",
"111XX,,,,,,,,,,,,,,XX111",
"111XX,,,,,,,,,,,,,,XX111",
"111oo<<<<<<<<<<<<<<oo111",
"111oo<<>-<<<=====<<oo111",
"111oo<<-=<<<<<<<<<<oo111",
"111oo<<-==-<====<<<oo111",
"111oo<<>--,<<<<<<<<oo111",
"111oo<<<<<<<<<<<<<<oo111",
"111oo<<<<<<<<<<<<<<oo111",
"111oo<<<<<<<<<<<<<<oo111",
"111oo<<<<<<<<<<<<<<oo111",
"111oo              oo111",
"111XooooooooooooooooX111",
"111111111111111111111111"
};
