/* XPM */
static char *xchat_65[] = {
/* columns rows colors chars-per-pixel */
"24 24 89 1 ",
"  c #B33561",
". c #B73664",
"X c #B83564",
"o c #BA3765",
"O c #CA3B6E",
"+ c #D33E72",
"@ c #D83F75",
"# c #BC446E",
"$ c #C14C75",
"% c #CD4A78",
"& c #DA4076",
"* c #DC4077",
"= c #DC4178",
"- c #DD4178",
"; c #DE447A",
": c #DE467C",
"> c #E05283",
", c #E15586",
"< c #E25E8D",
"1 c #CA6F90",
"2 c #DB7C9D",
"3 c #E3608E",
"4 c #E36390",
"5 c #E36491",
"6 c #E46793",
"7 c #E46B96",
"8 c #E56E98",
"9 c #E56F99",
"0 c #E57099",
"q c #E77AA0",
"w c #E87DA3",
"e c #CA8DA2",
"r c #D38DA6",
"t c #D892AB",
"y c #EA84A8",
"u c #EA89AB",
"i c #EA8AAC",
"p c #EC98B6",
"a c #EC9BB8",
"s c #DEA6BB",
"d c #D9A9BA",
"f c #C9B2BA",
"g c #E7A3BB",
"h c #EEA0BC",
"j c #EFA4BE",
"k c #EFA6C0",
"l c #EFAAC2",
"z c #F0AAC3",
"x c #E5B6C6",
"c c #F2B6CC",
"v c #F4BCD0",
"b c #F4BDD0",
"n c #D7D7D7",
"m c #DADADA",
"M c #F2C0D2",
"N c #F3C3D3",
"B c #F4C1D3",
"V c #F4C3D4",
"C c #F5C3D5",
"Z c #F1C7D5",
"A c #F3CAD8",
"S c #F5CCDA",
"D c #F3CFDC",
"F c #F6CDDC",
"G c #F5D2DE",
"H c #F7D3E0",
"J c #F8D6E2",
"K c #F0DDE3",
"L c #F1DEE5",
"P c #F9DDE7",
"I c #F9DEE8",
"U c gray91",
"Y c #F2E2E7",
"T c #F6E3EA",
"R c #FAE3EB",
"E c #FAE4EC",
"W c #FAE5EC",
"Q c #F4EFF1",
"! c #FBEAF0",
"~ c #FBECF1",
"^ c #FCEDF2",
"/ c gray96",
"( c #FCF0F4",
") c #FDF7F9",
"_ c gray98",
"` c #FEF8FA",
"' c #FEFAFC",
"] c white",
"[ c None",
/* pixels */
"[[[[[[[[[[[[[[[[[[[[[[[[",
"[[[[[[[[vl----yv[[[[[[[[",
"[[[[[[N`]9---6`])C[[[[[[",
"[[[[[R]]^---;I]]]]W[[[[[",
"[[[[C]]]B---u]]]]]~S[[[[",
"[[[*i]]]z---P]]^h<---[[[",
"[[[-:!]]kpW']]H>-----[[[",
"[[*--w]])]]]]]]W,-----[[",
"[[---=c]]]]]]]]]W>509,[[",
"[Gq&--a]]]94J]]]]]]]]]A[",
"[^)7--T]]]---p)]]_]]]]![",
"[`])i-`]]]----7]]'S]]]`[",
"[']]]F`]]]----7]])-u)]'[",
"[^]]]]/]]]--:p`]]L--7)![",
"[Z]]]]U]]]93J]]]]t---qD[",
"[[,795%Y]]]]]]]]/s----1[",
"[[&----$U__]]]]Qm]w--&[[",
"[[X----@#N/_)Kre_]!;-.[[",
"[[[+--3j~Unf XOz]]]u+[[[",
"[[[[S(]]]]]u---Z]]]v[[[[",
"[[[[[R]]]]P----^]]R[[[[[",
"[[[[[[x)]`6---0]`x[[[[[[",
"[[[[[[[[d2&*-&gd[[[[[[[[",
"[[[[[[[[[[[[[[[[[[[[[[[["
};
