/* XPM */
static char *xchat_40[] = {
/* columns rows colors chars-per-pixel */
"24 24 40 1 ",
"  c #3F3F3F",
". c #44433E",
"X c #46443F",
"o c #514B3A",
"O c #534D3A",
"+ c gray25",
"@ c #414141",
"# c #434343",
"$ c #464646",
"% c #484848",
"& c gray29",
"* c #4B4B4B",
"= c #4E4E4E",
"- c gray31",
"; c gray32",
": c gray33",
"> c #555555",
", c #585858",
"< c #5B5B5B",
"1 c gray36",
"2 c #5D5D5D",
"3 c gray37",
"4 c #716C5E",
"5 c gray38",
"6 c #656565",
"7 c #907527",
"8 c #917627",
"9 c #997B24",
"0 c #997C25",
"q c #9E8332",
"w c #9F8432",
"e c #D3A313",
"r c #D5A513",
"t c #DAA811",
"y c #DBA911",
"u c #F9BC07",
"i c #F6BB09",
"p c #FEC006",
"a c #D0D0D0",
"s c None",
/* pixels */
"ssssssssssssssssssssssss",
"ssssssssssssssssssssssss",
"sssssssss225222sssssssss",
"sssssss2252225225sssssss",
"ssss2222212122222522ssss",
"ssss2a222-$##$-222a2ssss",
"ssss5;2>.8riur8#>2:2ssss",
"sss222>OyppppppyO>222sss",
"sss31<XtppppppppyX<22sss",
"ss221-8ppuq44wupp8-22<ss",
"ss122#epp056650ppr$222ss",
"ss221XippO5665opui 222ss",
"ss222#ippO&55&Oupi 251ss",
"ss221#rpp0 .  9ppr#12<ss",
"ss>22$8upu0OO9upu8&22,ss",
"sss32;XyppppppppyX;22sss",
"sss222*OtuupppuyO%232sss",
"ssss33<$.8ruir8#$,33ssss",
"ssss2a1,&$##.#$&,2a3ssss",
"ssss,;222;--&-;222;,ssss",
"sssssss2223222222sssssss",
"sssssssss>2222>sssssssss",
"ssssssssssssssssssssssss",
"ssssssssssssssssssssssss"
};
