/* XPM */
static char *xchat_19[] = {
/* columns rows colors chars-per-pixel */
"24 24 80 1 ",
"  c #2A2A2A",
". c #2C2C2C",
"X c gray20",
"o c #343434",
"O c #3A3A3A",
"+ c gray26",
"@ c #494949",
"# c #FF701B",
"$ c #FF5722",
"% c #FC5127",
"& c #FF5822",
"* c #F34235",
"= c #F74D35",
"- c #F54E3B",
"; c #F44A3E",
": c #D7395C",
"> c #D63F65",
", c #F67167",
"< c #F77C73",
"1 c #4BAE4F",
"2 c #53B257",
"3 c #4C986F",
"4 c #52A467",
"5 c #7AC37D",
"6 c #81B339",
"7 c #8DB73D",
"8 c #FE9312",
"9 c #FBC007",
"0 c #FEC006",
"q c #FEC313",
"w c #FEC314",
"e c #FF8059",
"r c #FED045",
"t c #FAD049",
"y c #FED153",
"u c #7537B1",
"i c #3E50B4",
"p c #416B97",
"a c #414FB4",
"s c #5844B3",
"d c #6F7DC6",
"f c #9B26AF",
"g c #9D26AD",
"h c #A030B3",
"j c #B65CC0",
"k c #B45CC3",
"l c #B86AC8",
"z c #848484",
"x c #868686",
"c c #8B8B8B",
"v c gray55",
"b c #F99A93",
"n c #FFA78C",
"m c #80C684",
"M c #A3D5A5",
"N c #FFCCBC",
"B c #FFE9B6",
"V c #9AA4D8",
"C c #DEBFE7",
"Z c #CECECE",
"A c LightGray",
"S c #D7D7D7",
"D c gray85",
"F c #FBC4C0",
"G c #F4C2CB",
"H c #CAE7CB",
"J c #D7E9C6",
"K c #C5CBE9",
"L c #FFF0EC",
"P c #FEF0EF",
"I c #FFF6EC",
"U c #F9F9ED",
"Y c #FAEFF5",
"T c #EDF0F6",
"R c #F3F3F3",
"E c #F6F6F6",
"W c #F0F8F0",
"Q c #F5F0F9",
"! c white",
"~ c None",
/* pixels */
"~~~~~~~~~~~~~~~~~~~~~~~~",
"~~~~~~~~~~~~~~~~~~~~~~~~",
"~~~!!!!!~~~~~~~~~~~~~~~~",
"~ooooooooooooooooooXooo~",
"~ooooooooooooooooooXooo~",
"~ooooooooooooooooooAZoo~",
"~oooooooOvAEEAcOooXAZoo~",
"~oooooo@DF,;-eND@XXoooo~",
"~oooooODb***%$$nSOXoooo~",
"~ooooXvG***=$&#8BvXoooo~",
"~oooooAj:*<PIy00rAooooo~",
"~oooooEhg>P!!U00qEooooo~",
"~oooooEhffY!!W79wRooooo~",
"~oooooAkfflQTm16tZooooo~",
"~oooooxCusai3111Jxooooo~",
"~oooXXXSViip111MDoooooo~",
"~oooooo+DKd425HS+Xooooo~",
"~ooooooX.xAREZzXXXooooo~",
"~ooooooooX.. .XXXoooooo~",
"~ooooooooXXoXXXXooooooo~",
"~XooooooooooooooooooooX~",
"~~~~~~~~~~~~~~~~~~~~~~~~",
"~~~~~~~~~~~~~~~~~~~~~~~~",
"~~~~~~~~~~~~~~~~~~~~~~~~"
};
