/* XPM */
static char *xchat_5[] = {
/* columns rows colors chars-per-pixel */
"24 24 13 1 ",
"  c #00776C",
". c #007C70",
"X c #0A7B71",
"o c #29887F",
"O c #009385",
"+ c #009587",
"@ c #0C9A8D",
"# c #228B82",
"$ c #29A79A",
"% c #33AA9F",
"& c #6CB6AF",
"* c #D8D8D8",
"= c None",
/* pixels */
"========================",
"===#oo%%%%%%%%%***%%$===",
"===X  +++++++++***++@===",
"===   +++++++++***+++===",
"===   +++++++++***+++===",
"===   +++++++++***+++===",
"===   +++++++++***+++===",
"===   +++++++++***+++===",
"===   +++++++++***+++===",
"===   +++++++++***+++===",
"===   +++++++++***+++===",
"===   +++++++++&+&+++===",
"===   +++++++++++++++===",
"===   +++++++++++++++===",
"===   +++++++++++++++===",
"===   +++++++++++++++===",
"===   +++++++++++++++===",
"===   +++++++++++++++===",
"===   +++++++++++++++===",
"===   +++++++++++++++===",
"===   +++++++++++++++===",
"===   +++++++++++++++===",
"===.  ++++++++++++++O===",
"========================"
};
