/* XPM */
static char *xchat_84[] = {
/* columns rows colors chars-per-pixel */
"24 24 23 1 ",
"  c #4AB3E4",
". c #56B8E6",
"X c #5ABAE6",
"o c #5EBBE7",
"O c #64BEE8",
"+ c #6EC2E9",
"@ c #9ACFE7",
"# c #93D2EF",
"$ c #94D2EF",
"% c #95D2EF",
"& c #AFDDF2",
"* c #B1DEF3",
"= c #B7E0F4",
"- c #B6E1F4",
"; c #BCE3F5",
": c #C0E5F6",
"> c #C5E7F6",
", c #D0EBF8",
"< c #F2FAFD",
"1 c #F5FBFD",
"2 c #FCFEFE",
"3 c white",
"4 c None",
/* pixels */
"444444444444444444444444",
"444444444444444444444444",
"444444444444444444444444",
"444444444444444444444444",
"44,33<++++++++++++:>>&44",
"44333:            $--;44",
"4433<o            X&--44",
"441>O              .$*44",
"44                    44",
"44                    44",
"44                    44",
"44                    44",
"44                    44",
"44                    44",
"44                    44",
"44                    44",
"44*%o              .$*44",
"44*-*.            X*--44",
"44---#            %=--44",
"44@-**            *=-@44",
"444444444444444444444444",
"444444444444444444444444",
"444444444444444444444444",
"444444444444444444444444"
};
