/* XPM */
static char *xchat_73[] = {
/* columns rows colors chars-per-pixel */
"24 24 12 1 ",
"  c #3B8FB6",
". c #3C92BA",
"X c #45A5D3",
"o c #44A6D2",
"O c #4AB3E4",
"+ c #6EC2E9",
"@ c #DDE4E7",
"# c #DFE7EA",
"$ c #E4E4E4",
"% c #E7E7E7",
"& c gray92",
"* c None",
/* pixels */
"************************",
"************************",
"************************",
"*&&&&&&&&&&**&&&&&&&&&&*",
"*&&&&&&&&&&++&&&&&&&&&&*",
"*&&&&&&&&&&OO&&&&&&&&&&*",
"*&&&&&&&&&&OO&&&&&&&&&&*",
"*&&&&&&&&&&OO&&&&&&&&&&*",
"*&&&&&&&&&&OO&&&&&&&&&&*",
"*&&&&&&&&&&OO&&&&&&&&&&*",
"*%&&&&&&&&@OO@&&&&&&&&%*",
"**        .OO.        **",
"**OOOOOOOOOOOOOOOOOOOO**",
"**OOOOO#&&&&&&&&#OOOOO**",
"**OOOOO&&&&&&&&&&OOOOO**",
"**OOOOO&&&&&&&&&&OOOOO**",
"**OOOOO&&&&&&&&&&OOOOO**",
"**OOOOO&&&&&&&&&&OOOOO**",
"**OOOOO&&&&&&&&&&OOOOO**",
"**XOOOO&&&&&&&&&&OOOOX**",
"*******%&&&&&&&&%*******",
"************************",
"************************",
"************************"
};
