/* XPM */
static char *xchat_7[] = {
/* columns rows colors chars-per-pixel */
"24 24 34 1 ",
"  c #C2352A",
". c #D83B2F",
"X c #E73F33",
"o c #EC4034",
"O c #EE4134",
"+ c #F34235",
"@ c #F24539",
"# c #F1493C",
"$ c #F2493D",
"% c #F34B3E",
"& c #EC4F44",
"* c #EF5246",
"= c #F45246",
"- c #F25549",
"; c #F45549",
": c #F56359",
"> c #E0766E",
", c #EE847C",
"< c #F0867F",
"1 c #CE9D9A",
"2 c #D2BCBA",
"3 c #EEBCB9",
"4 c gray87",
"5 c #FCCECB",
"6 c #ECD6D4",
"7 c #FDDFDD",
"8 c #FDE1DF",
"9 c gray88",
"0 c gray89",
"q c gray90",
"w c gray92",
"e c gray93",
"r c white",
"t c None",
/* pixels */
"tttttttttttttttttttttttt",
"tttttttttttttttttttttttt",
"tttteeeeeeeeeeeeeeeetttt",
"tttt9999999999999999tttt",
"tttt9999999999999999tttt",
"tttt9999999999999999tttt",
"tttt9999999999999999tttt",
"tttt9999999999999999tttt",
"tttt9999999999999999tttt",
"tttt9999999999999999tttt",
"tttt9999999999999999tttt",
"tttt9994999999999999tttt",
"ttttwwwwwwwwe6<-@-,6tttt",
"ttttwwwwwwww3%+++++%tttt",
"ttttwwwwwww6%++++++++ttt",
"ttttwwwwwww,++++=5:+++tt",
"ttttwwwwwww*+++=7r5++Ott",
"ttttwwwwwww@++=7r8;+++tt",
"ttttwwwwwww&++7r7=+++Ott",
"ttttwwwwwww>++r8;++++.tt",
"ttttwwwwwww2%+++++++Ottt",
"tttt4wwwwwwq1%+++++@tttt",
"tttttttttttttt X+O ttttt",
"tttttttttttttttttttttttt"
};
