/* XPM */
static char *xchat_99[] = {
/* columns rows colors chars-per-pixel */
"24 24 12 1 ",
"  c #5A6367",
". c #5D666A",
"X c #636E73",
"o c #667176",
"O c #6A7276",
"+ c #727C81",
"@ c #848C8F",
"# c #CBCBCB",
"$ c #D8D8D8",
"% c gray88",
"& c gray92",
"* c None",
/* pixels */
"************************",
"************************",
"******OOOOOOOOOOOOOOOO**",
"******.              .**",
"******$$$$$$$$$$$$$$$$**",
"******$$$$$$$$$$$$$$$$**",
"******$$$$$$$$$$$$$$$$**",
"******$$$$$$$$$$$$$$$$**",
"**+++++++++++++++@$$$$**",
"**oXXXXXXXXXXXXXXo$$$$**",
"**&&&&&&&&&&&&&&&&$$$$**",
"**&&&&&&&&&&&&&&&&$$$$**",
"**&&&&&&&&&&&&&&&&$$$$**",
"**&&&&&&&&&&&&&&&&$$$$**",
"**&&&&&&&&&&&&&&&&$$$$**",
"**&&&&&&&&&&&&&&&&$$$#**",
"**&&&&&&&&&&&&&&&&******",
"**&&&&&&&&&&&&&&&&******",
"**&&&&&&&&&&&&&&&&******",
"**&&&&&&&&&&&&&&&&******",
"**&&&&&&&&&&&&&&&&******",
"**%&&&&&&&&&&&&&&%******",
"************************",
"************************"
};
