/* XPM */
static char *xchat_32[] = {
/* columns rows colors chars-per-pixel */
"24 24 50 1 ",
"  c #A52D25",
". c #A72E24",
"X c #AF3026",
"o c #B93328",
"O c #BB3329",
"+ c #C2352A",
"@ c #C2372C",
"# c #C3382D",
"$ c #C53C33",
"% c #C53E33",
"& c #C53F34",
"* c #C7453B",
"= c #C8473E",
"- c #C8493E",
"; c #C84A40",
": c #CB534A",
"> c #CC574E",
", c #CF6057",
"< c #D1685F",
"1 c #D5736B",
"2 c #D6776F",
"3 c #D77B74",
"4 c #D9837C",
"5 c #DB8780",
"6 c #DD8F88",
"7 c #E09792",
"8 c #E3A19C",
"9 c #E4A5A1",
"0 c #E8B3AF",
"q c #E9B8B4",
"w c #EBBDBA",
"e c #EDC3C0",
"r c #EEC5C2",
"t c #EEC8C5",
"y c #F0CECB",
"u c #F1CFCD",
"i c #F2D5D3",
"p c #F3D8D6",
"a c #F4D9D7",
"s c #F4DCDA",
"d c #F7E4E3",
"f c #F7E5E3",
"g c #F8E8E7",
"h c #FAEEED",
"j c #FBF2F1",
"k c #FBF3F2",
"l c #FDF7F7",
"z c #FDF8F7",
"x c white",
"c c None",
/* pixels */
"cccccccccccccccccccccccc",
"cc;;;--;;-;--;;--;;-;=cc",
"c-%@++++++++++++++++@%-c",
"c%++++++++++++++++++++%c",
"c@++++++++++++++++++++#c",
"c++++++++++++++++++++++c",
"c+++++++rxxxxxxh+++++++c",
"c++++++@jxddddd0+++++++c",
"c++++++>xp+++++++++++++c",
"c++++++5x9+++++++++++++c",
"c++++++0xljjjjjjjd@++++c",
"c++++++sxjjjjjlxxe+++++c",
"c+++++*xl#+++>gxa;+++++c",
"c+++++1xt+++<jxw%++++++c",
"c+++++8x7++2zx9#+++++++c",
"c+++++yx<+6xxd5:,4+++++c",
"c++++@ui%1xxxxxxxs+++++c",
"c++++++++@qq36edt2+++++c",
"c++++++++++++++++++++++c",
"c++++++++++++++++++++++c",
"co++++++++++++++++++++oc",
"c o+++++++++++++++++oo.c",
"cc XXXXXXXXXXXXXXXXXX cc",
"cccccccccccccccccccccccc"
};
