/* XPM */
static char *xchat_12[] = {
/* columns rows colors chars-per-pixel */
"24 24 46 1 ",
"  c #303F8C",
". c #3949A4",
"X c #3B4CAB",
"o c #3C4EAF",
"O c #3E4FB4",
"+ c #3E50B3",
"@ c #3E50B4",
"# c #4050AD",
"$ c #4354B6",
"% c #4455B5",
"& c #4557B6",
"* c #4B5CB8",
"= c #5E6CB6",
"- c #5F6CB6",
"; c #5E6CB7",
": c #6674BE",
"> c #6977C2",
", c #7B84B7",
"< c #969CBA",
"1 c #979DBA",
"2 c gray",
"3 c #909ACE",
"4 c #9FA4C2",
"5 c #9FA5C2",
"6 c #A2AAD4",
"7 c #A3AAD5",
"8 c #A5ADDC",
"9 c #A6AEDC",
"0 c #B7BCDA",
"q c #BEC3DD",
"w c #C5C5C5",
"e c #C8C8C8",
"r c gray80",
"t c #D2D2D2",
"y c LightGray",
"u c #DDDDDD",
"i c #E1E1E1",
"p c #E7E7E7",
"a c gray92",
"s c #ECECEC",
"d c #EEEEEE",
"f c #EFEFEF",
"g c #EBEDF7",
"h c #EDEEF7",
"j c white",
"k c None",
/* pixels */
"kkkkkkkkkkkkkkkkkkkkkkkk",
"kkkkkkkkkkkkkkkkkkkkkkkk",
"kkkkk@@@@kkkkkkkkkkkkkkk",
"kkkkO@@@@kkkkkkkkkkkkkkk",
"kkko kk@@kkkkkkkkkkkkkkk",
"kkkkkkk@@kkkkkkkkkkkkkkk",
"kkkkkkk@@kkkkkkkkkkkkkkk",
"kkkkkkk@@kkkkkkkkkkkkkkk",
"kkkkkkk@@hsffsfkkkkkkkkk",
"kkkkkkk@$sssssffkkkkkkkk",
"kkkkkkk@Oq:*&>0sskkkkkkk",
"kkkkkks+O+$+@+@3sskkkkkk",
"kkkkkssO+$8gh8$@0sskkkkk",
"kkkkkpsO@8jjjj8@:spkkkkk",
"kkkkkaa+@hjjjjh@$sakkkkk",
"kkkkkaa$Ogjjjjg@$apkkkkk",
"kkkkkis;+7jjjj6+-aikkkkk",
"kkkkkra5+X6gg6#+5arkkkkk",
"kkkkkkau,OX..X+,uakkkkkk",
"kkkkkkkat<;$$;1yakkkkkkk",
"kkkkkkkkauw22euakkkkkkkk",
"kkkkkkkkkwiaauwkkkkkkkkk",
"kkkkkkkkkkkkkkkkkkkkkkkk",
"kkkkkkkkkkkkkkkkkkkkkkkk"
};
