/* XPM */
static char *xchat_9[] = {
/* columns rows colors chars-per-pixel */
"24 24 60 1 ",
"  c #8F7E69",
". c #998670",
"X c #9A8B78",
"o c #A38F77",
"O c #3B8FB6",
"+ c #3C8EB6",
"@ c #7C8F90",
"# c #629AB0",
"$ c #429ECA",
"% c #46ABD9",
"& c #48AEDE",
"* c #54AFD8",
"= c #4EB1DE",
"- c #50B3DF",
"; c #58B2DB",
": c #58B5DF",
"> c #72ABC3",
", c #7BB1C3",
"< c #7CB1C3",
"1 c #4AB2E3",
"2 c #4CB3E2",
"3 c #4AB3E4",
"4 c #52B6E4",
"5 c #53B7E5",
"6 c #57B9E6",
"7 c #5CBBE7",
"8 c #899795",
"9 c #A19C8D",
"0 c #B39D83",
"q c #B59F84",
"w c #BAA488",
"e c #BCA58A",
"r c #BAA78F",
"t c #B4A694",
"y c #B7A997",
"u c #B6AE9C",
"i c #BAAC9B",
"p c #A4AFA8",
"a c gray70",
"s c #C1A98D",
"d c #C6AE91",
"f c #C7B094",
"g c #CCB69C",
"h c #CBBBA7",
"j c #D0BFAB",
"k c #D2C1AC",
"l c #D1CBC4",
"z c #DDDDDD",
"x c #C6E3F0",
"c c #CFEBF8",
"v c #DFECF3",
"b c #D9EFF9",
"n c gray88",
"m c #EBE9E7",
"M c #EEEBE8",
"N c #EEECE9",
"B c #E0F2FA",
"V c gray96",
"C c white",
"Z c None",
/* pixels */
"ZZZZZZZZZZZZZZZZZZZZZZZZ",
"ZZZZZZZZZZZZZZZZZZZZZZZZ",
"ZZZZZZZZZZZZZZZZZZZZZZZZ",
"ZZggggggggrnXrggggggggZZ",
"ZZfddddddd0 a0dddddddfZZ",
"ZZdddddddd0z 0ddddddddZZ",
"ZZdddddddd0 a0ddddddddZZ",
"ZZdddddddd0z 0ddddddddZZ",
"ZZdddddddd0 a0ddddddddZZ",
"ZZddddddddql.qddddddddZZ",
"ZZddddddddjNMjddddddddZZ",
"ZZddddddddNyyNu,;2;<udZZ",
"ZZddddddddVhhx-33333-pZZ",
"ZZddddddddVVv43CCCCC3-ZZ",
"ZZddddddddVt>3337c7333=Z",
"ZZddddddddVe*336BCB6331Z",
"ZZddddddddmk234bCCCb433Z",
"ZZddddddddiN:333CCC333&Z",
"ZZddddddddwo#333CCC331$Z",
"ZZdddddddddd9=33CCC33=ZZ",
"ZZwddddddddds8=33333-@ZZ",
"ZZZZZZZZZZZZZZZO%1%+ZZZZ",
"ZZZZZZZZZZZZZZZZZZZZZZZZ",
"ZZZZZZZZZZZZZZZZZZZZZZZZ"
};
