/* XPM */
static char *xchat_94[] = {
/* columns rows colors chars-per-pixel */
"24 24 61 1 ",
"  c #4D646F",
". c #4F6873",
"X c #526B76",
"o c #526C76",
"O c #546C77",
"+ c #556D78",
"@ c #556E7B",
"# c #556F7C",
"$ c #57727F",
"% c #5B7580",
"& c #5C7481",
"* c #5B7885",
"= c #5C7886",
"- c #5F7B89",
"; c #5F7C8A",
": c #677A83",
"> c #607C89",
", c #607E8A",
"< c #627E8C",
"1 c #687F8A",
"2 c #66828F",
"3 c #69808B",
"4 c #6A828D",
"5 c #68838F",
"6 c #6E828C",
"7 c #75868E",
"8 c #668290",
"9 c #678390",
"0 c #688390",
"q c #6A8592",
"w c #6D8795",
"e c #6D8893",
"r c #6E8896",
"t c #728994",
"y c #7A8D96",
"u c #758E98",
"i c #768E99",
"p c #7A919D",
"a c #7C929D",
"s c #7F959F",
"d c #7F96A1",
"f c #8096A1",
"g c #8198A2",
"h c #8399A4",
"j c #849AA5",
"k c #859BA5",
"l c #899EA8",
"z c #8A9FA9",
"x c #8FA2AD",
"c c #8FA3AD",
"v c #B7C1C6",
"b c #B9C3C8",
"n c #C1CDD1",
"m c #CAD4D9",
"M c #CED7DB",
"N c #D6DDE1",
"B c #D8DEE2",
"V c #DAE1E5",
"C c #DFE5E8",
"Z c #E0E6E8",
"A c None",
/* pixels */
"AAAAAAAAAAAAAAAAAAAAAAAA",
"AAAAAAAAAAAAAAAAAAAAAAAA",
"AAAAAAAAAewrrwrAAAAAAAAA",
"AAAAAAArq2,,,,2qrAAAAAAA",
"AAAAArq<qpgzzjp9<qrAAAAA",
"AAAAr2,pzjfsffjzp,9rAAAA",
"AAAA2,gjddsxxdddhg;9AAAA",
"AAA5;pgfddgMMjdddhp;0AAA",
"AAA,qgdddxmCCmcdddj9,AAA",
"AA,-udddxVCCCCVcdddu,,AA",
"AA,,pfddnCCCCCCnddfa,>AA",
"AA,;ddddVCCCCCZNdddf>,AA",
"AA,,ffsdBCCCCCCBddda;;AA",
"AA=>yfddbCCCCCCvdddu;=AA",
"AA$>5gddfNZCCCNyddf1;$AA",
"AAA>$ddfy7vBBv7addf%;AAA",
"AAA==5ffdp6::6addd5%=AAA",
"AAAA;@tsddfddddddt#-AAAA",
"AAAAO=X5ssdddddd1o;XAAAA",
"AAAAAX>@@1ussu1O@-XAAAAA",
"AAAAAAA==@.  X@==AAAAAAA",
"AAAAAAAAA#*--%$AAAAAAAAA",
"AAAAAAAAAAAAAAAAAAAAAAAA",
"AAAAAAAAAAAAAAAAAAAAAAAA"
};
