/* XPM */
static char *xchat_25[] = {
/* columns rows colors chars-per-pixel */
"24 24 59 1 ",
"  c #4F585C",
". c #53575C",
"X c #525A5E",
"o c #535B5F",
"O c #575D5D",
"+ c #645B5B",
"@ c #535B60",
"# c #525C60",
"$ c #5B6468",
"% c #5C6569",
"& c #636C71",
"* c #666F73",
"= c #677074",
"- c #687175",
"; c #6B767B",
": c #6D7478",
"> c #71727C",
", c #727B7F",
"< c #737C7F",
"1 c #9A7335",
"2 c #E65E2F",
"3 c #F35534",
"4 c #F35A31",
"5 c #E81D62",
"6 c #CA2861",
"7 c #CF2C65",
"8 c #D2356B",
"9 c #E22263",
"0 c #934160",
"q c #A14F70",
"w c #DD8B11",
"e c #DC8C17",
"r c #F89400",
"t c #FD9700",
"y c #F99606",
"u c #FE9800",
"i c #E3941F",
"p c #B79152",
"a c #3576A7",
"s c #7A7D82",
"d c #497FA8",
"f c #7A60AB",
"g c #1B7BC7",
"h c #8459AA",
"j c #7B8488",
"k c #7C8488",
"l c #2E8DD9",
"z c #308DD6",
"x c #1E8DE6",
"c c #1F93EF",
"v c #2393EC",
"b c #2095F2",
"n c #828B8F",
"m c #838C90",
"M c #858D91",
"N c #889094",
"B c #8C9599",
"V c #8E969A",
"C c None",
/* pixels */
"CCCCCCCCCCCCCCCCCCCCCCCC",
"CCCBBBBBVVBBVVVVBBBBVCCC",
"CCCNnnnnMnnnnnMMnnnnNCCC",
"CCCnnnnnMnnnnnnnnnnnMCCC",
"CCCnnnnnnnnnnnnnnnnnnCCC",
"CCCnnnnnn,$XX%,nnnnnnCCC",
"CCCnnnnn* XX  X*nnnnnCCC",
"CCCnnnn,  #-*X  <nnnnCCC",
"CCCnnnn$ XMNNM@ %mmnnCCC",
"CCCnnnnX =mnmM= OnmnnCCC",
"CCCnnnn  =mnmm= XmnnnCCC",
"CCCnnnn  XjnnjO1eyyipCCC",
"CCCnnnn   X&&+wttttttuCC",
"CCCnnnnX    .62ttttttttC",
"CCCnnnnX  XX0554tttttttC",
"CCCnnnnBBBBB85554tttttur",
"CCCnnnnnnnnn955553uutttt",
"CCCnnnnnnnnn95555hbbbbbc",
"CCCnnnnnnnnn7555hbbbbbbx",
"CCCnnnnnnnnnq55hbbbbbbbg",
"CCCnnnnnnnnns7fbbbbbbbxC",
"CCCnnnnnnnnnn>lbbbbbbxCC",
"CCC:nnnnmnmmnk;dzvvzaCCC",
"CCCCCCCCCCCCCCCCCCCCCCCC"
};
