/* XPM */
static char *xchat_95[] = {
/* columns rows colors chars-per-pixel */
"24 24 36 1 ",
"  c #0273A7",
". c #017BB2",
"X c #0283BE",
"o c #0284BD",
"O c #0285C0",
"+ c #0285C1",
"@ c #0286C2",
"# c #0287C3",
"$ c #118DC6",
"% c #168FC7",
"& c #2496CA",
"* c #3DA2D0",
"= c #7BC0DF",
"- c #80C2E0",
"; c #82C3E1",
": c #83C4E1",
"> c #85C5E2",
", c #88C6E2",
"< c #8CC8E3",
"1 c #91CAE4",
"2 c #A0D1E8",
"3 c #AAD6EA",
"4 c #B2DAEC",
"5 c #C3E3F1",
"6 c #C6E4F1",
"7 c #CFE8F4",
"8 c #D3EAF4",
"9 c #DEEFF7",
"0 c #E0F0F8",
"q c #EDF6FB",
"w c #EFF7FB",
"e c #F2F9FC",
"r c #F4FAFC",
"t c #FAFDFE",
"y c white",
"u c None",
/* pixels */
"uuuuuuuuuuuuuuuuuuuuuuuu",
"uuuuuuuuuuuuuuuuuuuuuuuu",
"uuuuuuuuu#OOO##uuuuuuuuu",
"uuuuuuu#O#####O##uuuuuuu",
"uuuuuOO##O#O##O#O##uuuuu",
"uuuuOO##O###O#O###O#uuuu",
"uuuu##OO###O#O###O#Ouuuu",
"uuuOO###O#%2we4&#O##Ouuu",
"uuu+###O#$0q<>0q&##O#uuu",
"uu+O+#O#O1e&#+$04OO#O+uu",
"uu++#+###83+#++:r#O#OXuu",
"uu+#+#O##64#+##<q##O#Ouu",
"uuOO#O#OO=t*#+&q2###Oouu",
"uuOO#O##O,yt43e9%OO#OXuu",
"uu.O##OO>y>=57<$##O#O.uu",
"uuu#O#O;y;##+#O+O###Ouuu",
"uuuXO#O8;O#+#+#+#+O#+uuu",
"uuuuO####O##+#+#+##Ouuuu",
"uuuu O#OO##O#+#+#+# uuuu",
"uuuuu ###O##+#+#+# uuuuu",
"uuuuuuuX#O#O###OXuuuuuuu",
"uuuuuuuuu.XO#..uuuuuuuuu",
"uuuuuuuuuuuuuuuuuuuuuuuu",
"uuuuuuuuuuuuuuuuuuuuuuuu"
};
