/* XPM */
static char *xchat_78[] = {
/* columns rows colors chars-per-pixel */
"24 24 66 1 ",
"  c #7C4F54",
". c #B0322C",
"X c #B5332D",
"o c #BB352F",
"O c #A13F3D",
"+ c #B43C36",
"@ c #C03630",
"# c #C13A34",
"$ c #C23C36",
"% c #C33F3A",
"& c #99403E",
"* c #C4423C",
"= c #C5453F",
"- c #9A5556",
"; c #AF4441",
": c #BF5954",
"> c #C54741",
", c #C54742",
"< c #C84F4A",
"1 c #C7554F",
"2 c #C9524D",
"3 c #CA5651",
"4 c #C05B56",
"5 c #CB5D57",
"6 c #CD5E59",
"7 c #CE645F",
"8 c #D06B67",
"9 c #5B7785",
"0 c #667681",
"q c #6D7883",
"w c #27879B",
"e c #2A95AA",
"r c #2C96AB",
"t c #3E99AF",
"y c #2FA3BB",
"u c #2FA4BD",
"i c #2FA5BD",
"p c #37A1B8",
"a c #36A1B9",
"s c #30A5BE",
"d c #4198AC",
"f c #4398AD",
"g c #749EAC",
"h c #30A7C0",
"j c #3AAAC1",
"k c #42AFC5",
"l c #44B0C6",
"z c #55B7CB",
"x c #DB8D89",
"c c #DC908C",
"v c #E7B3B1",
"b c #EABDBB",
"n c #EBBFBE",
"m c #F1D2D1",
"M c #F4DBDA",
"N c #C9E8EF",
"B c #CAE9EF",
"V c #DBF0F4",
"C c #DCF0F4",
"Z c #F9EAEA",
"A c #FAEFEF",
"S c #FAF0EF",
"D c #E3F0F3",
"F c #FDF9F8",
"G c #FFFEFD",
"H c None",
/* pixels */
"HHHHHHHHHHHHHHHHHHHHHHHH",
"HHHHHHHHHHHHHHHHHHHHHHHH",
"HHHHHHH:444444444444:HHH",
"HHHHHHH+............+HHH",
"HHHHHHH..............HHH",
"HHH56666666666661....HHH",
"HHH%@@@@@@@@@@@@%....HHH",
"HHH@@@@@@@@@@@@@@....HHH",
"HHH@@@@@@@@@@@@@@....HHH",
"HHH@@@@@%b>@@@@@@....HHH",
"HHH@@@@@2G7@@@@@@....HHH",
"HHH@@@@@%G2o@@@@@....HHH",
"HHH@@@@@#F8@@@;qfpt0OHHH",
"HHH@@@@@cMZ=@-phhhhhpHHH",
"HHH@@@@$AvAFDjhhhhhhhhHH",
"HHH@@@>mMx<*ghhhhkBzhhiH",
"HHH@@*SZ%@@@thhhkCGBhhiH",
"HHH@@*n3@@@@shhkCGClhhhH",
"HHH@@@@@@@@@thhCGClhhhiH",
"HHH@@@@@@@@@9shGClhhhhrH",
"HHH@@@@@@@@@;phhhhhhhsHH",
"HHHX@@@@@@@@. phhhhhhHHH",
"HHHHHHHHHHHHHHHwyiyeHHHH",
"HHHHHHHHHHHHHHHHHHHHHHHH"
};
