/* XPM */
static char *xchat_52[] = {
/* columns rows colors chars-per-pixel */
"24 24 80 1 ",
"  c #E68C02",
". c #F09306",
"X c #F89709",
"o c #F8970A",
"O c #EC9516",
"+ c #F29916",
"@ c #F49A17",
"# c #F79E17",
"$ c #F89C16",
"% c #F89D18",
"& c #E6AF06",
"* c #FDBF06",
"= c #FABF0F",
"- c #F6B317",
"; c #F9BF12",
": c #E9BD34",
"> c #F8BC34",
", c #FEC006",
"< c #FEC10A",
"1 c #FEC20E",
"2 c #FEC210",
"3 c #FEC417",
"4 c #FAC01A",
"5 c #FEC519",
"6 c #F9C31E",
"7 c #FDC51C",
"8 c #F8C221",
"9 c #F8C223",
"0 c #F7C737",
"q c #F9C731",
"w c #FECD38",
"e c #F9CB3C",
"r c #FECE3C",
"t c #FBCA43",
"y c #FACC40",
"u c #FECF41",
"i c #FED042",
"p c #FDD046",
"a c #FDD14B",
"s c #EECA5B",
"d c #F9D35D",
"f c #EDCA62",
"g c #E8C96A",
"h c #F8D363",
"j c #848484",
"k c #868686",
"l c gray54",
"z c #8E8E8E",
"x c gray56",
"c c #909090",
"v c gray57",
"b c #A5A5A5",
"n c gray71",
"m c #BBBBBB",
"M c #EAD38E",
"N c #F1D787",
"B c #F0D78C",
"V c #E4D19A",
"C c #E3D3A5",
"Z c #E2D5B0",
"A c #EDDFB7",
"S c #CECECE",
"D c LightGray",
"F c gray83",
"G c #DEDCD4",
"H c gray85",
"J c gray86",
"K c gainsboro",
"L c #DFDFDF",
"P c #EBE1C0",
"I c #E9E1C6",
"U c gray88",
"Y c #E1E1E1",
"T c #E2E2E2",
"R c #E6E6E6",
"E c #E7E7E7",
"W c #E9E7E1",
"Q c gray92",
"! c gray93",
"~ c None",
/* pixels */
"~~~~~~~~~~~~~~~~~~~~~~~~",
"~~~~~~~~~~~#%~~~~~~~~~~~",
"~~~~~~~~~~@oo@~~~~~~~~~~",
"~~~~!!!!!!!!!!!!!!!!~~~~",
"~~~~QQQQQQQQQQQQQQQQ~~~~",
"~~~~QQQQQLbllbJQQQQQ~~~~",
"~~~~QQQQLzmLYmzLQQQQ~~~~",
"~~~OQQQQbmSzcSmbQQQ!O~~~",
"~~@.QQQQlLcFDcYlQQQQ.$~~",
"~~- YEQQlLcDDjLjQQQQ.>~~",
"~~14VLRQbmSzcblnQQQAtr~~",
"~~,,3sGRJzmLQQQQQWNpww~~",
"~~<,,2qCLJbljjcQPduwww~~",
"~~,,,,<7fGRQQQWBarwwwr~~",
"~~,,,,,,10ZYRIhiwwwwww~~",
"~~,,,,,,,<7gMarwwwwwww~~",
"~~,,,,,,,,;yirwwwwwwww~~",
"~~,,,,,,*9prwwwwwwwwww~~",
"~~,,,**=euwwwwwwwwwwww~~",
"~~,,,*8prwwwwwwwwwwwwr~~",
"~~,,=0prwwwwwwwwwwwwww~~",
"~~&6urwwwrwwwwwrwwwrw:~~",
"~~~~~~~~~~~~~~~~~~~~~~~~",
"~~~~~~~~~~~~~~~~~~~~~~~~"
};
