/* XPM */
static char *xchat_120[] = {
/* columns rows colors chars-per-pixel */
"24 24 30 1 ",
"  c #0F2310",
". c #102310",
"X c #102411",
"o c #132914",
"O c #142B15",
"+ c #1A2D1B",
"@ c #19331A",
"# c #1A351B",
"$ c #203F21",
"% c #204022",
"& c #214123",
"* c #244525",
"= c #2D542F",
"- c #3D4D3D",
"; c #376338",
": c #3F4F40",
"> c #407343",
", c #417443",
"< c #417544",
"1 c #447845",
"2 c #447846",
"3 c #4B834D",
"4 c #549257",
"5 c #5EA160",
"6 c #60A663",
"7 c #60A763",
"8 c #66B069",
"9 c #6AB66D",
"0 c #6FBE72",
"q c None",
/* pixels */
"qqqqqqqqqqqqqqqqqqqqqqqq",
"qqqqqqqqqqqqqqqqqqqqqqqq",
"qqqqqqqqqqqqqqqqqqqqqqqq",
"qq-::::::::::::::::::-qq",
"qq+                  +qq",
"qq       X            qq",
"qq      &*            qq",
"qq      ,>            qq",
"qq      65            qq",
"qq     &68#           qq",
"qq     <>3;           qq",
"qq    X6$=4           qq",
"qq    &5 o9O          qq",
"qq00000< .4= 100000000qq",
"qq        ;3@8@       qq",
"qq        #8<1        qq",
"qq         59@        qq",
"qq         ><         qq",
"qq         &@         qq",
"qq          .         qq",
"qqX                   qq",
"qqqqqqqqqqqqqqqqqqqqqqqq",
"qqqqqqqqqqqqqqqqqqqqqqqq",
"qqqqqqqqqqqqqqqqqqqqqqqq"
};
