#define colon_width 4
#define colon_height 10
static unsigned char colon_bits[] = {
   0x0f, 0x0f, 0x0f, 0x0f, 0x00, 0x00, 0x0f, 0x0f, 0x0f, 0x0f};
