#define crunchbang10x8_width 10
#define crunchbang10x8_height 8
static unsigned char crunchbang10x8_bits[] = {
   0x92, 0x00, 0x92, 0x00, 0xbf, 0x00, 0x92, 0x00, 0x92, 0x00, 0xbf, 0x00,
   0x12, 0x00, 0x92, 0x00};
