#define dimple-button_width 16
#define dimple-button_height 16
static unsigned char dimple-button_bits[] = {
   0x00, 0x00, 0x00, 0x00, 0x00, 0x00, 0xa8, 0x2a, 0x00, 0x00, 0xa8, 0x2a,
   0x00, 0x00, 0xa8, 0x2a, 0x00, 0x00, 0xa8, 0x2a, 0x00, 0x00, 0xa8, 0x2a,
   0x00, 0x00, 0xa8, 0x2a, 0x00, 0x00, 0x00, 0x00};
