#define down_width 24
#define down_height 24
static unsigned char down_bits[] = {
   0x00, 0x00, 0x00, 0x00, 0x00, 0x00, 0x00, 0x36, 0x00, 0x00, 0x3e, 0x00,
   0x00, 0x2a, 0x00, 0x00, 0x36, 0x00, 0x00, 0x36, 0x00, 0x00, 0x2a, 0x00,
   0x00, 0x36, 0x00, 0x00, 0x2a, 0x00, 0x00, 0x2a, 0x00, 0x00, 0x36, 0x00,
   0x00, 0x2a, 0x00, 0x38, 0x36, 0x0e, 0xd8, 0xb6, 0x0f, 0xf8, 0xeb, 0x0d,
   0xb0, 0xf7, 0x06, 0x60, 0x6b, 0x03, 0xc0, 0xe9, 0x01, 0x80, 0xd7, 0x00,
   0x00, 0x6b, 0x00, 0x00, 0x36, 0x00, 0x00, 0x1c, 0x00, 0x00, 0x08, 0x00};
