#define down14x14_width 14
#define down14x14_height 14
static unsigned char down14x14_bits[] = {
   0xa0, 0x00, 0xe0, 0x00, 0xa0, 0x00, 0xe0, 0x00, 0xa0, 0x00, 0xe0, 0x00,
   0xa0, 0x00, 0xee, 0x0e, 0xbc, 0x07, 0x58, 0x03, 0xb0, 0x01, 0xe0, 0x00,
   0x40, 0x00, 0x00, 0x00};
