#define grid8_width 14
#define grid8_height 14
static unsigned char grid8_bits[] = {
   0x55, 0x15, 0x00, 0x00, 0x01, 0x00, 0x00, 0x00, 0x01, 0x00, 0x00, 0x00,
   0x01, 0x00, 0x00, 0x00, 0x01, 0x00, 0x00, 0x00, 0x01, 0x00, 0x00, 0x00,
   0x01, 0x00, 0x00, 0x00};
