#define grid16_width 16
#define grid16_height 16
static unsigned char grid16_bits[] = {
   0x11, 0x11, 0x00, 0x00, 0x00, 0x00, 0x00, 0x00, 0x11, 0x11, 0x00, 0x00,
   0x00, 0x00, 0x00, 0x00, 0x11, 0x11, 0x00, 0x00, 0x00, 0x00, 0x00, 0x00,
   0x11, 0x11, 0x00, 0x00, 0x00, 0x00, 0x00, 0x00};
