#define iconifyarw12x12_width 12
#define iconifyarw12x12_height 12
static unsigned char iconifyarw12x12_bits[] = {
   0x00, 0x0c, 0x00, 0x0c, 0x83, 0x03, 0x83, 0x03, 0x83, 0x03, 0x63, 0x00,
   0x63, 0x00, 0x1f, 0x00, 0x1f, 0x00, 0x1f, 0x00, 0xff, 0x03, 0xff, 0x03};
