#define ldblarrow_width 11
#define ldblarrow_height 11
static unsigned char ldblarrow_bits[] = {
   0x00, 0x00, 0x00, 0x00, 0x18, 0x03, 0x8c, 0x01, 0xc6, 0x00, 0x63, 0x00,
   0xc6, 0x00, 0x8c, 0x01, 0x18, 0x03, 0x00, 0x00, 0x00, 0x00};
