#define left_ptr_width 16
#define left_ptr_height 16
#define left_ptr_x_hot 3
#define left_ptr_y_hot 1
static unsigned char left_ptr_bits[] = {
   0x0c, 0x00, 0x1c, 0x00, 0x3c, 0x00, 0x7c, 0x00, 0xfc, 0x00, 0xfc, 0x01,
   0xfc, 0x03, 0xfc, 0x07, 0xfc, 0x0f, 0xfc, 0x00, 0xfc, 0x01, 0xec, 0x03,
   0xc4, 0x07, 0x80, 0x0f, 0x00, 0x1f, 0x00, 0x3e};
