#define menu-wave16x16_width 16
#define menu-wave16x16_height 16
static unsigned char menu-wave16x16_bits[] = {
   0x00, 0x00, 0x00, 0x00, 0x00, 0x00, 0x00, 0x00, 0x00, 0x01, 0x80, 0x02,
   0x40, 0x04, 0x3c, 0x38, 0x00, 0x01, 0x80, 0x02, 0x40, 0x04, 0x3c, 0x38,
   0x00, 0x00, 0x00, 0x00, 0x00, 0x00, 0x00, 0x00};
