#define menu-symb16x16_width 16
#define menu-symb16x16_height 16
static unsigned char menu-symb16x16_bits[] = {
   0x00, 0x00, 0x00, 0x00, 0x00, 0x00, 0x00, 0x38, 0x00, 0x7f, 0x80, 0x07,
   0xf0, 0x03, 0x00, 0xfe, 0xf0, 0x03, 0x80, 0x07, 0x00, 0x7f, 0x00, 0x38,
   0x00, 0x00, 0x00, 0x00, 0x00, 0x00, 0x00, 0x00};
