#define menu-lines16x16_width 16
#define menu-lines16x16_height 16
static unsigned char menu-lines16x16_bits[] = {
   0x00, 0x00, 0x00, 0x00, 0x00, 0x00, 0x00, 0x00, 0xfc, 0x3f, 0x00, 0x00,
   0x00, 0x00, 0x00, 0x00, 0xfc, 0x3f, 0x00, 0x00, 0x00, 0x00, 0x00, 0x00,
   0xfc, 0x3f, 0x00, 0x00, 0x00, 0x00, 0x00, 0x00};
