#define minus9x10_width 9
#define minus9x10_height 10
static unsigned char minus9x10_bits[] = {
   0x00, 0xfe, 0x00, 0xfe, 0x00, 0xfe, 0x00, 0xfe, 0xfe, 0xfe, 0xfe, 0xfe,
   0x00, 0xfe, 0x00, 0xfe, 0x00, 0xfe, 0x00, 0xfe};
