#define nail9x10_width 9
#define nail9x10_height 10
static unsigned char nail9x10_bits[] = {
   0x00, 0xfe, 0x00, 0xfe, 0xc6, 0xfe, 0xc6, 0xfe, 0x00, 0xfe, 0x00, 0xfe,
   0xc6, 0xfe, 0xc6, 0xfe, 0x00, 0xfe, 0x00, 0xfe};
