#define rarrow8x9_width 16
#define rarrow8x9_height 16
static unsigned char rarrow8x9_bits[] = {
   0x00, 0x00, 0x00, 0x00, 0x00, 0x00, 0x00, 0x00, 0x00, 0x08, 0x00, 0x18,
   0x00, 0x38, 0x00, 0x78, 0x00, 0xf8, 0x00, 0x78, 0x00, 0x38, 0x00, 0x18,
   0x00, 0x08, 0x00, 0x00, 0x00, 0x00, 0x00, 0x00};
