#define resize12x12_width 12
#define resize12x12_height 12
static unsigned char resize12x12_bits[] = {
   0xfc, 0x0f, 0xfc, 0x0f, 0x80, 0x0f, 0x80, 0x0f, 0x80, 0x0f, 0x60, 0x0c,
   0x60, 0x0c, 0x1c, 0x0c, 0x1c, 0x0c, 0x1c, 0x0c, 0x03, 0x00, 0x03, 0x00};
