#define resize14x14_width 14
#define resize14x14_height 14
static unsigned char resize14x14_bits[] = {
   0x00, 0x01, 0x00, 0x01, 0x00, 0x01, 0x00, 0x01, 0x00, 0x01, 0x55, 0x3f,
   0x00, 0x00, 0x00, 0x01, 0x00, 0x00, 0x00, 0x01, 0x00, 0x00, 0x00, 0x01,
   0x00, 0x00, 0x00, 0x01};
