#define resize12x10_width 12
#define resize12x10_height 12
static unsigned char resize12x10_bits[] = {
   0x00, 0x00, 0xc0, 0x03, 0x00, 0x03, 0x80, 0x02, 0x40, 0x02, 0x20, 0x00,
   0x12, 0x00, 0x0a, 0x00, 0x06, 0x00, 0x1e, 0x00, 0x00, 0x00, 0x00, 0x00};
