#define slash12x12_width 12
#define slash12x12_height 12
static unsigned char slash12x12_bits[] = {
   0x00, 0x00, 0x00, 0x03, 0x80, 0x03, 0xc0, 0x01, 0xe0, 0x00, 0x70, 0x00,
   0x38, 0x00, 0x1c, 0x00, 0x0e, 0x00, 0x06, 0x00, 0x00, 0x00, 0x00, 0x00};
