#define spine_width 8
#define spine_height 8
static unsigned char spine_bits[] = {
   0x00, 0x01, 0x00, 0x01, 0x00, 0x01, 0x00, 0x55};
