#define square8x8_width 8
#define square8x8_height 8
static unsigned char square8x8_bits[] = {
   0x00, 0x3e, 0x3e, 0x3e, 0x3e, 0x3e, 0x00, 0x00};
