#define line2x16_width 2
#define line2x16_height 16
static unsigned char line2x16_bits[] = {
   0x00, 0x00, 0x00, 0x00, 0x00, 0x00, 0x00, 0x03, 0x03, 0x00, 0x00, 0x00,
   0x00, 0x00, 0x00, 0x00};
