#define x12x12_width 12
#define x12x12_height 12
static unsigned char x12x12_bits[] = {
   0x03, 0x0c, 0x03, 0x0c, 0x9c, 0x03, 0x9c, 0x03, 0x9c, 0x03, 0x60, 0x00,
   0x60, 0x00, 0x9c, 0x03, 0x9c, 0x03, 0x9c, 0x03, 0x03, 0x0c, 0x03, 0x0c};
