/* XPM */
static char * calculator_xpm[] = {
/* columns rows colors chars-per-pixel */
"28 48 3 1",
" 	c #6c461e",
".	c #be8434",
"X	c black",
/* pixels */
"                            ",
"                            ",
"  ........................  ",
"  ..X.XXX.XXX.X.X.XXX.X...  ",
"  ..X...X...X.X.X.X...X...  ",
"  ..X.XXX.XXX.XXX.XXX.XXX.  ",
"  ..X.X.....X...X...X.X.X.  ",
"  ..X.XXX.XXX...X.XXX.XXX.  ",
"  ........................  ",
"                            ",
"                            ",
" .......................... ",
" .    .    .    .    .    . ",
" .    .    .    .    .    . ",
" .......................... ",
" .    .    .    .    .    . ",
" . .. . .. . .. . .. . .. . ",
" .    .    .    .    .    . ",
" .......................... ",
" .    .    .    .    .    . ",
" .    .    .    .    .    . ",
" .    .    .    .    .    . ",
" .......................... ",
" .    .    .    .    .    . ",
" .    .    .    .    .    . ",
" .    .    .    .    .    . ",
" .......................... ",
" .    .    .    .    .    . ",
" .    . .. . .. . .. .    . ",
" .    . .. . .. . .. .    . ",
" .    .    .    .    .    . ",
" .......................... ",
" .    .    .    .    .    . ",
" .    . .. . .. . .. .    . ",
" .    . .. . .. . .. .    . ",
" .    .    .    .    .    . ",
" .......................... ",
" .    .    .    .    .    . ",
" .    . .. . .. . .. .    . ",
" .    . .. . .. . .. .    . ",
" .    .    .    .    .    . ",
" .......................... ",
" .    .         .    .    . ",
" .    . ....... . .. .    . ",
" .    . ....... . .. .    . ",
" .    .         .    .    . ",
" .......................... ",
"                            "};
