/* XPM */
static char * chat_xpm[] = {
/* columns rows colors chars-per-pixel */
"48 48 3 1",
" 	c #100d02",
".	c #6c4a1e",
"X	c #be8434",
/* pixels */
"   ...............                              ",
"   ................                             ",
"   .................                            ",
"   ..................                           ",
"   ..................                           ",
"   ...................                          ",
"   ....................                         ",
"   ....................                         ",
"   .....................          XXXX          ",
"   ......................         XXXXX         ",
"   ......................         XXXXXX        ",
"   .......................         XXXXX        ",
"   .......................     XX   XXXXX       ",
"   .......................    ..XX   XXXX       ",
"   .......................    ...XX  XXXXX      ",
"   ......................      ..XXX  XXXX      ",
"   .....................       ...XX  XXXXX     ",
"   ...................     ...  ...XX  XXXX     ",
"   ..................      ....  ..XXX XXXXX    ",
"   ..................      ....   ..XX  XXXX    ",
"   ...................     .....  ...X  XXXX    ",
"   ...................      ....   ..XX XXXX    ",
"   ...................       ....  ..XX  XXXX   ",
"   ...................       ....  ..XX  XXXX   ",
"   ...................        ...  ...X  XXXX   ",
"   ..................         ....  ..X  XXXX   ",
"   .................          ....  ..X  XXXX   ",
"   ................           ....  ..X  XXXX   ",
"   ................           ....  ..X  XXXX   ",
"   ................           ....  ..X  XXXX   ",
"   .................          ....  ..X  XXXX   ",
"   ..................        ....  ...X  XXXX   ",
"   ..................        ....  ...X  XXXX   ",
"   ..................       .....  ...X  XXX    ",
"   ..................       ....  ...XX XXXX    ",
"   .................       .....  ...X  XXXX    ",
"   ................        ....  ...XX  XXXX    ",
"   ................        ...   ...X  XXXX     ",
"   ................             ...XX  XXXX     ",
"   ................            ....X  XXXXX     ",
"   ................            ...XX  XXXX      ",
"   ................           ...XX  XXXXX      ",
"   ................            ..X  XXXXX       ",
"   ...............                 XXXXXX       ",
"    .............                  XXXXX        ",
"        ......                    XXXXX         ",
"                                  XXXX          ",
"                                   XX           "};
