/* XPM */
static char * term_xpm[] = {
"48 48 4 1",
" 	c None",
".	c #815924",
"X	c #100d02",
"o	c #be8434",
"                                                ",
"                                                ",
"                                                ",
"                                                ",
"                                                ",
"                                                ",
"                                                ",
"................................................",
"................................................",
"................................................",
"..XXXXXXXXXXXXXXXXXXXXXXXXXXXXXXXXXXXXXXXX.XXX..",
"..XoXoXooXXXXXXXXXXXXXXXXXXXXXXXXXXXXXXXX...XX..",
"..XXoXXXooXXXXXXXXXXXXXXXXXXXXXXXXXXXXXX.....X..",
"..XoXoXXXooXXXXXXXXXXXXXXXXXXXXXXXXXXXXXX...XX..",
"..XXXXXXXXXXXXXXXXXXXXXXXXXXXXXXXXXXXXXXXX.XXX..",
"................................................",
"..XXXXXXXXXXXXXXXXXXXXXXXXXXXXXXXXXXXXXXXXXXXX..",
"..XXXXXXXXXXXXXXXXXXXXXXXXXXXXXXXXXXXXXXXXXXXX..",
"..XXXXXXXXXXXXXXXXXXXXXXXXXXXXXXXXXXXXXXXXXXXX..",
"..XXXXXXXXXXXXXXXXXXXXXXXXXXXXXXXXXXXXXXXXXXXX..",
"..XXXXXXXXXXXXXXXXXXXXXXXXXXXXXXXXXXXXXXXXXXXX..",
"..XXXXXXXXXXXXXXXXXXXXXXXXXXXXXXXXXXXXXXXXXXXX..",
"..XXXXXXXXXXXXXXXXXXXXXXXXXXXXXXXXXXXXXXXXXXXX..",
"..XXXXXXXXXXXXXXXXXXXXXXXXXXXXXXXXXXXXXXXXXXXX..",
"..XXXXXXXXXoXXXXXXXXXoXXXXXoXXXXXXXXXXXXXXXXXX..",
"..XXXXXXXXoXoXXXXXXXXoXXXXXXoXXXXXXXXXXXXXXXXX..",
"..XXXXXXXoXXXoXXXoXXXXoXXXXXXoXXXXXXXXXXXXXXXX..",
"..XXXXXXXoXXXoXXoooXXXoXXXXXXXoXXXXXXXXXXXXXXX..",
"..XXXXXXXoXXXoXXXoXXXXXoXXXXXXXoXXXXXXXXXXXXXX..",
"..XXXXXXXoooooXXXXXXXXXXoXXXXXoXXXXXXXXXXXXXXX..",
"..XXXXXXXoXXXoXXXXXXXXXXoXXXXoXXXXXXXXXXXXXXXX..",
"..XXXXXXXoXXXoXXXoXXXXXXXoXXoXXXXXXXXXXXXXXXXX..",
"..XXXXXXXoXXXoXXoooXXXXXXoXoXXXXXXXXXXXXXXXXXX..",
"..XXXXXXXXXXXXXXXoXXXXXXXXXXXXXXXXXXXXXXXXXXXX..",
"..XXXXXXXXXXXXXXXXXXXXXXXXXXXXXXXXXXXXXXXXXXXX..",
"..XXXXXXXXXXXXXXXXXXXXXXXXXXXXXXXXXXXXXXXXXXXX..",
"..XXXXXXXXXXXXXXXXXXXXXXXXXXXXXXXXXXXXXXXXXXXX..",
"..XXXXXXXXXXXXXXXXXXXXXXXXXXXXXXXXXXXXXXXXXXXX..",
"..XXXXXXXXXXXXXXXXXXXXXXXXXXXXXXXXXXXXXXXXXXXX..",
"..XXXXXXXXXXXXXXXXXXXXXXXXXXXXXXXXXXXXXXXXXXXX..",
"..XXXXXXXXXXXXXXXXXXXXXXXXXXXXXXXXXXXXXXXXXXXX..",
"..XXXXXXXXXXXXXXXXXXXXXXXXXXXXXXXXXXXXXXXXXXXX..",
"..XXXXXXXXXXXXXXXXXXXXXXXXXXXXXXXXXXXXXXXXXXXX..",
"..XXXXXXXXXXXXXXXXXXXXXXXXXXXXXXXXXXXXXXXXXXXX..",
"..XXXXXXXXXXXXXXXXXXXXXXXXXXXXXXXXXXXXXXXXXXXX..",
"................................................",
"                                                ",
"                                                "};
