/* XPM */
static char * clipboard_xpm[] = {
/* columns rows colors chars-per-pixel */
"48 48 3 1",
" 	c #100d02",
".	c #be8434",
"X	c #6c461e",
/* pixels */
"                     ...                        ",
"                     ...                        ",
"                     ...                        ",
"            .........   .........               ",
"            .........   .........               ",
"         ...         ...         ...            ",
"         ...         ...         ...            ",
"         ...         ...         ...            ",
"      .................................         ",
"      .................................         ",
"      ...XXXXXXXXXXXXXXXXXXXXXXXXXXX...         ",
"      ...XXXXXXXXXXXXXXXXXXXXXXXXXXX...         ",
"      ...XXXXXXXXXXXXXXXXXXXXXXXXXXX...         ",
"      ...XXX...XXXXXXXXXXXXXXXXXXXXX...         ",
"      ...XXX...XXXXXXXXXXXXXXXXXXXXX...         ",
"      ...XXX...XXXXXXXXXXXXXXXXXXXXX...         ",
"      ...XXXXXXXXXXXXXXXXXXXXXXXXXXX...         ",
"      ...XXXXXXXXXXXXXXXXXXXXXXXXXXX...         ",
"      ...XXXXXX...............XXXXXX...         ",
"      ...XXXXXX...............XXXXXX...         ",
"      ...XXXXXX...............XXXXXX...         ",
"      ...XXXXXXXXXXXXXXXXXXXXXXXXXXX...         ",
"      ...XXXXXXXXXXXXXXXXXXXXXXXXXXX...         ",
"      ...XXXXXX...............XXXXXX...         ",
"      ...XXXXXX...............XXXXXX...         ",
"      ...XXXXXX...............XXXXXX...         ",
"      ...XXXXXX...............XXXXXX...         ",
"      ...XXXXXXXXXXXXXXXXXXXXXXXXXXX...         ",
"      ...XXXXXXXXXXXXXXXXXXXXXXXXXXX...         ",
"      ...XXXXXXXXXXXXXXXXXXXXXXXXXXX...         ",
"      ...XXXXXX...............XXXXXX...         ",
"      ...XXXXXX...............XXXXXX...         ",
"      ...XXXXXXXXXXXXXXXXXXXXXXXXXXX...         ",
"      ...XXXXXXXXXXXXXXXXXXXXXXXXXXX...         ",
"      ...XXXXXXXXXXXXXXXXXXXXXXXXXXX...         ",
"      ...XXXXXX...............XXXXXX...         ",
"      ...XXXXXX...............XXXXXX...         ",
"      ...XXXXXX...............XXXXXX...         ",
"      ...XXXXXXXXXXXXXXXXXXXXXXXXXXX...         ",
"      ...XXXXXXXXXXXXXXXXXXXXXXXXXXX...         ",
"      ...XXXXXXXXXXXXXXXXXXXXXXXXXXX...         ",
"      ...XXXXXXXXXXXXXXXXXXXXXXXXXXX...         ",
"      ...XXXXXXXXXXXXXXXXXXXXXXXXXXX...         ",
"      ...XXXXXXXXXXXXXXXXXXXXXXXXXXX...         ",
"      ...XXXXXXXXXXXXXXXXXXXXXXXXXXX...         ",
"      .................................         ",
"      .................................         ",
"      .................................         "};
