/* XPM */
static char * file_xpm[] = {
/* columns rows colors chars-per-pixel */
"48 48 4 1",
" 	c None",
".	c #be8434",
"X	c #6c4a1e",
"o	c #100d02",
/* pixels */
"                                                ",
"                                                ",
"................................................",
".XXXXXXXXXXXXXXXXXXXXXXXXXXXXXXXXXXXXXXXXXXXXXX.",
".XXXXXXXXXXXXXXXXXXXXXXXXXXXXXXXXXXXXXXXXXXXXXX.",
".XXXXXXXXXXXoooooooooooooooooXXXXXXXXXXXXXXXXXX.",
".XXXXXXXXXXXoooooooooooooooooXXXXXXXXXXXXXXXXXX.",
".XXXXXXXXXXoooooooooooooooooooXXXXXXXXXXXXXXXXX.",
".XXXXXXXXXXo................ooooXXXXXXXXXXXXXXX.",
".XXXXXXXXXXo................oooooXXXXXXXXXXXXXX.",
".XXXXXXXXXXo.oo.............oooooXXXXXXXXXXXXXX.",
".XXXXXXXXXXo.o..............ooooooXXXXXXXXXXXXX.",
".XXXXXXXXXXo.....................oXXXXXXXXXXXXX.",
".XXXXXXXXXXo.....................oXXXXXXXXXXXXX.",
".XXXXXXXXXXo...ooo.ooo.oo........oXXXXXXXXXXXXX.",
".XXXXXXXXXXo.....................oXXXXXXXXXXXXX.",
".XXXXXXXXXXo..oo.o.oo.o.oo.......oXXXXXXXXXXXXX.",
".XXXXXXooooo.....................oXXXXXXXXXXXXX.",
".XXXXXoooooo..ooo.o.o.oo.o.......oXXXXXXXXXXXXX.",
".XXXXXoo...o..o..................oXXXXXXXXXXXXX.",
".XXXXXoo...o...o.......o.........oXXXXXXXXXXXXX.",
".XXXXXoo...o..o.ooo.o.oooo.......ooooXXXXXXXXXX.",
".XXXXXoo...o.....................o.ooXXXXXXXXXX.",
".XXXXXoo...o.....................o.ooXXXXXXXXXX.",
".XXXXXoo...o.....................o.ooXXXXXXXXXX.",
".XXXXXoo...o.....................o.ooXXXXXXXXXX.",
".XXXXXoo...o.......................ooXXXXXXXXXX.",
".XXXXXoo...o......ooooooooooooooooooooooooooooX.",
".XXXXXoo...o.....oooooooooooooooooooooooooooooX.",
".XXXXXoo...o....oooooooooooooooooooooooooooooXX.",
".XXXXXoo...o....oooooooooooooooooooooooooooooXX.",
".XXXXXoo...o...oooooooooooooooooooooooooooooXXX.",
".XXXXXoo...o...oooooooooooooooooooooooooooooXXX.",
".XXXXXoo...o...oooooooooooooooooooooooooooooXXX.",
".XXXXXoo...o..oooooooooooooooooooooooooooooXXXX.",
".XXXXXoo......oooooooooooooooooooooooooooooXXXX.",
".XXXXXoo....ooooooooooooooooooooooooooooooXXXXX.",
".XXXXXoo....ooooooooooooooooooooooooooooooXXXXX.",
".XXXXXoo...ooooooooooooooooooooooooooooooXXXXXX.",
".XXXXXoo...ooooooooooooooooooooooooooooXXXXXXXX.",
".XXXXXoo..oooooooooooooooooooooooooooooXXXXXXXX.",
".XXXXXoooooooooooooooooooooooooooooooooXXXXXXXX.",
".XXXXXoooooooooooooooooooooooooooooooooXXXXXXXX.",
".XXXXXXoooooooooooooooooooooooooooooooXXXXXXXXX.",
".XXXXXXXXXXXXXXXXXXXXXXXXXXXXXXXXXXXXXXXXXXXXXX.",
"................................................",
"                                                ",
"                                                "};
