/* XPM */
static char * file_roller_xpm[] = {
/* columns rows colors chars-per-pixel */
"48 48 3 1",
" 	c #be8434",
".	c #100d02",
"X	c #6c461e",
/* pixels */
"                                                ",
"                                                ",
"                                                ",
"                                                ",
"                                                ",
"                                                ",
"                                                ",
"                       ...................      ",
"                    .........................   ",
"                   ...........................  ",
"                   ............................ ",
"                  .... ................... ...  ",
"                  ...                      ...  ",
"                 ....                     ...   ",
"                 ...                     ....   ",
"                ....                     ...    ",
"                ...                     ....    ",
"               ....                     ...     ",
"               ...                     ....     ",
"              ...                      ...      ",
"        ...........................   ....      ",
"       .XXXXXXXXXXXXXXXXXXXXXXXXXXX.  ...       ",
"      XXXXXXXXXXXXXXXXXXXXXXXXX..........       ",
"     .XXXXXXXXXXXXXXXXXXXXXXX...XXXXX...        ",
"     .XXXXXXXXXXXXXXXXXXXXXX..XX     X..        ",
"    .X                     .XX        X.        ",
"    .X                     .X          X.       ",
"   .XX                    .XX           X.      ",
"   .XX                    .X    ....    X.      ",
"  ..........             .X    .XXXX.    X.     ",
"  .        .             .X    .XXXX.    X.     ",
"  . XXXXXXX..            .X    .X..X.    X.     ",
"  . XXXXXXX ............ .X    .X..X.    X.     ",
"  . XXXXXXX            ...X    .XXXX.   XX.     ",
"  . XXXXXXXXXXXXXXXXXXXXX.X    ..XXX.   X.      ",
"   .XXXXXXXXXXXXXXXXXXXXX.X     .....    .      ",
"   .XXXXXXXXXXXXXXXXXXXXX..X            X.      ",
"   .XXXXXXXXXXXXXXXXXXXXX..X           XX       ",
"    .XXXXXXXXXXXXXXXXXXXXX..X          X.       ",
"    .XXXXXXXXXXXXXXXXXXXXXX..XXX     XX.        ",
"     .XXXXXXXXXXXXXXXXXXXXXX....XXXXX...        ",
"     .XXXXXXXXXXXXXXXXXXXXXXX..........         ",
"      ..XXXXXXXXXXXXXXXXXXXXXXXXXXXX..          ",
"        ............................            ",
"                                                ",
"                                                ",
"                                                ",
"                                                "};
