/* XPM */
static char * network48x48_xpm[] = {
/* columns rows colors chars-per-pixel */
"48 48 3 1",
" 	c #100d02",
".	c #d09039",
"X	c #a7742e",
/* pixels */
"                                                ",
"                                                ",
"                                                ",
"                                                ",
"                                                ",
"                   ..........                   ",
"               ..................               ",
"            ........................            ",
"         ..............................         ",
"       ..................................       ",
"      ....................................      ",
"    ........................................    ",
"   ................          ................   ",
"  ..............                ..............  ",
" ............                      ............ ",
"...........                          ...........",
"..........         ..........         ..........",
"........        ................        ........",
".......       ....................       .......",
"......      ........................      ......",
" ....     ............................     .... ",
"         ..............................         ",
"        ................................        ",
"       .............        .............       ",
"       ..........              ..........       ",
"       .........                .........       ",
"       .......     XXXXXXXXXX     .......       ",
"        .....    XXXXXXXXXXXXXX    .....        ",
"          ..    XXXXXXXXXXXXXXXX    ..          ",
"               XXXXXXXXXXXXXXXXXX               ",
"              XXXXXXXXXXXXXXXXXXXX              ",
"              XXXXXXXXXXXXXXXXXXXX              ",
"              XXXXXXXXXXXXXXXXXXXX              ",
"              XXXXXXX      XXXXXXX              ",
"               XXXXX  XXXX  XXXXX               ",
"                XXX  XXXXXX  XXX                ",
"                    XXXXXXXX                    ",
"                    XXXXXXXX                    ",
"                    XXXXXXXX                    ",
"                    XXXXXXXX                    ",
"                    XXXXXXXX                    ",
"                     XXXXXX                     ",
"                      XXXX                      ",
"                                                ",
"                                                ",
"                                                ",
"                                                ",
"                                                "};
