/* XPM */
static char * pdf_utility_xpm[] = {
/* columns rows colors chars-per-pixel */
"48 48 3 1",
" 	c #6c4a1e",
".	c #be8434",
"X	c #100d02",
/* pixels */
"                                                ",
"                                                ",
"                                                ",
"                                                ",
"              ............................      ",
"              ..XXXXXXXXXXXXXXXXXXXXXXXX..      ",
"              .XXXXXXXXXXXXXXXXXXXXXXXXXX.      ",
"              .XXXXXXXXXXXXXXXXXXXXXXXXXX.      ",
"              .XXXXXXXXXXXXXXXXXXXXXXXXXX.      ",
"              .XXXXXXXXXXXXXXXXXXXXXXXXXX.      ",
"              .XXXXXXXXXXXXXXXXXXXXXXXXXX.      ",
"              .XXXXXXXXXXXXXXXXXXXXXXXXXX.      ",
"      .............................XXXXXX.      ",
"      .XXXXXXXXXXXXXXXXXXXXXXXXXXX.XXXXXX.      ",
"      XXXXXXXXXXXXXXXXXXXXXXXXXXXXXXXXXXX.      ",
"      XXXXXXXXXXXXXXXXXXXXXXXXXXXXXXXXXXX.      ",
"      XXXXXXXXXXXXXXXXXXXXXXXXXXXXXXXXXXX.      ",
"      XXXXXXXXXXXXXXXXXXXXXXXXXXXXXXXXXXX.      ",
"      XXXXXXXXXXX... XXXXXXXXXXXXXXXXXXXX.      ",
"      XXXXXXXXXXX  ..XXXXXXXXXXXXXXXXXXXX.      ",
"      XXXXXXXXXXX. ..XXXXXXXXXXXXXXXXXXXX.      ",
"      XXXXXXXXXXX... XXXXXXXXXXXXXXXXXXXX.      ",
"      XXXXXXXXXXX. ..XXXXXXXXXXXXXXXXXXXX.      ",
"      XXXXXXXXXXX...XXXXXXXXXXXXXXXXXXXXX.      ",
"      XXXXXXXXXXXX..XXXXXXXXXXXXXXXXXXXXX.      ",
"      XXXXXXXXXXXX ..XXXXXXXXXXXXXXXXXXXX.      ",
"      XXXXXXXXXXX.. .XXXXXXXXXXXXXXXXXXXX.      ",
"      XXXXXXXXXXX.....XXXXXXXXXXXXXXXXXXX.      ",
"      XXXXXXXXXX..XX...XXXXXXXXXXXXXXXXXX.      ",
"      XXXXXXXXXX. XXXX..XXXXXXXXXXXXXXXXX.      ",
"      XXXXXXXXX...XXX.....  .. XXXXXXXXXX.      ",
"      XXXXXXXX......... . .. ..XXXXXXXXXX.      ",
"      XXXXXXX.  .XXXXXXXXXX. .XXXXXXXXXXX.      ",
"      XXXXXX....XXXXXXXXXXXXXXXXXXXXXXXXX.      ",
"      XXXX.. .  XXXXXXXXXXXXXXXXXXXXXXXX..      ",
"      XXXX.....XXXXXXXXXXXXXXXXXXXXXXXX...      ",
"      XXX.  ..XXXXXXXXXXXXXXXXXXXX              ",
"      XXX... .XXXXXXXXXXXXXXXXXXXX              ",
"      XXXXXXXXXXXXXXXXXXXXXXXXXXXX              ",
"      XXXXXXXXXXXXXXXXXXXXXXXXXXXX              ",
"      XXXXXXXXXXXXXXXXXXXXXXXXXXXX              ",
"      XXXXXXXXXXXXXXXXXXXXXXXXXXXX              ",
"      .XXXXXXXXXXXXXXXXXXXXXXXXXX.              ",
"      ..XXXXXXXXXXXXXXXXXXXXXXXX..              ",
"                                                ",
"                                                ",
"                                                ",
"                                                "};
