/* XPM */
static char * symbproc48x48_xpm[] = {
"48 48 4 1",
" 	c None",
".	c #100d02",
"X	c #a7742e",
"o	c #d09039",
"                                                ",
"                                                ",
"                                                ",
"                                                ",
"                                                ",
"                                                ",
"                                                ",
"           ..................................   ",
"          .XXXXXXXXXXXXXXXXXXXXXXXXXXXXXXXX..   ",
"         .XXXXXXXXXXXXXXXXXXXXXXXXXXXXXXXX.X.   ",
"        .XXXXXXXXXXXXXXXXXXXXXXXXXXXXXXXX.XX.   ",
"       .XXXXXXXXXXXXXXXXXXXXXXXXXXXXXXXX.XXX.   ",
"      .XXXXXXXXXXXXXXXXXXXXXXXXXXXXXXXX.XXXX.   ",
"      .XXXXXXXXXXXXXXXXXXXXXXXXXXXXXXX.XXXXX.   ",
"      .X..............................XXXXXX.   ",
"      .X..............................XXXXXX.   ",
"      .X..............................XXXXXX.   ",
"      .X..............................XXXXXX.   ",
"      .X.........o....................XXXXXX.   ",
"      .X........oo....................XXXXXX.   ",
"      .X........oo....................XXXXXX.   ",
"      .X.......o..o...................XXXXXX.   ",
"      .X......o...o...................XXXXXX.   ",
"      .X......o...o...................XXXXXX.   ",
"      .X.....o.....o..................XXXXXX.   ",
"      .X.ooooo.....o.....ooooooooo....XXXXXX.   ",
"      .X............o....o............XXXXXX.   ",
"      .X.............o...o............XXXXXX.   ",
"      .X.............o..o.............XXXXXX.   ",
"      .X..............o.o.............XXXXXX.   ",
"      .X..............o.o.............XXXXXX.   ",
"      .X...............o..............XXXXXX.   ",
"      .X..............................XXXXX.    ",
"      .X..............................XXXX.     ",
"      .X..............................XXX.      ",
"      .X..............................XX.       ",
"      .XXXXXXXXXXXXXXXXXXXXXXXXXXXXXXXX.        ",
"      .................................         ",
"                                                ",
"                                                ",
"                                                ",
"                                                ",
"                                                ",
"                                                ",
"                                                ",
"                                                ",
"                                                ",
"                                                "};
