/* XPM */
static char * record_xpm[] = {
/* columns rows colors chars-per-pixel */
"48 48 3 1",
" 	c #100d02",
".	c #be8434",
"X	c #6c4a1e",
/* pixels */
"              .X.                               ",
"             ....                               ",
"          .........                             ",
"          .........                             ",
"         ..........                             ",
"       .............                            ",
"       .............                            ",
"      ..............  .                         ",
"      ..............  ..                        ",
"     ...............  ...                       ",
"     ...............  ....                      ",
"    ................  ....                      ",
"    ...............  ......                     ",
"    ...............  .......                    ",
"   ...............  .........                   ",
"   ...............  ..........                  ",
"   ...............  ...........                 ",
"   ..............   ............                ",
"   .............   ..............               ",
"   .............  ................              ",
"   .............  .................             ",
"   ............  ...................            ",
"   ...........   ....................           ",
"   ..........  ........................         ",
"    ........   .........................        ",
"     .....                      .........       ",
"                                       ...      ",
"                                         ..     ",
"                                          ..    ",
"                                           ..   ",
"                                           ..   ",
"                                           ..   ",
"                                           ..   ",
"                                           ..   ",
"        ................................   ..   ",
"        ................................  ..    ",
"        ................................ ...    ",
"        ...................................     ",
"        ..............    ................      ",
"        .............      .............        ",
"        .............      .............        ",
"        ..............    ..............        ",
"        ..............    ..............        ",
"        ................................        ",
"        ................................        ",
"        ................................        ",
"  ............................................  ",
"  ............................................  "};
