/* XPM */
static char * terminator_xpm[] = {
/* columns rows colors chars-per-pixel */
"48 48 4 1",
" 	c #100d02",
".	c #be8434",
"X	c black",
"o	c #6c4a1e",
/* pixels */
"                          . ....................",
"                             .X.................",
"                             .X.................",
"                             .XX................",
".                          . ..X................",
" .  .                       .  .X...............",
"    ..                    .   ..................",
"    .                             .      .      ",
"    .                             .      .      ",
".   .                                           ",
" .   .                                          ",
"     .                                          ",
" .   .                                    .     ",
" .  ..                             .     ...    ",
"     .                                   ....   ",
".    .                                 ......   ",
" .                                    .......   ",
"     .                                .......   ",
"     .                              .  ........ ",
"     .                           . .       .   .",
" .  .                       . .                .",
"                             .   .  ..    . .   ",
" .  .                             .....  . .   .",
"                                ......       ...",
"                                ......       ...",
"    .                             .....  .......",
".  .                            .  ..         ..",
".  .                            . .      ....   ",
"..  .                           ..    .  ...... ",
" . ...                          . ...        .  ",
" .                                ..   ..    . .",
"                                   ..     . .   ",
"    .                                . .. ...  .",
"                                     .   ..  .  ",
"    .                                 .   ..   .",
"                                    .       .  .",
"    ..                                .         ",
"     .                                          ",
"    .     .                                     ",
"    . .     .                                   ",
"    . .     .                                   ",
"    ..                                          ",
"      ...   .                         .   .     ",
"           .                             o      ",
"            . .                      .   o  .   ",
"       .....X..                .    .  .. .     ",
"      .........                           .     ",
"      .......                        ..  .      "};
