/* XPM */
static char * torrent_xpm[] = {
/* columns rows colors chars-per-pixel */
"48 48 4 1",
" 	c None",
".	c #be8434",
"X	c #6c461e",
"o	c #100d02",
/* pixels */
"    ........................................    ",
"  ............................................  ",
" .............................................. ",
" ...XXXXXXXXXXXXXXXXXXXXXXXXXXXXXXXXXXXXXXXX... ",
"...XXXXXXXXXXXXXXXXXXXXXXXXXXXXXXXXXXXXXXXXXX...",
"...XXXXXXXXXXXXXXXXXXXXXXXXXXXXXXXXXXXXXXXXXX...",
"...XXXXXXXXXXXoXXXXXXXXXXXXXXXXXXXXXXXXXXXXXX...",
"...XXXXXXXXXXoooXXXXXXXXXXXXXXXXXXXXXXXXXXXXX...",
"...XXXXXXXXXoooooXXXXXXXXXXXXXXXXXXXXXXXXXXXX...",
"...XXXXXXXXoooooooXXXXXXXXXXXXXXXXXXXXXXXXXXX...",
"...XXXXXXXoooooooooXXXXXXXXXXXXXXXXXXXXXXXXXX...",
"...XXXXXXoooooooooooXXXXXXXXXXXXXXXXXXXXXXXXX...",
"...XXXXXoooooooooooooXXXXXXXXXXXXXXXXXXXXXXXX...",
"...XXXXoooooooooooooooXXXXXXXXXXXXXXXXXXXXXXX...",
"...XXXoooooooooooooooooXXXXXXXXXXXXXXXXXXXXXX...",
"...XXoooooooooooooooooooXXXXXXXXXXXXXXXXXXXXX...",
"...XXXXXXXXooooooooXXXXXXXXXXXXXXXXXXXXXXXXXX...",
"...XXXXXXXXooooooooXXXXXXXXXXXXXXXXXXXXXXXXXX...",
"...XXXXXXXXooooooooXXXXXXXXXXXXXXXXXXXXXXXXXX...",
"...XXXXXXXXooooooooXXXXXXXXXXXXXXXXXXXXXXXXXX...",
"...XXXXXXXXooooooooXXXXXXXXXXXXXXXXXXXXXXXXXX...",
"...XXXXXXXXooooooooXXXXXXXXXXXXXXXXXXXXXXXXXX...",
"...XXXXXXXXooooooooXXXXXXXXXXXXXXXXXXXXXXXXXX...",
"...XXXXXXXXooooooooXXXXXXXXXXXXXXXXXXXXXXXXXX...",
"...XXXXXXXXXXXXXXXXXXXXXXXXXXXXXXXXXXXXXXXXXX...",
"...XXXXXXXXXXXXXXXXXXXXXXXXXXX.......XXXXXXXX...",
"...XXXXXXXXXXXXXXXXXXXXXXXXXXX.......XXXXXXXX...",
"...XXXXXXXXXXXXXXXXXXXXXXXXXXX.......XXXXXXXX...",
"...XXXXXXXXXXXXXXXXXXXXXXXXXXX.......XXXXXXXX...",
"...XXXXXXXXXXXXXXXXXXXXXXXXXXX.......XXXXXXXX...",
"...XXXXXXXXXXXXXXXXXXXXXXXXXXX.......XXXXXXXX...",
"...XXXXXXXXXXXXXXXXXXXXXXXXXXX.......XXXXXXXX...",
"...XXXXXXXXXXXXXXXXXXXXXXXXXXX.......XXXXXXXX...",
"...XXXXXXXXXXXXXXXXXXXXXX.................XXX...",
"...XXXXXXXXXXXXXXXXXXXXXXX...............XXXX...",
"...XXXXXXXXXXXXXXXXXXXXXXXX.............XXXXX...",
"...XXXXXXXXXXXXXXXXXXXXXXXXX...........XXXXXX...",
"...XXXXXXXXXXXXXXXXXXXXXXXXXX.........XXXXXXX...",
"...XXXXXXXXXXXXXXXXXXXXXXXXXXX.......XXXXXXXX...",
"...XXXXXXXXXXXXXXXXXXXXXXXXXXXX.....XXXXXXXXX...",
"...XXXXXXXXXXXXXXXXXXXXXXXXXXXXX...XXXXXXXXXX...",
"...XXXXXXXXXXXXXXXXXXXXXXXXXXXXXX.XXXXXXXXXXX...",
"...XXXXXXXXXXXXXXXXXXXXXXXXXXXXXXXXXXXXXXXXXX...",
"...XXXXXXXXXXXXXXXXXXXXXXXXXXXXXXXXXXXXXXXXXX...",
" ...XXXXXXXXXXXXXXXXXXXXXXXXXXXXXXXXXXXXXXXX... ",
" .............................................. ",
"  ............................................  ",
"    ........................................    "};
