/* XPM */
static char * vol_xpm[] = {
/* columns rows colors chars-per-pixel */
"48 48 4 1",
" 	c None",
".	c black",
"X	c #be8434",
"o	c #100d02",
/* pixels */
"                                                ",
"                                                ",
"                                                ",
"                                                ",
"                                                ",
"                                                ",
"      ....................................      ",
"      .XXXXXXXXXXXXXXXXXXXXXXXXXXXXXXXXXX.      ",
"      .XXXXXXXXXXXXXXXXXXXXXXXXXXXXXXXXXX.      ",
"      .XXXooooXXXXooooXXXXXooooXXXXooooXX.      ",
"      .XXXoXXoXXXXoXXoXXXXXoXXoXXXXoXXoXX.      ",
"      .XXXoXXoXXXXoXXoXXXXXoXXoXXXXoXXoXX.      ",
"      .XXXooooXXXXoXXoXXXXXooooXXXXooooXX.      ",
"      .XXXooooXXXXoXXoXXXXXooooXXXXooooXX.      ",
"      .XXXooooXXXXoXXoXXXXXooooXXXXooooXX.      ",
"      .XXXooooXXXXoXXoXXXXXooooXXXXooooXX.      ",
"      .XXXooooXXXXoXXoXXXXXooooXXXXooooXX.      ",
"      .XXXooooXXXXoXXoXXXXXooooXXXXooooXX.      ",
"      .XXXooooXXXXooooXXXXXoXXoXXXXoXXoXX.      ",
"      .XXXoXXoXXXXooooXXXXXoXXoXXXXoXXoXX.      ",
"      .XXXoXXoXXXXooooXXXXXoXXoXXXXoXXoXX.      ",
"      .XXXoXXoXXXXooooXXXXXoXXoXXXXoXXoXX.      ",
"      .XXXoXXoXXXXooooXXXXXoXXoXXXXoXXoXX.      ",
"      .XXXoXXoXXXXooooXXXXXoXXoXXXXoXXoXX.      ",
"      .XXXoXXoXXXXooooXXXXXoXXoXXXXoXXoXX.      ",
"      .XXXoXXoXXXXooooXXXXXoXXoXXXXoXXoXX.      ",
"      .XXXoXXoXXXXoXXoXXXXXoXXoXXXXoXXoXX.      ",
"      .XXXoXXoXXXXoXXoXXXXXoXXoXXXXoXXoXX.      ",
"      .XXXooooXXXXoXXoXXXXXooooXXXXooooXX.      ",
"      .XXXooooXXXXoXXoXXXXXooooXXXXooooXX.      ",
"      .XXXooooXXXXoXXoXXXXXooooXXXXooooXX.      ",
"      .XXXooooXXXXoXXoXXXXXooooXXXXooooXX.      ",
"      .XXXooooXXXXooooXXXXXooooXXXXooooXX.      ",
"      .XXXooooXXXXooooXXXXXooooXXXXooooXX.      ",
"      .XXXooooXXXXooooXXXXXooooXXXXooooXX.      ",
"      .XXXooooXXXXooooXXXXXooooXXXXooooXX.      ",
"      .XXXooooXXXXooooXXXXXooooXXXXooooXX.      ",
"      .XXXXXXXXXXXXXXXXXXXXXXXXXXXXXXXXXX.      ",
"      .XoooooooXXooooooXXXooooooXXooooooX.      ",
"      .XoXoXoXoXXooXoXoXXXoXoXXoXXoXooXoX.      ",
"      .XoooooooXXooooooXXXooooooXXooooooX.      ",
"      .XXXXXXXXXXXXXXXXXXXXXXXXXXXXXXXXXX.      ",
"      oooooooooooooooooooooooooooooooooooo      ",
"                                                ",
"                                                ",
"                                                ",
"                                                ",
"                                                "};
