/* XPM */
static char *accessories_text_editor[] = {
/* columns rows colors chars-per-pixel */
"24 24 45 1 ",
"  c #C2352A",
". c #D83B2F",
"X c #E73F33",
"o c #EC4034",
"O c #EE4134",
"+ c #F04134",
"@ c #F14135",
"# c #F24234",
"$ c #F24235",
"% c #F34235",
"& c #F24539",
"* c #F34639",
"= c #F0473A",
"- c #F1493C",
"; c #F2493D",
": c #F34A3E",
"> c #F34B3E",
", c #EC4F44",
"< c #EF5246",
"1 c #F45246",
"2 c #F25549",
"3 c #F45549",
"4 c #F56359",
"5 c #E0766E",
"6 c #EE847C",
"7 c #F0867E",
"8 c #F0867F",
"9 c #CE9D9A",
"0 c #D2BCBA",
"q c #EEBCB9",
"w c gray87",
"e c #FCCECB",
"r c #FCCFCC",
"t c #ECD6D4",
"y c #FDDEDC",
"u c #FDDFDD",
"i c #FDE1DF",
"p c gray88",
"a c gray89",
"s c gray90",
"d c gray92",
"f c gray93",
"g c #EEEEEE",
"h c white",
"j c None",
/* pixels */
"jjjjjjjjjjjjjjjjjjjjjjjj",
"jjjjjjjjjjjjjjjjjjjjjjjj",
"jjjjffffffffffffffffjjjj",
"jjjjpppppppppppppppajjjj",
"jjjjppppppppppppppppjjjj",
"jjjjppppppppppppppppjjjj",
"jjjjppppppppppppppppjjjj",
"jjjjppppppppppppppppjjjj",
"jjjjppppppppppppppppjjjj",
"jjjjppppppppppppppppjjjj",
"jjjjppppppppppppppppjjjj",
"jjjjppppppppppppppppjjjj",
"jjjjddddddddft82&26tjjjj",
"jjjjddddddddq>%%%%%>jjjj",
"jjjjdddddddt;%%%%%%%%jjj",
"jjjjddddddd6%%%%1e4%%%jj",
"jjjjddddddd<%%%1uhe%%Ojj",
"jjjjddddddd&%%1uhi3%%%jj",
"jjjjddddddd,%%uhu1%%%Ojj",
"jjjjddddddd5%%hi3%%%%.jj",
"jjjjddddddd0-%%%%%%%Ojjj",
"jjjjwdddddds9;%%%%%&jjjj",
"jjjjjjjjjjjjjj X%o jjjjj",
"jjjjjjjjjjjjjjjjjjjjjjjj"
};
