/* XPM */
static char *accessories_calculator[] = {
/* columns rows colors chars-per-pixel */
"24 24 63 1 ",
"  c #057D56",
". c #057F58",
"X c gray35",
"o c #5A5A5A",
"O c #585E5C",
"+ c #646464",
"@ c #656766",
"# c gray40",
"$ c #636967",
"% c DimGray",
"& c #6A6A6A",
"* c #259A75",
"= c #279A75",
"- c #1DA97C",
"; c #1EA87C",
": c #06B97F",
"> c #2EA27D",
", c #30A17D",
"< c #438D75",
"1 c #438E75",
"2 c #06B980",
"3 c #06BF82",
"4 c #1DB685",
"5 c #23AF82",
"6 c #24AF82",
"7 c #519E85",
"8 c #738982",
"9 c #7D938C",
"0 c #47A687",
"q c #57A48B",
"w c #07CA8B",
"e c #07CE8E",
"r c #0BC98C",
"t c #08CC8D",
"y c #08CD8D",
"u c #09CE8F",
"i c #0ACF8F",
"p c #0BCF90",
"a c #898989",
"s c #8B8B8B",
"d c gray55",
"f c #8E8E8E",
"g c gray56",
"h c #939393",
"j c gray61",
"k c #A4A4A4",
"l c gray65",
"z c #A7A7A7",
"x c gray67",
"c c #ACACAC",
"v c #AFAFAF",
"b c gray86",
"n c gray87",
"m c #E2E2E2",
"M c gray89",
"N c #E4E4E4",
"B c #EAEAEA",
"V c gray92",
"C c #F9FEFC",
"Z c #FAFEFD",
"A c #FBFEFD",
"S c #FCFEFE",
"D c None",
/* pixels */
"DDDDDDDDDDDDDDDDDDDDDDDD",
"DDDDDDDDDDDDDDDDDDDDDDDD",
"DDDvvvvvvvvv%%%%%%%%%DDD",
"DDxzzzkzzzzzXXXXXXXXo+DD",
"DDzzzkzzzkkzXXXXXXXXXXDD",
"DDkzzzzBzzzzXXXXXXXXXXDD",
"DDzzkzzBkzzzXXXXXXXXXXDD",
"DDzzzBBBBBzzXXXBVVVXXXDD",
"DDkzkzzVzzzkXXXXXXXXXXDD",
"DDzzzzzBkzzkXXXXXXXXXXDD",
"DDzkzkzzzzzzXXXXXXXXXXDD",
"DDzkzzzzzkkzXXXXXXXXXXDD",
"DDdddddddddd++14rr41@+DD",
"DDdddddddddd$5eeeeee6$DD",
"DDddddddgddd>eeeeeeey,DD",
"DDdddbzjnhd9yeeiiieepyDD",
"DDdddzmmxssqeeeSSSAeeeDD",
"DDdddjmmzdd0eeepppyeeewD",
"DDdddnvkmhs7eeeAAAAeeeDD",
"DDdddhsshds8yeeeeeeeeyDD",
"DDddddddddds*wwweeeee*DD",
"DDDdddddddddX-wweeee-DDD",
"DDDDDDDDDDDDDD*:ww: DDDD",
"DDDDDDDDDDDDDDDDDDDDDDDD"
};
