/* XPM */
static char *blender[] = {
/* columns rows colors chars-per-pixel */
"24 24 63 1 ",
"  c #CB6423",
". c #D26824",
"X c #E16F26",
"o c #E07027",
"O c #E37027",
"+ c #E97328",
"@ c #EA7328",
"# c #EA7429",
"$ c #F07729",
"% c #F17729",
"& c #F27729",
"* c #F0762A",
"= c #F1762A",
"- c #F0772C",
"; c #F27829",
": c #F4782A",
"> c #F5782A",
", c #F5792A",
"< c #F5792B",
"1 c #F57A2B",
"2 c #F27B2E",
"3 c #F47A2C",
"4 c #F57A2C",
"5 c #F57B2D",
"6 c #F57C2E",
"7 c #ED7B33",
"8 c #EC7C35",
"9 c #F57E32",
"0 c #F47F34",
"q c #F58338",
"w c #F58339",
"e c #F68339",
"r c #F5833A",
"t c #F6833B",
"y c #F5843B",
"u c #F6843B",
"i c #F5843C",
"p c #F6873D",
"a c #F6863E",
"s c #F6863F",
"d c #0D528A",
"f c #17598F",
"g c #185A90",
"h c #195B90",
"j c #4D7FA9",
"k c #4E80A9",
"l c #4E81AA",
"z c #4F81AA",
"x c #FABC94",
"c c #FABC95",
"v c #FABD96",
"b c #FABD97",
"n c #FDE1CF",
"m c #FDE2D0",
"M c #FEECE0",
"N c #FEECE1",
"B c #FEEDE2",
"V c #E2EAF1",
"C c #E3EBF1",
"Z c #FFFBF9",
"A c #FFFCFA",
"S c white",
"D c None",
/* pixels */
"DDDDDDDDDDDDDDDDDDDDDDDD",
"DDDDDDDDDDspDDDDDDDDDDDD",
"DDDDDDDDD855tDDDDDDDDDDD",
"DDDDDDDDDD;<5tDDDDDDDDDD",
"DDDDDDDDDDD;<<tDDDDDDDDD",
"DDDDDDDDDDDD$<<tDDDDDDDD",
"DDDDDDDDDDDDD$<<uDDDDDDD",
"DDppssssssppu<<<<tDDDDDD",
"DD0<,,<<<<,,,,,,,<qDDDDD",
"DD.<,<<<<<<<,,,,,<<qDDDD",
"DDDDDDDD<<<9vBZBv9<<pDDD",
"DDDDDDDt<<9nSSSSSn9<5DDD",
"DDDDDDu<<<vSVjfkCSv<<7DD",
"DDDDDu5<<<BSjdddkSB<<2DD",
"DDDDu<,<,,ZSgdddhSZ1<<DD",
"DDDu<,%%,,BSkdddzSm11#DD",
"DDu<<;DO,,xSVkgkCSx<<ODD",
"Dt<<;DDD<<9nSSSSSn6,<DDD",
"D-<;DDDD@<<9vmSBv9<,#DDD",
"DD DDDDDD%<<<<5<<<<%DDDD",
"DDDDDDDDDD#<<<<<<<+DDDDD",
"DDDDDDDDDDDDX$<$ODDDDDDD",
"DDDDDDDDDDDDDDDDDDDDDDDD",
"DDDDDDDDDDDDDDDDDDDDDDDD"
};
