/* XPM */
static char *chromium_browser[] = {
/* columns rows colors chars-per-pixel */
"24 24 130 2 ",
"   c #577DA4",
".  c #587DA4",
"X  c #587EA5",
"o  c #5A81AA",
"O  c #5A82AA",
"+  c #5B83AC",
"@  c #5E87B1",
"#  c #5F89B4",
"$  c #5F8BB4",
"%  c #5F8AB5",
"&  c #608AB5",
"*  c #608BB5",
"=  c #618AB6",
"-  c #638CB6",
";  c #648CB4",
":  c #6992BA",
">  c #6F99C1",
",  c #779FD3",
"<  c #77A3CD",
"1  c #78A3CA",
"2  c #79A3CB",
"3  c #7AA3CB",
"4  c #79A4CA",
"5  c #7AA4CB",
"6  c #79A4CC",
"7  c #7AA5CD",
"8  c #7AA6CD",
"9  c #79A0D4",
"0  c #7AA1D4",
"q  c #7DA9D2",
"w  c #7EAAD3",
"e  c #7EABD3",
"r  c #7DAAD4",
"t  c #7EABD4",
"y  c #89A6C4",
"u  c #8AA9C9",
"i  c #8CAECD",
"p  c #81AED8",
"a  c #80AED9",
"s  c #8DAFDA",
"d  c #8EAFDA",
"f  c #82B1DA",
"g  c #82B0DB",
"h  c #83B1DC",
"j  c #83B2DC",
"k  c #84B2DC",
"l  c #84B3DD",
"z  c #84B2DE",
"x  c #84B3DE",
"c  c #85B3DE",
"v  c #85B3DF",
"b  c #85B4DF",
"n  c #88B1DA",
"m  c #8FB0DB",
"M  c #9AB8D3",
"N  c #91B1DB",
"B  c #92B2DC",
"V  c #93B3DC",
"C  c #94B3DC",
"Z  c #9EBFDB",
"A  c #93BCE2",
"S  c #ADC2D9",
"D  c #B8C8D8",
"F  c #B9C9D8",
"G  c #B9C9D9",
"H  c #B9CAD9",
"J  c #B9CBDA",
"K  c #BACBDA",
"L  c #BBCBDA",
"P  c #BBCCDB",
"I  c #B9CBDC",
"U  c #BDCDDD",
"Y  c #BECEDD",
"T  c #BCCEDF",
"R  c #A4C4E2",
"E  c #A1C5E6",
"W  c #B0CCE7",
"Q  c #BED1E1",
"!  c #BAD4EB",
"~  c #BED5E8",
"^  c #C0D1E1",
"/  c #C1D2E2",
"(  c #C7D4E2",
")  c #C3D4E4",
"_  c #C2D4E5",
"`  c #C3D5E5",
"'  c #C4D6E6",
"]  c #C5D7E9",
"[  c #C7D8E8",
"{  c #C7D9E9",
"}  c #C2D9EF",
"|  c #C9DBEB",
" . c #C9DCEC",
".. c #C9DCED",
"X. c #CADCEC",
"o. c #CBDCED",
"O. c #C8DCEE",
"+. c #CBDDEE",
"@. c #CCDEEF",
"#. c #CDDEEF",
"$. c #D1DEEA",
"%. c #D5DFE8",
"&. c #CDDEF0",
"*. c #CDDFF0",
"=. c #D3E0EC",
"-. c #D6E3EF",
";. c #DFE5EB",
":. c #DFE7EE",
">. c #CCE0F0",
",. c #D7E6F4",
"<. c #D8E3F3",
"1. c #DAE5F3",
"2. c #DBE5F3",
"3. c #DDE7F4",
"4. c #DDE8F4",
"5. c #DEE8F4",
"6. c #DFE8F5",
"7. c #E4E9EF",
"8. c #E2EBF2",
"9. c #E5EDF4",
"0. c #E6EDF5",
"q. c #ECF3F9",
"w. c #EEF5F9",
"e. c #F1F5F8",
"r. c #F1F4FA",
"t. c #F0F5FA",
"y. c #F1F5FA",
"u. c #F2F7FB",
"i. c #F5F9FD",
"p. c None",
/* pixels */
"p.p.p.p.p.p.p.p.p.p.p.p.p.p.p.p.p.p.p.p.p.p.p.p.",
"p.p.p.p.p.p.p.p.p.% % & & & & p.p.p.p.p.p.p.p.p.",
"p.p.p.p.p.p.% $ & & & & & & & & & % p.p.p.p.p.p.",
"p.p.p.p.p.% & & & & & & & & & & & & & p.p.p.p.p.",
"p.p.p.p.% & & & & & & & & & & & & & & % p.p.p.p.",
"p.p.p.& & & & & & & & & & & & & % % & & & p.p.p.",
"p.p.a - & & & & & & & & & & & & % % % % & p.p.p.",
"p.p.v < + % & & & u $.0.0.%.G I Q Q ) [ X.#.p.p.",
"p.p.b b ; o @ & S <.s , , s 1.7.^ ' | X.*.*.p.p.",
"p.b b b r X o y 1.9 , , , , , 1.$.#.#.*.*.*.*.p.",
"p.b b b b :   7.m , , , , , , N w.>.*.*.*.*.>.p.",
"p.b b b b g   r., , , , , , , , r.*.*.*.*.*.*.p.",
"p.k b b b b > r., , , , , , , , u.>.*.*.*.*.X.p.",
"p.g b b b b v ;.B , , , , , , B i.#.*.*.*.>.X.p.",
"p.e b b b b b R 3.9 , , , , 9 5.<.#.*.*.*.*.' p.",
"p.p.b b b b b b } 5.C , , B 8.( *.*.*.*.*.*.p.p.",
"p.p.e b b b b b b E ,.q.w.8.M ~ *.*.*.*.*.) p.p.",
"p.p.3 g b b b b b b b b g e Z *.*.*.#.#.| Y p.p.",
"p.p.p.7 j b b b b b b b b k ..*.*.*.*.#.Y p.p.p.",
"p.p.p.p.7 g b b b b b b b W #.*.*.*.| P p.p.p.p.",
"p.p.p.p.p.5 r b v v b b A *.*.*.X.) G p.p.p.p.p.",
"p.p.p.p.p.p.5 5 e p g l ! X.[ ^ P P p.p.p.p.p.p.",
"p.p.p.p.p.p.p.p.p.5 3 i D G G p.p.p.p.p.p.p.p.p.",
"p.p.p.p.p.p.p.p.p.p.p.p.p.p.p.p.p.p.p.p.p.p.p.p."
};
