/* XPM */
static char *filezilla[] = {
/* columns rows colors chars-per-pixel */
"24 24 76 1 ",
"  c #A32D23",
". c #A52D25",
"X c #A62D25",
"o c #A72E24",
"O c #AF3026",
"+ c #B93328",
"@ c #B93229",
"# c #BB3329",
"$ c #C0342A",
"% c #C0352A",
"& c #C2352A",
"* c #C2362B",
"= c #C2372C",
"- c #C3372D",
"; c #C3382D",
": c #C43C32",
"> c #C43D32",
", c #C53C33",
"< c #C53E33",
"1 c #C53F34",
"2 c #C7453B",
"3 c #C8473E",
"4 c #C7483D",
"5 c #C8493E",
"6 c #C8493F",
"7 c #C84940",
"8 c #C84A40",
"9 c #C94C42",
"0 c #CB534A",
"q c #CC574E",
"w c #CF6057",
"e c #D1685F",
"r c #D26860",
"t c #D5736B",
"y c #D6776F",
"u c #D67870",
"i c #D77B74",
"p c #D9837C",
"a c #DA867F",
"s c #DB8780",
"d c #DD8F88",
"f c #DE908A",
"g c #E09792",
"h c #E3A19C",
"j c #E4A5A1",
"k c #E5A8A3",
"l c #E8B2AE",
"z c #E8B3AF",
"x c #E9B8B4",
"c c #EBBDBA",
"v c #EDC3C0",
"b c #EDC4C0",
"n c #EEC5C2",
"m c #EEC8C5",
"M c #F0CECB",
"N c #F1CFCD",
"B c #F2D5D3",
"V c #F3D8D6",
"C c #F4D9D7",
"Z c #F4DCDA",
"A c #F6E0DE",
"S c #F6E2E1",
"D c #F7E4E3",
"F c #F7E5E3",
"G c #F8E8E7",
"H c #FAEEED",
"J c #FBF2F1",
"K c #FBF3F2",
"L c #FCF5F5",
"P c #FDF7F7",
"I c #FDF8F7",
"U c #FDF9F8",
"Y c #FFFDFD",
"T c #FFFEFE",
"R c white",
"E c None",
/* pixels */
"EEEEEEEEEEEEEEEEEEEEEEEE",
"EE88855885855885588583EE",
"E5<=&&&&&&&&&&&&&&&&=15E",
"E,&&&&&&&&&&&&&&&&&&&&,E",
"E=&&&&&&&&&&&&&&&&&&&&=E",
"E&&&&&&&&&&&&&&&&&&&&&&E",
"E&&&&&&&nRRRRRRH&&&&&&&E",
"E&&&&&&=JRDDDDDz&&&&&&&E",
"E&&&&&&qRV&&&&&&&&&&&&&E",
"E&&&&&&sRj&&&&&&&&&&&&&E",
"E&&&&&&zRPJJJJJJJF=&&&&E",
"E&&&&&&ZRJJJJJPRRv&&&&&E",
"E&&&&&2RP;&&&qGRC8&&&&&E",
"E&&&&&tRm&&&eKRc<&&&&&&E",
"E&&&&&hRg&&yIRj;&&&&&&&E",
"E&&&&&MRe&dRRDs0wp&&&&&E",
"E&&&&=NB<tRRRRRRRZ&&&&&E",
"E&&&&&&&&=xxidvDmy&&&&&E",
"E&&&&&&&&&&&&&&&&&&&&&&E",
"E&&&&&&&&&&&&&&&&&&&&&&E",
"E+&&&&&&&&&&&&&&&&&&&&+E",
"E.+&&&&&&&&&&&&&&&&&#+oE",
"EE.OOOOOOOOOOOOOOOOOO.EE",
"EEEEEEEEEEEEEEEEEEEEEEEE"
};
