/* XPM */
static char *firefox[] = {
/* columns rows colors chars-per-pixel */
"24 24 184 2 ",
"   c #BC6D33",
".  c #BD6D33",
"X  c #BE6E33",
"o  c #BE6E34",
"O  c #BF6E34",
"+  c #C06E33",
"@  c #C06E34",
"#  c #C06F34",
"$  c #C16E35",
"%  c #C06F36",
"&  c #C17135",
"*  c #C27034",
"=  c #C37035",
"-  c #C57135",
";  c #C47235",
":  c #C47136",
">  c #CC7639",
",  c #CF7738",
"<  c #D37A39",
"1  c #D37A3A",
"2  c #D47A39",
"3  c #D67B39",
"4  c #D47A3A",
"5  c #D57C3C",
"6  c #D87D3A",
"7  c #D87D3B",
"8  c #DC7F3C",
"9  c #DD7F3C",
"0  c #A57A5A",
"q  c #817B72",
"w  c #837E77",
"e  c #C67C45",
"r  c #E1823D",
"t  c #E2823D",
"y  c #E3833D",
"u  c #E3843F",
"i  c #E6843E",
"p  c #E6853E",
"a  c #E9863F",
"s  c #BC8154",
"d  c #BE8459",
"f  c #94816E",
"g  c #99826F",
"h  c #908171",
"j  c #A48369",
"k  c #A6886F",
"l  c #B08C6F",
"z  c #A78971",
"x  c #B18D73",
"c  c #BD9B7E",
"v  c #CA824E",
"b  c #D9864B",
"n  c #DE8B4F",
"m  c #DF8E52",
"M  c #D98D57",
"N  c #E08545",
"B  c #E88741",
"V  c #EB8740",
"C  c #EB8841",
"Z  c #EC8840",
"A  c #EC8942",
"S  c #EC8A43",
"D  c #EC8A44",
"F  c #EC8B44",
"G  c #ED8B45",
"H  c #EC8C46",
"J  c #ED8C47",
"K  c #ED8D47",
"L  c #EA8C4A",
"P  c #EC8D48",
"I  c #ED8E4A",
"U  c #EC8F4B",
"Y  c #ED8F4B",
"T  c #ED904D",
"R  c #ED914E",
"E  c #E48F50",
"W  c #E28F54",
"Q  c #EC9151",
"!  c #ED9251",
"~  c #ED9353",
"^  c #EE9352",
"/  c #EE9353",
"(  c #ED9454",
")  c #EE9554",
"_  c #EE9456",
"`  c #EE9656",
"'  c #EF995B",
"]  c #EF9A5C",
"[  c #C28A60",
"{  c #C88D60",
"}  c #CE9366",
"|  c #C49068",
" . c #C59068",
".. c #DB9662",
"X. c #D5996C",
"o. c #C39979",
"O. c #E29B67",
"+. c #EE9C60",
"@. c #EF9D62",
"#. c #EF9E64",
"$. c #EE9F65",
"%. c #EC9F66",
"&. c #ED9F66",
"*. c #F09E63",
"=. c #6C7F86",
"-. c #3B88B6",
";. c #3B88B7",
":. c #3C8AB8",
">. c #3D8AB8",
",. c #3E8BB9",
"<. c #3C8BBA",
"1. c #3D8DBD",
"2. c #3D8EBD",
"3. c #3E8EBE",
"4. c #74909E",
"5. c #4B87AC",
"6. c #538BAA",
"7. c #578BA9",
"8. c #4188B4",
"9. c #448DB9",
"0. c #468EBB",
"q. c #428FBD",
"w. c #4C90B8",
"e. c #5290B3",
"r. c #7D97A2",
"t. c #7D9EAD",
"y. c #659EBB",
"u. c #619CBF",
"i. c #70A2BC",
"p. c #3F91C2",
"a. c #4196C8",
"s. c #4196C9",
"d. c #4297C9",
"f. c #4297CA",
"g. c #4298CB",
"h. c #4398CB",
"j. c #4499CD",
"k. c #499ACB",
"l. c #4D9CCB",
"z. c #519ECD",
"x. c #529FCC",
"c. c #459DD2",
"v. c #459FD4",
"b. c #46A1D7",
"n. c #47A2D9",
"m. c #47A3DA",
"M. c #47A4DB",
"N. c #48A6DD",
"B. c #49A7DE",
"V. c #48A7DF",
"C. c #4DA7DC",
"Z. c #4AA8DF",
"A. c #4DA8DF",
"S. c #52A2D0",
"D. c #54A1D1",
"F. c #55A3D2",
"G. c #55A4D4",
"H. c #5AA5D1",
"J. c #5AA5D3",
"K. c #67A6C9",
"L. c #65A7CD",
"P. c #62A7D0",
"I. c #49A9E2",
"U. c #4AA9E2",
"Y. c #4AAAE3",
"T. c #57B0E5",
"R. c #5DB1E2",
"E. c #67B4E2",
"W. c #68B7E7",
"Q. c #8B908E",
"!. c #8E928F",
"~. c #9A938A",
"^. c #9B978F",
"/. c #959893",
"(. c #959A97",
"). c #9B9C97",
"_. c #B39C87",
"`. c #A69D90",
"'. c #BFA289",
"]. c #B2A191",
"[. c #8EA3AC",
"{. c #80A5B8",
"}. c #C4A183",
"|. c None",
/* pixels */
"|.|.|.|.|.|.|.|.|.|.|.|.|.|.|.|.|.|.|.|.|.|.|.|.",
"|.|.|.|.|.|.|.|.|.|.|.|.|.|.|.|.|.|.|.|.|.|.|.|.",
"|.|.|.|.|.|.|.|.|.W.E.>.:.q.x.D.|.|.|.|.|.|.|.|.",
"|.|.|.|.|.|.S.x.R.T.A.h.3.:.D.t.c }.|.|.|.|.|.|.",
"|.|.|.' |.l.9.j.4.r.V.Y.Y.a.V.H.j b ] %.|.|.|.|.",
"|.|./ I ).!.~._.} k.m.Y.Y.Y.Y.m.5.h > ( #.|.|.|.",
"|.|.K Z ` ` ` R k a.Y.Y.Y.Y.Y.c.p.>.=.5 R |.|.|.",
"|.|.K a Z Z a a R /.u.A.Y.Y.Y.Y.b.3.>.f Z ` |.|.",
"|.|.I Z Z Z Z Z Z Q d H.Y.Y.Y.Y.Y.Y.9.x C F |.|.",
"|.E a Z Z Z Z Z a s e.Y.Y.Y.Y.Y.Y.Y.N.M Z a / |.",
"|.N Z Z Z Z Z i 3 g >.c.Y.Y.Y.Y.Y.Y.Y. .Z Z ! |.",
"|.I Z Z Z Z Z v q w -.a.Y.Y.Y.Y.Y.Y.K. .Z Z Z |.",
"|.L Z Z Z Z Z [ 8.-.-.a.Y.Y.Y.Y.Y.m.`.m a C V |.",
"|.u Z Z Z Z Z I o.w.0.[.].i.Y.Y.a.-.l C Z C y |.",
"|.7 Z Z Z Z Z Z I %.%.W e z Y.a.-.-.{ Z Z Z 7 |.",
"|.|.a Z Z Z Z Z V 3 % 0 y.V.:.-.7.!.I Z Z a |.|.",
"|.|.3 Z Z Z Z Z Z ).G.T.Y.Y.3.6.X...Z Z Z 3 |.|.",
"|.|.; y Z Z Z Z Z ) }.i.P.L./.O.K G a a i ; |.|.",
"|.|.|.; i V Z Z Z Z R ] #.*.` G a Z Z a ; |.|.|.",
"|.|.|.|.; y Z Z Z Z a Z a Z a Z a Z i ; |.|.|.|.",
"|.|.|.|.|.O 3 V a a Z Z Z Z Z Z a 3 % |.|.|.|.|.",
"|.|.|.|.|.|.% . , 9 a a V i 9 , O & |.|.|.|.|.|.",
"|.|.|.|.|.|.|.|.|.% . . . . % |.|.|.|.|.|.|.|.|.",
"|.|.|.|.|.|.|.|.|.|.|.|.|.|.|.|.|.|.|.|.|.|.|.|."
};
