/* XPM */
static char *gimp[] = {
/* columns rows colors chars-per-pixel */
"24 24 83 1 ",
"  c #F34235",
". c #F34A3E",
"X c #F25044",
"o c #F07168",
"O c #4BAE4F",
"+ c #4CAE50",
"@ c #5CB560",
"# c #64B868",
"$ c #7BC07D",
"% c #FEC006",
"& c #FEC10A",
"* c #FDC10C",
"= c #FCC520",
"- c #FBC82D",
"; c #F9CB3F",
": c #F0877F",
"> c #F8CD4B",
", c #F6D264",
"< c #F6D367",
"1 c #2095F2",
"2 c #2296F2",
"3 c #2397F2",
"4 c #4CA8F1",
"5 c #54ABF0",
"6 c #6DB5EF",
"7 c #AFAFAF",
"8 c #BCBCBC",
"9 c #F09089",
"0 c #EEA7A1",
"q c #EEACA7",
"w c #82C385",
"e c #9DCD9F",
"r c #9FCEA0",
"t c #9FCEA1",
"y c #A7D1A9",
"u c #F3DA91",
"i c #F2DC9B",
"p c #81BEEF",
"a c #8CC3EE",
"s c #9FCBED",
"d c #9CCAEE",
"f c #BFD8EC",
"g c #C1C1C1",
"h c gray76",
"j c gray83",
"k c gray84",
"l c #D7D7D7",
"z c #DADADA",
"x c gainsboro",
"c c #ECC5C3",
"v c #EDCBC8",
"b c #ECD0CE",
"n c #ECD3D1",
"m c #ECDEDD",
"M c #D4E2D4",
"N c #D6E3D7",
"B c #EDE6D2",
"V c #EDE7D7",
"C c #ECE8DD",
"Z c #ECE9DF",
"A c #CDDEEC",
"S c #DCE5EB",
"D c gray88",
"F c #E1E1E1",
"G c #E2E2E2",
"H c gray89",
"J c #E1E7E1",
"K c #E4E4E4",
"L c gray90",
"P c #E6E6E6",
"I c #EBE4E3",
"U c #E3E8E3",
"Y c #E7E9EB",
"T c gray91",
"R c #E9E9E9",
"E c #EBE9E9",
"W c #EBEAE9",
"Q c #E8EAEB",
"! c #EAEAEA",
"~ c #EBEAEA",
"^ c #EAEBEB",
"/ c gray92",
"( c None",
/* pixels */
"((((((((((((((((((((((((",
"(((((((((//////(((((((((",
"(((((((W//////////((((((",
"(((((WWW//////NN///(((((",
"((((!/WB<<V//y++r///((((",
"(((!//W>%%>//#OO@///W(((",
"(((////=%%-//wOO$////!((",
"((!!///u&&i//UreU/////((",
"((//////CC////////AAYYI(",
"(H///nI//////////611s/W(",
"(P/!o Xb////////!1115//(",
"(!/v   9/////////4116/W(",
"(!!m.  q/////////SadQ/x(",
"(P!!c:0/////////////Q!((",
"(z!////////////////!/z((",
"((/////////////////!l(((",
"((!!!/////////!DPDl(((((",
"((h//////////8((((((((((",
"(((D////////!(((((((((((",
"((((P///////!(((((((((((",
"(((((D!/////!!((((((((((",
"((((((h!/!///D((((((((((",
"((((((((7lD!P(((((((((((",
"(((((((((((((((((((((((("
};
