/* XPM */
static char *gnome_weather[] = {
/* columns rows colors chars-per-pixel */
"24 24 45 1 ",
"  c #FDCD37",
". c #FDCD38",
"X c #FDCD39",
"o c #FECD38",
"O c #FECD39",
"+ c #FECD3A",
"@ c #FECF3E",
"# c #FED03E",
"$ c #FED042",
"% c #FED145",
"& c #FED244",
"* c #FED148",
"= c #FED149",
"- c #FBD04F",
"; c #FCD14E",
": c #FDD353",
"> c #FDD451",
", c #FFD759",
"< c #FDD55A",
"1 c #FDD55B",
"2 c #FED65A",
"3 c #FDD65C",
"4 c #FDD75C",
"5 c #FDD65D",
"6 c #FED75D",
"7 c #FED65E",
"8 c #FFD75E",
"9 c #FDD85D",
"0 c #FED760",
"q c #F9D567",
"w c #F8D569",
"e c #F8D66B",
"r c #F4DC90",
"t c #F2E0AA",
"y c #F2E1AE",
"u c #F0E3BB",
"i c #F0E3BD",
"p c #ECE8DD",
"a c #EDE9DD",
"s c #ECE9E1",
"d c #ECE9E2",
"f c #ECEAE3",
"g c gray92",
"h c #ECECEC",
"j c None",
/* pixels */
"jjjjjjjjjjjjjjjjjjjjjjjj",
"jjjjjjjjjjjjjjjjjjjjjjjj",
"jjjjjjj880088jjjjjjjjjjj",
"jjjjj91=@OO@=18jjjjjjjjj",
"jjjj8=O  O O  =8jjjjjjjj",
"jjj1$  OO O  O $1jjjjjjj",
"jjj=O O  O O O O=jjjjjjj",
"jj>O O OO O O O O:jjjjjj",
"jj%O O O O O O OO$jjjjjj",
"jj@ O O O O O O O#jjjjjj",
"jjOO O O O OO  OOOjjjjjj",
"jjO O O O O wuafiwjjjjjj",
"jjOO O OO  rggggggjjjjjj",
"jjj O O   qggggggggjjjjj",
"jjj  O O;tfgggggggggjjjj",
"jjjjO O-aggggggggggggjjj",
"jjjjjO yggggggggggggggjj",
"jjjjjjjfgggggggggggggggj",
"jjjjjjjggggggggggggggggj",
"jjjjjjjggggggggggggggggj",
"jjjjjjjjggggggggggggggjj",
"jjjjjjjjjhgggggggggggjjj",
"jjjjjjjjjjjjjjjjjjjjjjjj",
"jjjjjjjjjjjjjjjjjjjjjjjj"
};
