/* XPM */
static char *gnome_photos[] = {
/* columns rows colors chars-per-pixel */
"24 24 42 1 ",
"  c #343434",
". c #646464",
"X c #656565",
"o c gray40",
"O c gray44",
"+ c #717171",
"@ c #747474",
"# c gray46",
"$ c #7B7B7B",
"% c #C53E34",
"& c #C63E35",
"* c #C83F35",
"= c #868686",
"- c gray53",
"; c #898989",
": c gray54",
"> c gray55",
", c #8E8E8E",
"< c gray56",
"1 c gray58",
"2 c #959595",
"3 c gray59",
"4 c #9A9A9A",
"5 c #A0A0A0",
"6 c gray63",
"7 c gray65",
"8 c #ACACAC",
"9 c gray68",
"0 c #AEAEAE",
"q c #AFAFAF",
"w c #BBBBBB",
"e c gray77",
"r c #C5C5C5",
"t c gray79",
"y c #CACACA",
"u c #CDCDCD",
"i c #CECECE",
"p c gray81",
"a c #D5D5D5",
"s c gray84",
"d c white",
"f c None",
/* pixels */
"ffffffffffffffffffffffff",
"ffffffffffffffffffffffff",
"fffdddddffffffffffffffff",
"fssssssssssssssssssssssf",
"fssssssssssssssssssssssf",
"f                      f",
"f                      f",
"f   *&      o0pp0o     f",
"f   &%     ;t,OO,r;    f",
"f         ot@$==$Oto   f",
"f         0,;2;;2;,8   f",
"f         pO672284Op   f",
"f         pO670084Op   f",
"f         0,;0eeq;18   f",
"f         orO4ww4Oto   f",
"f          ;t,OO1t=    f",
"f           o8pp8.     f",
"f                      f",
"f                      f",
"fssssssssssssssssssssssf",
"ftsssssssssssssssssssstf",
"ffffffffffffffffffffffff",
"ffffffffffffffffffffffff",
"ffffffffffffffffffffffff"
};
