/* XPM */
static char *help_about[] = {
/* columns rows colors chars-per-pixel */
"24 24 68 1 ",
"  c #1871B6",
". c #1A7AC7",
"X c #1A7BC8",
"o c #1A7CC9",
"O c #1A7CCA",
"+ c #1D88DE",
"@ c #1E8AE0",
"# c #1F8EE6",
"$ c #1E8EE7",
"% c #1F8EE7",
"& c #1F90E9",
"* c #1F90EB",
"= c #1F93EF",
"- c #1F94F0",
"; c #2092EC",
": c #2093EF",
"> c #2896EE",
", c #329AEC",
"< c #339AEC",
"1 c #2094F0",
"2 c #2095F2",
"3 c #2296F2",
"4 c #2396F2",
"5 c #2397F2",
"6 c #2497F1",
"7 c #2497F2",
"8 c #2597F2",
"9 c #2798F2",
"0 c #2899F2",
"q c #2999F3",
"w c #2E9CF3",
"e c #36A0F2",
"r c #37A0F3",
"t c #38A1F3",
"y c #39A1F3",
"u c #3BA2F4",
"i c #46A5F2",
"p c #45A6F2",
"a c #47A6F2",
"s c #46A7F3",
"d c #42A5F4",
"f c #48A8F4",
"g c #49A8F4",
"h c #49A9F4",
"j c #4AA9F4",
"k c #49A9F6",
"l c #4DABF5",
"z c #5BB1F5",
"x c #77BEF7",
"c c #9CD0F9",
"v c #AFD9FA",
"b c #B5DCFB",
"n c #B6DCFB",
"m c #B9DEFB",
"M c #BADEFB",
"N c #BEE0FB",
"B c #BFE1FB",
"V c #CDE7FC",
"C c #DEEFFD",
"Z c #E0F0FD",
"A c #E8F4FE",
"S c #EFF8FE",
"D c #F0F8FE",
"F c #F3F9FE",
"G c #F4FAFE",
"H c #FCFEFF",
"J c white",
"K c None",
/* pixels */
"KKKKKKKKKKKKKKKKKKKKKKKK",
"KKKKKKKKKklllkkKKKKKKKKK",
"KKKKKKkkyw0220wukkKKKKKK",
"KKKKKky2222222226rkKKKKK",
"KKKKs02222222222220fKKKK",
"KKKi92222ybGGMi22226iKKK",
"KKi0-222ySJJJJSy22220gKK",
"KKe2-222bJBeyBJb22222eKK",
"KK222222GJy22yJF222222KK",
"K<22222222222yJA222222<K",
"K922222222222MJc2222229K",
"K62222222222bJV02222226K",
"K122222222-xJCw2222222;K",
"K;22222222-CJz22222222&K",
"K@222222222JJ022222222@K",
"KK22222222222222222222KK",
"KK=222222222222222222=KK",
"KKO22222222JJ22222222OKK",
"KKK%2222222JJ2222222%KKK",
"KKKK;22222222222222;KKKK",
"KKKKK%222222222222%KKKKK",
"KKKKKKX=22222222=.KKKKKK",
"KKKKKKKK +&--&+ KKKKKKKK",
"KKKKKKKKKKKKKKKKKKKKKKKK"
};
