/* XPM */
static char *image_x_generic[] = {
/* columns rows colors chars-per-pixel */
"24 24 35 1 ",
"  c #5CACA5",
". c #5CADA6",
"X c #5CADA7",
"o c #64BBB3",
"O c #66BFB7",
"+ c #68C0B8",
"@ c #69C0B8",
"# c #6DC2BA",
"$ c #6EC2BB",
"% c #70C3BC",
"& c #71C4BC",
"* c #83CBC4",
"= c #83CBC5",
"- c #83CCC5",
"; c #85CCC5",
": c #91D1CB",
"> c #95D3CD",
", c #98D4CE",
"< c #9ED7D2",
"1 c #ABDCD7",
"2 c #B0DEDA",
"3 c #C7E7E4",
"4 c #CDEAE7",
"5 c #D3EDEA",
"6 c #E0F2F1",
"7 c #E2F3F1",
"8 c #EFF8F7",
"9 c #EFF8F8",
"0 c #F7FBFB",
"q c #F8FCFC",
"w c #FCFEFE",
"e c #FEFEFE",
"r c #FEFFFF",
"t c white",
"y c None",
/* pixels */
"yyyyyyyyyyyyyyyyyyyyyyyy",
"yyyyyyyyyyyyyyyyyyyyyyyy",
"yyyyyyyyyyyyyyyyyyyyyyyy",
"yy*;;;;;;;;;;;;;;;;;;-yy",
"yy#OOOOOOOOOOOOOOOOOO#yy",
"yyOOOOOOOOOOOOOOOOOOOOyy",
"yyOOOOOOOOOOOOOOOOOOOOyy",
"yyOOOOOOOOOOOOOOOOOOOOyy",
"yyOOOOOOOOOOOOOOOOOOOOyy",
"yyOOOOOO,OOOOOOOOOOOOOyy",
"yyOOOOO1t2OOOOOOOOOOOOyy",
"yyOOOO>ttt<OOOO+#OOOOOyy",
"yyOOO*0tttt:OO+37&OOOOyy",
"yyOOO8ttttt0*+4tt6$+O+yy",
"yyOOOttttttt95tttt6OOOyy",
"yyOOOttttttttttttttOOOyy",
"yyOOOttttttttttttttOOOyy",
"yyOOOOOOOOOOOOOOOOOOOOyy",
"yyOOOOOOOOOOOOOOOOOOOOyy",
"yyoOOOOOOOO+OOOOOOOOOoyy",
"yy                    yy",
"yyyyyyyyyyyyyyyyyyyyyyyy",
"yyyyyyyyyyyyyyyyyyyyyyyy",
"yyyyyyyyyyyyyyyyyyyyyyyy"
};
