/* XPM */
static char *inkscape[] = {
/* columns rows colors chars-per-pixel */
"24 24 52 1 ",
"  c gray28",
". c #4B4B4B",
"X c #4C4C4C",
"o c #535353",
"O c gray33",
"+ c #565656",
"@ c gray34",
"# c #585858",
"$ c gray35",
"% c #5A5A5A",
"& c #5B5B5B",
"* c gray36",
"= c #5D5D5D",
"- c gray37",
"; c #5F5F5F",
": c #606060",
"> c gray38",
", c #626262",
"< c gray39",
"1 c #646464",
"2 c #676767",
"3 c DimGray",
"4 c gray43",
"5 c #717171",
"6 c #727272",
"7 c gray45",
"8 c #747474",
"9 c gray46",
"0 c #767676",
"q c #777777",
"w c gray47",
"e c #797979",
"r c gray48",
"t c #7C7C7C",
"y c gray49",
"u c gray55",
"i c gray60",
"p c gray61",
"a c gray62",
"s c gray67",
"d c #B1B1B1",
"f c gray72",
"g c gray75",
"h c #C8C8C8",
"j c gray79",
"k c #CECECE",
"l c gray83",
"z c #D7D7D7",
"x c gray99",
"c c #FDFDFD",
"v c white",
"b c None",
/* pixels */
"bbbbbbbbbbbbbbbbbbbbbbbb",
"bbbbbbbbbbbbbbbbbbbbbbbb",
"bbbbbbbbbbbttbbbbbbbbbbb",
"bbbbbbbbbb7>>7bbbbbbbbbb",
"bbbbbbbbb7;gg17bbbbbbbbb",
"bbbbbbbb7>kvvl>7bbbbbbbb",
"bbbbbbb7>hvvvvk>7bbbbbbb",
"bbbbbb9>hvhvifxh>9bbbbbb",
"bbbbb9;pvl;s@o3d;;7bbbbb",
"bbbb9;;@up;o&;&o&;;9bbbb",
"bbb9;;&;@@;;;;;;;;;;9bbb",
"bb7;;;;;;;;&&;&;&;;;>9bb",
"bb>;;;;;;;;;;&;;;&;&>1bb",
"bbbbb.&&&;&;;;&;;;;;;bbb",
"bbbbbbb;;;;&;;;;;obbbbbb",
"bbbbbtw;&;;;&;&;Xbbbbbbb",
"bbbbb41;;;;&;;&;4bbbwwbb",
"bbbbbbbbb&;;&;;;19bbbbbb",
"bbbbbtbbb>;;;;;;&bbbbbbb",
"bbbbb3bbw1&;;& bbbbbbbbb",
"bbbbbbbbbb&;;;bbbbbbbbbb",
"bbbbbbbbbbb&;@bbbbbbbbbb",
"bbbbbbbbbbbbbbbbbbbbbbbb",
"bbbbbbbbbbbbbbbbbbbbbbbb"
};
