/* XPM */
static char *internet_mail[] = {
/* columns rows colors chars-per-pixel */
"24 24 112 2 ",
"   c #E68C02",
".  c #EF9209",
"X  c #F09306",
"o  c #F39409",
"O  c #F89709",
"+  c #F8970A",
"@  c #EC9516",
"#  c #EE9617",
"$  c #F29916",
"%  c #F49A17",
"&  c #F69B17",
"*  c #F79E17",
"=  c #F89C16",
"-  c #F89D18",
";  c #E6AF06",
":  c #FCBE06",
">  c #FDBF06",
",  c #FABF0C",
"<  c #FABF0F",
"1  c #F6B317",
"2  c #F9BF12",
"3  c #E9BD34",
"4  c #F8BC34",
"5  c #FEC006",
"6  c #FEC008",
"7  c #FEC109",
"8  c #FEC10A",
"9  c #FEC20E",
"0  c #FEC20F",
"q  c #FEC210",
"w  c #FEC417",
"e  c #FAC01A",
"r  c #FEC519",
"t  c #F9C31E",
"y  c #FDC51C",
"u  c #F8C221",
"i  c #F8C223",
"p  c #F7C737",
"a  c #F9C731",
"s  c #F9C937",
"d  c #FECD38",
"f  c #FECD39",
"g  c #FECE3A",
"h  c #FECE3B",
"j  c #F9CB3C",
"k  c #FECE3C",
"l  c #FECE3D",
"z  c #FECF3E",
"x  c #FECF3F",
"c  c #FBCA43",
"v  c #FACC40",
"b  c #FECF41",
"n  c #FCCF45",
"m  c #FED042",
"M  c #FED044",
"N  c #FDD046",
"B  c #FED147",
"V  c #FED249",
"C  c #FDD14B",
"Z  c #EECA5B",
"A  c #F9D35D",
"S  c #EDCA62",
"D  c #E8C96A",
"F  c #F8D363",
"G  c #848484",
"H  c #868686",
"J  c #898989",
"K  c gray54",
"L  c #8E8E8E",
"P  c gray56",
"I  c #909090",
"U  c gray57",
"Y  c #A5A5A5",
"T  c gray65",
"R  c #A7A7A7",
"E  c gray71",
"W  c #BBBBBB",
"Q  c #EAD38E",
"!  c #F1D787",
"~  c #F0D78C",
"^  c #E4D19A",
"/  c #E3D3A5",
"(  c #E2D5B0",
")  c #EDDFB7",
"_  c #CDCDCD",
"`  c #CECECE",
"'  c LightGray",
"]  c gray83",
"[  c #DEDBD1",
"{  c #DEDCD4",
"}  c gray85",
"|  c gray86",
" . c gainsboro",
".. c #DFDFDF",
"X. c #EBE1C0",
"o. c #E9E1C6",
"O. c gray88",
"+. c #E1E1E1",
"@. c #E2E2E2",
"#. c #E4E4E4",
"$. c gray90",
"%. c #E6E6E6",
"&. c #E7E7E7",
"*. c #E9E7E1",
"=. c #E9E7E3",
"-. c gray91",
";. c #E9E9E9",
":. c #EAEAEA",
">. c gray92",
",. c gray93",
"<. c #EEEEEE",
"1. c None",
/* pixels */
"1.1.1.1.1.1.1.1.1.1.1.1.1.1.1.1.1.1.1.1.1.1.1.1.",
"1.1.1.1.1.1.1.1.1.1.1.* - 1.1.1.1.1.1.1.1.1.1.1.",
"1.1.1.1.1.1.1.1.1.1.% + O % 1.1.1.1.1.1.1.1.1.1.",
"1.1.1.1.,.,.,.,.,.,.,.,.,.,.,.,.,.,.,.,.1.1.1.1.",
"1.1.1.1.>.>.>.>.>.>.>.>.>.>.>.>.>.>.>.>.1.1.1.1.",
"1.1.1.1.>.>.>.>.>...Y K K Y | >.>.>.>.>.1.1.1.1.",
"1.1.1.1.>.>.>.>...L W ..+.W L ..>.>.>.>.1.1.1.1.",
"1.1.1.@ >.>.>.>.Y W ` P I ` W Y >.>.>.,.@ 1.1.1.",
"1.1.$ X >.>.>.>.K ..I ] ' I O.K >.>.>.>.X = 1.1.",
"1.1.1   @.&.>.>.K ..I ' ' G  .H >.>.>.>.X 4 1.1.",
"1.1.9 e ^ O.%.>.Y W ` I U Y K E >.>.>.) c b 1.1.",
"1.1.5 5 w Z { %.} L W ..>.>.>.>.>.*.! N d d 1.1.",
"1.1.8 > 5 q a / +.} Y K G G U >.X.A m d d d 1.1.",
"1.1.5 5 5 5 8 r S { %.>.>.>.*.~ C k d d d d 1.1.",
"1.1.5 5 5 5 5 5 q p ( +.%.o.F b d d d d d d 1.1.",
"1.1.5 5 5 5 5 5 5 8 y D Q C k d d d d d d d 1.1.",
"1.1.5 5 5 5 5 5 5 5 2 v m d d d d d d d d d 1.1.",
"1.1.5 5 5 5 5 5 > i N k d d d d d d d d d d 1.1.",
"1.1.5 5 5 > > < j N d d d d d d d d d d d d 1.1.",
"1.1.5 5 5 > u N k d d d d d d d d d d d d d 1.1.",
"1.1.5 5 < p N d d d d d d d d d d d d d d d 1.1.",
"1.1.; t b k d d d d d d d d d d d d d d d 3 1.1.",
"1.1.1.1.1.1.1.1.1.1.1.1.1.1.1.1.1.1.1.1.1.1.1.1.",
"1.1.1.1.1.1.1.1.1.1.1.1.1.1.1.1.1.1.1.1.1.1.1.1."
};
