/* XPM */
static char *internet_chat[] = {
/* columns rows colors chars-per-pixel */
"24 24 16 1 ",
"  c #026E9F",
". c #0270A2",
"X c #0286C2",
"o c #0E8CC5",
"O c #2B99CB",
"+ c #2D9BCD",
"@ c #339DCD",
"# c #359ECE",
"$ c #33AEE6",
"% c #35B9F5",
"& c #3FBCF5",
"* c #4ABAEC",
"= c #5CC6F6",
"- c #5DC7F7",
"; c #AEE3FB",
": c None",
/* pixels */
"::::::::::::::::::::::::",
"::::::::::::::::::::::::",
"::::::::::::::::::::::::",
"::::::@##############@::",
"::::::oXXXXXXXXXXXXXXo::",
"::::::XXXXXXXXXXXXXXXX::",
"::::::XXXXXXXXXXXXXXXX::",
"::::::XXXXXXXXXXXXXXXX::",
"::::::XXXXXXXXXXXXXXXX::",
"::---------------*XXXX::",
"::&%%%%%%%%%%%%%%&XXXX::",
"::%%%%%%%%%%%%%%%%XXXX::",
"::%%%;;;;;;;;;;%%%XXXX::",
"::%%%%%%%%%%%%%%%%XXXX::",
"::%%%;;;;;;;;;;%%%:: X::",
"::%%%%%%%%%%%%%%%%:::.::",
"::%%%;;;;%%%%%%%%%::::::",
"::%%%%%%%%%%%%%%%%::::::",
"::%%%%%%%%%%%%%%%%::::::",
"::%%%%%%%%%%%%%%%$::::::",
"::%O::::::::::::::::::::",
"::+:::::::::::::::::::::",
"::::::::::::::::::::::::",
"::::::::::::::::::::::::"
};
