/* XPM */
static char *libreoffice_calc[] = {
/* columns rows colors chars-per-pixel */
"24 24 26 1 ",
"  c #449D47",
". c #47A34A",
"X c #46A44A",
"o c #47A44B",
"O c #47A64B",
"+ c #4BAE4F",
"@ c #4CAA50",
"# c #5BA35E",
"$ c #5DB55F",
"% c #5DA561",
"& c #5DB660",
"* c #60B064",
"= c #63B166",
"- c #64B167",
"; c #BBBBBB",
": c gray77",
"> c #C5C5C5",
", c #D9E1D9",
"< c #D9E3DA",
"1 c #DBE4DC",
"2 c #DCE4DC",
"3 c #DCE4DD",
"4 c #E9E9E9",
"5 c #F4F4F4",
"6 c gray96",
"7 c None",
/* pixels */
"777777777777777777777777",
"777$&&&&&&&&&&&&$$&&&777",
"777@OOOOOOOOOOOOOOOO@777",
"777OO44444443-O*144oO777",
"777OO444444443-.#14oO777",
"777OO4444444442-.#,oO777",
"777OO44444444441*o%OO777",
"777OO444444444443-.OO777",
"777OO4444444444441-OO777",
"777OO44444444444441OO777",
"777OO44444444444444OO777",
"777OO44;;;;;;;;;;44OO777",
"777++66:555:5555:66++777",
"777++66:666:6666:66++777",
"777++66:>>>:>>>>:66++777",
"777++66:555:5555>66++777",
"777++66>666:6666:66++777",
"777++66:>>>:>>>>:66++777",
"777++66555565555566++777",
"777++66666666666666++777",
"777++66666666666666++777",
"777++              ++777",
"777O++++++++++++++++O777",
"777777777777777777777777"
};
