/* XPM */
static char *libreoffice_math[] = {
/* columns rows colors chars-per-pixel */
"24 24 22 1 ",
"  c #596368",
". c #5C676C",
"X c #5E676C",
"o c #5D686C",
"O c #5E696E",
"+ c #636D72",
"@ c #636E73",
"# c #6D7479",
"$ c #6F777B",
"% c #717C80",
"& c #717D80",
"* c #727C81",
"= c #737D81",
"- c #767F83",
"; c #778084",
": c #DBDCDC",
"> c #DCDDDD",
", c #DDDEDF",
"< c #DEDFDF",
"1 c #E9E9E9",
"2 c gray96",
"3 c None",
/* pixels */
"333333333333333333333333",
"333%%%%==%**%=***%**%333",
"333+OOOOOOOOOOOOOOOO@333",
"333OO1111111<;O=:11OO333",
"333OO11111111<;X#:1OO333",
"333OO111111111<;.#:OO333",
"333OO1111111111<=O$OO333",
"333OO11111111111<;XOO333",
"333OO111111111111<;OO333",
"333OO1111111111111<OO333",
"333OO11111111111111OO333",
"333OO11111111111111OO333",
"333@@22222222222222@@333",
"333@@22222222222222@@333",
"333@@22222222222222@@333",
"333@@22222222222222@@333",
"333@@22222222222222@@333",
"333@@22222222222222@@333",
"333@@22222222222222@@333",
"333@@22222222222222@@333",
"333@@22222222222222@@333",
"333@@              @@333",
"333O@@@@@@@@@@@@@@@@X333",
"333333333333333333333333"
};
