/* XPM */
static char *libreoffice_writer[] = {
/* columns rows colors chars-per-pixel */
"24 24 25 1 ",
"  c #3848A2",
". c #3A4BA9",
"X c #3B4BA9",
"o c #3A4BAA",
"O c #3B4CAC",
"+ c #3E50B4",
"@ c #515FA8",
"# c #4151B0",
"$ c #5461AA",
"% c #5664B5",
"& c #5967B6",
"* c #5A68B6",
"= c #5060BB",
"- c #5161BB",
"; c #5060BC",
": c #BBBBBB",
"> c #C5C5C5",
", c #D7D9E2",
"< c #D8DAE4",
"1 c #DADCE4",
"2 c #DBDDE5",
"3 c #E9E9E9",
"4 c #F4F4F4",
"5 c gray96",
"6 c None",
/* pixels */
"666666666666666666666666",
"666;-------------;---666",
"666#OOOOOOOOOOOOOOOO#666",
"666OO33333332*O%<33OO666",
"666OO333333332*.@,3OO666",
"666OO3333333332*.@,OO666",
"666OO33333333332*.$OO666",
"666OO333333333332*OOO666",
"666OO3333333333332*OO666",
"666OO33333333333332OO666",
"666OO33333333333333OO666",
"666OO33::::::::::33OO666",
"666++55544444444455++666",
"666++55555444444555++666",
"666++55>>>>>>>>>>55++666",
"666+#55444444444455++666",
"666++55555555555555++666",
"666++55>>>>>>>55555++666",
"666++55544444455555++666",
"666++55555555555555++666",
"666++55555555554544++666",
"666++              ++666",
"666O++++++++++++++++O666",
"666666666666666666666666"
};
