/* XPM */
static char *libreoffice[] = {
/* columns rows colors chars-per-pixel */
"24 24 19 1 ",
"  c #2A2A2A",
". c gray19",
"X c #313131",
"o c #323232",
"O c #343434",
"+ c #373737",
"@ c gray28",
"# c #484848",
"$ c gray29",
"% c #4E4E4E",
"& c #515151",
"* c gray32",
"= c gray84",
"- c #D7D7D7",
"; c gray85",
": c #DADADA",
"> c #E9E9E9",
", c gray96",
"< c None",
/* pixels */
"<<<<<<<<<<<<<<<<<<<<<<<<",
"<<<@#############@##@<<<",
"<<<+oooooooooooooooo+<<<",
"<<<oo>>>>>>>:*o%->>oo<<<",
"<<<oo>>>>>>>>:*o#->oo<<<",
"<<<oo>>>>>>>>>:*o#-oo<<<",
"<<<oo>>>>>>>>>>:* #oo<<<",
"<<<oo>>>>>>>>>>>:*ooo<<<",
"<<<oo>>>>>>>>>>>>:*oo<<<",
"<<<oo>>>>>>>>>>>>>:oo<<<",
"<<<oo>>>>>>>>>>>>>>oo<<<",
"<<<oo>>>>>>>>>>>>>>oo<<<",
"<<<+o,,,,,,,,,,,,,,o+<<<",
"<<<o+,,,,,,,,,,,,,,oo<<<",
"<<<+o,,,,,,,,,,,,,,+o<<<",
"<<<oo,,,,,,,,,,,,,,o+<<<",
"<<<+o,,,,,,,,,,,,,,+o<<<",
"<<<o+,,,,,,,,,,,,,,oo<<<",
"<<<oo,,,,,,,,,,,,,,++<<<",
"<<<+o,,,,,,,,,,,,,,oo<<<",
"<<<++,,,,,,,,,,,,,,++<<<",
"<<<oo              oo<<<",
"<<<oo++o+oo+o++oo++oo<<<",
"<<<<<<<<<<<<<<<<<<<<<<<<"
};
