/* XPM */
static char *multimedia_audio_player[] = {
/* columns rows colors chars-per-pixel */
"24 24 35 1 ",
"  c #E6672A",
". c #E7672A",
"X c #E66829",
"o c #EB692B",
"O c #EA6A2A",
"+ c #EC6B2A",
"@ c #F46D2C",
"# c #F46E2C",
"$ c #F56E2C",
"% c #F56F2D",
"& c #F56F2E",
"* c #F5702F",
"= c #F57131",
"- c #F67231",
"; c #F67332",
": c #F57434",
"> c #F57636",
", c #F57637",
"< c #F5793B",
"1 c #F7783A",
"2 c #F6783B",
"3 c #F6793B",
"4 c #F5793C",
"5 c #F77A3E",
"6 c #F67B3E",
"7 c #F57C3F",
"8 c #F57B40",
"9 c #F77B41",
"0 c #F57C40",
"q c #F67C40",
"w c #F77C40",
"e c #F67C41",
"r c #F78B56",
"t c #F89667",
"y c None",
/* pixels */
"yyyyyyyyyyyyyyyyyyyyyyyy",
"yyyyyyyyyyyyyyyyyyyyyyyy",
"yyyyyyyyyq97898yyyyyyyyy",
"yyyyyyy93:**#=:1qyyyyyyy",
"yyyyyy5=$$%###%%-5yyyyyy",
"yyyyy1##$Oyyyy.$#-1yyyyy",
"yyyy1*##yyyyyyyy###3yyyy",
"yyyy=##yyyyyyyyyy##=yyyy",
"yyy,$%.yyyyyyyyyyO$$:yyy",
"yyy-$#yyyyyyyyyyyy$$=yyy",
"yyy*$$yyyyyyyyyyyy$$=yyy",
"yyy%$$yyyyyyyyyyyy$$*yyy",
"yyy%$$tttyyyyyyttt$$%yyy",
"yyy$$%rrryyyyyyrrr$$$yyy",
"yyy%##rrryyyyyyrrr$$$yyy",
"yyy$##rrryyyyyyrrr$$%yyy",
"yyy#%$rrryyyyyyrrr$$$yyy",
"yyy#$$rrryyyyyyrrr$$$yyy",
"yyy+$$rrryyyyyyrrr#$+yyy",
"yyyy+$rrryyyyyyrrr%.yyyy",
"yyyyyyrrryyyyyyrrryyyyyy",
"yyyyyyrrryyyyyyrrryyyyyy",
"yyyyyyyyyyyyyyyyyyyyyyyy",
"yyyyyyyyyyyyyyyyyyyyyyyy"
};
