/* XPM */
static char *pdf_utility[] = {
/* columns rows colors chars-per-pixel */
"24 24 47 1 ",
"  c #A62F2A",
". c #B0322C",
"X c #B5332D",
"o c #B5332E",
"O c #B43C36",
"+ c #C03630",
"@ c #C13A34",
"# c #C23C36",
"$ c #C23D37",
"% c #C33F39",
"& c #C33F3A",
"* c #C4423C",
"= c #C5453F",
"- c #BF5954",
"; c #BE5855",
": c #C54741",
"> c #C54742",
", c #C84F4A",
"< c #C7554F",
"1 c #C8514C",
"2 c #C9524D",
"3 c #CA5651",
"4 c #C05B56",
"5 c #CB5D57",
"6 c #CD5E59",
"7 c #CE645F",
"8 c #D06B67",
"9 c #DB8D89",
"0 c #DC908C",
"q c #DD9390",
"w c #E7B3B1",
"e c #E8B4B1",
"r c #EABDBB",
"t c #EBBFBE",
"y c #F1D2D1",
"u c #F4DBDA",
"i c #F4DCDB",
"p c #F9EAEA",
"a c #FAEEED",
"s c #FAEFEF",
"d c #FAF0EF",
"f c #FAF0F0",
"g c #FDF9F8",
"h c #FDFAFA",
"j c #FFFEFD",
"k c white",
"l c None",
/* pixels */
"llllllllllllllllllllllll",
"llllllllllllllllllllllll",
"lllllll-444444444444-lll",
"lllllllO............Olll",
"lllllll..............lll",
"lll56666666666663....lll",
"lll&++++++++++++&....lll",
"lll++++++++++++++....lll",
"lll++++++++++++++....lll",
"lll+++++&r>++++++....lll",
"lll+++++2j7++++++....lll",
"lll+++++&j2o+++++....lll",
"lll+++++@g8++++++....lll",
"lll+++++0up=+++++....lll",
"lll++++#sesgga2++....lll",
"lll+++:yu9,*qe*++....lll",
"lll++*dp$++++++++....lll",
"lll++*t3+++++++++....lll",
"lll++++++++++++++... lll",
"lll++++++++++++++lllllll",
"lll++++++++++++++lllllll",
"lllX++++++++++++Xlllllll",
"llllllllllllllllllllllll",
"llllllllllllllllllllllll"
};
