/* XPM */
static char *preferences_system_time[] = {
/* columns rows colors chars-per-pixel */
"24 24 107 2 ",
"   c #4C4C4C",
".  c #5B5C5C",
"X  c gray36",
"o  c #4D646F",
"O  c #4F6873",
"+  c #516A77",
"@  c #526B76",
"#  c #546D77",
"$  c #556D78",
"%  c #546D7A",
"&  c #546E7A",
"*  c #556E7B",
"=  c #556F7C",
"-  c #55707D",
";  c #57707C",
":  c #57717D",
">  c #57727F",
",  c #58707D",
"<  c #696A6A",
"1  c gray43",
"2  c #6E6F6F",
"3  c #60747D",
"4  c #727374",
"5  c #797A7B",
"6  c #7C7C7C",
"7  c #5B7785",
"8  c #5B7885",
"9  c #5C7885",
"0  c #5C7985",
"q  c #5C7886",
"w  c #5C7987",
"e  c #5D7987",
"r  c #5E7A88",
"t  c #5E7B89",
"y  c #5F7B89",
"u  c #5F7B8A",
"i  c #5F7C89",
"p  c #5E7C8A",
"a  c #5F7C8A",
"s  c #687C85",
"d  c #687C87",
"f  c #607D89",
"g  c #627E8C",
"h  c #637F8D",
"j  c #6E848D",
"k  c #708894",
"l  c #778F9B",
"z  c #78909B",
"x  c #868C8E",
"c  c #8F999E",
"v  c #8F9A9F",
"b  c #AE8A87",
"n  c #BD9E9A",
"m  c #919BA0",
"M  c #96A3A8",
"N  c #99A6AB",
"B  c #A5ABAE",
"V  c #AEAEAE",
"C  c #A5AFB4",
"Z  c #A7B2B7",
"A  c #A9B2B7",
"S  c #A9B3B7",
"D  c #AFB3B5",
"F  c #AEBABF",
"G  c #B1B1B1",
"H  c #B4B4B4",
"J  c #B7B7B7",
"K  c #B1B6B8",
"L  c gray73",
"P  c #BDBFBF",
"I  c #CCA19D",
"U  c #D0A4A0",
"Y  c #E8BDB9",
"T  c #EDC1BD",
"R  c #AEBAC1",
"E  c #AEBBC1",
"W  c #B0BCC2",
"Q  c #B0BDC2",
"!  c #BEBFC0",
"~  c #C3C3C3",
"^  c gray77",
"/  c #C5C5C5",
"(  c #C3C9CC",
")  c gray79",
"_  c #CECECE",
"`  c #C7CED1",
"'  c gray82",
"]  c LightGray",
"[  c #D0D4D6",
"{  c #D1D4D6",
"}  c gray83",
"|  c #D2D6D8",
" . c #D3D8DA",
".. c #D4D8DB",
"X. c gray85",
"o. c gainsboro",
"O. c #DDDDDD",
"+. c gray88",
"@. c #E4E5E5",
"#. c gray90",
"$. c #E5E6E7",
"%. c #E6E6E6",
"&. c #E9E9E9",
"*. c #E9E9EA",
"=. c #EAEAEA",
"-. c gray92",
";. c None",
/* pixels */
";.;.;.;.;.;.;.;.;.;.;.;.;.;.;.;.;.;.;.;.;.;.;.;.",
";.;.;.;.;.;.;.;.;.;.;.;.;.;.;.;.;.;.;.;.;.;.;.;.",
";.;.;.;.;.;.;.;.;.a a a a a a ;.;.;.;.;.;.;.;.;.",
";.;.;.;.;.;.;.a a a a a a a a a t ;.;.;.;.;.;.;.",
";.;.;.;.;.a a a l E | $.$. .R z p p a ;.;.;.;.;.",
";.;.;.;.a a h Q -.-.-.-.-.-.-.-.R j a a ;.;.;.;.",
";.;.;.;.a h ` -.-.-.-.-.-.-.-.-.O.x h a ;.;.;.;.",
";.;.;.t a Q -.-.$.-.-.-.-.-.-.o.5 L N a t ;.;.;.",
";.;.;.f l &.-.$.6 X.-.-.-.-.X.4 H / ~ k a ;.;.;.",
";.;.q t F -.-.-.o.1 ' -.-.' 2 H / ~ / M a 7 ;.;.",
";.;.t t | -.-.-.-.} . / _ < G / ~ / ~ K a t ;.;.",
";.;.t t @.-.-.-.-.-.)   . V ^ / / ~ / ! a t ;.;.",
";.;.t f @.-.-.-.-.-.-.n b ^ ^ ^ ~ / ~ P f q ;.;.",
";.;.q t } -.-.-.-.-.-.T U ^ ^ ^ / ~ / D f q ;.;.",
";.;.7 t Z -.-.-.-.-.-.T U ^ ^ ^ ~ / / v h = ;.;.",
";.;.;.t j -.-.-.-.-.-.T U ^ ^ ^ / ~ ~ d a ;.;.;.",
";.;.;.q q S -.-.-.-.-.T I / / ~ / ~ v q q ;.;.;.",
";.;.;.;.a , ( -.-.-.-.T U / ~ / / B : f ;.;.;.;.",
";.;.;.;.+ t # S &.-.-.T U / ~ ~ v # i + ;.;.;.;.",
";.;.;.;.;.+ f % s Z { Y I D c 3 % f + ;.;.;.;.;.",
";.;.;.;.;.;.;.q q % @ o o O % q q ;.;.;.;.;.;.;.",
";.;.;.;.;.;.;.;.;.= 7 q t q : ;.;.;.;.;.;.;.;.;.",
";.;.;.;.;.;.;.;.;.;.;.;.;.;.;.;.;.;.;.;.;.;.;.;.",
";.;.;.;.;.;.;.;.;.;.;.;.;.;.;.;.;.;.;.;.;.;.;.;."
};
