/* XPM */
static char *preferences_desktop[] = {
/* columns rows colors chars-per-pixel */
"24 24 44 1 ",
"  c #597481",
". c #5B7885",
"X c #5C7885",
"o c #5D7886",
"O c #5C7986",
"+ c #5D7B89",
"@ c #5E7B88",
"# c #5E7B89",
"$ c #5F7C89",
"% c #5F7C8A",
"& c #607D8A",
"* c #607D8B",
"= c #627F8C",
"- c #637F8D",
"; c #62808E",
": c #63818E",
"> c #64808E",
", c #65818F",
"< c #688390",
"1 c #698390",
"2 c #698391",
"3 c #6A8692",
"4 c #6C8793",
"5 c #6F8994",
"6 c #6E8895",
"7 c #6F8995",
"8 c #6F8996",
"9 c #6F8A96",
"0 c #718A97",
"q c #718B97",
"w c #768F9B",
"e c #77909C",
"r c #C9D3D8",
"t c #CAD3D8",
"y c #CBD4D9",
"u c #CCD5D9",
"i c #CCD5DA",
"p c #CDD6DA",
"a c #F4F6F7",
"s c #F6F7F8",
"d c #F6F8F9",
"f c #F7F8F9",
"g c white",
"h c None",
/* pixels */
"hhhhhhhhhhhhhhhhhhhhhhhh",
"hhhhhhhhhhhhhhhhhhhhhhhh",
"hhhhhhhhhh5585hhhhhhhhhh",
"hhhhhhhhh>%%%%:hhhhhhhhh",
"hhhhhhhhh:%%%%:hhhhhhhhh",
"hhhh55h44%%%%%-45h55hhhh",
"hhhh--<<%%%%%%+%>2--hhhh",
"hhh2%%%%%%%%%%%%&*++3hhh",
"hh<-*#*#%qyddpe%%%%%*1hh",
"hhh*#*#&qsggggaq%%%%%hhh",
"hhhh*#+*yggggggy%%%%hhhh",
"hhhh#*&*sggggggs%%%%hhhh",
"hhhh&&++dggggggs%%%%hhhh",
"hhhh*+*&pggggggy%%%%hhhh",
"hhh3&&+&wagggga5%%%%3hhh",
"hh-%+&&*+qyddyw%%%%%%-hh",
"hhh+*&+&%%%%%%%%%%%%%hhh",
"hhhh+*+&%%%%%%%%%%%%hhhh",
"hhhhooh %%%%%%%* ho.hhhh",
"hhhhhhhhh+%%%%+hhhhhhhhh",
"hhhhhhhhho%%%%ohhhhhhhhh",
"hhhhhhhhhh%%%%hhhhhhhhhh",
"hhhhhhhhhhhhhhhhhhhhhhhh",
"hhhhhhhhhhhhhhhhhhhhhhhh"
};
