/* XPM */
static char *transmission[] = {
/* columns rows colors chars-per-pixel */
"24 24 30 1 ",
"  c #3F3F3F",
". c #414141",
"X c #444444",
"o c #464646",
"O c #4C4C4C",
"+ c #4E4E4E",
"@ c #942920",
"# c #952821",
"$ c #9B2A22",
"% c #9B2B22",
"& c #AF3026",
"* c #B03026",
"= c #C1352A",
"- c #C2352A",
"; c #C2362B",
": c #C53E33",
"> c #C53F33",
", c #C7483D",
"< c #C7483E",
"1 c #C8493E",
"2 c #C8493F",
"3 c #A0A0A0",
"4 c #B4B4B4",
"5 c #B7B7B7",
"6 c gray77",
"7 c gray78",
"8 c gray82",
"9 c gray83",
"0 c gray92",
"q c None",
/* pixels */
"qqqqqqqqqqqqqqqqqqqqqqqq",
"qq<<1,12221,22221,1211qq",
"qq:;----;-----;;----;:qq",
"qq;;----;;-----;----;;qq",
"qq---00000000000000-;;qq",
"qq---00000000000000--;qq",
"qq;--00000033000000---qq",
"qq;;-000005..400000---qq",
"qq---00007o  X60000---qq",
"qq---0009+    O8000---qq",
"qq---00000    00000---qq",
"qq---00000    00000---qq",
"qq;;-00000    00000-;;qq",
"qq-;-0009+    O8000--;qq",
"qq---00007o  X60000---qq",
"qq---000005..400000---qq",
"qq---00000033000000---qq",
"qq---00000000000000---qq",
"qq;--00000000000000-;;qq",
"qq;;-&**&&&&&&&&&&&--;qq",
"qq;;----;-----;;--;;--qq",
"qq&;----;;-----;---;-&qq",
"qq@$$$$$$$$$$$$$$$$$$@qq",
"qqqqqqqqqqqqqqqqqqqqqqqq"
};
