/* XPM */
static char *utilities_system_monitor[] = {
/* columns rows colors chars-per-pixel */
"24 24 40 1 ",
"  c #0E2310",
". c #0F2310",
"X c #102310",
"o c #102411",
"O c #132914",
"+ c #142B15",
"@ c #172F18",
"# c #1A2D1B",
"$ c #183119",
"% c #19331A",
"& c #1A351B",
"* c #203F21",
"= c #203F22",
"- c #204022",
"; c #214123",
": c #244525",
"> c #2D542F",
", c #3D4D3D",
"< c #376338",
"1 c #3F4F40",
"2 c #407242",
"3 c #407343",
"4 c #417443",
"5 c #417544",
"6 c #447845",
"7 c #447846",
"8 c #447946",
"9 c #4B834D",
"0 c #549257",
"q c #5EA160",
"w c #60A563",
"e c #60A663",
"r c #60A763",
"t c #66B069",
"y c #66B169",
"u c #67B26A",
"i c #69B56C",
"p c #6AB66D",
"a c #6FBE72",
"s c None",
/* pixels */
"ssssssssssssssssssssssss",
"ssssssssssssssssssssssss",
"ssssssssssssssssssssssss",
"ss,111111111111111111,ss",
"ss#..................#ss",
"ss.......o............ss",
"ss......;:............ss",
"ss......43............ss",
"ss......eq............ss",
"ss.....-et&...........ss",
"ss.....539<...........ss",
"ss....or*>0...........ss",
"ss....;q.Op+..........ss",
"ssaaaaa4.X0>.6aaaaaaaass",
"ss........<9%t%.......ss",
"ss........&t57........ss",
"ss.........qp%........ss",
"ss.........35.........ss",
"ss.........;%.........ss",
"ss..........X.........ss",
"sso...................ss",
"ssssssssssssssssssssssss",
"ssssssssssssssssssssssss",
"ssssssssssssssssssssssss"
};
