/* XPM */
static char *video_editor[] = {
/* columns rows colors chars-per-pixel */
"24 24 29 1 ",
"  c #282828",
". c #2D2D2D",
"X c #323232",
"o c gray20",
"O c #353535",
"+ c #373737",
"@ c #3A3A3A",
"# c #3C3C3C",
"$ c gray24",
"% c #3F3F3F",
"& c gray25",
"* c #414141",
"= c gray26",
"- c #434343",
"; c #444444",
": c gray27",
"> c #464646",
", c gray28",
"< c #484848",
"1 c gray30",
"2 c #535353",
"3 c gray33",
"4 c #555555",
"5 c #585858",
"6 c #5B5B5B",
"7 c #626262",
"8 c #646464",
"9 c #676767",
"0 c None",
/* pixels */
"000000000000000000000000",
"000000000000000000000000",
"000000000000000000000000",
"009993*;793*;793*;793;00",
"006222% .12* .13* .13;00",
"0066666X@36;OO36;X@36;00",
"0066666O36;X@36;XO36;O00",
"00%%%%%%%%%%%%**%%*%%%00",
"00%%%%%%%%%%%%%%%%%%%%00",
"00%%%%OXXXXXXO%%%*%%%%00",
"00%%%%XXXXXXXX%%%O%%%%00",
"00%%%%XXXXXXXX%%OX%%%%00",
"00%%*%XXXXXXXX@XXX%*%*00",
"00<<<<@@@@@@@@*@@@;<;<00",
"00<<<<@@@@@@@@<;%@<<<<00",
"00<<<<@@@@@@@@<<<*<<<<00",
"00<<<<%@%@@@@%<<<<<<<<00",
"00<<<<<<<<;<<<<<<<<<<<00",
"00<<<<<<<<<<<<<<<<<<<<00",
"00;<<<<<<<<<<<<<<<<<<;00",
"00****;**;***;**;***;*00",
"000000000000000000000000",
"000000000000000000000000",
"000000000000000000000000"
};
