/* XPM */
static char *vlc[] = {
/* columns rows colors chars-per-pixel */
"24 24 104 2 ",
"   c #A35700",
".  c #A95A00",
"X  c #A45B09",
"o  c #C86A00",
"O  c #CC6D00",
"+  c #CC6E02",
"@  c #CC6E03",
"#  c #C66E0A",
"$  c #D67200",
"%  c #DA7400",
"&  c #DE7600",
"*  c #CC7614",
"=  c #CE7916",
"-  c #E17800",
";  c #E67B00",
":  c #E87C00",
">  c #EC7E00",
",  c #EE7F00",
"<  c #E67F09",
"1  c #CD7E25",
"2  c #C47D2C",
"3  c #E6810E",
"4  c #F28100",
"5  c #F58300",
"6  c #F68200",
"7  c #F78400",
"8  c #F98400",
"9  c #FC8600",
"0  c #FE8700",
"q  c #FF8800",
"w  c #FF8A04",
"e  c #FF8C09",
"r  c #E1841A",
"t  c #E2861E",
"y  c #E6891F",
"u  c #ED8A18",
"i  c #F48C14",
"p  c #FC8E12",
"a  c #FF9011",
"s  c #FF941A",
"d  c #DF8C2E",
"f  c #CF8A3A",
"g  c #D28C3C",
"h  c #E68B22",
"j  c #FE9D2C",
"k  c #F19935",
"l  c #FF9E30",
"z  c #D69347",
"x  c #E69B46",
"c  c #F9A748",
"v  c #FDA848",
"b  c #E5A051",
"n  c #E6A154",
"m  c #FDAE56",
"M  c #CD9B64",
"N  c #D8A467",
"B  c #D9AA73",
"V  c #DBAB76",
"C  c #E6AC69",
"Z  c #FFB662",
"A  c #FFB763",
"S  c #FFBD70",
"D  c #FFBE73",
"F  c #FEBD74",
"G  c #F1BA7B",
"H  c #FFC27B",
"J  c #DEB180",
"K  c #D7BA9B",
"L  c #FCC584",
"P  c #FACA94",
"I  c #DEC1A1",
"U  c #DFC3A3",
"Y  c #DFC4A5",
"T  c #E5C9AB",
"R  c #FFD9AF",
"E  c #E1CBB1",
"W  c #E6CDB1",
"Q  c #FFDBB1",
"!  c #E6D8C7",
"~  c #E6D8C8",
"^  c #E1D9CE",
"/  c #E4D9CC",
"(  c #E4DDD4",
")  c #E4DED7",
"_  c #E5E2DE",
"`  c #FDECD9",
"'  c #E1E1E1",
"]  c gray89",
"[  c #E5E3E2",
"{  c #E6E4E2",
"}  c #E6E6E6",
"|  c #E7E7E7",
" . c #EAEAEA",
".. c #ECECEC",
"X. c #FEF6ED",
"o. c #FFF7EE",
"O. c gray94",
"+. c #F3F3F3",
"@. c #F6F6F6",
"#. c gray97",
"$. c #FDFAF7",
"%. c #FCFAF8",
"&. c white",
"*. c None",
/* pixels */
"*.*.*.*.*.*.*.*.*.*.*.*.*.*.*.*.*.*.*.*.*.*.*.*.",
"*.*.*.*.*.*.*.*.*.*.*.*.*.*.*.*.*.*.*.*.*.*.*.*.",
"*.*.*.*.*.*.*.*.*.*.A D S A *.*.*.*.*.*.*.*.*.*.",
"*.*.*.*.*.*.*.*.*.*.a p i u *.*.*.*.*.*.*.*.*.*.",
"*.*.*.*.*.*.*.*.*.*.q 4 ; ; *.*.*.*.*.*.*.*.*.*.",
"*.*.*.*.*.*.*.*.*.7 q > ; ; - *.*.*.*.*.*.*.*.*.",
"*.*.*.*.*.*.*.*.*.` F x x C ^ *.*.*.*.*.*.*.*.*.",
"*.*.*.*.*.*.*.*.*.&.#.} } } } *.*.*.*.*.*.*.*.*.",
"*.*.*.*.*.*.*.*.#.&.O.} } } } ' *.*.*.*.*.*.*.*.",
"*.*.*.*.*.*.*.*.%.&. .} } } } ] *.*.*.*.*.*.*.*.",
"*.*.*.*.*.*.*.*.j L W ~ ~ T J d *.*.*.*.*.*.*.*.",
"*.*.*.*.*.*.*.5 q 5 ; ; ; ; ; ; & *.*.*.*.*.*.*.",
"*.*.*.*.*.*.*.8 0 > ; ; ; ; ; ; - *.*.*.*.*.*.*.",
"*.*.*.*.*.*.*.e q : ; ; ; ; ; ; r *.*.*.*.*.*.*.",
"*.*.*.*.*.H Q o.P n h 3 < h b I [ K M *.*.*.*.*.",
"*.*.*.*.v w Q &.O.} } } } } } } } Y @ f *.*.*.*.",
"*.*.*.*.s q X.&...} } } } } } } } ) O * *.*.*.*.",
"*.*.*.c q q G $.} } } } } } } } _ V O O g *.*.*.",
"*.*.*.j q q q t V E ( [ _ / Y N = O O O 1 *.*.*.",
"*.*.m w q q q 0 % O O O O O O O O O O O O z *.*.",
"*.*.k q q q q q 0 $ O O O O O O O O O O O 2 *.*.",
"*.*.# O O O O O O o .                     X *.*.",
"*.*.*.*.*.*.*.*.*.*.*.*.*.*.*.*.*.*.*.*.*.*.*.*.",
"*.*.*.*.*.*.*.*.*.*.*.*.*.*.*.*.*.*.*.*.*.*.*.*."
};
