/* XPM */
static char *web_google[] = {
/* columns rows colors chars-per-pixel */
"24 24 110 2 ",
"   c #FF3424",
".  c #FF3626",
"X  c #FF3929",
"o  c #FF3B2C",
"O  c #FF3D2D",
"+  c #FF4233",
"@  c #FF613C",
"#  c #FF5446",
"$  c #FF5548",
"%  c #FF5649",
"&  c #FF574A",
"*  c #FF584B",
"=  c #FF7267",
"-  c #26B14C",
";  c #29B24E",
":  c #2BB350",
">  c #2FB453",
",  c #2FB454",
"<  c #3AB85D",
"1  c #4BBE6A",
"2  c #4DBF6C",
"3  c #59C069",
"4  c #5CC47A",
"5  c #7DC468",
"6  c #FFBB00",
"7  c #FFBB01",
"8  c #F9BD09",
"9  c #FFBE0D",
"0  c #FFBF0F",
"q  c #FFBF10",
"w  c #FFC72E",
"e  c #FFC82F",
"r  c #FF8B47",
"t  c #FFDA74",
"y  c #FFDA75",
"u  c #5DBC97",
"i  c #5DB2BC",
"p  c #68C982",
"a  c #68C983",
"s  c #3284FF",
"d  c #4A92FF",
"f  c #4D94FF",
"g  c #5D9EFF",
"h  c #7EB1FF",
"j  c #FF8A81",
"k  c #FF8C82",
"l  c #FF8D84",
"z  c #FF9087",
"x  c #FF9289",
"c  c #FF9C95",
"v  c #FF9F98",
"b  c #FFBBB5",
"n  c #84D399",
"m  c #89D49D",
"M  c #8CD6A0",
"N  c #92D8A5",
"B  c #9ADBAB",
"V  c #FFCC89",
"C  c #E2DF96",
"Z  c #FFEAB1",
"A  c #FFEBB3",
"S  c #80B3FF",
"D  c #90BDFB",
"F  c #92BDFF",
"G  c #B3E4C1",
"H  c #BEE8CA",
"J  c #96C0FF",
"K  c #BCD7FF",
"L  c #C0C0C0",
"P  c gray82",
"I  c LightGray",
"U  c gray83",
"Y  c #FFC6C1",
"T  c #FFDCD9",
"R  c #FFF1D8",
"E  c #FDF4D9",
"W  c #C2DAFF",
"Q  c #DBF2E2",
"!  c #CCE0FF",
"~  c #EAEAEA",
"^  c #ECECEC",
"/  c #FFE5E3",
"(  c #FFEAE8",
")  c #FFEDEC",
"_  c #FFEFEE",
"`  c #E3F5E8",
"'  c #E4F5E9",
"]  c #EAF7ED",
"[  c #F3F3F3",
"{  c #F6F6F6",
"}  c gray97",
"|  c #FFF3F2",
" . c #F6FCF8",
".. c #F9F9F9",
"X. c gray98",
"o. c snow",
"O. c #FAFDFB",
"+. c #FBFDFF",
"@. c gray99",
"#. c #FDFDFD",
"$. c #FFFDFD",
"%. c #FCFEFC",
"&. c #FCFDFF",
"*. c #FDFEFE",
"=. c #FDFEFF",
"-. c #FEFEFE",
";. c #FFFEFE",
":. c #FEFFFE",
">. c white",
",. c None",
/* pixels */
",.,.,.,.,.,.,.,.,.,.,.,.,.,.,.,.,.,.,.,.,.,.,.,.",
",.,.,.,.,.,.,.,.,.-.-.-.-.-.-.,.,.,.,.,.,.,.,.,.",
",.,.,.,.,.,.,.-.-.-.-.-.-.-.-.-.-.,.,.,.,.,.,.,.",
",.,.,.,.,.-.-.-.-.-.-.-.-.-.-.-.-.-.-.,.,.,.,.,.",
",.,.,.,.-.-.-.-.T j # o O * z / -.-.-.-.,.,.,.,.",
",.,.,.-.-.-.-.x               X v -.-.-.-.,.,.,.",
",.,.,.-.-.o.=                   * | -.-.-.,.,.,.",
",.,.-.-.-.k       O l b Y c + % _ -.-.-.-.-.,.,.",
",.,.-.-.R @     % ( -.-.-.-._ _ -.-.-.-.-.-.,.,.",
",...-.-.y 0 r O ( -.-.-.-.-.-.-.-.-.-.-.-.-.} ,.",
",...-.-.w 6 7 V -.-.-.-.F F F F F F F W -.-...,.",
",.-.-.-.0 6 7 Z -.-.-.-.s s s s s s s h -.-.-.,.",
",.-.-.-.q 6 6 Z -.-.-.-.s s s s s s s S -.-.-.,.",
",.} -.-.e 6 6 C -.-.-.-.F F F F g s s J -.-.} ,.",
",.^ -.-.y 8 5 <  .-.-.-.-.-.-.-.d s s ! -.-.^ ,.",
",.,.-.-.E 3 - - a %.-.-.-.-.-.h s s f -.-.-.,.,.",
",.,.-.-.-.N - - - 1 G ' ] H 4 i s s K -.-.-.,.,.",
",.,.I -.-.-.p - - - - - - - - - u D -.-.-.U ,.,.",
",.,.,.} -.-.-.m ; - - - - - - : B -.-.-.[ ,.,.,.",
",.,.,.,...-.-.-.Q n 1 , , 3 n ' -.-.-...,.,.,.,.",
",.,.,.,.,.} -.-.-.-.-.-.-.-.-.-.-.-.[ ,.,.,.,.,.",
",.,.,.,.,.,.I -.-.-.-.-.-.-.-.-.-.I ,.,.,.,.,.,.",
",.,.,.,.,.,.,.,.L ~ } -.-.} ~ L ,.,.,.,.,.,.,.,.",
",.,.,.,.,.,.,.,.,.,.,.,.,.,.,.,.,.,.,.,.,.,.,.,."
};
