/* XPM */
static char *x_office_spreadsheet_1[] = {
/* columns rows colors chars-per-pixel */
"24 24 26 1 ",
"  c #5CACA5",
". c #64BBB3",
"X c #66BFB7",
"o c #68C0B8",
"O c #6DC2BA",
"+ c #6EC2BB",
"@ c #71C4BC",
"# c #83CBC4",
"$ c #83CCC5",
"% c #85CCC5",
"& c #91D1CB",
"* c #95D3CD",
"= c #98D4CE",
"- c #9ED7D2",
"; c #ABDCD7",
": c #B0DEDA",
"> c #C7E7E4",
", c #CDEAE7",
"< c #D3EDEA",
"1 c #E0F2F1",
"2 c #E2F3F1",
"3 c #EFF8F7",
"4 c #EFF8F8",
"5 c #F7FBFB",
"6 c white",
"7 c None",
/* pixels */
"777777777777777777777777",
"777777777777777777777777",
"777777777777777777777777",
"77#%%%%%%%%%%%%%%%%%%%77",
"77OXXXXXXXXXXXXXXXXXXO77",
"77XXXXXXXXXXXXXXXXXXXX77",
"77XXXXXXXXXXXXXXXXXXXX77",
"77XXXXXXXXXXXXXXXXXXXX77",
"77XXXXXXXXXXXXXXXXXXXX77",
"77XXXXXX=XXXXXXXXXXXXX77",
"77XXXXX;6:XXXXXXXXXXXX77",
"77XXXX*666-XXXXoOXXXXX77",
"77XXX#56666&XXo>1@oXXX77",
"77XXX3666665#o,661OoXo77",
"77XXX66666664<66661XXX77",
"77XXX66666666666666XXX77",
"77XXX66666666666666XXX77",
"77XXXXXXXXXXXXXXXXXXXX77",
"77XXXXXXXXXXXXXXXXXXXX77",
"77.XXXXXXXXoXXXXXXXXX.77",
"77                    77",
"777777777777777777777777",
"777777777777777777777777",
"777777777777777777777777"
};
