/* XPM */
static char *x_office_spreadsheet_3[] = {
/* columns rows colors chars-per-pixel */
"24 24 15 1 ",
"  c #503953",
". c #563F59",
"X c #665269",
"o c #6D5A71",
"O c #7F6D81",
"+ c #817185",
"@ c #9C909F",
"# c #9E92A1",
"$ c #B8AFB9",
"% c #C7C0C8",
"& c #C8C2C9",
"* c #CCC6CD",
"= c #CEC9CF",
"- c #D6D1D7",
"; c None",
/* pixels */
";;;;;;;;;;;;;;;;;;;;;;;;",
";;;;;;;;;;;;;;;;;;;;;;;;",
";;;;;;;;;;;;;;;;;;;;;;;;",
";;--------------------;;",
";;=******************=;;",
";;********************;;",
";;********************;;",
";;********************;;",
";;****o      o********;;",
";;****        **&+****;;",
";;****        *$X ****;;",
";;****        @.  ****;;",
";;****        #.  ****;;",
";;****        *$X ****;;",
";;****        **%O****;;",
";;****o      o********;;",
";;********************;;",
";;********************;;",
";;********************;;",
";;********************;;",
";;********************;;",
";;;;;;;;;;;;;;;;;;;;;;;;",
";;;;;;;;;;;;;;;;;;;;;;;;",
";;;;;;;;;;;;;;;;;;;;;;;;"
};
