/* XPM */
static char *x_office_spreadsheet_4[] = {
/* columns rows colors chars-per-pixel */
"24 24 16 1 ",
"  c #1A77C2",
". c #1B7ECD",
"X c #1F95F2",
"o c #2095F2",
"O c #2597F2",
"+ c #369FF3",
"@ c #359FF4",
"# c #6EAEE1",
"$ c #68B0E8",
"% c #76B6EA",
"& c #78BAEF",
"* c #78BDF4",
"= c #7CBFF6",
"- c #7CC0F5",
"; c white",
": c None",
/* pixels */
"::::::::::::::::::::::::",
"::::::::::::::::::::::::",
"::::@+++++++++*:::::::::",
"::::Oooooooooo-=::::::::",
"::::oooooooooo--*:::::::",
"::::oooooooooo---&::::::",
"::::oooooooooo----%:::::",
"::::oooooooooo$----#::::",
"::::oooooooooo.     ::::",
"::::oooooooooooooooo::::",
"::::oooooooooooooooo::::",
"::::oooooooooooooooo::::",
"::::ooo;;;;;;;;;;ooo::::",
"::::oooooooooooooooo::::",
"::::ooo;;;;;;;;;;ooo::::",
"::::oooooooooooooooo::::",
"::::ooo;;;;;;;;;;ooo::::",
"::::oooooooooooooooo::::",
"::::ooo;;;;;;;oooooo::::",
"::::oooooooooooooooo::::",
"::::oooooooooooooooo::::",
"::::oooooooooooooooX::::",
"::::::::::::::::::::::::",
"::::::::::::::::::::::::"
};
