#define archive_width 48
#define archive_height 48
static unsigned char archive_bits[] = {
   0x00, 0x00, 0x00, 0x00, 0x00, 0x00, 0x80, 0x03, 0x02, 0x38, 0xe0, 0x80,
   0xe0, 0x03, 0x00, 0x3e, 0xf8, 0xe0, 0xf0, 0x01, 0x00, 0x1e, 0x7c, 0xf0,
   0xf8, 0x00, 0x00, 0x08, 0x3e, 0x78, 0x7c, 0x00, 0x00, 0x00, 0x1f, 0x7c,
   0x3c, 0x00, 0x00, 0x80, 0x0f, 0x3e, 0x1e, 0x00, 0x00, 0x00, 0x06, 0x1f,
   0x06, 0x00, 0x00, 0x00, 0xc0, 0x0f, 0x00, 0x00, 0x00, 0x00, 0xe0, 0x07,
   0x00, 0x00, 0x00, 0x00, 0xd0, 0x03, 0x02, 0x00, 0x00, 0x00, 0xc8, 0xc1,
   0x0d, 0x00, 0x00, 0x00, 0xc4, 0xe0, 0x30, 0x00, 0x00, 0x00, 0x42, 0xf0,
   0xc0, 0x00, 0x00, 0x00, 0x01, 0x78, 0x00, 0x03, 0x00, 0x80, 0x00, 0x7c,
   0x00, 0x0c, 0x00, 0x40, 0x00, 0x3e, 0x00, 0x10, 0x00, 0x20, 0x00, 0x1f,
   0x00, 0x60, 0x00, 0x10, 0x80, 0x0f, 0x00, 0x80, 0x01, 0x08, 0xc0, 0x07,
   0x00, 0x00, 0x06, 0x04, 0xc0, 0x03, 0x00, 0x00, 0x18, 0x02, 0xc0, 0xc1,
   0x00, 0x00, 0x60, 0x01, 0xc0, 0xe0, 0x00, 0x00, 0x80, 0x00, 0x60, 0xf0,
   0x00, 0x00, 0x80, 0x00, 0x08, 0x78, 0x00, 0x00, 0x80, 0x00, 0x02, 0x70,
   0x00, 0x00, 0x80, 0x00, 0x01, 0x02, 0x00, 0x00, 0x80, 0x00, 0x00, 0x02,
   0x00, 0x00, 0x80, 0x80, 0x00, 0x03, 0x00, 0x00, 0x80, 0x00, 0x00, 0x01,
   0x01, 0x00, 0x80, 0x00, 0x80, 0x01, 0x06, 0x00, 0x80, 0x40, 0x90, 0x80,
   0x18, 0x00, 0x80, 0x00, 0xb0, 0x80, 0x20, 0x00, 0x80, 0x80, 0x40, 0x80,
   0xd8, 0x00, 0x80, 0x00, 0x00, 0x00, 0x7c, 0x03, 0x80, 0x80, 0x00, 0x40,
   0x3c, 0x0c, 0x80, 0x80, 0x01, 0x00, 0x1e, 0x10, 0x80, 0xc0, 0x03, 0x00,
   0x0e, 0x7e, 0x80, 0xe0, 0x03, 0x00, 0x06, 0x9f, 0x81, 0xf0, 0x01, 0x06,
   0x80, 0x0f, 0x82, 0xf8, 0xe0, 0x03, 0xc0, 0x07, 0x8f, 0x7c, 0xf0, 0xc1,
   0xe0, 0x83, 0xbf, 0x3e, 0xf8, 0xe0, 0xf0, 0xc1, 0xc7, 0x1f, 0x7c, 0xf0,
   0xf8, 0xe0, 0x83, 0x0f, 0x3e, 0x78, 0x7c, 0xf0, 0xc1, 0x07, 0x1f, 0x7c,
   0x3c, 0xf8, 0xe0, 0x83, 0x0f, 0x3e, 0x0e, 0x38, 0xe0, 0x80, 0x03, 0x0e};
