#define chat48x48_width 48
#define chat48x48_height 48
static unsigned char chat48x48_bits[] = {
   0x00, 0x00, 0x00, 0x00, 0x00, 0x00, 0x00, 0x00, 0x00, 0x00, 0x00, 0x00,
   0x00, 0x00, 0x00, 0x00, 0x00, 0x00, 0x00, 0x00, 0xfc, 0xff, 0xff, 0x1f,
   0x00, 0x00, 0x06, 0x00, 0x00, 0x30, 0x00, 0x00, 0x03, 0x00, 0x00, 0x60,
   0x00, 0x00, 0x01, 0x00, 0x00, 0x60, 0x00, 0x00, 0x01, 0x00, 0x00, 0x60,
   0x00, 0x00, 0x01, 0x00, 0x00, 0x60, 0x00, 0x00, 0x01, 0x00, 0x00, 0x60,
   0x00, 0x00, 0x81, 0xff, 0xff, 0x60, 0x00, 0x00, 0x00, 0xff, 0xff, 0x61,
   0x00, 0x80, 0x00, 0x00, 0x00, 0x60, 0x00, 0xf0, 0x0f, 0x00, 0x00, 0x60,
   0x00, 0xfc, 0x1f, 0xe0, 0xff, 0x61, 0x00, 0xfe, 0x3f, 0xc0, 0xff, 0x63,
   0x00, 0xfe, 0x7f, 0x00, 0x00, 0x60, 0x00, 0xff, 0x7f, 0x00, 0x00, 0x60,
   0x00, 0xff, 0x7f, 0x00, 0x00, 0x60, 0x00, 0xff, 0xff, 0x00, 0x00, 0x60,
   0x00, 0xe3, 0xe7, 0x00, 0x00, 0x60, 0x00, 0x83, 0xe0, 0x00, 0x00, 0x60,
   0x00, 0x03, 0xc0, 0x80, 0xff, 0x3f, 0x00, 0x03, 0x40, 0xc0, 0xff, 0x1f,
   0x00, 0x01, 0x40, 0x60, 0x00, 0x00, 0x00, 0x01, 0x40, 0x70, 0x00, 0x00,
   0x00, 0x00, 0x00, 0x38, 0x00, 0x00, 0x00, 0x00, 0x00, 0x18, 0x00, 0x00,
   0x00, 0x00, 0x00, 0x0c, 0x00, 0x00, 0x00, 0x00, 0x00, 0x06, 0x00, 0x00,
   0x00, 0x00, 0x00, 0x00, 0x00, 0x00, 0x00, 0x00, 0x00, 0x00, 0x00, 0x00,
   0x00, 0x00, 0x00, 0x00, 0x00, 0x00, 0x00, 0x02, 0x20, 0x00, 0x00, 0x00,
   0x80, 0x07, 0xf0, 0x01, 0x00, 0x00, 0xf0, 0x0f, 0xf8, 0x07, 0x00, 0x00,
   0xfc, 0x1f, 0xfc, 0x1f, 0x00, 0x00, 0xfe, 0x3f, 0xfe, 0x3f, 0x00, 0x00,
   0xfe, 0x3f, 0xfe, 0x3f, 0x00, 0x00, 0xfe, 0x7f, 0xff, 0x3f, 0x00, 0x00,
   0xfe, 0x7f, 0xff, 0x3f, 0x00, 0x00, 0xfe, 0xff, 0xff, 0x3f, 0x00, 0x00,
   0xfe, 0xff, 0xff, 0x3f, 0x00, 0x00, 0xfe, 0xff, 0xff, 0x3f, 0x00, 0x00,
   0xfc, 0xff, 0xff, 0x1f, 0x00, 0x00, 0x00, 0x00, 0x00, 0x00, 0x00, 0x00,
   0x00, 0x00, 0x00, 0x00, 0x00, 0x00, 0x00, 0x00, 0x00, 0x00, 0x00, 0x00};
