#define htop48x48_width 48
#define htop48x48_height 48
static unsigned char htop48x48_bits[] = {
   0x00, 0x00, 0x00, 0x00, 0x00, 0x00, 0x00, 0x00, 0x00, 0x00, 0x00, 0x00,
   0x00, 0x00, 0x00, 0x00, 0x00, 0x00, 0x00, 0x00, 0x00, 0x00, 0x00, 0x00,
   0x00, 0x00, 0x00, 0x00, 0x00, 0x00, 0x00, 0x00, 0x00, 0x00, 0x00, 0x00,
   0x00, 0x00, 0x00, 0x00, 0x00, 0x00, 0x00, 0x00, 0x00, 0x00, 0x00, 0x00,
   0x00, 0x00, 0x00, 0x00, 0x00, 0x00, 0x00, 0x00, 0x00, 0x00, 0x00, 0x00,
   0x00, 0x00, 0x00, 0x00, 0x00, 0x00, 0x00, 0x00, 0x00, 0x00, 0x00, 0x00,
   0xc0, 0x37, 0x3b, 0x6e, 0xf6, 0x01, 0xc0, 0x37, 0x3b, 0x6e, 0xf6, 0x01,
   0xc0, 0x37, 0x3b, 0x6e, 0xf6, 0x01, 0xc0, 0x30, 0x3b, 0x6e, 0xe6, 0x01,
   0xc0, 0x37, 0x3b, 0x6e, 0xf6, 0x01, 0xc0, 0x37, 0x3b, 0x6e, 0xf6, 0x01,
   0xc0, 0x37, 0x3b, 0x6e, 0xf6, 0x01, 0x00, 0x00, 0x00, 0x00, 0x00, 0x00,
   0xc0, 0x37, 0x7b, 0x6f, 0xf6, 0x01, 0xc0, 0x37, 0x4b, 0x69, 0xf6, 0x01,
   0xc0, 0x37, 0x4b, 0x69, 0xf6, 0x01, 0xc0, 0x30, 0x4b, 0x69, 0x86, 0x01,
   0xc0, 0x37, 0x4b, 0x69, 0xf6, 0x01, 0xc0, 0x37, 0x4b, 0x69, 0xf6, 0x01,
   0xc0, 0x37, 0x7b, 0x6f, 0xf6, 0x01, 0x00, 0x00, 0x00, 0x00, 0x00, 0x00,
   0xc0, 0x37, 0x3b, 0x6e, 0xf6, 0x01, 0xc0, 0x37, 0x3b, 0x6e, 0xf6, 0x01,
   0xc0, 0x37, 0x3b, 0x6e, 0xf6, 0x01, 0xc0, 0x30, 0x3b, 0x6e, 0x86, 0x01,
   0xc0, 0x37, 0x3b, 0x6e, 0xf6, 0x01, 0xc0, 0x37, 0x3b, 0x6e, 0xf6, 0x01,
   0xc0, 0x37, 0x3b, 0x6e, 0xf6, 0x01, 0x00, 0x00, 0x00, 0x00, 0x00, 0x00,
   0x00, 0x00, 0x00, 0x00, 0x00, 0x00, 0x00, 0x00, 0x00, 0x00, 0x00, 0x00,
   0x00, 0x00, 0x00, 0x00, 0x00, 0x00, 0x00, 0x00, 0x00, 0x00, 0x00, 0x00,
   0x00, 0x00, 0x00, 0x00, 0x00, 0x00, 0x00, 0x00, 0x00, 0x00, 0x00, 0x00,
   0x00, 0x00, 0x00, 0x00, 0x00, 0x00, 0x00, 0x00, 0x00, 0x00, 0x00, 0x00,
   0x00, 0x00, 0x00, 0x00, 0x00, 0x00, 0x00, 0x00, 0x00, 0x00, 0x00, 0x00,
   0x00, 0x00, 0x00, 0x00, 0x00, 0x00, 0x00, 0x00, 0x00, 0x00, 0x00, 0x00};
