#define terminator48x48_width 48
#define terminator48x48_height 48
static unsigned char terminator48x48_bits[] = {
   0x00, 0x00, 0x00, 0xf4, 0xff, 0xff, 0x00, 0x00, 0x00, 0xa0, 0xff, 0xff,
   0x00, 0x00, 0x00, 0xa0, 0xff, 0xff, 0x00, 0x00, 0x00, 0x20, 0xff, 0xff,
   0x01, 0x00, 0x00, 0x68, 0xff, 0xff, 0x12, 0x00, 0x00, 0x90, 0xfe, 0xff,
   0x30, 0x00, 0x00, 0xc4, 0xff, 0xff, 0x10, 0x00, 0x00, 0x00, 0x04, 0x02,
   0x10, 0x00, 0x00, 0x00, 0x04, 0x02, 0x11, 0x00, 0x00, 0x00, 0x00, 0x00,
   0x22, 0x00, 0x00, 0x00, 0x00, 0x00, 0x20, 0x00, 0x00, 0x00, 0x00, 0x00,
   0x22, 0x00, 0x00, 0x00, 0x00, 0x04, 0x32, 0x00, 0x00, 0x00, 0x08, 0x0e,
   0x20, 0x00, 0x00, 0x00, 0x00, 0x1e, 0x21, 0x00, 0x00, 0x00, 0x80, 0x1f,
   0x02, 0x00, 0x00, 0x00, 0xc0, 0x1f, 0x20, 0x00, 0x00, 0x00, 0xc0, 0x1f,
   0x20, 0x00, 0x00, 0x00, 0x90, 0x7f, 0x20, 0x00, 0x00, 0x00, 0x0a, 0x88,
   0x12, 0x00, 0x00, 0x50, 0x00, 0x80, 0x00, 0x00, 0x00, 0x20, 0x32, 0x14,
   0x12, 0x00, 0x00, 0x00, 0x7c, 0x8a, 0x00, 0x00, 0x00, 0x00, 0x3f, 0xe0,
   0x00, 0x00, 0x00, 0x00, 0x3f, 0xe0, 0x10, 0x00, 0x00, 0x00, 0x7c, 0xfe,
   0x09, 0x00, 0x00, 0x00, 0x19, 0xc0, 0x09, 0x00, 0x00, 0x00, 0x05, 0x1e,
   0x13, 0x00, 0x00, 0x00, 0x43, 0x7e, 0x3a, 0x00, 0x00, 0x00, 0x1d, 0x20,
   0x02, 0x00, 0x00, 0x00, 0x8c, 0xa1, 0x00, 0x00, 0x00, 0x00, 0x18, 0x14,
   0x10, 0x00, 0x00, 0x00, 0xa0, 0x9d, 0x00, 0x00, 0x00, 0x00, 0x20, 0x26,
   0x10, 0x00, 0x00, 0x00, 0x40, 0x8c, 0x00, 0x00, 0x00, 0x00, 0x10, 0x90,
   0x30, 0x00, 0x00, 0x00, 0x40, 0x00, 0x20, 0x00, 0x00, 0x00, 0x00, 0x00,
   0x10, 0x04, 0x00, 0x00, 0x00, 0x00, 0x50, 0x10, 0x00, 0x00, 0x00, 0x00,
   0x50, 0x10, 0x00, 0x00, 0x00, 0x00, 0x30, 0x00, 0x00, 0x00, 0x00, 0x00,
   0xc0, 0x11, 0x00, 0x00, 0x40, 0x04, 0x00, 0x08, 0x00, 0x00, 0x00, 0x02,
   0x00, 0x50, 0x00, 0x00, 0x20, 0x12, 0x80, 0x6f, 0x00, 0x80, 0x90, 0x05,
   0xc0, 0x7f, 0x00, 0x00, 0x00, 0x04, 0xc0, 0x1f, 0x00, 0x00, 0x60, 0x02};
