#define volume48x48_width 48
#define volume48x48_height 48
static unsigned char volume48x48_bits[] = {
   0x00, 0x00, 0x00, 0x00, 0x00, 0x00, 0x00, 0x00, 0x00, 0x00, 0x00, 0x00,
   0x00, 0x00, 0x00, 0x00, 0x00, 0x00, 0x00, 0x00, 0x00, 0x00, 0x00, 0x00,
   0x00, 0x00, 0x00, 0x00, 0x00, 0x00, 0x00, 0x00, 0x00, 0x00, 0x00, 0x00,
   0x00, 0x00, 0x00, 0x00, 0x00, 0x00, 0x00, 0x00, 0x00, 0x00, 0x00, 0x00,
   0x00, 0x00, 0x00, 0x00, 0x00, 0x00, 0x00, 0x00, 0x00, 0x00, 0x00, 0x00,
   0x00, 0x00, 0x20, 0x00, 0x00, 0x00, 0x00, 0x00, 0x30, 0x00, 0x70, 0x00,
   0x00, 0x00, 0x38, 0x00, 0x70, 0x00, 0x00, 0x00, 0x3c, 0x00, 0x70, 0x00,
   0x00, 0x00, 0x3e, 0xc0, 0x71, 0x00, 0x00, 0x00, 0x3f, 0xc0, 0x71, 0x00,
   0x00, 0x80, 0x3f, 0xc0, 0x71, 0x00, 0x00, 0xc0, 0x3f, 0xc0, 0x71, 0x00,
   0x00, 0xe0, 0x3f, 0xc7, 0x71, 0x00, 0x00, 0xf0, 0x3f, 0xc7, 0x71, 0x00,
   0xe0, 0xff, 0x3f, 0xc7, 0x71, 0x00, 0xe0, 0xff, 0x3f, 0xc7, 0x71, 0x00,
   0xe0, 0xff, 0x3f, 0xc7, 0x71, 0x00, 0xe0, 0xff, 0x3f, 0xc7, 0x71, 0x00,
   0xe0, 0xff, 0x3f, 0xc7, 0x71, 0x00, 0xe0, 0xff, 0x3f, 0xc7, 0x71, 0x00,
   0xe0, 0xff, 0x3f, 0xc7, 0x71, 0x00, 0xe0, 0xff, 0x3f, 0xc7, 0x71, 0x00,
   0xe0, 0xff, 0x3f, 0xc7, 0x71, 0x00, 0x00, 0xf8, 0x3f, 0xc7, 0x71, 0x00,
   0x00, 0xf0, 0x3f, 0xc7, 0x71, 0x00, 0x00, 0xe0, 0x3f, 0xc7, 0x71, 0x00,
   0x00, 0xc0, 0x3f, 0xc7, 0x71, 0x00, 0x00, 0x80, 0x3f, 0xc0, 0x71, 0x00,
   0x00, 0x00, 0x3f, 0xc0, 0x71, 0x00, 0x00, 0x00, 0x3e, 0xc0, 0x71, 0x00,
   0x00, 0x00, 0x3c, 0xc0, 0x71, 0x00, 0x00, 0x00, 0x38, 0x00, 0x70, 0x00,
   0x00, 0x00, 0x30, 0x00, 0x70, 0x00, 0x00, 0x00, 0x20, 0x00, 0x70, 0x00,
   0x00, 0x00, 0x00, 0x00, 0x00, 0x00, 0x00, 0x00, 0x00, 0x00, 0x00, 0x00,
   0x00, 0x00, 0x00, 0x00, 0x00, 0x00, 0x00, 0x00, 0x00, 0x00, 0x00, 0x00,
   0x00, 0x00, 0x00, 0x00, 0x00, 0x00, 0x00, 0x00, 0x00, 0x00, 0x00, 0x00,
   0x00, 0x00, 0x00, 0x00, 0x00, 0x00, 0x00, 0x00, 0x00, 0x00, 0x00, 0x00};
