#define archive24x24_width 24
#define archive24x24_height 24
static unsigned char archive24x24_bits[] = {
   0x00, 0x00, 0x00, 0x00, 0x00, 0x00, 0x00, 0x00, 0x00, 0xc0, 0xff, 0x00,
   0xc0, 0xf3, 0x01, 0xc0, 0xf3, 0x03, 0xc0, 0xf3, 0x03, 0xc0, 0xef, 0x03,
   0xc0, 0xf7, 0x03, 0xc0, 0xef, 0x03, 0xc0, 0xf7, 0x03, 0xc0, 0xef, 0x03,
   0xc0, 0xf7, 0x03, 0xc0, 0xef, 0x03, 0xc0, 0xf7, 0x03, 0xc0, 0xef, 0x03,
   0xc0, 0xf7, 0x03, 0xc0, 0xef, 0x03, 0xc0, 0xf7, 0x03, 0xc0, 0xef, 0x03,
   0xc0, 0xff, 0x03, 0x00, 0x00, 0x00, 0x00, 0x00, 0x00, 0x00, 0x00, 0x00};
