#define bitmap_width 24
#define bitmap_height 24
static unsigned char bitmap_bits[] = {
   0xaa, 0xaa, 0xaa, 0x01, 0x00, 0x00, 0xa8, 0xaa, 0xaa, 0x05, 0x00, 0x00,
   0xa0, 0xaa, 0xaa, 0x55, 0x55, 0x05, 0xa0, 0xaa, 0xaa, 0x55, 0x55, 0x05,
   0xa0, 0x28, 0xaa, 0x55, 0x10, 0x04, 0xa0, 0x28, 0xaa, 0x55, 0x55, 0x05,
   0xa0, 0xaa, 0xaa, 0x55, 0x55, 0x05, 0xa0, 0xaa, 0xaa, 0x15, 0x00, 0x00,
   0xa0, 0xaa, 0xaa, 0x55, 0x55, 0x05, 0xa0, 0xaa, 0xaa, 0x55, 0x55, 0x05,
   0x00, 0x00, 0xa0, 0x55, 0x55, 0x15, 0x00, 0x00, 0x80, 0x55, 0x55, 0x55};
