#define calculator_width 24
#define calculator_height 24
static unsigned char calculator_bits[] = {
   0xff, 0xff, 0xff, 0xff, 0xff, 0xff, 0x07, 0x00, 0xe0, 0x03, 0x00, 0xc0,
   0x83, 0x00, 0xc3, 0xe3, 0x03, 0xc3, 0xe3, 0x03, 0xc3, 0xf3, 0xe7, 0xdf,
   0xe3, 0xe3, 0xdf, 0xe3, 0x03, 0xc3, 0x83, 0x00, 0xc3, 0x03, 0x00, 0xc3,
   0x03, 0x00, 0xc0, 0x03, 0x00, 0xc0, 0x03, 0x00, 0xc8, 0x03, 0x00, 0xc4,
   0xf3, 0x0f, 0xc2, 0xf3, 0x0f, 0xc1, 0xf3, 0x8f, 0xc0, 0x03, 0x40, 0xc0,
   0x03, 0x00, 0xc0, 0x07, 0x00, 0xe0, 0xff, 0xff, 0xff, 0xff, 0xff, 0xff};
