#define chat_width 24
#define chat_height 24
static unsigned char chat_bits[] = {
   0x00, 0x00, 0x00, 0x00, 0x00, 0x00, 0x00, 0x00, 0x00, 0xfc, 0xff, 0x7f,
   0xfc, 0xff, 0x7f, 0x0c, 0x00, 0x60, 0x0c, 0x00, 0x60, 0x0c, 0x00, 0x60,
   0x0c, 0x00, 0x60, 0xcc, 0x39, 0x67, 0xcc, 0x39, 0x67, 0xcc, 0x39, 0x67,
   0x0c, 0x00, 0x60, 0x0c, 0x00, 0x60, 0x0c, 0x00, 0x60, 0x0c, 0x00, 0x60,
   0xfc, 0x07, 0x7f, 0xfc, 0x0f, 0x7f, 0x00, 0x18, 0x03, 0x00, 0x30, 0x03,
   0x00, 0x60, 0x03, 0x00, 0xc0, 0x03, 0x00, 0x80, 0x03, 0x00, 0x00, 0x03};
