#define clipboard24x24_width 24
#define clipboard24x24_height 24
static unsigned char clipboard24x24_bits[] = {
   0x00, 0x0c, 0x00, 0xc0, 0xf3, 0x00, 0xc0, 0xf3, 0x00, 0x30, 0x0c, 0x03,
   0xf8, 0xff, 0x0f, 0x08, 0x00, 0x0c, 0xc8, 0x00, 0x0c, 0xc8, 0x00, 0x0c,
   0x08, 0x00, 0x0c, 0x08, 0x7f, 0x0c, 0x08, 0x00, 0x0c, 0x08, 0x00, 0x0c,
   0x08, 0x7f, 0x0c, 0x08, 0x7f, 0x0c, 0x08, 0x00, 0x0c, 0x08, 0x7f, 0x0c,
   0x08, 0x00, 0x0c, 0x08, 0x00, 0x0c, 0x08, 0x7f, 0x0c, 0x08, 0x00, 0x0c,
   0x08, 0x00, 0x0c, 0x08, 0x00, 0x0c, 0x08, 0x00, 0x0c, 0xf8, 0xff, 0x0f};
