#define crunchbang24x24_width 24
#define crunchbang24x24_height 24
static unsigned char crunchbang24x24_bits[] = {
   0x00, 0x00, 0xf0, 0x70, 0x38, 0xf0, 0x70, 0x38, 0xf0, 0x70, 0x38, 0xf0,
   0x70, 0x38, 0xf0, 0x70, 0x38, 0xf0, 0x70, 0x38, 0xf0, 0xff, 0xff, 0xf3,
   0xff, 0xff, 0xf3, 0xff, 0xff, 0xf3, 0x70, 0x38, 0xf0, 0x70, 0x38, 0xf0,
   0x70, 0x38, 0xf0, 0x70, 0x38, 0xf0, 0xff, 0xff, 0xf3, 0xff, 0xff, 0xf3,
   0xff, 0xff, 0xf3, 0x70, 0x38, 0x00, 0x70, 0x38, 0x00, 0x70, 0x38, 0x00,
   0x70, 0x38, 0xf0, 0x70, 0x38, 0xf0, 0x70, 0x38, 0xf0, 0x00, 0x00, 0xf0};
