#define edit_width 24
#define edit_height 24
static unsigned char edit_bits[] = {
   0xf0, 0xff, 0x03, 0x08, 0x00, 0x05, 0x0a, 0x00, 0x09, 0x08, 0x00, 0x11,
   0x0a, 0x00, 0x21, 0xea, 0x07, 0x3f, 0x0a, 0x00, 0x20, 0xea, 0x0f, 0x20,
   0x0a, 0x00, 0x20, 0xea, 0xff, 0x20, 0x0a, 0x00, 0x20, 0xea, 0xff, 0x20,
   0x0a, 0x00, 0x20, 0xea, 0xff, 0x20, 0x0a, 0x00, 0x20, 0xea, 0xff, 0x20,
   0x0a, 0x00, 0x20, 0xea, 0xff, 0x20, 0x0a, 0x00, 0x20, 0x0a, 0x00, 0x20,
   0x08, 0x00, 0x20, 0x0a, 0x00, 0x20, 0x0a, 0x00, 0x20, 0xf0, 0xff, 0x1f};
