#define file-roll_width 24
#define file-roll_height 24
static unsigned char file-roll_bits[] = {
   0x00, 0x00, 0x00, 0x00, 0x00, 0x00, 0x00, 0x00, 0x00, 0x00, 0x00, 0x00,
   0x00, 0xf0, 0x00, 0x00, 0xfe, 0x07, 0x00, 0xff, 0x0f, 0x00, 0x03, 0x18,
   0x80, 0x01, 0x18, 0xc0, 0x01, 0x0c, 0xe0, 0xff, 0x0c, 0xe0, 0x3f, 0x06,
   0xf0, 0x0f, 0x06, 0xf0, 0x0f, 0x03, 0xf0, 0x8f, 0x03, 0xf0, 0x8f, 0x01,
   0xf0, 0x1f, 0x00, 0xc0, 0x1f, 0x00, 0x00, 0x3c, 0x00, 0x00, 0x00, 0x00,
   0x00, 0x00, 0x00, 0x00, 0x00, 0x00, 0x00, 0x00, 0x00, 0x00, 0x00, 0x00};
