#define file24x24_width 24
#define file24x24_height 24
static unsigned char file24x24_bits[] = {
   0x00, 0x00, 0x00, 0x00, 0x00, 0x00, 0x00, 0x00, 0x00, 0x00, 0x00, 0x00,
   0xf8, 0x03, 0x00, 0xf8, 0xff, 0x03, 0x08, 0xf8, 0x03, 0x08, 0xf8, 0x03,
   0x08, 0x00, 0x00, 0xc8, 0x0f, 0x00, 0xc8, 0xff, 0x1f, 0xc8, 0xff, 0x1f,
   0xc8, 0xff, 0x1f, 0xc8, 0xff, 0x1f, 0xc8, 0xff, 0x1f, 0xc0, 0xff, 0x1f,
   0xc0, 0xff, 0x1f, 0xc0, 0xff, 0x1f, 0xc0, 0xff, 0x1f, 0xc0, 0xff, 0x1f,
   0x00, 0x00, 0x00, 0x00, 0x00, 0x00, 0x00, 0x00, 0x00, 0x00, 0x00, 0x00};
