#define film_width 24
#define film_height 24
static unsigned char film_bits[] = {
   0x00, 0x00, 0x00, 0x00, 0x00, 0x00, 0x00, 0x00, 0x00, 0xd8, 0xff, 0x1b,
   0xd8, 0xff, 0x1b, 0xc0, 0xff, 0x03, 0xd8, 0xff, 0x1b, 0xd8, 0xff, 0x1b,
   0xc0, 0xff, 0x03, 0xd8, 0xff, 0x1b, 0xd8, 0xff, 0x1b, 0x00, 0x00, 0x00,
   0x18, 0x00, 0x18, 0xd8, 0xff, 0x1b, 0xc0, 0xff, 0x03, 0xd8, 0xff, 0x1b,
   0xd8, 0xff, 0x1b, 0xc0, 0xff, 0x03, 0xd8, 0xff, 0x1b, 0xd8, 0xff, 0x1b,
   0xd8, 0xff, 0x1b, 0x00, 0x00, 0x00, 0x00, 0x00, 0x00, 0x00, 0x00, 0x00};
