#define fonts24x24_width 24
#define fonts24x24_height 24
static unsigned char fonts24x24_bits[] = {
   0xff, 0xff, 0xff, 0x01, 0x00, 0x80, 0x01, 0x00, 0x80, 0x01, 0x00, 0x80,
   0x01, 0x00, 0x80, 0x01, 0x00, 0x80, 0x01, 0x00, 0x80, 0x01, 0x00, 0x80,
   0xc1, 0x01, 0x80, 0xf1, 0x07, 0x80, 0xf1, 0x07, 0x84, 0x31, 0x06, 0x86,
   0x31, 0xe6, 0x87, 0xf1, 0xe7, 0x87, 0x31, 0x66, 0x86, 0x31, 0x66, 0x86,
   0x31, 0xe6, 0x8f, 0x1d, 0xee, 0x8f, 0x01, 0x00, 0x80, 0x01, 0x00, 0x80,
   0x01, 0x00, 0x80, 0x01, 0x00, 0x80, 0x01, 0x00, 0x80, 0xff, 0xff, 0xff};
