#define func24x24_width 24
#define func24x24_height 24
static unsigned char func24x24_bits[] = {
   0xff, 0xff, 0xff, 0x01, 0x00, 0x80, 0x01, 0x00, 0x80, 0x01, 0x00, 0x80,
   0xf1, 0x07, 0x80, 0xf1, 0x07, 0x80, 0x31, 0x60, 0x8c, 0x31, 0x30, 0x98,
   0x3d, 0x18, 0xb0, 0xfd, 0x48, 0xa4, 0xf1, 0x8c, 0xe2, 0x31, 0x04, 0xc1,
   0x31, 0x04, 0xc1, 0x31, 0x84, 0xc2, 0x31, 0x4c, 0xe4, 0x31, 0x08, 0xa0,
   0x31, 0x18, 0xb0, 0x31, 0x30, 0x98, 0x3f, 0x60, 0x8c, 0x01, 0x00, 0x80,
   0x01, 0x00, 0x80, 0x01, 0x00, 0x80, 0x01, 0x00, 0x80, 0xff, 0xff, 0xff};
