#define gimp_width 24
#define gimp_height 24
static unsigned char gimp_bits[] = {
   0x00, 0x00, 0x00, 0x00, 0x00, 0x00, 0x00, 0x00, 0x00, 0x00, 0x00, 0x00,
   0x00, 0x00, 0x00, 0x00, 0x00, 0x00, 0x30, 0x00, 0x10, 0x70, 0x00, 0x18,
   0xe0, 0x00, 0x1c, 0x40, 0x01, 0x09, 0xc0, 0xaa, 0x0a, 0xe0, 0x5f, 0x07,
   0xe0, 0xbf, 0x03, 0xe0, 0x47, 0x02, 0xa0, 0xaf, 0x01, 0x44, 0x55, 0x00,
   0xa0, 0x5a, 0x17, 0x50, 0x65, 0x17, 0x80, 0x7f, 0x00, 0x00, 0x00, 0x00,
   0x00, 0x00, 0x00, 0x00, 0x00, 0x00, 0x00, 0x00, 0x00, 0x00, 0x00, 0x00};
