#define google24x24_width 24
#define google24x24_height 24
static unsigned char google24x24_bits[] = {
   0xff, 0xff, 0xff, 0xff, 0x41, 0xff, 0xff, 0x00, 0xff, 0x7f, 0x3e, 0xff,
   0x3f, 0x3e, 0xfe, 0x3f, 0x3e, 0xfe, 0x3f, 0x3e, 0xfe, 0x3f, 0x3e, 0xfe,
   0x7f, 0x3c, 0xfe, 0x7f, 0x3c, 0xff, 0xff, 0x80, 0xff, 0xff, 0xc7, 0xff,
   0xff, 0x8f, 0xff, 0xff, 0x8f, 0xff, 0xff, 0x0d, 0xfe, 0x7f, 0x3e, 0xfe,
   0xbf, 0xff, 0xfc, 0x9f, 0xff, 0xfc, 0x9f, 0xff, 0xfc, 0x9f, 0xff, 0xfe,
   0x1f, 0x7f, 0xfe, 0x3f, 0x1e, 0xff, 0xff, 0xe0, 0xff, 0xff, 0xff, 0xff};
