#define headphone_width 24
#define headphone_height 24
static unsigned char headphone_bits[] = {
   0x00, 0x00, 0x00, 0x00, 0x00, 0x00, 0x00, 0x00, 0x00, 0x80, 0xff, 0x01,
   0xc0, 0xff, 0x03, 0xe0, 0xff, 0x07, 0xf0, 0x00, 0x0f, 0x38, 0x00, 0x1c,
   0x3c, 0x00, 0x38, 0x1c, 0x00, 0x38, 0x0e, 0x00, 0x70, 0x0e, 0x00, 0x70,
   0x06, 0x00, 0x60, 0xe6, 0x00, 0x67, 0xe6, 0x00, 0x67, 0xfe, 0x00, 0x7f,
   0xfe, 0x00, 0x7f, 0xfe, 0x00, 0x7f, 0xfe, 0x00, 0x7f, 0xf8, 0x00, 0x7f,
   0xf8, 0x00, 0x1f, 0xe0, 0x00, 0x07, 0xe0, 0x00, 0x07, 0x00, 0x00, 0x00};
