#define icons24x24_width 24
#define icons24x24_height 24
static unsigned char icons24x24_bits[] = {
   0xff, 0xff, 0xff, 0x01, 0x00, 0x80, 0x01, 0x7f, 0x80, 0xc1, 0xc1, 0x81,
   0x61, 0x00, 0x87, 0x11, 0x00, 0x8e, 0x19, 0x1c, 0x8e, 0x09, 0x1c, 0x9c,
   0x09, 0x00, 0x9c, 0x05, 0x1c, 0xb8, 0x05, 0x1c, 0xb8, 0x05, 0x1c, 0xb8,
   0x05, 0x1c, 0xb8, 0x05, 0x1c, 0xb8, 0x09, 0x1c, 0x9c, 0x09, 0x1c, 0x9c,
   0x11, 0x1c, 0x8e, 0x11, 0x1c, 0x8e, 0x61, 0x00, 0x87, 0xc1, 0xc1, 0x81,
   0x01, 0x7f, 0x80, 0x01, 0x00, 0x80, 0xff, 0xff, 0xff, 0x00, 0x00, 0x00};
