#define internet_width 24
#define internet_height 24
static unsigned char internet_bits[] = {
   0x00, 0x00, 0x00, 0x00, 0x00, 0x00, 0xfe, 0xff, 0x3f, 0xfe, 0x88, 0x3f,
   0xfe, 0xff, 0x3f, 0x8e, 0x88, 0x38, 0xfe, 0xbe, 0x3f, 0xc6, 0x88, 0x31,
   0xc6, 0xff, 0x31, 0xfe, 0x88, 0x3f, 0x82, 0xff, 0x20, 0x82, 0x80, 0x20,
   0xfe, 0x80, 0x3f, 0xe2, 0xff, 0x31, 0x22, 0x0c, 0x31, 0x22, 0x0c, 0x31,
   0xfe, 0xff, 0x3f, 0x8e, 0xe1, 0x38, 0x8e, 0xff, 0x38, 0xfe, 0x88, 0x3f,
   0xfe, 0x88, 0x3f, 0xfe, 0xff, 0x3f, 0x00, 0x00, 0x00, 0x00, 0x00, 0x00};
