#define keyboard_width 24
#define keyboard_height 24
static unsigned char keyboard_bits[] = {
   0x00, 0x00, 0x00, 0x00, 0x00, 0x00, 0x00, 0x00, 0x00, 0x00, 0x00, 0x00,
   0x00, 0x00, 0x00, 0x00, 0x00, 0x00, 0xfe, 0xff, 0x7f, 0xff, 0xff, 0xff,
   0x93, 0x24, 0xc9, 0x93, 0x24, 0xc9, 0xff, 0xff, 0xff, 0x83, 0x24, 0xc1,
   0x83, 0x24, 0xc1, 0xff, 0xff, 0xff, 0x23, 0x46, 0xc4, 0x23, 0x46, 0xc4,
   0xff, 0xff, 0xff, 0xfe, 0xff, 0x7f, 0x00, 0x00, 0x00, 0x00, 0x00, 0x00,
   0x00, 0x00, 0x00, 0x00, 0x00, 0x00, 0x00, 0x00, 0x00, 0x00, 0x00, 0x00};
