#define layout_width 24
#define layout_height 24
static unsigned char layout_bits[] = {
   0x02, 0x00, 0x00, 0x06, 0x00, 0x00, 0x0e, 0x00, 0x00, 0x1e, 0x00, 0x00,
   0x2e, 0x00, 0x00, 0x5e, 0x00, 0x00, 0xae, 0x00, 0x00, 0x5e, 0x01, 0x00,
   0xbe, 0x02, 0x00, 0x7e, 0x05, 0x00, 0xee, 0x0a, 0x00, 0xce, 0x15, 0x00,
   0x8e, 0x2b, 0x00, 0x0e, 0x57, 0x00, 0x0e, 0xae, 0x00, 0x0e, 0x5c, 0x01,
   0x0e, 0xb8, 0x02, 0x0e, 0x70, 0x05, 0x0e, 0xe0, 0x0a, 0x0e, 0xc0, 0x15,
   0xfe, 0xff, 0x3f, 0xfe, 0xff, 0x7f, 0xfe, 0xff, 0xff, 0x00, 0x00, 0x00};
