#define main24x24_width 24
#define main24x24_height 24
static unsigned char main24x24_bits[] = {
   0x40, 0x80, 0x80, 0x00, 0x80, 0x80, 0x4a, 0x81, 0x80, 0x4a, 0xb7, 0xea,
   0x5f, 0x95, 0xaa, 0x4a, 0x95, 0xaa, 0x5f, 0x95, 0xaa, 0x4a, 0x95, 0xaa,
   0x4a, 0xb5, 0xee, 0x00, 0x00, 0x00, 0x00, 0x00, 0x00, 0x00, 0x00, 0x00,
   0xff, 0xff, 0xff, 0x00, 0x00, 0x00, 0xff, 0xff, 0xff, 0x00, 0x00, 0x00,
   0x00, 0x00, 0x00, 0xff, 0xff, 0xff, 0x00, 0x00, 0x00, 0xaa, 0xaa, 0xaa,
   0x00, 0x00, 0x00, 0x55, 0x55, 0x55, 0x00, 0x00, 0x00, 0xaa, 0xaa, 0xaa};
