#define menus24x24_width 24
#define menus24x24_height 24
static unsigned char menus24x24_bits[] = {
   0x00, 0x00, 0x00, 0x00, 0x00, 0x00, 0x00, 0x00, 0x00, 0xf8, 0xff, 0x03,
   0xf8, 0xff, 0x03, 0x18, 0x00, 0x0f, 0xd8, 0x7f, 0x0f, 0x58, 0x40, 0x0f,
   0x58, 0x40, 0x0f, 0x58, 0x5f, 0x0f, 0x58, 0x40, 0x0f, 0x58, 0x40, 0x0f,
   0x58, 0x5f, 0x0f, 0x58, 0x40, 0x0f, 0x58, 0x40, 0x0f, 0xd8, 0x7f, 0x0f,
   0x18, 0x00, 0x0f, 0xf8, 0xff, 0x0f, 0xe0, 0xff, 0x0f, 0xe0, 0xff, 0x0f,
   0x00, 0x00, 0x00, 0x00, 0x00, 0x00, 0x00, 0x00, 0x00, 0x00, 0x00, 0x00};
