#define mozicon24x24_width 24
#define mozicon24x24_height 24
static unsigned char mozicon24x24_bits[] = {
   0xff, 0x1f, 0xff, 0xff, 0x1f, 0xff, 0xff, 0x0f, 0xf8, 0x7f, 0x00, 0xc0,
   0x1f, 0x80, 0xc0, 0x1f, 0x00, 0xc2, 0x4f, 0x00, 0xe0, 0x4f, 0x18, 0xf8,
   0xc7, 0xa0, 0xf0, 0x03, 0x5e, 0xf4, 0x83, 0xfc, 0xe5, 0xc9, 0x39, 0xec,
   0xf1, 0xa3, 0xef, 0xf3, 0x81, 0xf6, 0xfd, 0xe1, 0xef, 0xfd, 0xc0, 0xef,
   0x3b, 0xe0, 0xef, 0x13, 0xe0, 0xe6, 0x47, 0x00, 0xf3, 0x2f, 0x80, 0xfb,
   0x9f, 0x12, 0xfc, 0xbf, 0x00, 0xfe, 0x7f, 0x10, 0xff, 0xff, 0xff, 0xff};
