#define network_width 24
#define network_height 24
static unsigned char network_bits[] = {
   0x00, 0x00, 0x00, 0x00, 0x00, 0x00, 0x00, 0x00, 0x00, 0x00, 0x00, 0x1c,
   0x00, 0x00, 0x1c, 0x00, 0x00, 0x1c, 0x00, 0xc0, 0x1d, 0x00, 0xc0, 0x1d,
   0x00, 0xc0, 0x1d, 0x00, 0xdc, 0x1d, 0x00, 0xdc, 0x1d, 0x00, 0xdc, 0x1d,
   0xc0, 0xdd, 0x1d, 0xc0, 0xdd, 0x1d, 0xc0, 0xdd, 0x1d, 0xdc, 0xdd, 0x1d,
   0xdc, 0xdd, 0x1d, 0xdc, 0xdd, 0x1d, 0xdc, 0xdd, 0x1d, 0x00, 0x00, 0x00,
   0x00, 0x00, 0x00, 0x00, 0x00, 0x00, 0x00, 0x00, 0x00, 0x00, 0x00, 0x00};
