#define news_width 24
#define news_height 24
static unsigned char news_bits[] = {
   0xff, 0xff, 0xff, 0xff, 0xff, 0xff, 0x03, 0x00, 0xf0, 0x01, 0x00, 0xe0,
   0x00, 0x00, 0xc0, 0xf8, 0xff, 0x03, 0x0c, 0x04, 0x06, 0x0c, 0x04, 0x06,
   0x0c, 0x04, 0x06, 0x0c, 0xfc, 0x07, 0x0c, 0x04, 0x06, 0x0c, 0x04, 0x06,
   0x0c, 0x04, 0x06, 0xfc, 0xff, 0x07, 0xfc, 0xff, 0x87, 0x04, 0x00, 0x84,
   0x04, 0x00, 0x84, 0xfc, 0xff, 0x87, 0xf8, 0xff, 0xc3, 0x00, 0x00, 0xc0,
   0x01, 0x00, 0xe0, 0x03, 0x00, 0xf0, 0xff, 0xff, 0xff, 0xff, 0xff, 0xff};
