#define pdf_width 24
#define pdf_height 24
static unsigned char pdf_bits[] = {
   0xc0, 0xff, 0x0f, 0x20, 0x00, 0x14, 0x20, 0x00, 0x24, 0x20, 0x00, 0x44,
   0x20, 0x00, 0x84, 0x20, 0x00, 0xfc, 0x20, 0x00, 0x80, 0x20, 0x00, 0x80,
   0xfe, 0xff, 0x9f, 0xff, 0xff, 0xbf, 0xc7, 0x71, 0xbc, 0xb7, 0x6d, 0xbf,
   0xb7, 0x6d, 0xbe, 0xc7, 0x6d, 0xbf, 0xf7, 0x71, 0xbf, 0xff, 0xff, 0xbf,
   0xfe, 0xff, 0x9f, 0x00, 0x00, 0x80, 0x00, 0x00, 0x80, 0x20, 0x00, 0x80,
   0x20, 0x00, 0x80, 0x20, 0x00, 0x80, 0x20, 0x00, 0x80, 0xc0, 0xff, 0x7f};
