#define htop24x24_width 24
#define htop24x24_height 24
static unsigned char htop24x24_bits[] = {
   0x00, 0x00, 0x00, 0x00, 0x00, 0x00, 0x00, 0x00, 0x00, 0x00, 0x00, 0x00,
   0x00, 0x00, 0x00, 0x78, 0x77, 0x0f, 0x18, 0x77, 0x0c, 0x18, 0x00, 0x0c,
   0x78, 0x77, 0x0f, 0x00, 0x77, 0x00, 0x78, 0x5d, 0x0f, 0x18, 0x55, 0x0c,
   0x18, 0x55, 0x0c, 0x78, 0x5d, 0x0f, 0x00, 0x77, 0x00, 0x78, 0x77, 0x0f,
   0x18, 0x00, 0x0c, 0x18, 0x77, 0x0c, 0x78, 0x77, 0x0f, 0x00, 0x00, 0x00,
   0x00, 0x00, 0x00, 0x00, 0x00, 0x00, 0x00, 0x00, 0x00, 0x00, 0x00, 0x00};
