#define ranger24x24_width 24
#define ranger24x24_height 24
static unsigned char ranger24x24_bits[] = {
   0x00, 0xff, 0x00, 0x00, 0xc3, 0x00, 0xc0, 0xdb, 0x03, 0xc0, 0xdb, 0x03,
   0x20, 0x18, 0x04, 0x20, 0x00, 0x04, 0x20, 0x18, 0x04, 0x20, 0x00, 0x04,
   0xff, 0xff, 0xff, 0xff, 0xff, 0xff, 0xff, 0xff, 0xff, 0xff, 0xff, 0xff,
   0x10, 0xc3, 0x08, 0x10, 0xc3, 0x08, 0x10, 0xc3, 0x08, 0x10, 0xc3, 0x08,
   0x10, 0x00, 0x08, 0x10, 0x00, 0x08, 0xe0, 0xff, 0x07, 0xe0, 0xff, 0x07,
   0xc0, 0xe7, 0x03, 0x80, 0xff, 0x01, 0x00, 0xff, 0x00, 0x00, 0x7e, 0x00};
