#define search_width 24
#define search_height 24
static unsigned char search_bits[] = {
   0x00, 0x00, 0x00, 0x00, 0x00, 0x00, 0xf0, 0x07, 0x00, 0x08, 0x08, 0x00,
   0x04, 0x10, 0x00, 0x04, 0x10, 0x00, 0x04, 0x10, 0x00, 0x04, 0x10, 0x00,
   0x04, 0x10, 0x00, 0x04, 0x10, 0x00, 0x04, 0x10, 0x00, 0x08, 0x08, 0x00,
   0xf0, 0x17, 0x00, 0x00, 0x20, 0x00, 0x00, 0x40, 0x00, 0x00, 0x80, 0x00,
   0x00, 0x00, 0x01, 0x00, 0x00, 0x02, 0x00, 0x00, 0x04, 0x00, 0x00, 0x08,
   0x00, 0x00, 0x10, 0x00, 0x00, 0x00, 0x00, 0x00, 0x00, 0x00, 0x00, 0x00};
