#define speaker_width 24
#define speaker_height 24
static unsigned char speaker_bits[] = {
   0x00, 0x00, 0x00, 0x00, 0x00, 0x00, 0x00, 0x18, 0x00, 0x00, 0x18, 0x00,
   0x00, 0x18, 0x0c, 0xe0, 0x19, 0x0e, 0xf0, 0x03, 0x07, 0x30, 0x06, 0x03,
   0x30, 0x08, 0x00, 0x30, 0x10, 0x00, 0x70, 0x20, 0x00, 0x70, 0x4e, 0x3c,
   0xf0, 0x9e, 0x3c, 0xf0, 0x1d, 0x01, 0xec, 0x1b, 0x03, 0xec, 0x07, 0x06,
   0xdc, 0x0f, 0x06, 0x9c, 0x3f, 0x06, 0x78, 0xff, 0x07, 0xf8, 0xfc, 0x03,
   0xf0, 0x03, 0x00, 0xc0, 0x03, 0x00, 0x00, 0x00, 0x00, 0x00, 0x00, 0x00};
