#define spreadsheet24x24_width 24
#define spreadsheet24x24_height 24
static unsigned char spreadsheet24x24_bits[] = {
   0x00, 0x00, 0x00, 0x00, 0x00, 0x00, 0x00, 0x00, 0x00, 0x00, 0x00, 0x00,
   0xf8, 0xff, 0x1f, 0x78, 0xff, 0x1f, 0x78, 0xff, 0x1f, 0x08, 0xff, 0x1f,
   0xf8, 0x11, 0x11, 0xf8, 0x11, 0x11, 0x88, 0xff, 0x1f, 0xf8, 0x11, 0x11,
   0xf8, 0x11, 0x11, 0x88, 0xff, 0x1f, 0xf8, 0x11, 0x11, 0xf8, 0x11, 0x11,
   0x88, 0xff, 0x1f, 0xf8, 0x11, 0x11, 0xf8, 0x11, 0x11, 0xf8, 0xff, 0x1f,
   0x00, 0x00, 0x00, 0x00, 0x00, 0x00, 0x00, 0x00, 0x00, 0x00, 0x00, 0x00};
