#define taskman_width 24
#define taskman_height 24
static unsigned char taskman_bits[] = {
   0x00, 0x00, 0x00, 0x00, 0x00, 0x00, 0x00, 0x00, 0x00, 0x00, 0x00, 0x00,
   0xc0, 0x01, 0x00, 0xc0, 0x01, 0x00, 0xc0, 0xc1, 0x01, 0xdc, 0xc1, 0x01,
   0xdc, 0xc1, 0x01, 0xdc, 0xdd, 0x01, 0xdc, 0xdd, 0x01, 0xdc, 0xdd, 0x01,
   0xdc, 0xdd, 0x1d, 0xdc, 0xdd, 0x1d, 0xdc, 0xdd, 0x1d, 0xdc, 0xdd, 0x1d,
   0xdc, 0xdd, 0x1d, 0xdc, 0xdd, 0x1d, 0xdc, 0xdd, 0x1d, 0xdc, 0xdd, 0x1d,
   0x00, 0x00, 0x00, 0x00, 0x00, 0x00, 0x00, 0x00, 0x00, 0x00, 0x00, 0x00};
