#define terminator24x24_width 24
#define terminator24x24_height 24
static unsigned char terminator24x24_bits[] = {
   0x00, 0x40, 0xff, 0x00, 0x40, 0xff, 0x01, 0x00, 0xff, 0x04, 0xa0, 0xff,
   0x00, 0x00, 0x00, 0x05, 0x00, 0x00, 0x05, 0x00, 0x30, 0x04, 0x00, 0x30,
   0x04, 0x00, 0x38, 0x04, 0x00, 0xf0, 0x00, 0x40, 0x25, 0x01, 0x00, 0x1e,
   0x00, 0x00, 0xfe, 0x00, 0x00, 0x80, 0x05, 0x00, 0x42, 0x01, 0x00, 0x42,
   0x00, 0x00, 0x74, 0x00, 0x00, 0x28, 0x04, 0x00, 0x00, 0x20, 0x00, 0x00,
   0x04, 0x00, 0x00, 0x08, 0x00, 0x28, 0xf0, 0x00, 0x20, 0xf8, 0x00, 0x20};
