#define terminal24x24_width 24
#define terminal24x24_height 24
static unsigned char terminal24x24_bits[] = {
   0x00, 0x00, 0x00, 0xf8, 0xff, 0x1f, 0x04, 0x00, 0x20, 0x02, 0x00, 0x40,
   0x02, 0x01, 0x40, 0x82, 0x01, 0x40, 0xc2, 0x00, 0x40, 0x62, 0x00, 0x40,
   0x32, 0x00, 0x40, 0x62, 0x00, 0x40, 0xc2, 0x00, 0x40, 0x82, 0x01, 0x40,
   0x02, 0x01, 0x40, 0x02, 0x00, 0x40, 0x02, 0x00, 0x40, 0x02, 0x00, 0x40,
   0xf2, 0x03, 0x40, 0xf2, 0x03, 0x40, 0x02, 0x00, 0x40, 0x02, 0x00, 0x40,
   0x02, 0x00, 0x40, 0x04, 0x00, 0x20, 0xf8, 0xff, 0x1f, 0x00, 0x00, 0x00};
