#define theme24x24_width 24
#define theme24x24_height 24
static unsigned char theme24x24_bits[] = {
   0x00, 0x00, 0xf8, 0x00, 0x00, 0x04, 0x00, 0x00, 0x02, 0x00, 0x1f, 0x01,
   0x80, 0xa0, 0x00, 0x40, 0xc0, 0x0f, 0x20, 0x80, 0x00, 0xe0, 0x81, 0x07,
   0x20, 0x80, 0x00, 0xe0, 0x80, 0x01, 0x20, 0x80, 0x02, 0x40, 0xc0, 0x0f,
   0xb8, 0x60, 0xf8, 0x44, 0x3f, 0x20, 0x82, 0x10, 0x40, 0x01, 0xf1, 0x40,
   0x0f, 0x11, 0x40, 0x01, 0x71, 0x40, 0x82, 0x10, 0x40, 0x44, 0x20, 0x20,
   0x38, 0x40, 0x10, 0x00, 0x80, 0x0f, 0x00, 0x00, 0x00, 0x00, 0x00, 0x00};
