#define vol24x24_width 24
#define vol24x24_height 24
static unsigned char vol24x24_bits[] = {
   0x00, 0x00, 0x00, 0x00, 0x00, 0x00, 0x00, 0x00, 0x00, 0x00, 0x00, 0x00,
   0x00, 0x00, 0x08, 0x00, 0x04, 0x08, 0x00, 0x06, 0x09, 0x00, 0x07, 0x09,
   0x80, 0x27, 0x09, 0xf0, 0x27, 0x09, 0xf0, 0x27, 0x09, 0xf0, 0x27, 0x09,
   0xf0, 0x27, 0x09, 0xf0, 0x27, 0x09, 0x80, 0x27, 0x09, 0x00, 0x07, 0x09,
   0x00, 0x06, 0x09, 0x00, 0x04, 0x08, 0x00, 0x00, 0x08, 0x00, 0x00, 0x08,
   0x00, 0x00, 0x00, 0x00, 0x00, 0x00, 0x00, 0x00, 0x00, 0x00, 0x00, 0x00};
