#define wifi_width 24
#define wifi_height 24
static unsigned char wifi_bits[] = {
   0x00, 0x00, 0x00, 0x00, 0x00, 0x00, 0x00, 0x00, 0x00, 0xe0, 0xff, 0x07,
   0xf8, 0xff, 0x1f, 0xfc, 0xff, 0x3f, 0xfe, 0xff, 0x7f, 0x3f, 0x00, 0xfc,
   0x0f, 0xff, 0xf0, 0xc7, 0xff, 0xe3, 0xe7, 0xff, 0xe7, 0xf0, 0xff, 0x0f,
   0xf0, 0x81, 0x0f, 0x70, 0x7e, 0x0e, 0x80, 0xff, 0x01, 0x80, 0xff, 0x01,
   0x80, 0xff, 0x01, 0x00, 0xff, 0x00, 0x00, 0x3c, 0x00, 0x00, 0x3c, 0x00,
   0x00, 0x3c, 0x00, 0x00, 0x18, 0x00, 0x00, 0x00, 0x00, 0x00, 0x00, 0x00};
