#define zathura24x24_width 24
#define zathura24x24_height 24
static unsigned char zathura24x24_bits[] = {
   0x00, 0x00, 0x00, 0xf8, 0x00, 0x00, 0xf8, 0x00, 0x00, 0xf8, 0xff, 0x03,
   0x08, 0x00, 0x06, 0x08, 0x00, 0x08, 0x08, 0x00, 0x10, 0x08, 0x00, 0x10,
   0x08, 0x66, 0x10, 0x08, 0x66, 0x10, 0x88, 0xff, 0x11, 0x88, 0xff, 0x11,
   0x08, 0x66, 0x10, 0x08, 0x66, 0x10, 0x88, 0xff, 0x11, 0x88, 0xff, 0x11,
   0x08, 0x66, 0x10, 0x08, 0x66, 0x10, 0x08, 0x00, 0x10, 0x08, 0x00, 0x10,
   0x08, 0x00, 0x10, 0xf8, 0xff, 0x1f, 0xf8, 0xff, 0x1f, 0x00, 0x00, 0x00};
